<svg width="154" height="81" viewBox="0 0 154 81" fill="none" xmlns="http://www.w3.org/2000/svg">
<g filter="url(#filter0_d_9759_22234)">
<path d="M35.1786 40.2461L33.0884 42.3345L31 40.2461L33.0884 38.1577L35.1786 40.2461ZM40.2461 35.175L43.8249 38.7556L45.9133 36.6672L40.2461 31L34.5788 36.6672L36.6672 38.7556L40.2461 35.175ZM47.4055 38.1577L45.3171 40.2461L47.4055 42.3345L49.4921 40.2461L47.4055 38.1577ZM40.2461 45.3171L36.6672 41.7383L34.5788 43.8249L40.2461 49.4921L45.9133 43.8249L43.8249 41.7383L40.2461 45.3171ZM40.2461 42.3345L42.3345 40.2461L40.2461 38.1577L38.1577 40.2461L40.2461 42.3345ZM62.2863 42.535V42.5061C62.2863 41.1439 61.5637 40.4629 60.3876 40.0148C61.1102 39.6083 61.7209 38.9706 61.7209 37.8271V37.7982C61.7209 36.2048 60.4454 35.175 58.3733 35.175H53.6689V45.3171H58.4925C60.7814 45.3171 62.2899 44.3904 62.2899 42.535H62.2863ZM59.5042 38.1992C59.5042 38.9526 58.8809 39.2723 57.8963 39.2723H55.8423V37.1315H58.0445C58.9857 37.1315 59.5078 37.5073 59.5078 38.1739L59.5042 38.1992ZM60.0697 42.2568C60.0697 43.0101 59.4753 43.357 58.4889 43.357H55.8423V41.1295H58.4202C59.5656 41.1295 60.0733 41.5504 60.0733 42.2315L60.0697 42.2568ZM66.9744 45.3171V35.175H64.736V45.3171H66.9744ZM78.9683 45.3171V35.175H76.7588V41.4203L72.0075 35.175H69.9498V45.3171H72.1521V38.8695L77.0623 45.3171H78.9683ZM91.3271 45.3171L86.9732 35.1027H84.9155L80.5707 45.3171H82.8452L83.7756 43.0427H88.0644L88.9912 45.3171H91.3271ZM87.2713 41.0717H84.5687L85.9164 37.7837L87.2713 41.0717ZM101.962 45.3171V35.175H99.753V41.4203L94.9998 35.175H92.944V45.3171H95.1444V38.8695L100.056 45.3171H101.962ZM113.479 43.6804L112.061 42.2459C111.264 42.9686 110.554 43.4329 109.395 43.4329C107.657 43.4329 106.454 41.9876 106.454 40.2461V40.2172C106.454 38.4792 107.686 37.0593 109.395 37.0593C110.408 37.0593 111.201 37.4928 111.989 38.2028L113.403 36.5661C112.462 35.6393 111.319 35.0016 109.406 35.0016C106.291 35.0016 104.118 37.3628 104.118 40.2406V40.2696C104.118 43.1818 106.334 45.4851 109.319 45.4851C111.272 45.4906 112.43 44.795 113.472 43.6804H113.479ZM123 45.3171V43.3299H117.486V41.1963H122.268V39.2091H117.486V37.1604H122.921V35.1732H115.27V45.3153L123 45.3171Z" fill="#28EAE9"/>
</g>
<defs>
<filter id="filter0_d_9759_22234" x="0" y="0" width="154" height="80.4922" filterUnits="userSpaceOnUse" color-interpolation-filters="sRGB">
<feFlood flood-opacity="0" result="BackgroundImageFix"/>
<feColorMatrix in="SourceAlpha" type="matrix" values="0 0 0 0 0 0 0 0 0 0 0 0 0 0 0 0 0 0 127 0" result="hardAlpha"/>
<feOffset/>
<feGaussianBlur stdDeviation="15.5"/>
<feComposite in2="hardAlpha" operator="out"/>
<feColorMatrix type="matrix" values="0 0 0 0 0.156863 0 0 0 0 0.917647 0 0 0 0 0.913725 0 0 0 0.6 0"/>
<feBlend mode="normal" in2="BackgroundImageFix" result="effect1_dropShadow_9759_22234"/>
<feBlend mode="normal" in="SourceGraphic" in2="effect1_dropShadow_9759_22234" result="shape"/>
</filter>
</defs>
</svg>
