<svg width="153" height="78" viewBox="0 0 153 78" fill="none" xmlns="http://www.w3.org/2000/svg">
<g filter="url(#filter0_d_9759_22207)">
<path d="M49.6574 35.4669C46.4036 35.4669 43.8612 37.9369 43.8612 41.2436C43.8612 44.5503 46.3394 46.9992 49.6574 46.9992C52.9755 46.9992 55.4967 44.508 55.4967 41.2225C55.4967 37.9581 53.0186 35.4669 49.6574 35.4669ZM49.6786 44.6153C47.8256 44.6153 46.4678 43.1762 46.4678 41.2436C46.4678 39.289 47.8037 37.8508 49.6566 37.8508C51.5315 37.8508 52.8885 39.311 52.8885 41.2436C52.8885 43.1762 51.5315 44.6153 49.6786 44.6153ZM56.2073 37.9792H57.8237V46.7845H60.4092V35.6815H56.2073V37.9792ZM37.3544 37.8508C38.7121 37.8508 39.7894 38.6882 40.1984 39.9338H42.9351C42.4392 37.271 40.2415 35.4669 37.3763 35.4669C34.1225 35.4669 31.5801 37.9369 31.5801 41.2436C31.5801 44.5503 34.0583 46.9992 37.3763 46.9992C40.1773 46.9992 42.418 45.195 42.914 42.5103H40.1992C39.8114 43.7559 38.7341 44.6153 37.3763 44.6153C35.5014 44.6153 34.1875 43.1762 34.1875 41.2436C34.1867 39.2899 35.4795 37.8508 37.3544 37.8508ZM105.333 40.1704L103.437 39.8915C102.532 39.763 101.886 39.4622 101.886 38.7532C101.886 37.98 102.727 37.5938 103.868 37.5938C105.118 37.5938 105.916 38.1304 106.088 39.011H108.587C108.307 36.7775 106.583 35.4677 103.933 35.4677C101.197 35.4677 99.3868 36.8637 99.3868 38.8394C99.3868 40.7289 100.572 41.8249 102.963 42.168L104.859 42.4469C105.786 42.5754 106.303 42.9413 106.303 43.6283C106.303 44.5088 105.398 44.8739 104.149 44.8739C102.619 44.8739 101.757 44.2511 101.628 43.3063H99.0851C99.3225 45.4755 101.024 47 104.127 47C106.95 47 108.824 45.7113 108.824 43.499C108.824 41.5233 107.466 40.4924 105.333 40.1704ZM59.1164 31.1073C58.1684 31.1073 57.457 31.7943 57.457 32.7391C57.457 33.6839 58.1676 34.3709 59.1164 34.3709C60.0645 34.3709 60.7759 33.6839 60.7759 32.7391C60.7751 31.7943 60.0645 31.1073 59.1164 31.1073ZM97.0598 39.4825C97.0598 37.0775 95.5947 35.4669 92.4921 35.4669C89.5619 35.4669 87.9244 36.9491 87.6008 39.2256H90.1652C90.2944 38.3451 90.9839 37.615 92.449 37.615C93.7637 37.615 94.4101 38.1947 94.4101 38.9037C94.4101 39.8273 93.2247 40.0631 91.7596 40.2135C89.7773 40.4281 87.3211 41.1151 87.3211 43.6925C87.3211 45.6902 88.8082 46.978 91.1782 46.978C93.0312 46.978 94.1946 46.2048 94.7768 44.9804C94.863 46.0756 95.6817 46.7845 96.824 46.7845H98.3323V44.4869H97.0606V39.4825H97.0598ZM94.5166 42.2746C94.5166 43.7567 93.2239 44.8519 91.6506 44.8519C90.6806 44.8519 89.8619 44.4438 89.8619 43.5852C89.8619 42.49 91.1766 42.1892 92.3832 42.0607C93.5466 41.9534 94.193 41.6957 94.5166 41.2013V42.2746ZM80.7915 35.4669C79.3475 35.4669 78.141 36.0686 77.2791 37.0775V31H74.6937V46.7854H77.2361V45.3251C78.0979 46.3772 79.3264 47 80.7915 47C83.8941 47 86.243 44.5519 86.243 41.2444C86.243 37.9369 83.8518 35.4669 80.7915 35.4669ZM80.4037 44.6153C78.5508 44.6153 77.193 43.1762 77.193 41.2436C77.193 39.311 78.5719 37.8508 80.4248 37.8508C82.2997 37.8508 83.6136 39.2899 83.6136 41.2436C83.6144 43.177 82.2566 44.6153 80.4037 44.6153ZM68.5104 35.4669C66.8298 35.4669 65.7306 36.1539 65.0842 37.1206V35.6815H62.5199V46.7845H65.1054V40.7501C65.1054 39.0533 66.1827 37.8508 67.777 37.8508C69.2641 37.8508 70.1902 38.9028 70.1902 40.4281V46.7854H72.7757V40.2354C72.7765 37.4426 71.3333 35.4669 68.5104 35.4669ZM121.148 40.8786C121.148 37.7003 118.821 35.4669 115.697 35.4669C112.378 35.4669 109.943 37.9581 109.943 41.2436C109.943 44.7015 112.551 46.9992 115.74 46.9992C118.433 46.9992 120.545 45.4097 121.083 43.1551H118.389C118.002 44.1429 117.054 44.7015 115.782 44.7015C114.122 44.7015 112.873 43.6706 112.593 41.8664H121.147V40.8786H121.148ZM112.745 40.02C113.155 38.4735 114.318 37.7223 115.654 37.7223C117.119 37.7223 118.24 38.5597 118.498 40.02H112.745Z" fill="#28EAE9"/>
</g>
<defs>
<filter id="filter0_d_9759_22207" x="0.580078" y="0" width="151.568" height="78" filterUnits="userSpaceOnUse" color-interpolation-filters="sRGB">
<feFlood flood-opacity="0" result="BackgroundImageFix"/>
<feColorMatrix in="SourceAlpha" type="matrix" values="0 0 0 0 0 0 0 0 0 0 0 0 0 0 0 0 0 0 127 0" result="hardAlpha"/>
<feOffset/>
<feGaussianBlur stdDeviation="15.5"/>
<feComposite in2="hardAlpha" operator="out"/>
<feColorMatrix type="matrix" values="0 0 0 0 0.156863 0 0 0 0 0.917647 0 0 0 0 0.913725 0 0 0 0.6 0"/>
<feBlend mode="normal" in2="BackgroundImageFix" result="effect1_dropShadow_9759_22207"/>
<feBlend mode="normal" in="SourceGraphic" in2="effect1_dropShadow_9759_22207" result="shape"/>
</filter>
</defs>
</svg>
