<svg width="188" height="188" viewBox="0 0 188 188" fill="none" xmlns="http://www.w3.org/2000/svg">
<g filter="url(#filter0_d_9809_19916)">
<path d="M93.9414 144.021C121.666 144.021 144.141 121.547 144.141 93.8223C144.141 66.098 121.666 43.623 93.9414 43.623C66.2171 43.623 43.7422 66.098 43.7422 93.8223C43.7422 121.547 66.2171 144.021 93.9414 144.021Z" stroke="url(#paint0_radial_9809_19916)" stroke-width="24"/>
</g>
<g filter="url(#filter1_d_9809_19916)">
<path d="M82.1094 87.052C78.147 85.5355 75.767 83.1481 75.0926 81.6227C75.0082 81.4319 74.966 81.3365 74.9322 81.342C74.8983 81.3476 74.8888 81.4491 74.87 81.6515C73.7594 93.5673 87.1393 103.3 90.5223 106.682C92.9041 109.064 94.5776 112.613 95.1695 114.641C95.2006 114.746 95.2161 114.799 95.2477 114.801C95.2793 114.802 95.2998 114.75 95.3414 114.647C99.6919 103.819 97.3832 96.7124 95.1961 94.2185C92.9108 91.9338 88.3773 89.4516 82.1094 87.052Z" fill="#28EAE9"/>
<path d="M95.123 88.1043C96.9651 88.1043 98.4583 86.611 98.4583 84.7689C98.4583 82.9268 96.9651 81.4336 95.123 81.4336C93.2803 81.4336 91.7871 82.9268 91.7871 84.7689C91.7871 86.611 93.2803 88.1043 95.123 88.1043Z" fill="url(#paint1_linear_9809_19916)" fill-opacity="0.9"/>
<path d="M108.363 87.307C112.326 85.8027 114.706 83.4353 115.38 81.9227C115.464 81.7335 115.506 81.6392 115.54 81.6448C115.574 81.6503 115.583 81.7507 115.603 81.9515C116.754 93.7575 104.775 103.078 100.57 106.53C97.9859 108.651 95.8892 112.638 95.3101 114.695C95.2785 114.808 95.2624 114.864 95.2302 114.866C95.198 114.868 95.1769 114.812 95.1342 114.7C91.0101 103.904 93.1529 96.7245 95.3134 94.2611C97.5982 91.9958 102.095 89.6861 108.363 87.307Z" fill="#1260CC"/>
<path d="M95.2402 94.3125C97.0418 97.1508 99.564 105.7 95.2402 115.119C93.2905 110.701 90.5603 99.9398 95.2402 94.3125Z" fill="#53F549"/>
</g>
<path d="M75.769 137.303L77.726 137.92L79.4355 143.908L80.9989 138.953L82.9558 139.57L80.4212 147.604L78.4643 146.986L76.7619 140.975L75.1913 145.954L73.2344 145.336L75.769 137.303Z" fill="#0D4E4E"/>
<path d="M70.9502 134.61C71.6504 134.98 72.2081 135.482 72.6233 136.118C73.0314 136.75 73.2554 137.447 73.2955 138.21C73.3248 138.977 73.147 139.724 72.762 140.453C72.377 141.182 71.8616 141.746 71.2156 142.147C70.5625 142.544 69.86 142.751 69.1081 142.77C68.349 142.785 67.6194 142.608 66.9192 142.238C66.2189 141.868 65.6648 141.367 65.2567 140.735C64.8415 140.1 64.621 139.404 64.595 138.648C64.562 137.889 64.738 137.145 65.123 136.416C65.5079 135.688 66.0253 135.12 66.675 134.712C67.321 134.311 68.02 134.102 68.7719 134.083C69.5239 134.064 70.2499 134.24 70.9502 134.61ZM70.0756 136.265C69.4814 135.951 68.9029 135.898 68.3399 136.108C67.7699 136.313 67.3129 136.741 66.9691 137.392C66.6215 138.05 66.5252 138.668 66.6804 139.248C66.8248 139.831 67.194 140.28 67.7882 140.593C68.3894 140.911 68.9732 140.971 69.5395 140.772C70.0987 140.57 70.554 140.137 70.9053 139.472C71.2529 138.814 71.3545 138.194 71.2102 137.611C71.055 137.031 70.6768 136.582 70.0756 136.265Z" fill="#0D4E4E"/>
<path d="M61.6307 128.044L63.2535 129.3L62.7876 135.51L65.9677 131.4L67.5905 132.656L62.4349 139.318L60.812 138.062L61.2926 131.834L58.0979 135.962L56.4751 134.706L61.6307 128.044Z" fill="#0D4E4E"/>
<path d="M53.9958 127.013L55.2453 125.854L58.8355 129.726L57.5861 130.884L53.9958 127.013Z" fill="#0D4E4E"/>
<path d="M53.1775 124.637C52.4794 125.09 51.7605 125.342 51.021 125.392C50.2747 125.447 49.5764 125.304 48.9262 124.963C48.2649 124.619 47.7123 124.105 47.2683 123.42C46.7243 122.581 46.4801 121.719 46.5358 120.835C46.5914 119.95 46.9366 119.159 47.5713 118.461L48.7986 120.354C48.5947 120.687 48.5004 121.034 48.5157 121.396C48.5267 121.751 48.6388 122.093 48.8521 122.422C49.1959 122.952 49.6591 123.262 50.2415 123.352C50.824 123.441 51.424 123.286 52.0415 122.885C52.6591 122.485 53.0458 122.001 53.2017 121.432C53.3577 120.864 53.2637 120.315 52.9199 119.785C52.7066 119.456 52.4401 119.214 52.1203 119.059C51.7962 118.897 51.4408 118.841 51.054 118.892L49.8267 116.999C50.7225 116.704 51.5855 116.712 52.4159 117.022C53.2396 117.337 53.9234 117.913 54.4675 118.752C54.9114 119.437 55.1586 120.149 55.2091 120.889C55.2485 121.626 55.0943 122.322 54.7464 122.977C54.3985 123.631 53.8756 124.185 53.1775 124.637Z" fill="#0D4E4E"/>
<path d="M43.3245 115.651L47.9847 113.731C48.4507 113.539 48.7622 113.277 48.9193 112.944C49.0763 112.611 49.0634 112.222 48.8806 111.779C48.6978 111.335 48.4319 111.046 48.0829 110.913C47.7339 110.78 47.3264 110.81 46.8604 111.001L42.2002 112.921L41.4187 111.024L46.0678 109.109C46.7631 108.822 47.4121 108.728 48.0148 108.826C48.6175 108.924 49.1445 109.174 49.5957 109.576C50.044 109.971 50.3945 110.476 50.6474 111.09C50.9003 111.704 51.009 112.304 50.9733 112.889C50.9273 113.471 50.7217 114.001 50.3567 114.48C49.9843 114.962 49.4504 115.347 48.7551 115.633L44.106 117.548L43.3245 115.651Z" fill="#0D4E4E"/>
<path d="M48.3959 103.543C48.5341 104.144 48.5605 104.704 48.4751 105.224C48.3897 105.745 48.1891 106.193 47.8735 106.57C47.5561 106.938 47.1303 107.192 46.5959 107.332L46.106 105.203C46.4029 105.102 46.6125 104.943 46.7349 104.726C46.8496 104.511 46.8737 104.259 46.8073 103.971C46.7391 103.674 46.619 103.456 46.447 103.315C46.2672 103.175 46.0564 103.134 45.8148 103.189C45.6121 103.236 45.4606 103.345 45.3604 103.516C45.2583 103.679 45.1878 103.871 45.1487 104.094C45.1078 104.308 45.0749 104.612 45.0501 105.003C45.0085 105.571 44.9444 106.041 44.8578 106.414C44.7713 106.787 44.596 107.131 44.332 107.446C44.068 107.762 43.6787 107.979 43.1642 108.097C42.4001 108.273 41.74 108.133 41.1838 107.679C40.6198 107.226 40.2355 106.555 40.0309 105.666C39.8227 104.762 39.8732 103.982 40.1824 103.328C40.4838 102.676 41.0159 102.242 41.7787 102.025L42.2767 104.188C42.0152 104.265 41.8311 104.41 41.7242 104.624C41.6096 104.839 41.5846 105.087 41.6492 105.367C41.7048 105.609 41.8159 105.789 41.9826 105.906C42.1414 106.026 42.3417 106.058 42.5833 106.002C42.8484 105.941 43.0263 105.769 43.117 105.485C43.2077 105.201 43.2778 104.775 43.3273 104.205C43.3845 103.634 43.4573 103.166 43.5457 102.8C43.6322 102.428 43.8036 102.084 44.0598 101.771C44.316 101.457 44.6897 101.244 45.1809 101.131C45.6486 101.023 46.1013 101.046 46.539 101.2C46.9748 101.346 47.3578 101.619 47.688 102.019C48.0182 102.419 48.2542 102.927 48.3959 103.543Z" fill="#0D4E4E"/>
<path d="M38.7144 94.2073L40.3518 94.0597L40.5521 96.2827L47.3048 95.6742L47.4889 97.7179L40.7363 98.3264L40.9366 100.549L39.2993 100.697L38.7144 94.2073Z" fill="#0D4E4E"/>
<path d="M47.584 89.9629C47.5408 90.7537 47.3174 91.4706 46.9138 92.1135C46.5105 92.7485 45.9707 93.2438 45.2944 93.5995C44.6104 93.9467 43.8571 94.0979 43.0343 94.053C42.2115 94.0081 41.4831 93.776 40.849 93.3568C40.2153 92.9297 39.7326 92.3785 39.4009 91.7034C39.0697 91.0204 38.9256 90.2834 38.9688 89.4926C39.012 88.7018 39.2351 87.9889 39.6384 87.3539C40.042 86.711 40.5816 86.2196 41.2571 85.88C41.9331 85.5323 42.6824 85.3809 43.5052 85.4258C44.328 85.4707 45.0604 85.703 45.7025 86.1226C46.3366 86.5418 46.8195 87.0889 47.1512 87.764C47.4829 88.4391 47.6271 89.172 47.584 89.9629ZM45.7148 89.8608C45.7514 89.1898 45.5569 88.6424 45.1314 88.2186C44.7063 87.7868 44.1263 87.5508 43.3914 87.5107C42.6485 87.4702 42.0463 87.6416 41.5847 88.025C41.1155 88.4 40.8627 88.923 40.826 89.594C40.789 90.273 40.979 90.8282 41.3961 91.2595C41.8136 91.6829 42.3979 91.9151 43.1487 91.9561C43.8916 91.9966 44.4976 91.8294 44.9668 91.4544C45.4284 91.071 45.6777 90.5398 45.7148 89.8608Z" fill="#0D4E4E"/>
<path d="M40.4536 81.1206C40.6534 80.2554 40.9996 79.5389 41.492 78.9712C41.9844 78.4035 42.5829 78.0162 43.2875 77.8095C43.9861 77.5932 44.7408 77.5787 45.5514 77.7659C46.3543 77.9514 47.0261 78.2954 47.5668 78.798C48.1094 79.2928 48.4765 79.9072 48.6682 80.6412C48.8618 81.3674 48.8595 82.1592 48.6614 83.0166L47.9511 86.0917L39.7432 84.1956L40.4536 81.1206ZM46.9013 82.7455C47.0759 81.9894 47.0053 81.3532 46.6894 80.8369C46.3735 80.3205 45.8375 79.975 45.0815 79.8004C44.3254 79.6257 43.6882 79.7002 43.1701 80.0239C42.652 80.3476 42.3056 80.8875 42.1309 81.6436L41.9121 82.5906L46.6825 83.6926L46.9013 82.7455Z" fill="#0D4E4E"/>
<path d="M43.0386 73.0929L50.9004 76.1188L50.1633 78.0339L42.3015 75.008L43.0386 73.0929Z" fill="#0D4E4E"/>
<path d="M53.2133 68.303L51.6845 71.0502L52.7396 72.2142L51.6951 74.0911L45.8162 67.3315L46.9716 65.2553L55.8147 66.6882L54.7586 68.5861L53.2133 68.303ZM51.5724 67.9941L48.3699 67.4067L50.5629 69.8081L51.5724 67.9941Z" fill="#0D4E4E"/>
<path d="M56.2984 63.8862L57.9213 61.7434L59.184 62.6998L56.3222 66.4784L49.6068 61.3923L50.8457 59.7565L56.2984 63.8862Z" fill="#0D4E4E"/>
<path d="M59.2292 51.2678C59.9141 50.7026 60.6246 50.3444 61.3608 50.1933C62.097 50.0421 62.8076 50.0988 63.4926 50.3633C64.1787 50.6165 64.7865 51.064 65.3161 51.7057C65.8405 52.3412 66.1645 53.0229 66.2881 53.7508C66.4178 54.4735 66.3355 55.1845 66.0412 55.8837C65.7531 56.5778 65.2697 57.205 64.591 57.7651L62.1568 59.7738L56.795 53.2765L59.2292 51.2678ZM63.3588 56.4793C63.9573 55.9854 64.2882 55.4374 64.3515 54.8354C64.4149 54.2334 64.1996 53.6332 63.7056 53.0347C63.2117 52.4362 62.6607 52.1078 62.0525 52.0496C61.4444 51.9913 60.841 52.2092 60.2425 52.7031L59.4928 53.3218L62.6091 57.098L63.3588 56.4793Z" fill="#0D4E4E"/>
<path d="M66.5087 46.2286L70.8797 53.4299L69.1255 54.4946L64.7545 47.2933L66.5087 46.2286Z" fill="#0D4E4E"/>
<path d="M76.124 44.596C75.8739 44.3986 75.5882 44.2905 75.2667 44.2717C74.9495 44.2423 74.6144 44.3033 74.2615 44.4547C73.6512 44.7164 73.249 45.1283 73.0548 45.6903C72.8575 46.245 72.9023 46.8569 73.1892 47.526C73.4951 48.2391 73.9259 48.7159 74.4816 48.9563C75.0416 49.1863 75.6598 49.1562 76.3362 48.8661C76.7994 48.6674 77.1386 48.3827 77.3538 48.0118C77.5765 47.6378 77.6667 47.1987 77.6245 46.6945L75.2313 47.7208L74.6354 46.3312L78.738 44.5718L79.49 46.3253C79.5522 46.8558 79.5008 47.3957 79.336 47.9451C79.1786 48.4914 78.8962 48.9999 78.4887 49.4706C78.0812 49.9413 77.554 50.3154 76.907 50.5929C76.1423 50.9208 75.3876 51.0486 74.6428 50.9763C73.9023 50.8935 73.2352 50.6269 72.6415 50.1764C72.0553 49.7227 71.5982 49.1136 71.2702 48.3489C70.9423 47.5843 70.8161 46.8332 70.8915 46.0958C70.9712 45.3479 71.2378 44.6808 71.6915 44.0945C72.142 43.5009 72.7495 43.0401 73.5142 42.7122C74.4406 42.3149 75.3161 42.2049 76.1408 42.3822C76.9728 42.5564 77.662 42.9963 78.2084 43.7021L76.124 44.596Z" fill="#0D4E4E"/>
<path d="M80.8393 40.4486L83.0436 48.5791L81.0631 49.1161L78.8588 40.9856L80.8393 40.4486Z" fill="#0D4E4E"/>
<path d="M90.4961 38.7496L90.7457 40.3745L88.5396 40.7134L89.5691 47.4148L87.5409 47.7264L86.5114 41.025L84.3053 41.3639L84.0556 39.739L90.4961 38.7496Z" fill="#0D4E4E"/>
<path d="M96.5302 45.7652L93.3862 45.7778L92.8882 47.2679L90.7402 47.2765L93.7544 38.8403L96.1304 38.8308L99.2122 47.2425L97.0402 47.2512L96.5302 45.7652ZM95.9959 44.1834L94.9395 41.1036L93.9199 44.1917L95.9959 44.1834Z" fill="#0D4E4E"/>
<path d="M101.89 46.2917L104.553 46.6572L104.337 48.2265L99.6415 47.582L100.787 39.2362L102.82 39.5152L101.89 46.2917Z" fill="#0D4E4E"/>
<path d="M113.772 49.8911L110.84 48.757L109.833 49.963L107.83 49.1882L113.711 42.4308L115.927 43.2879L115.731 52.2442L113.705 51.4607L113.772 49.8911ZM113.851 48.2233L113.99 44.9703L111.915 47.4744L113.851 48.2233Z" fill="#0D4E4E"/>
<path d="M118.892 54.4441C118.363 54.1287 117.94 53.7602 117.623 53.3386C117.307 52.9169 117.121 52.462 117.068 51.9737C117.021 51.4895 117.132 51.0062 117.401 50.5239L119.277 51.6421C119.145 51.9265 119.115 52.1879 119.187 52.4265C119.263 52.6581 119.428 52.8497 119.682 53.0012C119.944 53.1569 120.185 53.2214 120.405 53.1947C120.63 53.1611 120.806 53.0378 120.933 52.8247C121.04 52.6461 121.066 52.4615 121.012 52.2709C120.965 52.0845 120.874 51.9002 120.741 51.7181C120.614 51.5401 120.418 51.3068 120.152 51.018C119.771 50.5952 119.475 50.2236 119.266 49.9031C119.056 49.5827 118.929 49.2181 118.884 48.8094C118.839 48.4007 118.952 47.9695 119.222 47.516C119.623 46.8425 120.181 46.4622 120.894 46.3751C121.611 46.2811 122.361 46.4676 123.145 46.9345C123.942 47.4096 124.47 47.985 124.728 48.6607C124.991 49.3294 124.937 50.0142 124.566 50.715L122.659 49.5784C122.784 49.3366 122.807 49.1032 122.727 48.8785C122.65 48.6468 122.489 48.4573 122.241 48.3098C122.028 48.1828 121.822 48.1389 121.621 48.1779C121.425 48.21 121.264 48.3326 121.137 48.5456C120.998 48.7792 120.999 49.0269 121.141 49.2885C121.283 49.5501 121.543 49.8958 121.92 50.3255C122.293 50.7621 122.581 51.1386 122.783 51.4549C122.993 51.7754 123.122 52.1365 123.171 52.5383C123.221 52.9402 123.116 53.3576 122.858 53.7905C122.612 54.2028 122.283 54.5139 121.869 54.7236C121.462 54.9374 121 55.0252 120.483 54.9869C119.965 54.9487 119.435 54.7677 118.892 54.4441Z" fill="#0D4E4E"/>
<path d="M124.618 58.6633C124.143 58.2712 123.781 57.8427 123.532 57.3778C123.283 56.913 123.169 56.4352 123.19 55.9444C123.218 55.4588 123.401 54.998 123.74 54.5621L125.424 55.9521C125.25 56.2132 125.181 56.467 125.216 56.7137C125.256 56.9542 125.39 57.1687 125.618 57.3571C125.853 57.5506 126.081 57.6509 126.304 57.658C126.531 57.659 126.724 57.5638 126.882 57.3725C127.014 57.2121 127.068 57.0336 127.043 56.8371C127.025 56.6456 126.964 56.4497 126.859 56.2495C126.761 56.0543 126.602 55.7939 126.384 55.4682C126.071 54.9923 125.836 54.5802 125.677 54.2316C125.519 53.8831 125.448 53.5034 125.466 53.0926C125.483 52.6818 125.66 52.2727 125.996 51.8655C126.495 51.2608 127.104 50.9695 127.822 50.9917C128.545 51.0077 129.258 51.3059 129.962 51.8864C130.678 52.4771 131.112 53.1259 131.265 53.833C131.423 54.5339 131.265 55.2025 130.792 55.8388L129.08 54.4258C129.241 54.2058 129.298 53.9787 129.253 53.7443C129.213 53.5038 129.082 53.2919 128.86 53.1086C128.669 52.9507 128.471 52.8759 128.267 52.884C128.069 52.886 127.89 52.9826 127.733 53.1739C127.559 53.3837 127.523 53.6287 127.624 53.9089C127.725 54.189 127.929 54.5701 128.236 55.0521C128.539 55.5403 128.766 55.9561 128.918 56.2995C129.077 56.6481 129.15 57.0246 129.137 57.4293C129.125 57.834 128.958 58.2307 128.638 58.6194C128.332 58.9896 127.959 59.247 127.518 59.3915C127.083 59.541 126.613 59.5576 126.108 59.4412C125.602 59.3248 125.106 59.0655 124.618 58.6633Z" fill="#0D4E4E"/>
<path d="M134.105 58.4034L132.829 59.5326L134.65 61.5905L133.464 62.6403L131.643 60.5823L130.259 61.807L132.318 64.1345L131.087 65.224L127.668 61.3597L133.976 55.7772L137.396 59.6414L136.165 60.7309L134.105 58.4034Z" fill="#0D4E4E"/>
<path d="M142.831 67.6173L141.459 68.5238L140.228 66.6618L134.572 70.4001L133.441 68.6883L139.097 64.9499L137.866 63.0878L139.238 62.1814L142.831 67.6173Z" fill="#0D4E4E"/>
<path d="M148.278 81.9062L140.29 84.5823L139.638 82.6366L144.429 81.0317L139.04 80.8502L138.514 79.28L142.713 75.8735L137.911 77.4822L137.259 75.5365L145.247 72.8604L146.017 75.1588L141.238 79.2531L147.511 79.6191L148.278 81.9062Z" fill="#0D4E4E"/>
<path d="M142.347 90.7116L141.962 87.5912L140.423 87.2732L140.16 85.1413L148.894 87.1352L149.185 89.4933L141.197 93.5496L140.932 91.394L142.347 90.7116ZM143.854 89.9937L146.787 88.58L143.6 87.9333L143.854 89.9937Z" fill="#0D4E4E"/>
<path d="M140.574 101.438L140.684 99.3894L146.057 96.2417L140.869 95.9624L140.979 93.9134L149.391 94.3661L149.28 96.4152L143.883 99.5616L149.096 99.8422L148.986 101.891L140.574 101.438Z" fill="#0D4E4E"/>
<path d="M140.525 107.587L141.242 104.526L139.909 103.696L140.399 101.605L147.905 106.495L147.363 108.808L138.465 109.853L138.961 107.738L140.525 107.587ZM142.187 107.435L145.428 107.122L142.661 105.413L142.187 107.435Z" fill="#0D4E4E"/>
<path d="M141.211 117.535C141.528 117.506 141.81 117.388 142.056 117.18C142.307 116.983 142.508 116.708 142.66 116.356C142.923 115.746 142.931 115.17 142.685 114.629C142.447 114.09 141.993 113.677 141.324 113.389C140.612 113.082 139.971 113.033 139.402 113.241C138.838 113.459 138.41 113.906 138.119 114.582C137.919 115.045 137.869 115.485 137.968 115.902C138.064 116.327 138.301 116.708 138.678 117.045L139.709 114.653L141.097 115.251L139.331 119.351L137.579 118.596C137.169 118.254 136.834 117.827 136.576 117.315C136.314 116.81 136.169 116.247 136.141 115.625C136.113 115.003 136.238 114.369 136.516 113.722C136.846 112.958 137.305 112.346 137.895 111.886C138.49 111.436 139.157 111.171 139.898 111.089C140.636 111.015 141.386 111.142 142.151 111.472C142.915 111.801 143.523 112.259 143.976 112.846C144.433 113.443 144.698 114.111 144.772 114.848C144.854 115.589 144.73 116.342 144.401 117.106C144.002 118.031 143.443 118.714 142.722 119.153C141.999 119.599 141.196 119.754 140.314 119.618L141.211 117.535Z" fill="#0D4E4E"/>
<path d="M139.172 123.015L137.742 122.088L136.247 124.394L134.918 123.532L136.413 121.226L134.863 120.221L133.172 122.828L131.792 121.934L134.6 117.605L141.668 122.187L138.861 126.517L137.481 125.623L139.172 123.015Z" fill="#0D4E4E"/>
<path d="M129.792 136.481L123.803 130.558L125.245 129.099L128.838 132.651L126.57 127.76L127.735 126.582L132.668 128.795L129.068 125.234L130.511 123.775L136.5 129.698L134.796 131.422L128.987 129.002L131.488 134.766L129.792 136.481Z" fill="#0D4E4E"/>
<path d="M123.926 138.544L122.983 137.125L120.695 138.645L119.818 137.326L122.107 135.805L121.084 134.266L118.496 135.986L117.586 134.617L121.884 131.761L126.545 138.778L122.247 141.633L121.338 140.264L123.926 138.544Z" fill="#0D4E4E"/>
<path d="M108.643 138.778L110.518 137.946L115.764 141.301L113.655 136.553L115.53 135.72L118.949 143.419L117.074 144.252L111.818 140.874L113.937 145.644L112.062 146.477L108.643 138.778Z" fill="#0D4E4E"/>
<path d="M104.188 148.532L103.75 146.947L105.902 146.353L104.096 139.818L106.074 139.271L107.88 145.806L110.031 145.212L110.469 146.797L104.188 148.532Z" fill="#0D4E4E"/>
<defs>
<filter id="filter0_d_9809_19916" x="0.742188" y="0.623047" width="186.398" height="186.398" filterUnits="userSpaceOnUse" color-interpolation-filters="sRGB">
<feFlood flood-opacity="0" result="BackgroundImageFix"/>
<feColorMatrix in="SourceAlpha" type="matrix" values="0 0 0 0 0 0 0 0 0 0 0 0 0 0 0 0 0 0 127 0" result="hardAlpha"/>
<feOffset/>
<feGaussianBlur stdDeviation="15.5"/>
<feComposite in2="hardAlpha" operator="out"/>
<feColorMatrix type="matrix" values="0 0 0 0 0.180392 0 0 0 0 0.917647 0 0 0 0 0.913725 0 0 0 0.5 0"/>
<feBlend mode="normal" in2="BackgroundImageFix" result="effect1_dropShadow_9809_19916"/>
<feBlend mode="normal" in="SourceGraphic" in2="effect1_dropShadow_9809_19916" result="shape"/>
</filter>
<filter id="filter1_d_9809_19916" x="43.8047" y="50.3418" width="102.877" height="95.7773" filterUnits="userSpaceOnUse" color-interpolation-filters="sRGB">
<feFlood flood-opacity="0" result="BackgroundImageFix"/>
<feColorMatrix in="SourceAlpha" type="matrix" values="0 0 0 0 0 0 0 0 0 0 0 0 0 0 0 0 0 0 127 0" result="hardAlpha"/>
<feOffset/>
<feGaussianBlur stdDeviation="15.5"/>
<feComposite in2="hardAlpha" operator="out"/>
<feColorMatrix type="matrix" values="0 0 0 0 1 0 0 0 0 1 0 0 0 0 1 0 0 0 0.25 0"/>
<feBlend mode="normal" in2="BackgroundImageFix" result="effect1_dropShadow_9809_19916"/>
<feBlend mode="normal" in="SourceGraphic" in2="effect1_dropShadow_9809_19916" result="shape"/>
</filter>
<radialGradient id="paint0_radial_9809_19916" cx="0" cy="0" r="1" gradientUnits="userSpaceOnUse" gradientTransform="translate(94.2188 94.0996) scale(50.1992 56.5781)">
<stop stop-color="#0085FF" stop-opacity="0.9"/>
<stop offset="1" stop-color="#00FFFF"/>
</radialGradient>
<linearGradient id="paint1_linear_9809_19916" x1="95.0936" y1="71.0602" x2="95.316" y2="96.6049" gradientUnits="userSpaceOnUse">
<stop offset="0.370459" stop-color="#005AD6" stop-opacity="0.9"/>
<stop offset="0.481096" stop-color="#1260CC"/>
<stop offset="0.554094" stop-color="#53F549"/>
<stop offset="0.594113" stop-color="#28EAE9" stop-opacity="0.9"/>
</linearGradient>
</defs>
</svg>
