<svg width="128" height="84" viewBox="0 0 128 84" fill="none" xmlns="http://www.w3.org/2000/svg">
<g filter="url(#filter0_dd_9759_22229)">
<path d="M87.2555 51.6147V52.9997H96.7628V46.7532H95.3775V51.6147H87.2555ZM87.2555 31V32.385H95.3775V37.2468H96.7628V31H87.2555ZM82.3526 41.7149V38.4965H84.5258C85.5854 38.4965 85.9656 38.8495 85.9656 39.8138V40.3841C85.9656 41.3754 85.5988 41.7149 84.5258 41.7149H82.3526ZM85.8023 42.2851C86.7936 42.0271 87.4862 41.1035 87.4862 40.0038C87.4862 39.3113 87.2148 38.6864 86.6987 38.1839C86.0467 37.5591 85.1773 37.2468 84.0501 37.2468H80.9943V46.7528H82.3526V42.9642H84.39C85.4356 42.9642 85.8568 43.3987 85.8568 44.4853V46.7532H87.2421V44.7025C87.2421 43.2087 86.889 42.6385 85.8023 42.4754V42.2851ZM74.3666 42.5974H78.5499V41.3481H74.3666V38.4961H78.9573V37.2468H72.9811V46.7528H79.161V45.5035H74.3666V42.5974ZM69.8165 43.0999V43.7517C69.8165 45.1233 69.3139 45.5716 68.051 45.5716H67.7522C66.4889 45.5716 65.8778 45.164 65.8778 43.2764V40.7233C65.8778 38.8222 66.5163 38.4281 67.7792 38.4281H68.0506C69.2867 38.4281 69.6805 38.8899 69.6939 40.1665H71.1881C71.0523 38.2924 69.8028 37.1111 67.9284 37.1111C67.0185 37.1111 66.2579 37.3964 65.6875 37.9394C64.8318 38.7407 64.3565 40.0988 64.3565 41.9998C64.3565 43.8332 64.7641 45.1913 65.6061 46.033C66.1764 46.5898 66.9642 46.8886 67.7384 46.8886C68.5532 46.8886 69.3005 46.5625 69.6805 45.8565H69.8705V46.7528H71.12V41.8506H67.4393V43.0999H69.8165ZM57.8377 38.4961H59.3182C60.7173 38.4961 61.4779 38.8491 61.4779 40.7505V43.2491C61.4779 45.1502 60.7173 45.5035 59.3182 45.5035H57.8377V38.4961ZM59.4403 46.7532C62.0345 46.7532 62.9985 44.7841 62.9985 42.0002C62.9985 39.1755 61.9665 37.2472 59.4129 37.2472H56.4792V46.7532H59.4403ZM49.9196 42.5974H54.1028V41.3481H49.9196V38.4961H54.5101V37.2468H48.5339V46.7528H54.7139V45.5035H49.9196V42.5974ZM41.9063 37.2468H40.521V46.7528H46.7687V45.5035H41.9063V37.2468ZM31 46.7532V53H40.5072V51.6147H32.3852V46.7532H31ZM31 31V37.2468H32.3852V32.385H40.5072V31H31Z" fill="#28EAE9"/>
</g>
<defs>
<filter id="filter0_dd_9759_22229" x="0" y="0" width="127.764" height="84" filterUnits="userSpaceOnUse" color-interpolation-filters="sRGB">
<feFlood flood-opacity="0" result="BackgroundImageFix"/>
<feColorMatrix in="SourceAlpha" type="matrix" values="0 0 0 0 0 0 0 0 0 0 0 0 0 0 0 0 0 0 127 0" result="hardAlpha"/>
<feOffset/>
<feGaussianBlur stdDeviation="15.5"/>
<feComposite in2="hardAlpha" operator="out"/>
<feColorMatrix type="matrix" values="0 0 0 0 0.156863 0 0 0 0 0.917647 0 0 0 0 0.913725 0 0 0 1 0"/>
<feBlend mode="normal" in2="BackgroundImageFix" result="effect1_dropShadow_9759_22229"/>
<feColorMatrix in="SourceAlpha" type="matrix" values="0 0 0 0 0 0 0 0 0 0 0 0 0 0 0 0 0 0 127 0" result="hardAlpha"/>
<feOffset/>
<feGaussianBlur stdDeviation="15.5"/>
<feComposite in2="hardAlpha" operator="out"/>
<feColorMatrix type="matrix" values="0 0 0 0 0.156863 0 0 0 0 0.917647 0 0 0 0 0.913725 0 0 0 0.66 0"/>
<feBlend mode="normal" in2="effect1_dropShadow_9759_22229" result="effect2_dropShadow_9759_22229"/>
<feBlend mode="normal" in="SourceGraphic" in2="effect2_dropShadow_9759_22229" result="shape"/>
</filter>
</defs>
</svg>
