<svg width="185" height="86" viewBox="0 0 185 86" fill="none" xmlns="http://www.w3.org/2000/svg">
<g filter="url(#filter0_d_9759_22187)">
<path d="M139.765 43.2179C139.126 42.802 138.431 42.5007 137.771 42.1278C137.341 41.8911 136.882 41.676 136.509 41.3676C135.877 40.8512 136.007 39.8256 136.666 39.3809C137.62 38.7498 139.191 39.1012 139.363 40.3922C139.363 40.4209 139.392 40.4424 139.42 40.4424H140.855C140.891 40.4424 140.919 40.4137 140.905 40.3707C140.892 39.9646 140.792 39.566 140.611 39.2021C140.431 38.8383 140.174 38.5176 139.858 38.2621C139.274 37.8119 138.558 37.5674 137.821 37.5664C134.034 37.5664 133.683 41.5756 135.727 42.8378C135.963 42.9813 137.964 43.9853 138.667 44.4228C139.385 44.8603 139.6 45.6636 139.298 46.2876C139.012 46.8685 138.294 47.2701 137.563 47.2199C136.774 47.1769 136.157 46.7466 135.942 46.0796C135.906 45.9576 135.885 45.721 135.885 45.6277C135.883 45.613 135.876 45.5993 135.866 45.5889C135.856 45.5785 135.842 45.5719 135.827 45.5704H134.271C134.249 45.5704 134.221 45.599 134.221 45.6277C134.221 46.7466 134.5 47.3705 135.261 47.9371C135.978 48.475 136.767 48.7045 137.57 48.7045C139.7 48.7045 140.797 47.4996 141.013 46.2589C141.213 45.0396 140.855 43.9423 139.765 43.2179ZM72.2044 37.7744H70.7557C70.745 37.7757 70.7348 37.7797 70.726 37.7859C70.7173 37.7922 70.7102 37.8006 70.7055 37.8103L69.4289 42.013C69.4289 42.0283 69.4228 42.0429 69.4121 42.0536C69.4013 42.0644 69.3867 42.0704 69.3715 42.0704C69.3563 42.0704 69.3417 42.0644 69.3309 42.0536C69.3202 42.0429 69.3141 42.0283 69.3141 42.013L68.0375 37.8103C68.0303 37.7816 68.0088 37.7744 67.9801 37.7744H65.6062C65.5775 37.7744 65.5488 37.8031 65.5488 37.8246V48.5539C65.5488 48.5826 65.5775 48.6113 65.6062 48.6113H67.1625C67.1912 48.6113 67.2199 48.5826 67.2199 48.5539V40.3922C67.2199 40.3276 67.3131 40.3205 67.3275 40.3778L68.6184 44.6093L68.7117 44.8962C68.7117 44.932 68.7332 44.9392 68.7619 44.9392H69.9596C69.9883 44.9392 70.0026 44.9177 70.0098 44.9034L70.103 44.6021L71.394 40.3707C71.4083 40.3133 71.5016 40.3276 71.5016 40.3922V48.5467C71.5016 48.5754 71.5303 48.6041 71.559 48.6041H73.1153C73.144 48.6041 73.1727 48.5754 73.1727 48.5467V37.8246C73.1727 37.8031 73.144 37.7744 73.1153 37.7744H72.2044ZM115.939 37.7744C115.927 37.7745 115.916 37.7779 115.906 37.7842C115.895 37.7905 115.887 37.7996 115.882 37.8103L114.605 42.013C114.605 42.0283 114.599 42.0429 114.588 42.0536C114.578 42.0644 114.563 42.0704 114.548 42.0704C114.533 42.0704 114.518 42.0644 114.507 42.0536C114.497 42.0429 114.491 42.0283 114.491 42.013L113.214 37.8103C113.214 37.7816 113.192 37.7744 113.164 37.7744H110.797C110.768 37.7744 110.74 37.8031 110.74 37.8246V48.5539C110.74 48.5826 110.768 48.6113 110.797 48.6113H112.353C112.375 48.6113 112.403 48.5826 112.403 48.5539V40.3922C112.403 40.3276 112.497 40.3205 112.518 40.3778L113.809 44.6093L113.895 44.8962C113.91 44.932 113.924 44.9392 113.953 44.9392H115.143C115.155 44.9384 115.166 44.9347 115.176 44.9285C115.186 44.9222 115.195 44.9136 115.201 44.9034L115.294 44.6021L116.585 40.3707C116.599 40.3133 116.692 40.3276 116.692 40.3922V48.5467C116.692 48.5754 116.721 48.6041 116.75 48.6041H118.306C118.335 48.6041 118.363 48.5754 118.363 48.5467V37.8246C118.363 37.8031 118.335 37.7744 118.306 37.7744H115.939ZM95.8649 37.7744H88.5136C88.492 37.7744 88.4634 37.8031 88.4634 37.8246V39.1729C88.4634 39.2016 88.492 39.2303 88.5136 39.2303H91.3608V48.5539C91.3608 48.5898 91.3895 48.6185 91.411 48.6185H92.9674C92.9961 48.6185 93.0247 48.5898 93.0247 48.5611V39.2231H95.8649C95.8935 39.2231 95.9222 39.1944 95.9222 39.1658V37.8246C95.9222 37.8031 95.9079 37.7744 95.8649 37.7744ZM105.045 48.6113H106.465C106.501 48.6113 106.53 48.5682 106.515 48.5396L103.589 37.7744C103.589 37.7457 103.568 37.7314 103.539 37.7314H101.495C101.483 37.7333 101.473 37.7384 101.464 37.746C101.455 37.7535 101.448 37.7634 101.445 37.7744L98.5185 48.5324C98.5042 48.5682 98.5328 48.6041 98.5687 48.6041H99.9888C100.017 48.6041 100.032 48.5898 100.046 48.5682L100.892 45.4413C100.9 45.4126 100.921 45.4054 100.95 45.4054H104.077C104.105 45.4054 104.127 45.4197 104.134 45.4413L104.98 48.5682C104.995 48.5898 105.023 48.6113 105.038 48.6113H105.045ZM101.33 43.8706L102.463 39.675C102.463 39.6598 102.469 39.6452 102.48 39.6344C102.491 39.6236 102.505 39.6176 102.52 39.6176C102.536 39.6176 102.55 39.6236 102.561 39.6344C102.572 39.6452 102.578 39.6598 102.578 39.675L103.711 43.8706C103.725 43.9064 103.697 43.9423 103.661 43.9423H101.387C101.344 43.9423 101.316 43.9064 101.33 43.8706ZM129.193 48.6113H130.613C130.649 48.6113 130.678 48.5682 130.671 48.5396L127.744 37.7672C127.73 37.7385 127.716 37.7242 127.687 37.7242H125.657C125.645 37.7249 125.632 37.7293 125.622 37.737C125.612 37.7447 125.604 37.7552 125.6 37.7672L122.674 48.5252C122.667 48.5611 122.695 48.5969 122.731 48.5969H124.144C124.173 48.5969 124.194 48.5826 124.201 48.5611L125.048 45.4341C125.062 45.4054 125.076 45.3982 125.105 45.3982H128.239C128.261 45.3982 128.282 45.4126 128.289 45.4341L129.143 48.5611C129.143 48.5826 129.172 48.6041 129.193 48.6041V48.6113ZM125.478 43.8706L126.618 39.675C126.622 39.664 126.63 39.6545 126.639 39.6478C126.649 39.6411 126.66 39.6376 126.672 39.6376C126.684 39.6376 126.695 39.6411 126.705 39.6478C126.715 39.6545 126.722 39.664 126.726 39.675L127.866 43.8706C127.866 43.9064 127.845 43.9423 127.809 43.9423H125.535C125.5 43.9423 125.464 43.9064 125.478 43.8706ZM79.4912 47.0191V43.6913C79.4912 43.6626 79.5127 43.6339 79.5414 43.6339H83.6868C83.7155 43.6339 83.7442 43.6052 83.7442 43.5837V42.2425C83.7426 42.2279 83.7361 42.2142 83.7256 42.2037C83.7152 42.1933 83.7015 42.1867 83.6868 42.1852H79.5486C79.5199 42.1852 79.4984 42.1565 79.4984 42.1278V39.2877C79.4984 39.259 79.5199 39.2303 79.5486 39.2303H84.2677C84.2964 39.2303 84.3251 39.2016 84.3251 39.1729V37.8389C84.3236 37.8243 84.317 37.8106 84.3066 37.8001C84.2961 37.7897 84.2824 37.7831 84.2677 37.7816H77.8847C77.87 37.7831 77.8563 37.7897 77.8458 37.8001C77.8354 37.8106 77.8288 37.8243 77.8273 37.8389V48.5539C77.8273 48.5826 77.856 48.6113 77.8847 48.6113H84.4614C84.4901 48.6113 84.5188 48.5826 84.5188 48.5539V47.1338C84.5172 47.1192 84.5107 47.1055 84.5002 47.095C84.4898 47.0846 84.4761 47.078 84.4614 47.0765H79.5414C79.5127 47.0693 79.4984 47.0478 79.4984 47.0119L79.4912 47.0191ZM153.98 48.518L148.601 42.9669C148.592 42.9567 148.588 42.9441 148.588 42.9311C148.588 42.918 148.592 42.9054 148.601 42.8952L153.442 37.8748C153.454 37.8691 153.464 37.8587 153.468 37.8459C153.473 37.8332 153.472 37.819 153.467 37.8067C153.461 37.7943 153.451 37.7847 153.438 37.78C153.425 37.7753 153.411 37.7759 153.399 37.7816H151.419C151.398 37.7816 151.39 37.7887 151.383 37.8031L147.274 42.0561C147.266 42.0625 147.256 42.0668 147.246 42.0684C147.236 42.0701 147.226 42.069 147.217 42.0653C147.207 42.0617 147.199 42.0556 147.192 42.0477C147.186 42.0397 147.182 42.0303 147.18 42.0202V37.8389C147.179 37.8243 147.172 37.8106 147.162 37.8001C147.152 37.7897 147.138 37.7831 147.123 37.7816H145.567C145.552 37.7831 145.538 37.7897 145.528 37.8001C145.518 37.8106 145.511 37.8243 145.509 37.8389V48.5611C145.509 48.5898 145.538 48.6185 145.567 48.6185H147.123C147.152 48.6185 147.18 48.5898 147.18 48.5611V43.8419C147.18 43.7917 147.245 43.7702 147.274 43.806L151.936 48.5969C151.943 48.6064 151.953 48.6138 151.964 48.6185H153.951C153.987 48.6113 154.023 48.5467 153.98 48.518Z" fill="#28EAE9"/>
<path d="M54.924 32L45.5 38.9712L47.2571 34.8616L54.924 32Z" fill="#28EAE9" stroke="#0C4088" stroke-width="0.45" stroke-linecap="round" stroke-linejoin="round"/>
<path d="M33.1922 32L42.5302 39.0286L40.8591 34.8688L33.1922 32ZM51.531 48.1585L49.0208 51.9884L54.3926 53.4658L55.9275 48.2446L51.531 48.1585ZM32.1953 48.2446L33.7229 53.4658L39.0804 51.9884L36.5846 48.1585L32.1953 48.2446Z" fill="#28EAE9" stroke="#0C4088" stroke-width="0.45" stroke-linecap="round" stroke-linejoin="round"/>
<path d="M38.7906 41.6904L37.2988 43.9424L42.6061 44.1862L42.434 38.4702L38.7906 41.6976V41.6904ZM49.3191 41.6976L45.6183 38.3984L45.4964 44.1862L50.8037 43.9424L49.3191 41.6976ZM39.0775 51.9894L42.2977 50.4402L39.5293 48.2886L39.0775 51.9894ZM45.8192 50.433L49.0179 51.9894L48.5876 48.2814L45.8192 50.433Z" fill="#28EAE9" stroke="#0C4088" stroke-width="0.45" stroke-linecap="round" stroke-linejoin="round"/>
<path d="M49.0185 51.9886L45.8198 50.4395L46.078 52.5193L46.0493 53.4015L49.0185 51.9886ZM39.0781 51.9886L42.0617 53.4015L42.0402 52.5193L42.2984 50.4395L39.0781 51.9886Z" fill="#28EAE9" stroke="#0C4088" stroke-width="0.45" stroke-linecap="round" stroke-linejoin="round"/>
<path d="M42.1126 46.9041L39.459 46.1295L41.338 45.2689L42.1198 46.9041H42.1126ZM45.9927 46.9041L46.7816 45.2617L48.6678 46.1224L45.9927 46.9113V46.9041Z" fill="#28EAE9" stroke="#28EAE9" stroke-width="0.45" stroke-linecap="round" stroke-linejoin="round"/>
<path d="M39.0798 51.9884L39.546 48.1585L36.584 48.2446L39.0798 51.9884ZM48.5684 48.1585L49.0202 51.9884L51.5304 48.2446L48.5684 48.1585ZM50.8132 43.9414L45.5059 44.1853L45.9936 46.9106L46.7826 45.2611L48.6688 46.1217L50.8132 43.9414ZM39.46 46.1289L41.339 45.2682L42.1208 46.9034L42.6156 44.1781L37.3084 43.9414L39.46 46.1289Z" fill="#28EAE9" stroke="#0C4088" stroke-width="0.45" stroke-linecap="round" stroke-linejoin="round"/>
<path d="M37.3066 43.9414L39.53 48.2805L39.4582 46.1289L37.3066 43.9414ZM48.6671 46.1289L48.581 48.2805L50.8043 43.9414L48.6671 46.1289ZM42.6139 44.1853L42.1119 46.9106L42.743 50.1237L42.8865 45.885L42.6139 44.1853ZM45.4971 44.1853L45.2389 45.8778L45.368 50.1237L45.9919 46.9034L45.4971 44.1781V44.1853Z" fill="#28EAE9" stroke="#0C4088" stroke-width="0.45" stroke-linecap="round" stroke-linejoin="round"/>
<path d="M45.992 46.9035L45.3681 50.1237L45.8199 50.4393L48.5811 48.2877L48.6672 46.1289L45.992 46.9035ZM39.4583 46.1289L39.5301 48.2805L42.2985 50.4321L42.7431 50.1237L42.1192 46.9035L39.4512 46.1289H39.4583Z" fill="#28EAE9" stroke="#0C4088" stroke-width="0.45" stroke-linecap="round" stroke-linejoin="round"/>
<path d="M46.0565 53.4012L46.078 52.519L45.8341 52.3182H42.2768L42.0402 52.519L42.0617 53.4012L39.0781 51.9883L40.1252 52.8489L42.241 54.3048H45.8628L47.9857 52.8417L49.0185 51.9883L46.0493 53.4012H46.0565Z" fill="#28EAE9" stroke="#0C4088" stroke-width="0.45" stroke-linecap="round" stroke-linejoin="round"/>
<path d="M45.8187 50.4334L45.3669 50.125H42.7419L42.2973 50.4406L42.0391 52.5204L42.2757 52.3196H45.833L46.0769 52.5204L45.8187 50.4406V50.4334Z" fill="#28EAE9" stroke="#0C4088" stroke-width="0.45" stroke-linecap="round" stroke-linejoin="round"/>
<path d="M55.3233 39.423L56.1123 35.586L54.9217 32L45.8133 38.7417L49.3204 41.6894L54.269 43.1309L55.3592 41.8615L54.8858 41.5172L55.6389 40.8287L55.0651 40.3841L55.8182 39.8103L55.3162 39.423H55.3233ZM32 35.5788L32.8033 39.423L32.2869 39.8031L33.0543 40.3769L32.4805 40.8287L33.2264 41.5172L32.7531 41.8615L33.8432 43.1309L38.7919 41.6965L42.299 38.7345L33.1906 32L32 35.5788Z" fill="#28EAE9" stroke="#0C4088" stroke-width="0.45" stroke-linecap="round" stroke-linejoin="round"/>
<path d="M54.2707 43.1326L49.322 41.6982L50.8138 43.943L48.5905 48.2821L51.531 48.2462H55.9275L54.2707 43.1326ZM38.7936 41.691L33.8449 43.1326L32.1953 48.2462H36.5917L39.5323 48.2821L37.3089 43.943L38.8007 41.691H38.7936ZM45.4994 44.1869L45.8221 38.7362L47.2565 34.8633H40.8591L42.2935 38.7362L42.6162 44.1869L42.7381 45.8938V50.1253H45.3703L45.3846 45.8938L45.4994 44.1869Z" fill="#28EAE9" stroke="#0C4088" stroke-width="0.45" stroke-linecap="round" stroke-linejoin="round"/>
</g>
<defs>
<filter id="filter0_d_9759_22187" x="0.775391" y="0.775391" width="184.225" height="84.7539" filterUnits="userSpaceOnUse" color-interpolation-filters="sRGB">
<feFlood flood-opacity="0" result="BackgroundImageFix"/>
<feColorMatrix in="SourceAlpha" type="matrix" values="0 0 0 0 0 0 0 0 0 0 0 0 0 0 0 0 0 0 127 0" result="hardAlpha"/>
<feOffset/>
<feGaussianBlur stdDeviation="15.5"/>
<feComposite in2="hardAlpha" operator="out"/>
<feColorMatrix type="matrix" values="0 0 0 0 0.156863 0 0 0 0 0.917647 0 0 0 0 0.913725 0 0 0 0.6 0"/>
<feBlend mode="normal" in2="BackgroundImageFix" result="effect1_dropShadow_9759_22187"/>
<feBlend mode="normal" in="SourceGraphic" in2="effect1_dropShadow_9759_22187" result="shape"/>
</filter>
</defs>
</svg>
