<svg width="141" height="84" viewBox="0 0 141 84" fill="none" xmlns="http://www.w3.org/2000/svg">
<g filter="url(#filter0_d_9759_22217)">
<path d="M39.346 31C36.3314 31 33.8873 33.444 33.8873 36.4588V38.4998C32.8294 38.689 31.7617 38.9504 31.7617 39.2845V49.9784C31.7617 49.9784 31.7617 50.2783 32.0883 50.4082C33.2944 50.8881 38.0295 52.5664 39.1162 52.9507C39.2594 53.0014 39.2895 53 39.3392 53C39.3914 53 39.4184 53.0018 39.5604 52.9515C40.645 52.5681 45.3965 50.8855 46.595 50.411C46.9063 50.2878 46.9152 49.9828 46.9152 49.9828V39.285C46.9152 38.9511 45.8625 38.689 44.8044 38.4997V36.4587C44.8045 33.444 42.3606 31 39.346 31ZM39.346 33.6088C41.1192 33.6088 42.1979 34.6856 42.1979 36.4588V38.2369C40.1959 38.0911 38.4945 38.0911 36.4922 38.2369V36.4588C36.4922 34.6854 37.5725 33.6088 39.346 33.6088ZM39.3389 40.862C41.8195 40.8659 43.9048 41.0507 43.9048 41.4038C43.9048 41.4038 43.9048 47.9698 43.9048 48.0669C43.9048 48.1641 43.8894 48.1805 43.7972 48.2154C43.705 48.2505 39.5562 49.7498 39.5562 49.7498C39.5562 49.7498 39.3859 49.8064 39.3391 49.8064C39.286 49.8064 39.1156 49.7475 39.1156 49.7475C39.1156 49.7475 34.9685 48.2496 34.8753 48.2144C34.7821 48.1794 34.77 48.1612 34.77 48.0632C34.77 47.9552 34.77 41.4035 34.77 41.4035C34.77 41.0408 36.8585 40.858 39.3389 40.862Z" fill="#28EAE9"/>
<path d="M53.9482 48.1614V40.8609H51.2871V38.2441H59.5985V40.8609H56.9517V48.1614H53.9482Z" fill="#28EAE9"/>
<path d="M66.3352 48.1614L64.9676 45.0392H63.8821V48.1614H60.8789V38.2441H66.1718C68.491 38.2441 69.7403 39.7904 69.7403 41.6489C69.7403 43.3592 68.744 44.2657 67.9561 44.6524L69.7553 48.1613H66.3354V48.1614H66.3352ZM66.692 41.6338C66.692 41.0989 66.2163 40.8607 65.7107 40.8607H63.8818V42.4218H65.7107C66.2163 42.4217 66.692 42.1843 66.692 41.6338Z" fill="#28EAE9"/>
<path d="M71.3125 48.1614V38.2441H78.8358V40.8609H74.3158V41.8423H78.7319V44.4594H74.3158V45.5444H78.8358V48.1614H71.3125Z" fill="#28EAE9"/>
<path d="M80.3984 48.1632V45.7844L84.1747 40.8629H80.3984V38.2461H88.1445V40.6101L84.3531 45.5465H88.2484V48.1632H80.3984Z" fill="#28EAE9"/>
<path d="M88.9844 43.2119C88.9844 40.1636 91.3481 38.082 94.4111 38.082C97.4736 38.082 99.8381 40.1636 99.8381 43.2119C99.8381 46.2597 97.4736 48.3412 94.4111 48.3412C91.3481 48.3412 88.9844 46.2597 88.9844 43.2119ZM96.7901 43.2119C96.7901 41.8288 95.8535 40.7286 94.4111 40.7286C92.969 40.7286 92.032 41.8289 92.032 43.2119C92.032 44.5945 92.9687 45.6945 94.4111 45.6945C95.8532 45.6945 96.7901 44.5942 96.7901 43.2119Z" fill="#28EAE9"/>
<path d="M106.574 48.1632L105.206 45.041H104.121V48.1632H101.117V38.2461H106.41C108.73 38.2461 109.979 39.7923 109.979 41.6507C109.979 43.361 108.983 44.2676 108.195 44.6545L109.994 48.1634H106.574V48.1632ZM106.931 41.6358C106.931 41.1007 106.455 40.8626 105.949 40.8626H104.12V42.4237H105.949C106.455 42.4239 106.931 42.1863 106.931 41.6358Z" fill="#28EAE9"/>
</g>
<defs>
<filter id="filter0_d_9759_22217" x="0.761719" y="0" width="140.232" height="84" filterUnits="userSpaceOnUse" color-interpolation-filters="sRGB">
<feFlood flood-opacity="0" result="BackgroundImageFix"/>
<feColorMatrix in="SourceAlpha" type="matrix" values="0 0 0 0 0 0 0 0 0 0 0 0 0 0 0 0 0 0 127 0" result="hardAlpha"/>
<feOffset/>
<feGaussianBlur stdDeviation="15.5"/>
<feComposite in2="hardAlpha" operator="out"/>
<feColorMatrix type="matrix" values="0 0 0 0 0.156863 0 0 0 0 0.917647 0 0 0 0 0.913725 0 0 0 0.6 0"/>
<feBlend mode="normal" in2="BackgroundImageFix" result="effect1_dropShadow_9759_22217"/>
<feBlend mode="normal" in="SourceGraphic" in2="effect1_dropShadow_9759_22217" result="shape"/>
</filter>
</defs>
</svg>
