<svg width="180" height="84" viewBox="0 0 180 84" fill="none" xmlns="http://www.w3.org/2000/svg">
<g filter="url(#filter0_d_9759_22203)">
<path fill-rule="evenodd" clip-rule="evenodd" d="M32.5638 34.7537C31.8145 36.225 31.8145 38.15 31.8145 42C31.8145 45.85 31.8145 47.775 32.5638 49.2463C33.2238 50.5388 34.2757 51.5906 35.5682 52.2506C37.0394 53 38.9644 53 42.8143 53C46.6643 53 48.5893 53 50.0606 52.2506C51.353 51.5906 52.4049 50.5388 53.0649 49.2463C53.8142 47.775 53.8142 45.85 53.8142 42C53.8142 38.15 53.8142 36.225 53.0649 34.7537C52.4049 33.4612 51.353 32.4094 50.0606 31.7494C48.5893 31 46.6643 31 42.8143 31C38.9644 31 37.0394 31 35.5682 31.7494C34.2757 32.4094 33.2238 33.4612 32.5638 34.7537ZM48.304 36.9331C48.4965 36.9331 48.6787 37.0122 48.8128 37.1463C48.9468 37.2838 49.0224 37.4694 49.019 37.6584C48.9846 39.7072 48.9056 41.2747 48.7578 42.5156C48.6134 43.7566 48.3968 44.6778 48.0703 45.4238C47.8503 45.9222 47.5787 46.3347 47.259 46.6853C46.8293 47.1494 46.3378 47.4863 45.8015 47.806C45.5722 47.9431 45.3339 48.0784 45.0839 48.2204C44.5504 48.5234 43.9638 48.8565 43.299 49.3013C43.0584 49.4628 42.7456 49.4628 42.505 49.3013C41.8301 48.8513 41.2357 48.5141 40.6974 48.2087C40.5777 48.1408 40.4607 48.0744 40.3463 48.0088C39.7172 47.6444 39.15 47.2972 38.6551 46.7953C38.3251 46.4653 38.0398 46.0631 37.8129 45.5853C37.5035 44.9459 37.2938 44.1725 37.1391 43.1722C36.9329 41.835 36.8297 40.0853 36.7919 37.6584C36.7885 37.4694 36.8607 37.2838 36.9947 37.1463C37.1288 37.0122 37.3144 36.9331 37.5069 36.9331H37.8026C38.7135 36.9366 40.7244 36.8472 42.4637 35.4928C42.7215 35.2934 43.0825 35.2934 43.3403 35.4928C45.0797 36.8472 47.0906 36.9366 48.005 36.9331H48.304ZM46.7056 44.9666C46.929 44.5059 47.1147 43.87 47.2556 42.9556C47.424 41.8625 47.5272 40.3775 47.5753 38.3563C46.5028 38.3253 44.6603 38.1191 42.9037 36.9366C41.1472 38.1156 39.3047 38.3219 38.2357 38.3563C38.2735 40.0269 38.3491 41.3263 38.4694 42.3472C38.6069 43.5091 38.8029 44.2963 39.0469 44.8497C39.2085 45.2175 39.3872 45.4822 39.6003 45.7159C39.8857 46.0288 40.2466 46.2866 40.7381 46.5822C40.942 46.7045 41.1668 46.8318 41.4116 46.9703C41.8476 47.2171 42.3467 47.4996 42.9037 47.8541C43.4505 47.5054 43.9425 47.2258 44.3734 46.9808C44.5033 46.907 44.6276 46.8363 44.7462 46.7678C45.3512 46.4206 45.7981 46.1319 46.1315 45.795C46.355 45.5647 46.5372 45.3138 46.7056 44.9666Z" fill="#28EAE9"/>
<path d="M64.0825 39.5386H60.8145V37.6128H69.7139V39.5386H66.4459V47.8254H64.0825V39.5386ZM72.3903 41.0121C72.6626 40.6328 73.0273 40.3458 73.4845 40.1513C73.9514 39.9568 74.4863 39.8595 75.0893 39.8595V41.9604C74.8364 41.941 74.6663 41.9312 74.5787 41.9312C73.927 41.9312 73.4164 42.1161 73.0468 42.4856C72.6772 42.8455 72.4924 43.3902 72.4924 44.1197V47.8254H70.2165V39.9763H72.3903V41.0121ZM83.9693 39.9763V47.8254H81.8101V46.8917C81.5086 47.2321 81.1487 47.4947 80.7305 47.6795C80.3122 47.8546 79.86 47.9421 79.3737 47.9421C78.3427 47.9421 77.5257 47.6455 76.9227 47.0521C76.3196 46.4588 76.0181 45.5786 76.0181 44.4115V39.9763H78.2941V44.0759C78.2941 45.3403 78.8241 45.9725 79.8843 45.9725C80.429 45.9725 80.8666 45.7975 81.1974 45.4473C81.5281 45.0874 81.6934 44.5573 81.6934 43.8571V39.9763H83.9693ZM88.2808 47.9421C87.6292 47.9421 86.9921 47.8643 86.3696 47.7087C85.7472 47.5433 85.2511 47.3391 84.8815 47.0959L85.6401 45.4619C85.9903 45.6856 86.4133 45.8704 86.9094 46.0163C87.4054 46.1524 87.8918 46.2205 88.3683 46.2205C89.3312 46.2205 89.8127 45.9823 89.8127 45.5057C89.8127 45.282 89.6814 45.1215 89.4187 45.0242C89.1561 44.9269 88.7526 44.8443 88.2078 44.7762C87.5659 44.6789 87.0358 44.5671 86.6176 44.4406C86.1994 44.3142 85.8347 44.0905 85.5234 43.7695C85.2219 43.4485 85.0711 42.9914 85.0711 42.3981C85.0711 41.9021 85.2122 41.4644 85.4942 41.0851C85.786 40.696 86.2043 40.3945 86.7489 40.1805C87.3033 39.9665 87.955 39.8595 88.7039 39.8595C89.2583 39.8595 89.8078 39.9227 90.3525 40.0492C90.9069 40.1659 91.364 40.3312 91.7239 40.5452L90.9652 42.1647C90.2747 41.7756 89.5209 41.5811 88.7039 41.5811C88.2176 41.5811 87.8529 41.6492 87.6097 41.7853C87.3666 41.9215 87.2449 42.0966 87.2449 42.3106C87.2449 42.5538 87.3762 42.7239 87.6389 42.8212C87.9015 42.9185 88.3197 43.0109 88.8935 43.0984C89.5355 43.2054 90.0607 43.3221 90.4692 43.4485C90.8777 43.5653 91.2327 43.7841 91.5342 44.1051C91.8357 44.426 91.9865 44.8735 91.9865 45.4473C91.9865 45.9336 91.8406 46.3664 91.5488 46.7458C91.257 47.1251 90.8291 47.4217 90.2649 47.6357C89.7105 47.84 89.0492 47.9421 88.2808 47.9421ZM98.0155 47.4461C97.7919 47.6114 97.5147 47.7378 97.184 47.8254C96.863 47.9032 96.5226 47.9421 96.1627 47.9421C95.229 47.9421 94.5044 47.7038 93.9889 47.2272C93.4831 46.7506 93.2302 46.0503 93.2302 45.1263V41.9021H92.0193V40.1513H93.2302V38.2401H95.5062V40.1513H97.4612V41.9021H95.5062V45.0972C95.5062 45.4279 95.5889 45.6856 95.7542 45.8704C95.9293 46.0455 96.1725 46.133 96.4837 46.133C96.8436 46.133 97.1499 46.0357 97.4028 45.8412L98.0155 47.4461ZM118.145 37.6128L114.804 47.8254H112.266L110.019 40.91L107.699 47.8254H105.175L101.82 37.6128H104.271L106.576 44.7908L108.983 37.6128H111.171L113.506 44.8491L115.884 37.6128H118.145ZM121.448 39.8595C122.664 39.8595 123.598 40.1513 124.25 40.7349C124.902 41.3087 125.227 42.1793 125.227 43.3464V47.8254H123.097V46.8479C122.669 47.5774 121.872 47.9421 120.704 47.9421C120.102 47.9421 119.576 47.84 119.129 47.6357C118.691 47.4315 118.356 47.1494 118.122 46.7895C117.889 46.4296 117.772 46.0211 117.772 45.564C117.772 44.8345 118.045 44.2607 118.589 43.8425C119.143 43.4242 119.994 43.2151 121.142 43.2151H122.951C122.951 42.7191 122.801 42.3397 122.499 42.0771C122.197 41.8048 121.745 41.6686 121.142 41.6686C120.724 41.6686 120.31 41.7367 119.902 41.8729C119.503 41.9993 119.163 42.1744 118.881 42.3981L118.064 40.8079C118.491 40.5063 119.002 40.2729 119.596 40.1076C120.198 39.9422 120.817 39.8595 121.448 39.8595ZM121.273 46.4102C121.663 46.4102 122.007 46.3227 122.309 46.1476C122.611 45.9628 122.824 45.6953 122.951 45.3452V44.5428H121.39C120.456 44.5428 119.99 44.8491 119.99 45.4619C119.99 45.7537 120.102 45.9871 120.325 46.1622C120.559 46.3275 120.875 46.4102 121.273 46.4102ZM126.85 37H129.126V47.8254H126.85V37ZM130.799 37H133.075V47.8254H130.799V37ZM142.439 43.93C142.439 43.9592 142.424 44.1634 142.395 44.5428H136.457C136.565 45.029 136.817 45.4133 137.216 45.6953C137.615 45.9774 138.111 46.1184 138.704 46.1184C139.112 46.1184 139.472 46.0601 139.783 45.9433C140.104 45.8169 140.402 45.6224 140.673 45.3598L141.884 46.6728C141.146 47.519 140.066 47.9421 138.645 47.9421C137.761 47.9421 136.978 47.7719 136.297 47.4315C135.616 47.0813 135.091 46.5999 134.721 45.9871C134.352 45.3744 134.167 44.6789 134.167 43.9008C134.167 43.1324 134.347 42.4419 134.706 41.8291C135.076 41.2066 135.577 40.7252 136.209 40.3848C136.851 40.0346 137.566 39.8595 138.354 39.8595C139.122 39.8595 139.818 40.0249 140.44 40.3556C141.063 40.6863 141.549 41.1628 141.899 41.7853C142.259 42.3981 142.439 43.113 142.439 43.93ZM138.368 41.5811C137.853 41.5811 137.42 41.727 137.07 42.0188C136.72 42.3106 136.506 42.7093 136.428 43.2151H140.294C140.216 42.7191 140.002 42.3252 139.652 42.0334C139.302 41.7318 138.874 41.5811 138.368 41.5811ZM148.579 47.4461C148.355 47.6114 148.078 47.7378 147.748 47.8254C147.427 47.9032 147.086 47.9421 146.726 47.9421C145.793 47.9421 145.068 47.7038 144.553 47.2272C144.047 46.7506 143.794 46.0503 143.794 45.1263V41.9021H142.583V40.1513H143.794V38.2401H146.07V40.1513H148.025V41.9021H146.07V45.0972C146.07 45.4279 146.152 45.6856 146.318 45.8704C146.493 46.0455 146.736 46.133 147.047 46.133C147.407 46.133 147.713 46.0357 147.966 45.8412L148.579 47.4461Z" fill="#28EAE9"/>
</g>
<defs>
<filter id="filter0_d_9759_22203" x="0.814453" y="0" width="178.766" height="84" filterUnits="userSpaceOnUse" color-interpolation-filters="sRGB">
<feFlood flood-opacity="0" result="BackgroundImageFix"/>
<feColorMatrix in="SourceAlpha" type="matrix" values="0 0 0 0 0 0 0 0 0 0 0 0 0 0 0 0 0 0 127 0" result="hardAlpha"/>
<feOffset/>
<feGaussianBlur stdDeviation="15.5"/>
<feComposite in2="hardAlpha" operator="out"/>
<feColorMatrix type="matrix" values="0 0 0 0 0.156863 0 0 0 0 0.917647 0 0 0 0 0.913725 0 0 0 0.6 0"/>
<feBlend mode="normal" in2="BackgroundImageFix" result="effect1_dropShadow_9759_22203"/>
<feBlend mode="normal" in="SourceGraphic" in2="effect1_dropShadow_9759_22203" result="shape"/>
</filter>
</defs>
</svg>
