<svg width="199" height="78" viewBox="0 0 199 78" fill="none" xmlns="http://www.w3.org/2000/svg">
<g filter="url(#filter0_d_9759_22201)">
<path d="M36.3457 34.1262C40.6035 29.9579 47.508 29.9579 51.7659 34.1262L52.2785 34.6277C52.3291 34.6767 52.3693 34.7353 52.3967 34.8001C52.4242 34.865 52.4383 34.9346 52.4383 35.005C52.4383 35.0754 52.4242 35.1451 52.3967 35.2099C52.3693 35.2747 52.3291 35.3334 52.2785 35.3824L50.5255 37.0984C50.4738 37.1485 50.4046 37.1765 50.3326 37.1765C50.2606 37.1765 50.1914 37.1485 50.1397 37.0984L49.4345 36.4079C46.4643 33.5006 41.6479 33.5006 38.677 36.4079L37.9217 37.147C37.87 37.1971 37.8009 37.2252 37.7289 37.2252C37.6569 37.2252 37.5877 37.1971 37.536 37.147L35.7829 35.431C35.7324 35.382 35.6922 35.3234 35.6648 35.2586C35.6373 35.1938 35.6232 35.1241 35.6232 35.0537C35.6232 34.9833 35.6373 34.9136 35.6648 34.8488C35.6922 34.784 35.7324 34.7253 35.7829 34.6764L36.3457 34.1262ZM55.3919 37.6746L56.9518 39.2023C57.0023 39.2512 57.0425 39.3099 57.07 39.3747C57.0974 39.4395 57.1115 39.5092 57.1115 39.5796C57.1115 39.65 57.0974 39.7197 57.07 39.7845C57.0425 39.8493 57.0023 39.9079 56.9518 39.9569L49.9169 46.8435C49.8136 46.9438 49.6752 47 49.5312 47C49.3871 47 49.2487 46.9438 49.1454 46.8435L44.1527 41.9557C44.1269 41.9305 44.0922 41.9164 44.0561 41.9164C44.02 41.9164 43.9853 41.9305 43.9595 41.9557L38.9668 46.8435C38.8635 46.9438 38.7251 47 38.5811 47C38.437 47 38.2987 46.9438 38.1954 46.8435L31.1598 39.9569C31.1092 39.9079 31.069 39.8493 31.0416 39.7845C31.0141 39.7197 31 39.65 31 39.5796C31 39.5092 31.0141 39.4395 31.0416 39.3747C31.069 39.3099 31.1092 39.2512 31.1598 39.2023L32.7203 37.6746C32.8236 37.5744 32.9618 37.5184 33.1057 37.5184C33.2496 37.5184 33.3878 37.5744 33.4911 37.6746L38.4838 42.5623C38.5096 42.5875 38.5443 42.6017 38.5804 42.6017C38.6165 42.6017 38.6512 42.5875 38.677 42.5623L43.6697 37.6746C43.773 37.5742 43.9114 37.518 44.0554 37.518C44.1995 37.518 44.3378 37.5742 44.4411 37.6746L49.4345 42.5623C49.4604 42.5875 49.495 42.6017 49.5312 42.6017C49.5673 42.6017 49.6019 42.5875 49.6278 42.5623L54.6205 37.6746C54.7238 37.5742 54.8621 37.518 55.0062 37.518C55.1502 37.518 55.2886 37.5742 55.3919 37.6746ZM66.495 44.6218L68.38 37.0821C68.4914 36.666 68.5873 36.2188 68.7149 35.5164C68.8108 36.2188 68.923 36.666 69.0026 37.0821L70.6316 44.6218H74.0024L76.845 33.4393H74.257L72.6922 40.3089C72.5368 40.9625 72.4144 41.6235 72.3255 42.2893C72.1971 41.5389 72.0695 40.9796 71.9256 40.3244L70.4081 33.4393H67.0218L65.3766 40.3244C65.2293 40.9754 65.1016 41.6307 64.9937 42.2893C64.8856 41.6306 64.7577 40.9754 64.6101 40.3244L63.077 33.4393H60.3776L63.2046 44.6218H66.495ZM78.7743 44.9095C80.0521 44.9095 80.8666 44.382 81.282 43.6153C81.234 43.8551 81.2185 44.0949 81.2185 44.3347V44.6218H83.3587V40.0049C83.3587 37.8008 82.3524 36.5228 79.8928 36.5228C77.7681 36.5228 76.3788 37.7049 76.2512 39.3341H78.5995C78.6784 38.6147 79.1897 38.1845 79.9725 38.1845C80.7073 38.1845 81.1064 38.5992 81.1064 39.0788C81.1064 39.4301 80.8991 39.6374 80.2757 39.7171L79.158 39.8455C77.4966 40.0528 76.0756 40.6601 76.0756 42.417C76.0756 44.0145 77.4014 44.9095 78.7743 44.9095ZM79.4936 43.2641C78.8703 43.2641 78.4077 42.9128 78.4077 42.3049C78.4077 41.7145 78.9344 41.4268 79.7334 41.2829L80.2764 41.187C80.739 41.091 80.995 41.0113 81.1543 40.8675V41.6024C81.1543 42.5933 80.4358 43.2641 79.4936 43.2641ZM84.4715 33.4393V44.6218H86.7873V33.4393H84.4715ZM88.1272 33.4393V44.6218H90.443V33.4393H88.1272ZM95.4984 44.9095C97.7028 44.9095 99.1238 43.6633 99.2839 42.034H96.9518C96.8397 42.7527 96.2325 43.1519 95.4984 43.1519C94.5084 43.1519 93.7891 42.3535 93.7736 41.2511H99.3318V40.804C99.3318 38.2155 97.9102 36.5228 95.4505 36.5228C93.0867 36.5228 91.4253 38.1838 91.4253 40.6918C91.4253 43.4072 93.1347 44.9095 95.4984 44.9095ZM93.7566 39.7333C93.8533 38.839 94.5084 38.1838 95.435 38.1838C96.3291 38.1838 96.9511 38.8066 96.968 39.7333H93.7566ZM104.234 44.7812C104.745 44.7812 105.24 44.7015 105.463 44.638V42.8797C105.279 42.9115 105.092 42.9276 104.904 42.9276C104.058 42.9276 103.755 42.448 103.755 41.6652V38.5985H105.639V36.793H103.755V34.0141H101.454V36.793H99.7613V38.5985H101.454V41.9854C101.454 43.8382 102.381 44.7812 104.234 44.7812ZM112.051 44.9095C115.214 44.9095 117.131 43.056 117.37 40.3886H114.863C114.671 41.8415 113.648 42.8324 112.147 42.8324C110.374 42.8324 109.128 41.395 109.128 38.9667C109.128 36.5863 110.422 35.2286 112.195 35.2286C113.713 35.2286 114.575 36.1554 114.751 37.5131H117.322C117.066 34.7335 115.022 33.1515 112.211 33.1515C109.001 33.1515 106.541 35.3238 106.541 38.9667C106.541 42.7365 108.697 44.9095 112.051 44.9095ZM122.391 44.9095C124.803 44.9095 126.512 43.3917 126.512 40.7398C126.512 38.1358 124.803 36.5221 122.391 36.5221C119.995 36.5221 118.286 38.1358 118.286 40.7398C118.286 43.3917 119.98 44.9095 122.391 44.9095ZM122.391 43.1202C121.321 43.1202 120.634 42.2414 120.634 40.7398C120.634 39.2065 121.353 38.3439 122.391 38.3439C123.446 38.3439 124.164 39.2065 124.164 40.7398C124.164 42.2421 123.461 43.1202 122.391 43.1202ZM129.741 44.6218V40.0373C129.741 39.0626 130.348 38.3439 131.21 38.3439C132.025 38.3439 132.504 38.9667 132.504 40.0049V44.6218H134.82V39.6699C134.82 37.7846 133.83 36.5221 132.056 36.5221C130.827 36.5221 130.076 37.1132 129.677 37.8163C129.718 37.5787 129.74 37.3381 129.741 37.0969V36.7937H127.425V44.6218H129.741ZM138.522 44.6218V40.0373C138.522 39.0626 139.128 38.3439 139.99 38.3439C140.806 38.3439 141.285 38.9667 141.285 40.0049V44.6218H143.6V39.6699C143.6 37.7846 142.61 36.5221 140.837 36.5221C139.608 36.5221 138.857 37.1132 138.457 37.8163C138.505 37.5286 138.522 37.305 138.522 37.0969V36.7937H136.205V44.6218H138.522ZM148.584 44.9095C150.788 44.9095 152.209 43.6633 152.369 42.034H150.037C149.925 42.7527 149.319 43.1519 148.584 43.1519C147.593 43.1519 146.874 42.3535 146.859 41.2511H152.417V40.804C152.417 38.2155 150.996 36.5228 148.536 36.5228C146.172 36.5228 144.511 38.1838 144.511 40.6918C144.511 43.4072 146.22 44.9095 148.584 44.9095ZM146.843 39.7333C146.939 38.839 147.593 38.1838 148.52 38.1838C149.414 38.1838 150.037 38.8066 150.053 39.7333H146.843ZM157.39 44.9095C159.818 44.9095 161.144 43.5836 161.399 41.5227H159.083C159.003 42.3853 158.508 43.1202 157.47 43.1202C156.416 43.1202 155.697 42.1455 155.697 40.7081C155.697 39.1423 156.528 38.3439 157.518 38.3439C158.492 38.3439 158.971 39.0464 159.035 39.861H161.351C161.176 37.9602 159.882 36.5221 157.502 36.5221C155.186 36.5221 153.349 38.0562 153.349 40.7081C153.349 43.3275 154.898 44.9095 157.39 44.9095ZM166.409 44.7812C166.92 44.7812 167.415 44.7015 167.639 44.638V42.8797C167.454 42.9115 167.267 42.9275 167.079 42.9276C166.233 42.9276 165.929 42.448 165.929 41.6652V38.5985H167.814V36.793H165.929V34.0141H163.63V36.793H161.936V38.5985H163.63V41.9854C163.63 43.8382 164.555 44.7812 166.409 44.7812Z" fill="#28EAE9"/>
</g>
<defs>
<filter id="filter0_d_9759_22201" x="0" y="0" width="198.814" height="78" filterUnits="userSpaceOnUse" color-interpolation-filters="sRGB">
<feFlood flood-opacity="0" result="BackgroundImageFix"/>
<feColorMatrix in="SourceAlpha" type="matrix" values="0 0 0 0 0 0 0 0 0 0 0 0 0 0 0 0 0 0 127 0" result="hardAlpha"/>
<feOffset/>
<feGaussianBlur stdDeviation="15.5"/>
<feComposite in2="hardAlpha" operator="out"/>
<feColorMatrix type="matrix" values="0 0 0 0 0.156863 0 0 0 0 0.917647 0 0 0 0 0.913725 0 0 0 0.6 0"/>
<feBlend mode="normal" in2="BackgroundImageFix" result="effect1_dropShadow_9759_22201"/>
<feBlend mode="normal" in="SourceGraphic" in2="effect1_dropShadow_9759_22201" result="shape"/>
</filter>
</defs>
</svg>
