<svg width="40" height="34" viewBox="0 0 40 34" fill="none" xmlns="http://www.w3.org/2000/svg">
<path d="M19.9082 6.81843C19.9082 5.27535 20.5212 3.79547 21.6123 2.70435C22.7034 1.61323 24.1833 1.00024 25.7264 1.00024H37.3627C37.7485 1.00024 38.1185 1.15349 38.3913 1.42627C38.664 1.69905 38.8173 2.06902 38.8173 2.45479V25.7275C38.8173 26.1133 38.664 26.4833 38.3913 26.756C38.1185 27.0288 37.7485 27.1821 37.3627 27.1821H25.7264C24.1833 27.1821 22.7034 27.795 21.6123 28.8862C20.5212 29.9773 19.9082 31.4572 19.9082 33.0002" stroke="#28EAE9" stroke-width="2" stroke-linecap="round" stroke-linejoin="round"/>
<path d="M1 25.7275C1 26.1133 1.15325 26.4833 1.42603 26.756C1.69881 27.0288 2.06878 27.1821 2.45455 27.1821H14.0909C15.634 27.1821 17.1139 27.795 18.205 28.8862C19.2961 29.9773 19.9091 31.4572 19.9091 33.0002V6.81843C19.9091 5.27535 19.2961 3.79547 18.205 2.70435C17.1139 1.61323 15.634 1.00024 14.0909 1.00024H2.45455C2.06878 1.00024 1.69881 1.15349 1.42603 1.42627C1.15325 1.69905 1 2.06902 1 2.45479V25.7275Z" stroke="#28EAE9" stroke-width="2" stroke-linecap="round" stroke-linejoin="round"/>
</svg>
