<svg width="39" height="34" viewBox="0 0 39 34" fill="none" xmlns="http://www.w3.org/2000/svg">
<path d="M1.72656 17H8.99929H13.3629H17.7266H20.6356H24.9993" stroke="#28EAE9" stroke-width="2" stroke-linecap="round" stroke-linejoin="round"/>
<path d="M1.02078 11.1806C1.00702 10.9395 1.00009 10.6975 1 10.4546C1.00037 8.26935 1.75755 6.15171 3.14281 4.46168C4.52807 2.77165 6.45589 1.61355 8.59852 1.18427C10.7412 0.754995 12.9663 1.08104 14.8957 2.10698C16.8251 3.13292 18.3397 4.79542 19.1818 6.81183L19.1818 6.81185C20.024 4.79543 21.5385 3.13293 23.4679 2.10699C25.3973 1.08105 27.6225 0.754997 29.7651 1.18427C31.9077 1.61354 33.8356 2.77165 35.2208 4.46168C36.6061 6.15171 37.3632 8.26935 37.3636 10.4546C37.3636 22.8182 19.1818 33 19.1818 33C19.1818 33 11.9191 28.9329 6.57409 22.8184" stroke="#28EAE9" stroke-width="2" stroke-linecap="round" stroke-linejoin="round"/>
</svg>
