<svg width="261" height="36" viewBox="0 0 261 36" fill="none" xmlns="http://www.w3.org/2000/svg">
<path d="M37.7897 35.2628H62.7526V28.6796H45.3338V20.6054H59.7758V14.0167H45.3338V6.58312H62.8575V0H37.7897V35.2628Z" fill="#0C4088"/>
<path d="M92.8075 22.1959L76.4546 0H65.1937L68.7007 4.46238V35.3732H76.2392V12.2163L93.1278 35.2628H100.352V0H92.8075V22.1959Z" fill="#0C4088"/>
<path d="M26.424 17.1205C29.7376 16.4854 32.499 13.4037 32.499 9.05179C32.4769 4.35193 29.0804 0 22.2819 0H0.400757L3.79725 4.35193V35.2793H23.044C29.8481 35.2793 33.3495 31.0323 33.3495 25.7194C33.2225 21.351 30.2236 17.6341 26.424 17.1205ZM11.3413 6.6273H20.7963C23.3478 6.6273 24.9383 8.11844 24.9383 10.3441C24.9383 12.5698 23.3478 14.0609 20.7963 14.0609H11.3413V6.6273ZM21.1111 28.7183H11.3413V20.6054H21.1111C23.9829 20.6054 25.5735 22.4113 25.5735 24.6425C25.5735 27.1885 23.8724 28.6796 21.1111 28.6796V28.7183Z" fill="#0C4088"/>
<path d="M210.713 22.1959H214.645V26.3435C212.611 28.0274 210.061 28.963 207.421 28.9944C201.153 28.9944 196.696 24.2173 196.696 17.7391C196.696 11.2609 201.153 6.47819 207.421 6.47819C209.032 6.49152 210.614 6.90661 212.024 7.68582C213.434 8.46503 214.627 9.58374 215.495 10.9406L221.443 7.62692C218.897 3.61188 214.429 0 207.316 0C197.331 0 189.047 6.90344 189.047 17.6341C189.047 28.3648 197.226 35.2628 207.316 35.2628C210.041 35.308 212.743 34.7616 215.237 33.6613C217.73 32.561 219.955 30.933 221.758 28.8895V15.8282H205.615L210.713 22.1959Z" fill="#0C4088"/>
<path d="M176.726 22.1959L160.367 0H149.106L152.613 4.46238V35.3732H160.157V12.2163L177.046 35.2628H184.264V0H176.726V22.1959Z" fill="#0C4088"/>
<path d="M246.715 0H232.168L235.67 4.46238L235.035 6.15787L223.774 35.3732H232.273L234.482 29.4197H249.698L251.907 35.3732H260.401L246.715 0ZM236.421 22.7316L241.944 7.53855L247.466 22.7316H236.421Z" fill="#0C4088"/>
<path d="M144.754 0H137.21V35.3732H144.754V0Z" fill="#0C4088"/>
<path d="M131.157 6.05293V0H104.599V6.58312H121.277L104.599 29.2098V35.2628H131.478V28.6796H114.374L131.157 6.05293Z" fill="#0C4088"/>
</svg>
