<svg width="16" height="21" viewBox="0 0 16 21" fill="none" xmlns="http://www.w3.org/2000/svg">
<g clip-path="url(#clip0_6614_13178)">
<path d="M12.9225 10.2194C14.0982 9.58484 14.8397 8.43921 14.8397 6.95624C14.8397 4.6483 12.9893 3.10521 9.38878 3.10187V0.5H6.82699V3.10187H5.4175H4.87642V0.5H2.31797V3.10187H0V5.7171H2.32131V15.313H0V17.9282H2.31797V20.4933H4.87976V17.9282H5.42084H6.83033V20.4933H9.39212V17.9282H9.78958C13.5838 17.9282 15.5645 16.4452 15.5645 13.8801C15.5611 12.023 14.5291 10.7505 12.9225 10.2194ZM4.78958 5.7171H5.42084V5.6837H8.96459C10.5945 5.6837 11.4796 6.25484 11.4796 7.42051C11.4796 8.58617 10.5912 9.18069 8.96459 9.18069H4.78958V5.7171ZM9.53908 15.3464H5.4175V15.3163H4.78624V11.6824H9.53574C11.2692 11.6824 12.1977 12.2769 12.1977 13.5261C12.2011 14.7986 11.2725 15.3464 9.53908 15.3464Z" fill="white"/>
</g>
<defs>
<clipPath id="clip0_6614_13178">
<rect width="15.5611" height="20" fill="white" transform="translate(0 0.5)"/>
</clipPath>
</defs>
</svg>
