<svg width="185" height="72" viewBox="0 0 185 72" fill="none" xmlns="http://www.w3.org/2000/svg">
<path d="M8.91123 4.88867H20.8508V28.8719H26.7451V5.69326H27.4491V4.88867H39.4425V65.2006H38.7385V66.0052H26.799V41.7202H20.9046V65.2006H20.2006V66.0052H8.25391V5.69326H8.95792C8.90764 5.44183 8.90764 5.14011 8.90764 4.88867M9.20936 5.19039V64.8953H20.5455V40.6103H27.7508V64.8953H39.1372V5.19039H27.8011V29.1736H20.5957V5.19039H9.20936Z" fill="#062044"/>
<path d="M134.269 5.03955H145.404V65.2006H144.7V66.0052H133.565V5.84414H134.269V5.03955ZM134.571 5.34127V64.845H145.102V5.34127H134.571Z" fill="#062044"/>
<path d="M165.91 5.03955H177.096V65.2006H176.392V66.0052H165.81V61.8745C165.408 62.6791 164.801 63.3364 164.197 63.9901C162.936 65.5023 161.022 66.4578 159.057 66.6086C157.847 66.6589 156.69 66.6086 155.53 66.4075C153.967 66.1058 152.405 65.4484 151.198 64.3924C149.837 63.1819 148.931 61.4686 148.324 59.7552C147.57 57.6396 147.215 55.4234 146.963 53.2036C146.712 50.7862 146.661 48.315 146.661 45.8976C146.712 42.9738 146.913 40.0536 147.466 37.18C147.868 35.1147 148.526 33.0493 149.531 31.1851C150.235 29.7735 151.295 28.6169 152.405 27.4567C153.716 26.1457 155.429 25.2405 157.293 24.9891C159.107 24.6873 161.022 24.8382 162.635 25.6931C163.745 26.2462 164.599 27.1047 165.303 28.1104V5.94471H166.007C165.957 5.59271 165.907 5.29099 165.907 5.03955M166.259 5.34127V30.0788C166.209 30.0788 166.058 30.1291 165.957 30.1291C165.555 29.3245 165.253 28.466 164.696 27.762C163.637 26.3001 161.977 25.395 160.214 25.1435C157.997 24.8418 155.681 25.2944 153.816 26.5551C152.556 27.41 151.5 28.6205 150.742 29.9818C149.632 31.846 148.978 33.9617 148.526 36.027C147.972 38.6958 147.721 41.4185 147.671 44.1376C147.62 46.8567 147.671 49.5793 147.972 52.2481C148.224 54.6152 148.626 56.9859 149.485 59.2021C150.138 60.9154 151.148 62.5282 152.61 63.6345C153.971 64.6941 155.735 65.197 157.448 65.3479C158.759 65.4484 160.117 65.4987 161.428 65.0461C163.091 64.5433 164.502 63.3328 165.357 61.8709C165.86 61.016 166.316 60.1575 166.819 59.3027V64.7947H176.794V5.29098C173.267 5.34127 169.739 5.34127 166.262 5.34127H166.259Z" fill="#062044"/>
<path d="M63.2748 5.19036C64.5858 5.0395 66.0477 5.08978 67.1038 5.94466C68.1131 6.69896 68.5154 7.95973 68.7165 9.1702C69.0685 11.1853 69.0686 13.2506 68.968 15.316C68.9177 16.627 68.8171 17.9345 68.4148 19.1952C68.2137 19.8993 67.7611 20.5063 67.2546 21.0595C66.6009 21.7635 65.5916 22.0688 64.6361 22.1191C63.5262 22.1694 62.4199 22.1694 61.4106 21.6162C60.606 21.1636 60.0492 20.3554 59.7978 19.4503C59.3452 18.0889 59.2447 16.627 59.1944 15.219C59.1441 13.1536 59.1441 11.0883 59.5967 9.02294C59.8481 7.86275 60.4515 6.85701 61.31 6.04883C61.9134 5.59625 62.6211 5.29452 63.2748 5.19395M63.3754 5.49567C62.6211 5.59625 61.9134 5.89797 61.3603 6.45471C60.4551 7.41376 60.1498 8.7715 59.9487 10.0826C59.6972 12.1479 59.7475 14.2635 59.8984 16.3792C60.0492 17.7405 60.2001 19.2024 61.1089 20.3087C61.8129 21.1636 62.9731 21.4186 64.0327 21.4186C65.0923 21.4186 66.2489 21.3181 67.1074 20.6643C67.8114 20.0609 68.167 19.1521 68.3681 18.247C68.6698 16.9359 68.6698 15.5279 68.7201 14.1666C68.7201 12.4532 68.7201 10.6896 68.3681 8.97624C68.1167 7.86634 67.7144 6.76003 66.7554 6.10271C65.7963 5.39869 64.5391 5.39869 63.379 5.49926L63.3754 5.49567Z" fill="#062044"/>
<path d="M76.1232 5.94468C77.3337 5.14009 78.792 5.03952 80.2036 5.14009C81.213 5.24067 82.2187 5.69325 82.7718 6.55172C83.4759 7.56105 83.5262 8.8685 83.325 10.079C83.2747 10.2801 83.2747 10.6321 83.0233 10.6321C82.973 10.7327 82.973 10.8333 82.9227 10.9339C81.8128 10.9841 80.7568 10.9841 79.6469 11.0344C79.6972 11.0847 79.7475 11.2356 79.7475 11.2859C80.4012 11.5373 81.0082 11.8893 81.6117 12.191C82.5707 12.6939 83.4256 13.5021 83.8279 14.5078C84.1799 15.413 84.1799 16.372 84.1296 17.2772C84.0793 18.1321 83.8279 18.9905 83.3753 19.6945C82.973 20.298 82.5204 20.8547 81.9134 21.257C80.9543 21.8605 79.7977 22.0113 78.6878 22.0113C77.4774 22.0113 76.2705 21.8102 75.2611 21.1062C74.4566 20.5027 73.9501 19.4934 73.8998 18.5379C73.8495 17.7334 73.8495 16.8749 74.101 16.0703C74.2015 15.8692 74.4027 15.7183 74.5033 15.4669C75.6132 15.4166 76.7195 15.4166 77.8294 15.3663C77.5779 16.1206 77.4271 16.9288 77.6785 17.6831C77.9802 18.5379 79.1907 18.6924 79.8444 18.1859C80.1964 17.3814 79.945 16.4223 79.241 15.8692C78.2317 15.0646 77.0248 14.5581 75.9652 13.8038C74.9055 13.0495 74.1512 11.839 74.0507 10.528C73.9501 9.41807 74.101 8.31176 74.7044 7.35271C75.0564 6.90013 75.509 6.34339 76.116 5.94109M75.4623 6.95042C74.708 7.90946 74.453 9.16663 74.6074 10.3771C74.7583 11.6379 75.5665 12.7442 76.6225 13.4518C77.4774 13.9547 78.3358 14.4611 79.1907 15.0143C79.7941 15.4166 80.4012 15.9194 80.5018 16.6773C80.6023 17.3813 80.552 18.2398 79.8983 18.6421C79.144 19.0947 77.9335 18.9941 77.4307 18.1895C77.0284 17.4855 77.1792 16.5768 77.3301 15.8225C76.4249 15.8225 75.5162 15.8727 74.6613 15.923C74.3596 17.0329 74.3093 18.2398 74.7619 19.3497C75.0636 20.1543 75.7712 20.8116 76.5758 21.1134C77.6354 21.5156 78.792 21.5659 79.9019 21.4654C80.9615 21.3648 82.0678 20.9625 82.8257 20.1543C83.6303 19.1953 83.8351 17.9381 83.8853 16.7276C83.9356 15.6177 83.6339 14.4611 82.876 13.6027C82.1217 12.7981 81.0621 12.3922 80.1031 11.8893C79.2985 11.487 78.3394 11.0344 77.9874 10.1257C77.7863 9.52223 77.8366 8.76434 78.3394 8.31176C78.9429 7.80889 80.1031 7.90946 80.4048 8.71405C80.6059 9.26721 80.5556 9.92453 80.4048 10.528C81.2597 10.4777 82.1684 10.4777 83.0233 10.4274C83.2244 9.52223 83.2244 8.5129 82.9227 7.60415C82.7216 6.90013 82.2187 6.2931 81.5614 5.99138C80.6562 5.5388 79.5966 5.48851 78.6376 5.58908C77.3768 5.58908 76.2202 6.04167 75.4623 6.95042ZM78.4867 8.66377C78.0844 8.76434 78.1347 9.21692 78.1347 9.56893C78.1347 10.3735 78.9393 10.8297 79.496 11.2823C79.7977 10.6285 79.9989 9.82036 79.7475 9.11635C79.5463 8.61348 78.9429 8.51291 78.4867 8.66377Z" fill="#062044"/>
<path d="M106.356 5.19027C107.516 5.0897 108.824 5.13999 109.833 5.844C110.738 6.44745 111.245 7.50706 111.496 8.56308C111.999 10.6284 111.949 12.7441 111.949 14.8597C111.899 16.3719 111.848 17.8841 111.345 19.2921C111.144 19.9962 110.692 20.5529 110.185 21.1061C109.481 21.8604 108.422 22.1154 107.466 22.1657C106.356 22.216 105.2 22.216 104.241 21.6125C103.386 21.1097 102.879 20.1506 102.628 19.1952C102.175 17.4315 102.125 15.5673 102.125 13.7534C102.175 11.7383 102.175 9.6227 103.03 7.80878C103.483 7.00419 104.039 6.19601 104.894 5.74343C105.347 5.39142 105.853 5.24056 106.356 5.19027ZM106.306 5.49199C105.451 5.59257 104.593 6.04515 104.039 6.75276C103.235 7.81237 102.98 9.17012 102.829 10.4812C102.628 12.4962 102.678 14.5616 102.829 16.6269C102.98 17.938 103.181 19.346 104.039 20.3554C104.744 21.2102 105.954 21.415 107.014 21.415C108.073 21.415 109.23 21.3144 110.038 20.6104C110.893 19.8561 111.198 18.7462 111.349 17.6866C111.55 16.3252 111.6 14.9675 111.6 13.5559C111.6 11.8928 111.55 10.2297 111.198 8.61696C110.947 7.60763 110.444 6.55161 109.535 5.99846C108.576 5.39501 107.419 5.39501 106.31 5.49559L106.306 5.49199Z" fill="#062044"/>
<path d="M45.0854 5.3916H50.1752C51.0803 5.3916 52.0394 5.64304 52.7434 6.29677C53.4977 7.00078 53.9036 8.01011 54.0042 9.01585C54.1047 9.92101 54.1047 10.8801 53.7527 11.7349C53.5516 12.2881 53.1493 12.694 52.7937 13.1466C53.3971 13.4986 53.8533 14.0517 54.1047 14.709C54.4567 15.6142 54.4567 16.6235 54.4567 17.5826C54.4064 18.4877 54.2556 19.4971 53.7024 20.2514C53.4007 20.704 53.0487 21.1062 52.5925 21.4116C51.9891 21.7636 51.2815 21.8641 50.6278 21.8641H44.834V5.7939C44.8843 5.7939 45.0351 5.74361 45.0854 5.74361V5.3916ZM45.3871 5.69332V21.1601H51.0803C51.9352 21.1601 52.844 20.8584 53.3468 20.1508C53.9503 19.2959 54.1011 18.186 54.1011 17.1767C54.1011 16.0668 54.0006 14.8599 53.2965 13.9511C52.8942 13.4483 52.2872 13.2471 51.7341 13.0963C52.1364 12.9454 52.6392 12.7945 52.9445 12.4425C53.5983 11.7888 53.7491 10.8298 53.7491 9.97489C53.7491 8.86499 53.4977 7.6581 52.7398 6.79963C52.0861 6.04533 51.127 5.74002 50.1716 5.74002C48.5588 5.68973 46.9963 5.68973 45.3835 5.68973L45.3871 5.69332Z" fill="#062044"/>
<path d="M88.4687 5.3916H97.8903V8.61714H97.5886V8.96915H95.0707V21.4654H94.7689V21.8174H90.9902V8.91886H88.167V5.74361H88.4687V5.3916ZM88.7704 5.69332V8.26154H91.5937V21.1601H94.7689V8.26154H97.5922V5.64304C94.6181 5.69332 91.6978 5.69332 88.774 5.69332H88.7704Z" fill="#062044"/>
<path d="M117.592 5.3916H120.918C121.773 7.45695 122.581 9.47202 123.436 11.5374C123.486 9.62288 123.436 7.70839 123.436 5.7939H123.738V5.44189H126.762V21.5157H126.46V21.918H123.587C122.682 19.6012 121.672 17.2809 120.764 14.9138C120.713 17.13 120.764 19.2959 120.713 21.5157H120.412V21.8677C119.352 21.918 118.296 21.8677 117.236 21.8677V5.7939C117.287 5.7939 117.437 5.7939 117.538 5.74361C117.588 5.64304 117.588 5.49218 117.588 5.3916M117.89 21.1637H120.458V12.9526C120.509 12.9526 120.659 12.9023 120.76 12.9023C121.87 15.6717 122.976 18.3943 124.086 21.1637H126.403V5.69332H123.986V12.9993C123.935 13.0496 123.784 13.0999 123.684 13.0999C122.674 10.6322 121.669 8.16097 120.659 5.64304H117.886V21.1601L117.89 21.1637Z" fill="#062044"/>
<path d="M106.91 7.85907C107.463 7.65792 108.07 8.00993 108.221 8.61337C108.472 9.77356 108.422 10.9302 108.422 12.1406C108.422 13.9043 108.472 15.6176 108.321 17.3812C108.271 17.8841 108.221 18.4911 107.768 18.7929C107.366 18.994 106.759 18.994 106.457 18.5917C106.206 18.29 106.206 17.8877 106.155 17.5321C106.004 16.1205 106.055 14.6586 106.055 13.2505C106.055 11.8425 106.004 10.4776 106.155 9.11983C106.206 8.56668 106.356 7.95964 106.91 7.85907ZM106.608 8.56308C106.457 8.91509 106.407 9.2671 106.407 9.6227C106.306 10.8332 106.356 12.0401 106.356 13.2505C106.356 14.6622 106.306 16.0738 106.457 17.4315C106.507 17.7835 106.558 18.1355 106.759 18.3906C107.01 18.5917 107.312 18.4911 107.614 18.4911C107.966 16.8784 107.815 15.2656 107.865 13.6528C107.815 12.1406 107.966 10.6284 107.664 9.11983C107.563 8.61696 107.01 8.36553 106.604 8.56668L106.608 8.56308Z" fill="#062044"/>
<path d="M48.3613 8.01013C48.9648 8.06042 49.6724 7.80898 50.125 8.31185C50.5775 8.81472 50.5775 9.57261 50.5775 10.2263C50.5775 10.7795 50.4267 11.5374 49.8735 11.7888C49.3707 11.9397 48.8642 11.8391 48.3613 11.8894V8.01013ZM48.6631 8.66386V11.5877C49.0151 11.5877 49.3671 11.638 49.7227 11.5374C49.9741 11.4368 49.9238 11.1351 49.9741 10.934C50.0244 10.2802 50.0244 9.52233 49.6724 8.96917C49.4712 8.66745 49.0187 8.66745 48.6631 8.66745V8.66386Z" fill="#062044"/>
<path d="M48.3613 18.7928V14.2598C49.0151 14.3101 49.773 14.1089 50.2758 14.6118C50.8793 15.2655 50.9296 16.2245 50.8793 17.0794C50.829 17.6829 50.6781 18.4408 50.0747 18.6922C49.5215 18.8933 48.9145 18.7928 48.3613 18.7928ZM48.6631 14.9135V18.491C49.0653 18.491 49.5179 18.5413 49.9238 18.3905C50.125 18.2899 50.1752 17.9882 50.2255 17.787C50.3261 16.9824 50.3764 16.0234 49.8735 15.3194C49.5718 14.9171 49.1192 14.9171 48.6631 14.9171V14.9135Z" fill="#062044"/>
<path d="M107.815 25.0933C110.484 24.339 113.257 24.2384 115.976 24.2887C118.443 24.3893 120.864 24.6407 123.231 25.3986C124.945 25.9518 126.608 26.8605 127.815 28.2219C128.824 29.3821 129.377 30.8907 129.478 32.4531C129.578 33.563 129.528 34.6694 129.528 35.729V56.1849C129.528 56.7884 129.83 57.4457 130.333 57.7977C131.087 58.3509 132.146 58.4012 133.001 57.9989V63.8429C132.75 63.9938 132.498 64.1446 132.297 64.2955V64.6475C130.936 65.5024 129.373 66.0088 127.865 66.4111C126.302 66.8134 124.639 66.8637 123.027 66.7129C121.665 66.562 120.203 66.1094 119.248 65.0498C118.644 64.2955 118.289 63.3867 118.037 62.4816C117.585 63.1353 117.028 63.6418 116.575 64.2452C115.114 65.7574 112.998 66.562 110.882 66.8134C108.666 67.0146 106.299 66.8134 104.28 65.7538C102.316 64.7445 100.803 62.9306 99.9988 60.9155C99.2948 59.2524 98.9895 57.4888 98.8889 55.6749C98.8386 53.861 98.9392 51.9968 99.4923 50.2331C99.9449 48.8718 100.653 47.5643 101.608 46.4544C101.859 46.1527 102.111 45.851 102.413 45.5996C104.377 43.5342 107.15 42.4746 109.869 41.9717C111.382 41.6197 112.944 41.318 114.453 40.9624C115.412 40.711 116.417 40.4595 117.226 39.8022C117.729 39.0479 117.728 38.0386 117.779 37.1334C117.779 35.8726 117.678 34.5652 117.024 33.5056C116.572 32.7513 115.713 32.2448 114.859 32.094C113.346 31.7922 111.683 32.0437 110.476 32.9991C110.074 33.502 109.873 34.1593 109.823 34.7627C109.722 36.0235 110.024 37.2807 110.175 38.4912C109.923 38.5917 109.672 38.642 109.42 38.7426C109.42 38.9437 109.471 39.0946 109.471 39.2957C106.497 40.2548 103.476 41.2102 100.502 42.1693C100.351 40.2045 100.2 38.1894 100.15 36.2247C100.049 34.4107 100.099 32.4962 100.904 30.7829C101.407 29.5724 102.316 28.6673 103.17 27.7082C104.431 26.3972 106.094 25.5926 107.808 25.0897M108.361 25.2909C106.597 25.7434 104.884 26.5013 103.522 27.7585C102.513 28.7175 101.759 29.9747 101.407 31.3361C101.005 32.6974 101.055 34.1593 101.105 35.517C101.155 37.331 101.306 39.0946 101.407 40.9085C104.176 40.0034 106.999 39.0946 109.772 38.2397C109.571 37.0795 109.37 35.9229 109.42 34.7125C109.471 33.502 110.124 32.3957 111.134 31.6881C112.495 30.729 114.259 30.5782 115.821 30.9338C116.78 31.1349 117.635 31.7886 118.088 32.6471C118.641 33.7067 118.741 34.9639 118.741 36.1241C118.691 37.234 118.641 38.4409 117.937 39.3999C117.132 40.4092 115.821 40.8115 114.611 41.1133C112.646 41.5658 110.681 41.9681 108.716 42.4243C106.4 42.9775 104.133 43.9868 102.47 45.7504C101.26 47.0615 100.505 48.7245 100.153 50.4379C99.8515 51.8998 99.7509 53.3617 99.8012 54.82C99.9018 56.5334 100.204 58.2467 100.861 59.8595C101.615 61.7237 102.976 63.3867 104.74 64.3925C106.805 65.5527 109.273 65.8041 111.644 65.5024C113.609 65.2509 115.573 64.4428 116.985 62.9845C117.739 62.2301 118.095 61.1705 118.598 60.2654C118.95 61.5261 119.201 62.9342 120.11 63.9938C120.965 65.0031 122.276 65.3551 123.537 65.5563C124.848 65.7071 126.205 65.7071 127.516 65.4557C129.28 65.1037 131.044 64.6008 132.606 63.6921V58.4514C131.446 58.8035 130.038 58.4514 129.431 57.3918C129.129 56.9393 129.079 56.4328 129.129 55.8796V32.8518C129.079 31.4905 128.727 30.1831 127.969 29.0229C126.96 27.561 125.401 26.5552 123.788 25.8979C121.572 25.043 119.151 24.7377 116.784 24.5868C114.011 24.5366 111.141 24.5868 108.368 25.2909H108.361Z" fill="#062044"/>
<path d="M50.3261 25.1939C52.5926 24.339 55.1141 24.1846 57.4812 24.3391C59.5968 24.5402 61.7124 25.1436 63.4258 26.4044C64.8877 27.4137 66.0443 28.8218 66.9028 30.334C67.9121 32.1479 68.5658 34.1629 68.9681 36.178C69.4207 38.2937 69.5716 40.4093 69.7727 42.5249C69.9236 44.2886 69.9739 46.0019 70.0241 47.7655H69.2698C69.2698 48.017 69.2698 48.2684 69.3201 48.5198H67.3553C66.0443 48.4696 64.7368 48.5198 63.4258 48.4696H60.757C59.2951 48.4193 57.8835 48.4696 56.4251 48.4193C55.0135 48.4193 53.6019 48.369 52.1939 48.4193C52.2441 50.4846 52.2944 52.55 52.8476 54.565C53.1493 55.5241 53.6522 56.4795 54.6112 56.9321C55.5703 57.3344 56.6263 57.3344 57.5853 57.1835C58.1385 57.0327 58.8964 56.8818 59.0975 56.2245C59.7513 54.5614 59.4495 52.7978 59.2987 51.0845C59.5501 51.0845 59.8015 51.0845 60.1033 51.1348C60.053 50.833 60.053 50.5816 60.0027 50.2799C63.2282 50.3805 66.4502 50.481 69.726 50.5816C70.078 52.6972 70.0277 54.8632 69.6757 56.9788C69.3237 58.843 68.5658 60.6569 67.3087 62.1188C66.6046 62.8731 65.9473 63.7316 65.0924 64.3351C62.7254 66.0987 59.701 66.7524 56.831 66.853C54.5142 66.9033 52.1939 66.8027 49.9274 66.149C48.1134 65.6461 46.4001 64.7876 45.0388 63.4802C43.7277 62.2697 42.7723 60.7108 42.1149 59.098C41.2098 56.8315 40.7536 54.4106 40.5022 52.0435C40.2507 49.7267 40.2507 47.4063 40.2507 45.0393C40.3513 42.3705 40.5525 39.6478 41.1559 37.0293C41.8599 34.0049 43.0704 31.0344 45.2363 28.7679C46.6479 27.1551 48.3613 25.8943 50.3261 25.1903M53.3505 24.788C51.0337 25.0898 48.7672 25.9482 47.0035 27.5071C45.089 29.1199 43.778 31.3864 42.9734 33.7535C42.0144 36.5767 41.5618 39.5472 41.4109 42.5213C41.2098 46.1995 41.2601 49.8776 41.8635 53.5054C42.2658 55.9228 42.9734 58.2934 44.2809 60.4091C45.2399 61.9213 46.5474 63.1821 48.1601 64.0369C50.1752 65.0965 52.4417 65.5491 54.6615 65.7C56.9783 65.8509 59.3993 65.8006 61.6658 65.1971C63.3791 64.7445 65.0422 63.9364 66.3532 62.7295C67.8654 61.3178 68.8209 59.4536 69.277 57.4386C69.7296 55.3229 69.7799 53.1067 69.4782 50.9372C66.4538 50.8366 63.433 50.7361 60.4086 50.6858C60.5092 51.7957 60.66 52.8517 60.5092 53.9616C60.4086 54.9709 60.1069 56.027 59.349 56.7346C58.6449 57.4386 57.535 57.6936 56.5796 57.6397C55.6206 57.6397 54.5645 57.4889 53.8066 56.8351C52.9518 56.0808 52.5962 54.8704 52.3447 53.7605C51.9424 51.6448 51.9424 49.5292 51.9424 47.4135C54.9668 47.4135 57.9876 47.4638 61.012 47.4638C62.4236 47.5141 63.8353 47.4638 65.2433 47.5141C66.7555 47.5141 68.2677 47.5644 69.7763 47.5644C69.726 44.6406 69.5249 41.7203 69.1729 38.8468C68.8711 36.4294 68.318 34.0085 67.3087 31.742C66.5041 29.9784 65.3942 28.3153 63.8317 27.1048C62.4703 25.9949 60.8073 25.2909 59.0939 24.9892C57.1794 24.5366 55.2649 24.5366 53.3505 24.788Z" fill="#062044"/>
<path d="M87.6604 25.6966C88.8709 24.9423 90.2789 24.637 91.6402 24.7914C93.4542 24.8417 95.3184 25.3446 96.6797 26.6053C98.0913 27.9164 98.7451 29.7806 99.0971 31.5945C99.4491 33.4587 99.3485 35.3732 99.3485 37.2877C99.2982 38.7999 99.1474 40.3624 99.0971 41.871C98.8456 41.9213 98.6445 42.0218 98.393 42.0721V42.6253C95.2178 43.6346 92.0461 44.6403 88.8206 45.6497C88.8206 44.2381 88.8709 42.8767 88.8206 41.4687C88.8206 40.0068 88.8709 38.4443 88.2171 37.0865C87.664 35.8761 85.9004 35.5241 84.8407 36.3322C84.3379 37.0363 84.1367 37.8947 83.9356 38.6993C83.3824 41.0664 83.3321 43.4873 83.3824 45.9047V65.1502H82.6784V65.9548H71.5435V26.3H72.2475V25.4954H83.1813C83.1813 27.2591 83.2818 29.073 83.2818 30.8366C83.7344 29.9817 84.187 29.1233 84.8443 28.369C85.6489 27.4099 86.5074 26.4042 87.6676 25.7002M87.3659 26.2533C86.0045 27.2124 84.9988 28.6204 84.2912 30.1326C83.8889 30.9875 83.6374 31.8962 83.2818 32.8014H82.9801C82.9801 30.4846 82.9298 28.1139 82.8293 25.7971H72.4989V64.8449H83.0304V44.2883C83.0807 42.4744 83.1813 40.6605 83.5836 38.8466C83.7847 37.8373 84.1367 36.8315 84.6935 36.0233C85.0958 35.4199 85.7531 34.9637 86.4571 34.8631C87.4161 34.7123 88.4722 35.0643 89.0253 35.8725C89.7293 36.9824 89.8299 38.3401 89.8299 39.6512C89.8299 41.2639 89.7796 42.8264 89.7796 44.4392C92.7537 43.4802 95.7242 42.575 98.6984 41.616C98.7989 39.7015 99.0001 37.787 98.9498 35.8222C99.0001 33.8071 98.8995 31.6915 98.2458 29.777C97.7932 28.4157 96.985 27.1082 95.7781 26.3C94.3162 25.2907 92.5023 25.0393 90.789 25.0393C89.5785 25.1398 88.3716 25.5421 87.3623 26.2497L87.3659 26.2533Z" fill="#062044"/>
<path d="M54.0543 32.751C54.8589 32.0973 56.0191 32.047 56.9782 32.2984C57.6822 32.4996 58.2389 33.103 58.4904 33.7603C58.8927 34.8702 59.0435 36.0268 59.1441 37.187C59.295 38.7998 59.3955 40.4628 59.4458 42.0756H51.8381C51.9387 39.8594 51.989 37.5929 52.5421 35.4737C52.8439 34.4643 53.2462 33.4586 54.0543 32.7546M53.6521 33.7639C53.0486 34.723 52.7972 35.8796 52.6427 36.9895C52.3913 38.6022 52.2907 40.1647 52.2404 41.7775H58.4365C58.3359 40.1144 58.2353 38.4514 58.0342 36.7883C57.8833 35.9334 57.7325 35.0247 57.2799 34.2201C57.0285 33.7675 56.5256 33.4155 56.0191 33.3652C55.2145 33.2143 54.3058 33.2646 53.6521 33.7675V33.7639Z" fill="#062044"/>
<path d="M161.072 33.0527C161.826 32.8516 162.635 32.9521 163.288 33.3041C164.093 33.7567 164.599 34.6152 164.901 35.4701C165.655 37.4349 165.86 39.5505 166.011 41.6158C166.112 44.2344 166.112 46.9067 165.961 49.5253C165.86 51.138 165.709 52.7508 165.257 54.263C165.005 55.1179 164.704 55.9763 164.046 56.6301C162.987 57.74 160.921 57.74 159.966 56.5295C159.262 55.6746 159.007 54.615 158.755 53.6057C158.252 51.138 158.152 48.6165 158.102 46.0986C158.102 43.2753 158.152 40.4557 158.604 37.6827C158.806 36.6231 159.007 35.5671 159.51 34.608C159.912 33.904 160.415 33.2467 161.072 33.0455M160.67 34.0549C160.368 34.1051 160.066 34.256 159.915 34.5074C159.312 35.6676 159.061 36.9248 158.906 38.1856C158.554 40.7538 158.504 43.3256 158.504 45.8938C158.554 48.462 158.604 51.0841 159.158 53.6021C159.409 54.6114 159.711 55.6171 160.418 56.4253C161.022 57.0791 162.031 57.2299 162.886 56.9785C163.188 56.8779 163.59 56.727 163.691 56.375C164.344 55.1143 164.596 53.7062 164.75 52.2946C165.102 49.5217 165.052 46.702 165.002 43.929C164.951 41.5117 164.8 39.0404 164.043 36.7237C163.791 36.0196 163.489 35.312 162.983 34.7589C162.43 34.1554 161.521 33.9543 160.666 34.0549H160.67Z" fill="#062044"/>
<path d="M115.272 46.6553C116.482 46.3033 117.689 45.8507 118.799 45.1934C118.749 47.7616 118.899 50.2831 118.598 52.8513C118.447 54.2127 118.145 55.6746 117.387 56.8312C116.884 57.6358 115.976 58.1422 115.07 58.2931C114.061 58.4439 112.904 58.4439 112.046 57.8405C111.241 57.2873 110.836 56.278 110.634 55.3729C110.383 54.1624 110.383 52.9555 110.433 51.745C110.484 50.5848 110.785 49.3277 111.694 48.4692C112.653 47.4599 114.011 47.0073 115.272 46.6553ZM116.784 47.0576C115.272 47.7113 113.609 47.9124 112.2 48.7206C111.848 48.9218 111.446 49.1229 111.295 49.5252C110.742 50.7357 110.742 52.0934 110.742 53.4045C110.792 54.6652 110.943 56.023 111.751 57.0323C112.355 57.7866 113.364 57.9914 114.269 57.9375C115.074 57.8872 115.932 57.7866 116.536 57.1832C117.089 56.3283 117.29 55.3693 117.495 54.3599C117.948 51.7414 117.746 49.069 117.797 46.4505C117.495 46.7523 117.143 46.9031 116.787 47.054L116.784 47.0576Z" fill="#062044"/>
<path d="M9.21288 5.19043H20.549V29.1737H27.7544V5.19043H39.0905V64.8953H27.7041V40.6103H20.4987V64.8953H9.1626C9.21288 44.9925 9.21288 25.0897 9.21288 5.19043Z" fill="#0C4088"/>
<path d="M134.571 5.34131H145.102V64.845H134.571C134.571 45.0428 134.621 25.1902 134.571 5.34131Z" fill="#0C4088"/>
<path d="M166.262 5.34131H176.794V64.845H166.819V59.353C166.316 60.2079 165.86 61.0663 165.357 61.9212C164.502 63.3831 163.091 64.59 161.428 65.0965C160.167 65.4988 158.759 65.4988 157.448 65.3982C155.735 65.2473 154.021 64.7445 152.61 63.6848C151.148 62.5749 150.092 60.9658 149.485 59.2524C148.63 57.0362 148.224 54.6691 147.972 52.2985C147.721 49.5794 147.671 46.8567 147.671 44.1879C147.721 41.4688 147.972 38.7461 148.526 36.0774C148.978 33.9617 149.635 31.8964 150.742 30.0322C151.496 28.7211 152.505 27.5142 153.816 26.6055C155.681 25.3447 157.997 24.8921 160.214 25.1938C161.977 25.4453 163.64 26.354 164.696 27.8123C165.25 28.5164 165.551 29.3748 165.957 30.1794C166.007 30.1794 166.158 30.1291 166.259 30.1291V5.34131M161.069 33.053C160.364 33.3044 159.908 33.9078 159.556 34.5149C159.053 35.4739 158.852 36.5299 158.651 37.5896C158.199 40.3625 158.148 43.1822 158.148 46.0054C158.199 48.5233 158.249 51.0449 158.802 53.5125C159.053 54.5219 159.355 55.6282 160.012 56.4363C160.972 57.6468 163.037 57.6971 164.093 56.5369C164.696 55.8832 165.052 55.0247 165.303 54.1698C165.756 52.6074 165.907 50.9946 166.007 49.4321C166.158 46.8136 166.158 44.1412 166.058 41.5227C165.957 39.4573 165.706 37.3417 164.948 35.3769C164.646 34.522 164.143 33.6636 163.335 33.211C162.631 32.9596 161.823 32.859 161.069 33.0601V33.053Z" fill="#0C4088"/>
<path d="M63.3756 5.49205C64.5358 5.39147 65.7929 5.39147 66.752 6.0452C67.711 6.69893 68.1636 7.85912 68.3647 8.91874C68.7168 10.6321 68.7168 12.3957 68.7168 14.1091C68.6665 15.4704 68.6665 16.8281 68.3647 18.1895C68.1636 19.0946 67.8116 20.0034 67.104 20.6068C66.2491 21.3109 65.0889 21.4114 64.0293 21.3611C62.9697 21.3611 61.7628 21.1097 61.1055 20.2512C60.2506 19.1413 60.0459 17.683 59.895 16.3217C59.7441 14.206 59.6939 12.0904 59.9453 10.025C60.1464 8.76428 60.3979 7.35625 61.3569 6.39721C61.9101 5.89434 62.668 5.59262 63.372 5.49205M63.9754 7.85912C63.5731 7.95969 63.3217 8.36199 63.2714 8.714C63.0703 9.67304 63.1206 10.6285 63.0703 11.5875C63.0703 13.4517 63.02 15.3159 63.1708 17.1801C63.2211 17.683 63.2211 18.1895 63.5731 18.5918C63.8749 18.8935 64.3274 18.8935 64.683 18.7929C65.035 18.6923 65.2362 18.3403 65.3368 17.9883C65.5379 16.979 65.4876 15.923 65.5379 14.9136V11.1852C65.4876 10.2801 65.5379 9.32103 65.2865 8.46615C65.0853 7.96329 64.4819 7.71185 63.9754 7.86271V7.85912Z" fill="#0C4088"/>
<path d="M75.4694 6.95417C76.2237 6.049 77.3838 5.59283 78.544 5.49226C79.5534 5.39168 80.5591 5.44197 81.4679 5.89455C82.1216 6.19627 82.628 6.85359 82.8292 7.50732C83.1309 8.41248 83.1309 9.42181 82.9298 10.3306C82.0749 10.3809 81.1661 10.3809 80.3113 10.4311C80.4621 9.8277 80.5124 9.22067 80.3113 8.61722C80.0095 7.81263 78.8494 7.71206 78.2459 8.21493C77.7933 8.66751 77.743 9.42541 77.8939 10.0288C78.2459 10.934 79.2049 11.3902 80.0095 11.7925C80.9686 12.2953 82.0246 12.6474 82.7825 13.5058C83.5368 14.3104 83.8421 15.5209 83.7918 16.6308C83.7918 17.8413 83.5404 19.0984 82.7322 20.0575C82.0282 20.9124 80.9183 21.268 79.8084 21.3685C78.6985 21.4691 77.5419 21.4188 76.4823 21.0165C75.6777 20.7148 74.9701 20.0575 74.6684 19.2529C74.2661 18.143 74.3164 16.9361 74.5678 15.8262C75.4729 15.7759 76.3817 15.7759 77.2366 15.7256C77.136 16.5302 76.9349 17.3887 77.3372 18.0927C77.84 18.8973 79.0002 18.9979 79.8048 18.5453C80.4585 18.143 80.5088 17.2845 80.4082 16.5805C80.2574 15.8262 79.7042 15.3197 79.0972 14.9174C78.2423 14.3643 77.3838 13.9081 76.529 13.355C75.4694 12.7012 74.7151 11.541 74.5139 10.2803C74.4636 9.17038 74.7151 7.91321 75.4729 6.95417H75.4694Z" fill="#0C4088"/>
<path d="M106.306 5.49224C107.416 5.39167 108.623 5.39167 109.582 5.99511C110.487 6.54827 110.993 7.60788 111.245 8.61362C111.647 10.2264 111.697 11.8894 111.647 13.5525C111.647 14.9138 111.597 16.3255 111.396 17.6832C111.195 18.7428 110.893 19.8994 110.085 20.607C109.23 21.311 108.12 21.4116 107.06 21.4116C106.001 21.4116 104.794 21.2105 104.086 20.352C103.231 19.2924 103.027 17.8844 102.876 16.6236C102.675 14.6085 102.675 12.5432 102.876 10.4778C103.027 9.16677 103.278 7.80903 104.086 6.74941C104.589 6.0454 105.448 5.58922 106.302 5.48865M106.906 7.85573C106.403 8.00659 106.202 8.55974 106.152 9.01591C105.95 10.3773 106.051 11.735 106.051 13.1466C106.051 14.5582 106.001 16.0202 106.152 17.4282C106.202 17.7802 106.252 18.1825 106.453 18.4878C106.755 18.8901 107.358 18.8901 107.764 18.6889C108.217 18.3872 108.267 17.7838 108.317 17.2773C108.468 15.5137 108.368 13.8003 108.418 12.0367C108.418 10.8765 108.468 9.66964 108.217 8.50945C108.066 8.00659 107.463 7.65458 106.906 7.85573Z" fill="#0C4088"/>
<path d="M45.3872 5.69336H50.1752C51.1343 5.69336 52.14 6.04537 52.7435 6.75297C53.4978 7.60785 53.7528 8.81833 53.7528 9.92823C53.7528 10.7831 53.5516 11.7421 52.9482 12.3959C52.6465 12.7479 52.1939 12.8987 51.7377 13.0496C52.3412 13.2005 52.8979 13.4519 53.3002 13.9045C54.0545 14.8096 54.1551 16.0201 54.1048 17.13C54.0545 18.1394 53.9539 19.2457 53.3505 20.1041C52.8476 20.8082 51.9389 21.1135 51.084 21.1135H45.3908V5.69336M48.3649 8.01015V11.9397C48.8678 11.8894 49.3742 12.0403 49.8771 11.8391C50.4805 11.5877 50.5811 10.8298 50.5811 10.2766C50.5811 9.62292 50.5308 8.91531 50.1285 8.36215C49.676 7.809 48.9683 8.06043 48.3649 8.01015ZM48.3649 18.7931C48.9181 18.7931 49.5251 18.8937 50.028 18.6925C50.6314 18.4411 50.8326 17.6832 50.8326 17.0797C50.8828 16.2249 50.8326 15.2658 50.2291 14.6121C49.7262 14.1092 48.9683 14.3104 48.3146 14.2601C48.3649 15.7723 48.3649 17.2845 48.3649 18.7931Z" fill="#0C4088"/>
<path d="M88.7704 5.69336H97.5886V8.31187H94.7654V21.2104H91.5901V8.31546H88.7668V5.69695L88.7704 5.69336Z" fill="#0C4088"/>
<path d="M117.894 21.1602V5.69336H120.663C121.672 8.16101 122.678 10.6322 123.687 13.1502C123.738 13.0999 123.888 13.0496 123.989 13.0496V5.74365H126.406V21.2104H124.09C122.98 18.4375 121.873 15.7184 120.763 12.949C120.713 12.949 120.562 12.9993 120.462 12.9993V21.2104C119.557 21.1602 118.748 21.1602 117.894 21.1602Z" fill="#0C4088"/>
<path d="M53.3504 24.7878C55.2146 24.5363 57.1794 24.5363 59.0436 24.9386C60.7569 25.2906 62.42 25.9982 63.7813 27.0543C65.2935 28.2647 66.4501 29.9278 67.2583 31.6914C68.2676 33.9076 68.8208 36.3286 69.1225 38.7962C69.4745 41.6698 69.6756 44.59 69.7259 47.5138C68.2137 47.5138 66.7015 47.4635 65.1929 47.4635C63.7813 47.4132 62.3697 47.4635 60.9617 47.4133C57.9373 47.4133 54.9165 47.363 51.8921 47.363C51.8921 49.4786 51.8921 51.6445 52.2944 53.7099C52.5458 54.8198 52.8475 55.9764 53.7563 56.7846C54.5106 57.4383 55.5702 57.5892 56.5256 57.5892C57.535 57.6394 58.591 57.388 59.2986 56.684C60.0529 55.98 60.3582 54.9204 60.4588 53.911C60.5594 52.8011 60.4085 51.7451 60.3582 50.6352C63.3826 50.7358 66.4034 50.7861 69.4278 50.8866C69.7295 53.0526 69.6792 55.2688 69.2267 57.388C68.7741 59.3528 67.815 61.2673 66.3028 62.6789C64.9918 63.8894 63.3287 64.694 61.6154 65.1465C59.3489 65.75 56.9782 65.8003 54.6111 65.6494C52.3949 65.4986 50.0781 65.0963 48.1098 63.9864C46.5473 63.1315 45.186 61.8707 44.2305 60.3585C42.9194 58.2932 42.2154 55.8758 41.8131 53.4549C41.2097 49.827 41.1594 46.0986 41.3606 42.4708C41.5617 39.4967 41.964 36.5261 42.923 33.7029C43.7276 31.3358 45.0387 29.0657 46.9532 27.4566C48.8174 25.9444 51.0839 25.0895 53.3504 24.7878ZM54.0544 32.7474C53.2498 33.4012 52.8439 34.4608 52.5925 35.4665C52.0393 37.6325 51.989 39.8487 51.8885 42.0685H59.4961C59.3956 40.4557 59.3453 38.7926 59.1944 37.1799C59.0939 36.0197 58.943 34.8631 58.5407 33.7532C58.2893 33.0995 57.7361 32.4924 57.0285 32.2913C56.0192 32.0398 54.9129 32.0901 54.0544 32.7439V32.7474Z" fill="#0C4088"/>
<path d="M108.371 25.2945C111.144 24.5905 114.014 24.5402 116.787 24.6911C119.154 24.8419 121.575 25.1437 123.791 26.0021C125.404 26.6559 127.017 27.6149 127.972 29.1271C128.727 30.237 129.082 31.5947 129.133 32.9561C129.183 34.0157 129.133 35.0717 129.133 36.1313V55.9839C129.082 56.4867 129.133 57.0435 129.434 57.4961C130.088 58.5557 131.5 58.9077 132.61 58.5557V63.7963C131.047 64.7015 129.283 65.2582 127.52 65.5599C126.209 65.8114 124.851 65.8114 123.54 65.6605C122.279 65.5096 120.972 65.1073 120.113 64.098C119.208 63.0384 118.953 61.6807 118.601 60.3696C118.098 61.2748 117.746 62.3344 116.988 63.0887C115.627 64.5506 113.662 65.3552 111.647 65.6066C109.33 65.9083 106.809 65.6569 104.743 64.4967C102.98 63.4874 101.619 61.8279 100.864 59.9637C100.21 58.3509 99.8549 56.6376 99.8046 54.9243C99.7543 53.4623 99.8046 51.9501 100.157 50.5421C100.509 48.8288 101.267 47.1657 102.473 45.8547C104.086 44.091 106.403 43.0817 108.72 42.5285C110.685 42.076 112.649 41.6737 114.614 41.2175C115.825 40.9158 117.132 40.5135 117.94 39.5041C118.644 38.599 118.694 37.3382 118.745 36.2283C118.745 35.0178 118.644 33.811 118.091 32.7513C117.638 31.8965 116.78 31.2391 115.825 31.038C114.262 30.686 112.498 30.8369 111.137 31.7923C110.128 32.446 109.474 33.6062 109.424 34.8167C109.373 36.0272 109.575 37.1838 109.776 38.344C107.003 39.2491 104.183 40.1579 101.41 41.0128C101.31 39.1988 101.159 37.4352 101.108 35.6213C101.058 34.2097 101.008 32.798 101.41 31.4403C101.762 30.079 102.47 28.8218 103.526 27.8627C104.887 26.5014 106.651 25.7471 108.364 25.2945M115.268 46.6592C114.007 47.0113 112.649 47.4638 111.69 48.4229C110.835 49.2778 110.53 50.5385 110.429 51.6987C110.379 52.9092 110.379 54.1161 110.631 55.3265C110.832 56.2856 111.234 57.241 112.042 57.7942C112.947 58.3976 114.057 58.3976 115.067 58.2468C115.972 58.0959 116.881 57.593 117.383 56.7849C118.188 55.6247 118.443 54.2166 118.594 52.805C118.896 50.2871 118.745 47.7153 118.795 45.1471C117.735 45.8511 116.529 46.3072 115.268 46.6592Z" fill="#0C4088"/>
<path d="M87.3587 26.2495C88.368 25.5455 89.5749 25.0893 90.7854 25.0391C92.4988 25.0391 94.3127 25.2905 95.7746 26.2998C96.9851 27.1044 97.7897 28.4155 98.2422 29.7768C98.896 31.7416 98.9965 33.8069 98.9462 35.822C98.9965 37.7365 98.7954 39.7013 98.6948 41.6158C95.7207 42.5748 92.7502 43.48 89.7761 44.439C89.7761 42.8262 89.8264 41.2638 89.8264 39.651C89.7761 38.3399 89.7258 36.9822 89.0218 35.8723C88.4686 35.0174 87.409 34.7121 86.4536 34.863C85.6993 34.9635 85.0922 35.4161 84.6899 36.0231C84.0865 36.878 83.7848 37.8874 83.58 38.8464C83.1777 40.61 83.0772 42.4742 83.0269 44.2882V64.8447H72.4954V25.797H82.8257C82.876 28.1137 82.9766 30.4844 82.9766 32.8012H83.2783C83.6303 31.896 83.8817 30.9873 84.2876 30.1324C84.9916 28.6705 86.001 27.2589 87.3623 26.2531L87.3587 26.2495Z" fill="#0C4088"/>
</svg>
