<svg width="309" height="223" viewBox="0 0 309 223" fill="none" xmlns="http://www.w3.org/2000/svg">
<path d="M130.31 232.773L333.07 435.533L332.65 435.952L129.72 233.023V213.172L108.91 192.363C108.45 192.633 107.86 192.582 107.47 192.192C107 191.722 107 190.963 107.47 190.493C107.94 190.023 108.7 190.023 109.17 190.493C109.56 190.883 109.61 191.472 109.34 191.932L130.33 212.922V232.773H130.31ZM150.88 187.352L107.16 143.633H97.57L90.94 137.003C91.21 136.543 91.16 135.952 90.77 135.562C90.3 135.092 89.54 135.092 89.07 135.562C88.6 136.032 88.6 136.793 89.07 137.263C89.46 137.653 90.0499 137.702 90.5099 137.432L97.32 144.243H106.91L150.63 187.962H170.48L375.56 393.042L375.98 392.623L170.72 187.363H150.87L150.88 187.352ZM264.23 262.332L175.38 173.482H155.53L140.19 158.143C140.3 157.743 140.21 157.303 139.9 156.993C139.43 156.523 138.67 156.523 138.2 156.993C137.73 157.463 137.73 158.222 138.2 158.692C138.67 159.162 139.42 159.162 139.89 158.692L155.28 174.082H175.13L263.98 262.932H294.25L399.96 368.643L400.38 368.223L294.5 262.342H264.23V262.332ZM98.94 225.863V239.013L19.36 159.432L18.94 159.852L164.11 305.023L177.95 291.182L327.68 440.912L328.1 440.493L178.16 290.552L177.95 290.342L123.33 235.722V215.873L86.77 179.312C87.04 178.852 86.99 178.263 86.6 177.873C86.13 177.403 85.37 177.403 84.9 177.873C84.43 178.343 84.43 179.102 84.9 179.572C85.29 179.962 85.88 180.013 86.34 179.743L122.73 216.133V235.852H123.03L122.82 236.062L177.53 290.773L164.11 304.192L109.49 249.572V221.883L69.52 181.912C69.79 181.452 69.74 180.862 69.35 180.472C68.88 180.002 68.12 180.002 67.65 180.472C67.18 180.942 67.18 181.702 67.65 182.172C68.04 182.562 68.63 182.612 69.09 182.342L108.88 222.133V248.972L99.53 239.623V225.633L0.419983 126.523L0 126.942L98.94 225.883V225.863ZM204.41 231.822L171.91 199.322C172.18 198.862 172.13 198.273 171.74 197.883C171.27 197.413 170.51 197.413 170.04 197.883C169.57 198.353 169.57 199.112 170.04 199.582C170.43 199.972 171.02 200.023 171.48 199.753L203.8 232.072V276.503L176.99 249.692C177.26 249.232 177.21 248.643 176.82 248.253C176.35 247.783 175.59 247.783 175.12 248.253C174.65 248.723 174.65 249.482 175.12 249.952C175.51 250.342 176.1 250.393 176.56 250.123L347.51 421.072L347.93 420.653L204.38 277.103V231.832L204.41 231.822ZM226.45 254.792C226.72 254.332 226.67 253.742 226.28 253.352C225.81 252.882 225.05 252.882 224.58 253.352C224.11 253.822 224.11 254.582 224.58 255.052C224.97 255.442 225.56 255.492 226.02 255.222L236.27 265.473H219.17L213.59 259.893V243.222C213.79 243.172 213.99 243.082 214.15 242.932C214.62 242.462 214.62 241.702 214.15 241.232C213.68 240.762 212.92 240.762 212.45 241.232C211.98 241.702 211.98 242.462 212.45 242.932C212.6 243.092 212.8 243.172 212.99 243.222V260.143L218.92 266.072H236.87L369.7 398.903L370.12 398.483L226.44 254.802L226.45 254.792ZM213.96 273.493C213.91 273.293 213.82 273.102 213.67 272.942C213.2 272.472 212.44 272.472 211.97 272.942C211.5 273.412 211.5 274.173 211.97 274.643C212.44 275.113 213.2 275.113 213.67 274.643C213.83 274.483 213.91 274.293 213.96 274.092H233.12L363.81 404.783L364.23 404.363L233.36 273.493H213.95H213.96ZM310.59 130.743L289.78 109.932C290.05 109.472 290 108.883 289.61 108.493C289.14 108.023 288.38 108.023 287.91 108.493C287.44 108.963 287.44 109.722 287.91 110.192C288.3 110.582 288.89 110.633 289.35 110.363L310.34 131.352H330.19L483.72 284.883L484.14 284.462L330.43 130.753H310.58L310.59 130.743ZM307.65 137.722L235.05 65.1225C235.32 64.6625 235.27 64.0725 234.88 63.6825C234.41 63.2125 233.65 63.2125 233.18 63.6825C232.71 64.1525 232.71 64.9125 233.18 65.3825C233.57 65.7725 234.16 65.8224 234.62 65.5525L307.39 138.322H327.24L478.75 289.832L479.17 289.412L327.49 137.732H307.64L307.65 137.722ZM324.56 144.712H304.71L240.81 80.8125C241.08 80.3525 241.03 79.7625 240.64 79.3725C240.17 78.9025 239.41 78.9025 238.94 79.3725C238.47 79.8425 238.47 80.6025 238.94 81.0725C239.33 81.4625 239.92 81.5125 240.38 81.2425L304.45 145.312H324.3L473.78 294.802L474.2 294.383L324.54 144.722L324.56 144.712ZM285.37 151.662L241.65 107.942V98.3525L234.84 91.5424C235.11 91.0824 235.06 90.4925 234.67 90.1025C234.2 89.6325 233.44 89.6325 232.97 90.1025C232.5 90.5725 232.5 91.3325 232.97 91.8025C233.36 92.1925 233.95 92.2425 234.41 91.9725L241.04 98.6025V108.192L284.76 151.912V171.763L440.79 327.792L441.21 327.373L285.35 171.513V151.662H285.37ZM271.49 155.903L256.61 141.023C256.88 140.563 256.83 139.972 256.44 139.582C255.97 139.112 255.21 139.112 254.74 139.582C254.27 140.052 254.27 140.813 254.74 141.283C255.13 141.673 255.72 141.722 256.18 141.452L270.88 156.153V176.003L431.73 336.853L432.15 336.432L271.47 175.753V155.903H271.49ZM333.25 124.062V123.763H313.53L277.14 87.3725C277.41 86.9125 277.36 86.3225 276.97 85.9325C276.5 85.4625 275.74 85.4625 275.27 85.9325C274.8 86.4025 274.8 87.1625 275.27 87.6325C275.66 88.0225 276.25 88.0724 276.71 87.8025L313.27 124.363H333.12L488.67 279.912L489.09 279.493L333.45 123.853L333.24 124.062H333.25ZM363.47 219.962L357.54 214.033H340.56C340.52 213.813 340.43 213.592 340.25 213.412C339.78 212.942 339.02 212.942 338.55 213.412C338.08 213.882 338.08 214.643 338.55 215.113C339.02 215.583 339.78 215.583 340.25 215.113C340.39 214.973 340.47 214.803 340.53 214.633H357.29L362.87 220.212V237.312L352.67 227.113C352.94 226.652 352.89 226.062 352.5 225.672C352.03 225.202 351.27 225.202 350.8 225.672C350.33 226.142 350.33 226.903 350.8 227.373C351.19 227.763 351.78 227.812 352.24 227.542L362.87 238.172L446.65 321.952L447.07 321.533L363.46 237.922V219.972L363.47 219.962ZM371.51 214.993C371.71 214.943 371.9 214.852 372.06 214.702C372.53 214.232 372.53 213.473 372.06 213.003C371.59 212.533 370.83 212.533 370.36 213.003C369.89 213.473 369.89 214.232 370.36 214.702C370.52 214.862 370.71 214.943 370.91 214.993V234.403L452.55 316.042L452.97 315.623L371.5 234.153V214.993H371.51ZM347.36 176.172C346.89 175.702 346.13 175.702 345.66 176.172C345.19 176.642 345.19 177.403 345.66 177.873C346.05 178.263 346.64 178.312 347.1 178.042L373.91 204.852H329.48L297.16 172.533C297.43 172.073 297.38 171.482 296.99 171.092C296.52 170.622 295.76 170.622 295.29 171.092C294.82 171.562 294.82 172.322 295.29 172.792C295.68 173.182 296.27 173.232 296.73 172.962L329.23 205.462H374.5L468.82 299.783L469.24 299.363L347.51 177.633C347.78 177.173 347.73 176.582 347.34 176.192L347.36 176.172ZM224.71 2.25252L323.03 100.572H337.02L346.37 109.922H319.53L279.74 70.1325C280.01 69.6725 279.96 69.0825 279.57 68.6925C279.1 68.2225 278.34 68.2225 277.87 68.6925C277.4 69.1625 277.4 69.9225 277.87 70.3925C278.26 70.7825 278.85 70.8325 279.31 70.5625L319.28 110.533H346.97L383.02 146.582H370.73C370.68 146.382 370.59 146.193 370.44 146.033C369.97 145.563 369.21 145.563 368.74 146.033C368.27 146.503 368.27 147.262 368.74 147.732C369.21 148.202 369.97 148.202 370.44 147.732C370.6 147.572 370.68 147.382 370.73 147.182H383.61L401.72 165.292V183.143L493.6 275.023L494.02 274.603L402.31 182.893V165.042L258.21 20.9425C258.47 20.4825 258.42 19.9025 258.03 19.5125C257.56 19.0425 256.8 19.0425 256.33 19.5125C255.86 19.9825 255.86 20.7425 256.33 21.2125C256.73 21.6125 257.32 21.6525 257.78 21.3725L336.41 100.003H323.26L225.14 1.88253C225.47 1.41253 225.45 0.7725 225.03 0.3525C224.56 -0.1175 223.8 -0.1175 223.33 0.3525C222.86 0.8225 222.86 1.58245 223.33 2.05245C223.7 2.42245 224.24 2.49255 224.68 2.28255L224.71 2.25252ZM213.93 90.1325L277.83 154.033V173.883L436.27 332.322L436.69 331.903L278.42 173.633V153.783L214.35 89.7125C214.62 89.2525 214.57 88.6625 214.18 88.2725C213.71 87.8025 212.95 87.8025 212.48 88.2725C212.01 88.7425 212.01 89.5025 212.48 89.9725C212.87 90.3625 213.46 90.4125 213.92 90.1425L213.93 90.1325ZM316.55 239.113C316.08 238.643 315.32 238.643 314.85 239.113C314.38 239.583 314.38 240.342 314.85 240.812C315.24 241.202 315.83 241.253 316.29 240.982L421.95 346.643L422.37 346.223L316.71 240.562C316.98 240.102 316.93 239.513 316.54 239.123L316.55 239.113ZM125.55 95.4224L164.84 134.712V154.562L201.16 190.883H221.01L261.19 231.062H285.89L310.13 255.302V268.572L293.98 252.422L273.61 252.552L239.15 218.092L238.73 218.513L273.37 253.153L293.74 253.023L298.24 257.523H268.66L218.12 206.982L217.7 207.403L268.41 258.113H298.84L327.9 287.172L404.68 363.952L405.1 363.533L328.5 286.932V262.243L288.32 222.062V202.212L252 165.893H232.15L192.86 126.603C193.1 126.153 193.05 125.582 192.67 125.192C192.2 124.722 191.44 124.722 190.97 125.192C190.5 125.662 190.5 126.423 190.97 126.893C191.37 127.293 191.98 127.332 192.45 127.042L231.91 166.503H251.76L287.73 202.472V222.322L327.91 262.503V286.353L310.75 269.192V255.072L286.17 230.493H261.47L221.29 190.312H201.44L165.47 154.342V134.493L126.01 95.0326C126.28 94.5726 126.23 93.9825 125.84 93.5925C125.37 93.1225 124.61 93.1225 124.14 93.5925C123.67 94.0625 123.67 94.8224 124.14 95.2924C124.53 95.6824 125.12 95.7325 125.58 95.4625L125.55 95.4224ZM88.67 116.942L152.74 181.013H172.59L259.03 267.452H289.41L395.27 373.312L395.69 372.893L289.66 266.863H259.28L172.84 180.422H152.99L89.09 116.523C89.36 116.063 89.31 115.472 88.92 115.082C88.45 114.612 87.69 114.612 87.22 115.082C86.75 115.552 86.75 116.313 87.22 116.783C87.61 117.173 88.2 117.222 88.66 116.952L88.67 116.942ZM79.78 143.403L143.68 207.302V227.153L342.56 426.033L342.98 425.613L144.27 226.903V207.052L80.2 142.982C80.4699 142.522 80.42 141.932 80.03 141.542C79.56 141.072 78.8 141.072 78.33 141.542C77.86 142.012 77.86 142.773 78.33 143.243C78.72 143.633 79.31 143.682 79.77 143.412L79.78 143.403ZM64.1 137.643L136.7 210.243V230.092L337.61 431.003L338.03 430.582L137.3 229.852V210.003L64.53 137.232C64.8 136.772 64.75 136.182 64.36 135.792C63.89 135.322 63.13 135.322 62.66 135.792C62.19 136.262 62.19 137.023 62.66 137.493C63.05 137.883 63.64 137.932 64.1 137.662V137.643ZM221.64 283.143C221.17 282.673 220.41 282.673 219.94 283.143C219.47 283.613 219.47 284.372 219.94 284.842C220.33 285.233 220.92 285.283 221.38 285.013L352.49 416.123L352.91 415.702L221.8 284.592C222.07 284.133 222.02 283.543 221.63 283.153L221.64 283.143ZM305.45 218.082C304.98 217.612 304.22 217.612 303.75 218.082C303.28 218.552 303.28 219.313 303.75 219.783C304.14 220.173 304.73 220.222 305.19 219.952L426.92 341.682L427.34 341.263L305.61 219.533C305.88 219.073 305.83 218.482 305.44 218.092L305.45 218.082ZM382.28 221.013C381.81 220.543 381.05 220.543 380.58 221.013C380.11 221.483 380.11 222.242 380.58 222.712C380.97 223.102 381.56 223.153 382.02 222.883L463.87 304.733L464.29 304.312L382.44 222.462C382.71 222.002 382.66 221.413 382.27 221.023L382.28 221.013Z" fill="#28EAE9"/>
</svg>
