<svg width="101" height="43" viewBox="0 0 101 43" fill="none" xmlns="http://www.w3.org/2000/svg">
<path d="M0.593506 0V42.2387H13.3778V28.6063H25.001V17.049H13.3778V11.5208H27.6303L26.8564 0H0.593506Z" fill="#0C4088"/>
<path d="M48.1436 0C36.4435 0 27.0242 9.4193 27.0242 21.1194C27.0242 32.8196 36.4435 42.2387 48.1436 42.2387C59.8438 42.2387 69.2629 32.8196 69.2629 21.1194C69.2629 9.4193 59.8438 0 48.1436 0ZM48.1436 8.69876C50.1191 8.69876 51.7093 10.2889 51.7093 12.2645V29.9742C51.7093 31.9498 50.1191 33.5401 48.1436 33.5401C46.1681 33.5401 44.5777 31.9498 44.5777 29.9742V12.2645C44.5777 10.2889 46.1681 8.69876 48.1436 8.69876Z" fill="#0C4088"/>
<path d="M62.925 0L74.9087 21.1193L62.925 42.2387H76.6259L81.7591 33.1919L86.8924 42.2387H100.593L88.6096 21.1193L100.593 0H86.8924L81.7591 9.04659L76.6261 0H62.925Z" fill="#0C4088"/>
</svg>
