<svg width="361" height="46" viewBox="0 0 361 46" fill="none" xmlns="http://www.w3.org/2000/svg">
<path d="M338.313 39.0246C337.157 40.1806 335.604 41.9024 334.249 43.534C332.263 42.0168 330.318 40.6622 329.18 39.8013V9.84341C329.18 8.36238 328.476 7.71819 327.789 7.38706V7.22451L334.695 2.15527L334.803 2.26966V37.4111C336.459 38.4166 337.139 38.7898 338.259 38.9163L338.313 39.0307" fill="#0C4088"/>
<path d="M306.128 17.3029C305.008 19.7352 303.232 21.3186 300.95 21.3186C298.668 21.3186 297.898 20.7045 296.212 19.085L295.712 19.5907V36.6346C298.277 38.1036 299.264 38.6395 300.059 38.6395C300.721 38.6395 301.239 38.3023 302.01 37.5257L302.401 37.917C300.42 39.8676 298.578 41.8062 297.001 43.5401C294.701 41.8724 292.449 40.3192 290.095 38.7538V20.8189C289.288 20.0603 288.024 19.0248 286.922 18.7538L286.868 18.6455L290.655 14.4131C292.527 15.9664 293.924 17.1584 295.887 18.5913C297.542 17.1163 298.698 15.9844 300.173 14.4733C301.432 16.0507 303.732 17.0139 306.079 17.1464L306.134 17.3089" fill="#0C4088"/>
<path d="M246.862 1.48687C245.387 4.84027 243.557 6.83305 241.125 6.83305C239.969 6.83305 237.645 5.66508 236.001 5.66508C234.159 5.66508 232.768 6.23702 231.715 8.10939L231.492 7.89265C231.961 3.26291 234.731 1.10156 237.952 1.10156C239.957 1.10156 241.943 2.32372 243.689 2.32372C244.761 2.32372 245.724 2.05882 246.754 1.27014L246.862 1.49891" fill="#0C4088"/>
<path d="M269.583 1.8241C269.174 3.8831 267.542 5.74342 265.851 6.61037V37.1883C267.488 37.6218 268.313 37.977 269.529 38.8078L265.074 43.5399C263.418 42.0348 261.426 41.3665 259.451 41.3665C256.639 41.3665 254.526 42.3599 253.16 43.3172L253.105 43.0884C254.026 39.1811 257.121 36.9054 259.619 36.6826V23.257H249.258V37.7362C249.583 37.8988 249.872 38.0192 250.203 38.0192C250.763 38.0192 251.504 37.2847 252.04 36.514L252.485 36.8994C251.137 38.5309 248.777 41.2341 247.085 43.5279C244.502 41.806 242.389 41.1317 239.011 41.1317C236.128 41.1317 233.629 41.8422 231.829 42.974L231.715 42.691C233.376 38.6212 236.435 35.9541 241.853 35.9541C244.279 35.9541 246.17 36.4418 248.536 37.4593V0.481531H249.258V18.0252H259.619V6.89333C257.868 6.48394 256.368 5.77954 255.333 4.71392C256.706 3.37136 258.331 1.63746 259.619 0.20459C261.119 1.50501 263.021 2.37196 265.357 2.37196C266.772 2.37196 268.217 2.13114 269.481 1.5893L269.589 1.81808" fill="#0C4088"/>
<path d="M246.585 6.83347C245.995 7.89307 245.748 9.39217 245.748 12.8479V25.7678C245.748 29.9099 242.714 33.3115 238.566 34.5698L238.289 34.4012C239.078 33.6968 239.571 32.5047 239.571 31.1742V23.2573H238.126C235.899 23.2573 235.074 24.3711 234.839 25.5993H234.671C234.032 25.0755 233.334 24.1182 233.334 22.3723C233.334 19.8256 235.345 18.0255 238.235 18.0255H239.571V15.1899C239.571 10.4156 242.491 7.89307 246.423 6.7251L246.591 6.83949" fill="#0C4088"/>
<path d="M217.235 6.94185C216.32 7.89308 215.381 8.9587 214.117 10.4518C213.069 9.53667 211.66 8.54329 210.216 7.44756C211.233 6.3699 212.299 5.24407 213.449 3.82324C214.671 4.88887 215.971 5.97255 217.235 6.94185Z" fill="#0C4088"/>
<path d="M220.523 38.9703C220.523 38.9703 219.06 40.6319 216.621 43.5398C215.092 42.3357 213.111 40.8788 211.552 39.8071V20.0901C210.432 19.2051 209.86 18.8619 209.27 18.7475L209.216 18.6391L212.949 14.4609C214.406 15.5868 215.67 16.5019 217.181 17.5735V37.3989C218.728 38.3441 219.812 38.7656 220.468 38.8438L220.523 38.9582" fill="#0C4088"/>
<path d="M209.102 38.9102C209.102 38.9102 208.012 40.0962 205.207 43.5339C203.521 42.2094 201.931 41.0475 200.137 39.8012V21.0294L195.682 18.3021L193.4 20.1444V38.8018C194.207 39.2955 195.014 39.8012 195.014 39.8012C193.99 40.7645 192.034 42.6188 191.119 43.5339C189.71 42.4141 187.777 40.915 187.777 40.915V20.8669L183.822 18.1336L181.034 20.3611V38.8018C181.546 39.133 182.136 39.5123 182.594 39.7471C181.281 40.9873 179.909 42.2997 178.753 43.5339C177.573 42.5767 176.26 41.5291 175.411 40.915V20.8669C173.575 19.2474 172.961 18.9042 172.016 18.8018L171.961 18.6875C173.286 17.363 174.761 15.8518 175.917 14.4611C177.675 15.8458 179.607 17.4051 181.654 18.9704C183.298 17.6941 185.152 16.2552 187.338 14.5092C189.126 15.8097 191.576 17.5135 193.575 18.9704C195.477 17.4593 197.247 16.0324 199.09 14.4009C200.709 15.5207 204.291 17.67 205.772 18.6333V37.3991C206.952 38.1697 208.012 38.6694 209.06 38.7958L209.114 38.9042" fill="#0C4088"/>
<path d="M147.223 6.94185C146.308 7.89308 145.369 8.9587 144.105 10.4518C143.057 9.53667 141.648 8.54329 140.203 7.44756C141.221 6.3699 142.287 5.24407 143.43 3.82324C144.653 4.88887 145.953 5.97255 147.217 6.94185" fill="#0C4088"/>
<path d="M150.511 38.9703C150.511 38.9703 149.048 40.6319 146.609 43.5398C145.08 42.3357 143.099 40.8788 141.54 39.8071V20.0901C140.42 19.2051 139.848 18.8619 139.258 18.7475L139.204 18.6391L142.937 14.4609C144.394 15.5868 145.658 16.5019 147.169 17.5735V37.3989C148.722 38.3441 149.8 38.7656 150.456 38.8438L150.511 38.9582" fill="#0C4088"/>
<path d="M103.117 1.31842C101.642 4.67182 99.752 6.66459 97.3257 6.66459C96.1698 6.66459 93.8459 5.49662 92.2023 5.49662C90.36 5.49662 88.9633 6.06857 87.9157 7.95297L87.6388 7.7844C88.1084 3.15466 90.938 0.933105 94.1529 0.933105C96.1578 0.933105 98.1385 2.16128 99.8905 2.16128C100.962 2.16128 101.925 1.76995 102.786 1.16188L103.123 1.32444" fill="#0C4088"/>
<path d="M58.2287 39.0788C57.0849 40.2106 55.7604 41.8121 54.2733 43.5339C52.5093 42.1854 50.36 40.5899 49.2041 39.8013V21.8121C47.7471 20.6562 46.1818 19.5785 44.6405 18.4707C43.8097 19.1872 43.1956 19.7591 42.4672 20.4214V38.8019C42.9608 39.1691 43.3642 39.422 43.9723 39.7471L40.1854 43.5339C38.7405 42.3479 37.4822 41.4689 36.7899 40.915V9.89758C36.7899 8.53696 36.4226 7.61582 35.6219 7.17031V7.00174L42.3588 2.10107L42.4672 2.15526V19.4701L48.1505 14.4611C50.2516 16.0264 52.4792 17.5376 54.8332 18.9162V37.4051C56.0794 38.242 57.2173 38.8079 58.1204 38.9644L58.2348 39.0788" fill="#0C4088"/>
<path d="M358.307 35.6292C354.02 38.0254 350.733 40.6985 347.723 43.5341C345.375 41.74 342.485 39.7834 340.203 38.2421V19.3619C342.672 18.0194 345.405 16.5323 348.56 14.684L342.154 8.22405C340.932 6.98986 340.035 6.32158 339.09 5.99648L339.036 5.88209C340.98 4.48534 342.582 3.22706 343.882 2.09521C346.356 4.64789 351.895 10.3132 358.307 16.8514V35.6232V35.6292ZM352.684 38.4167V18.808L348.951 15.1897C347.693 15.9905 346.778 16.454 345.833 17.026V35.4065C347.47 36.6106 350.246 38.4408 351.679 39.1933L352.684 38.4107" fill="#0C4088"/>
<path d="M326.17 39.3556L322.66 43.4736C320.781 42.0166 319.337 40.9209 316.922 39.1328C314.49 40.5296 313.208 41.4507 309.902 43.5278C307.019 41.9022 305.002 39.0425 305.002 35.1172C305.002 31.9745 306.989 29.3195 310.908 27.8745C309.15 26.6223 308.446 26.2069 306.952 25.4844V19.4158C310.282 17.7421 312.311 16.6102 315.471 14.4609C318.06 16.1828 320.011 17.435 323.214 19.5783V37.7903C324.761 38.898 325.483 39.193 326.11 39.2352L326.164 39.3496L326.17 39.3556ZM317.591 27.8264V21.9805C315.459 20.4393 314.002 19.4037 311.522 17.7481L311.191 17.9649V27.8204C312.238 27.5434 313.485 27.3809 314.141 27.3809C315.586 27.3809 316.615 27.5675 317.597 27.8204L317.591 27.8264ZM317.591 37.9107V28.6632C316.778 28.4164 315.748 28.2177 314.358 28.2177C311.57 28.2177 310.625 30.3851 310.625 33.2869C310.625 36.4296 311.703 38.7535 313.798 40.1382L317.585 37.9107" fill="#0C4088"/>
<path d="M287.019 23.1547L277.103 29.2835V36.4659C279.722 38.0674 280.673 38.6935 281.504 38.6935C282.262 38.6935 282.846 38.0132 284.177 36.6887L284.622 37.1342C282.509 39.1571 280.39 41.2281 278.325 43.54C276.158 41.9566 273.635 40.1806 271.474 38.7537V21.0415C274.358 19.3196 279.09 16.1709 281.444 14.4731C282.985 17.0499 284.821 19.8554 287.013 23.1607L287.019 23.1547ZM281.949 25.4966C280.492 23.1005 278.722 20.024 277.548 17.9169L277.103 18.1998V28.5008L281.949 25.4966Z" fill="#0C4088"/>
<mask id="mask0_13635_28258" style="mask-type:luminance" maskUnits="userSpaceOnUse" x="0" y="0" width="361" height="46">
<path d="M0.354004 0H360.354V45.888H0.354004V0Z" fill="white"/>
</mask>
<g mask="url(#mask0_13635_28258)">
<path d="M172.401 39.3556L168.891 43.4736C167.013 42.0166 165.568 40.9209 163.154 39.1328C160.721 40.5296 159.439 41.4507 156.14 43.5278C153.256 41.9022 151.239 39.0425 151.239 35.1172C151.239 31.9745 153.22 29.3195 157.139 27.8745C155.381 26.6223 154.677 26.2069 153.184 25.4844V19.4158C156.513 17.7421 158.542 16.6102 161.703 14.4609C164.297 16.1828 166.242 17.435 169.445 19.5783V37.7903C170.992 38.898 171.715 39.193 172.341 39.2352L172.395 39.3496L172.401 39.3556ZM163.822 27.8264V21.9805C161.691 20.4393 160.173 19.4037 157.693 17.7481L157.416 17.9649V27.8204C158.464 27.5434 159.71 27.3809 160.366 27.3809C161.811 27.3809 162.84 27.5675 163.816 27.8204L163.822 27.8264ZM163.822 37.9107V28.6632C163.015 28.4164 161.98 28.2177 160.595 28.2177C157.807 28.2177 156.862 30.3851 156.862 33.2869C156.862 36.4296 157.94 38.7535 160.035 40.1382L163.822 37.9107Z" fill="#0C4088"/>
<path d="M139.204 38.6332C139.204 38.6332 136.073 41.5772 134.081 43.5338C132.287 41.9083 129.722 39.9155 127.567 38.2419C125.935 39.47 121.883 42.4261 120.492 43.588C118.686 42.2816 116.116 41.0835 112.473 41.0835C110.029 41.0835 108.283 41.9143 106.904 42.8656L106.79 42.5886C107.494 40.4273 109.571 37.9348 112.136 36.6826V23.2569H104.785V37.5736C104.785 41.3544 102.341 43.6422 98.3793 43.6422C95.5979 43.6422 92.991 42.2455 90.3059 42.2455C87.6207 42.2455 86.4287 43.004 85.4052 44.2503L85.0681 44.1419C85.2908 39.8313 87.5786 37.1762 91.805 37.1762C94.5382 37.1762 97.5124 38.5068 100.438 38.5068C103.027 38.5068 104.057 37.6398 104.057 34.9968V5.61091C102.78 6.32735 102.269 6.67654 101.384 7.17021V28.001C101.384 32.4742 97.5364 34.7018 93.1415 35.1293L93.0873 35.0149C94.2493 34.2985 95.1463 32.4983 95.1463 30.1142V23.2629H94.2011C91.9735 23.2629 91.1487 24.4309 90.9139 25.6591L90.7454 25.6049C90.1072 25.0811 89.3546 24.1239 89.3546 22.3779C89.3546 19.8313 91.4196 18.0311 94.3095 18.0311H95.1463V14.9125C95.1463 10.9631 97.6508 8.57298 101.215 6.50194L112.473 -0.012207C114.665 1.57118 117.44 3.58803 119.716 5.10519L128.403 0.150346C129.921 1.9023 131.516 3.21476 134.364 3.21476C135.857 3.21476 137.169 2.96191 137.928 2.66088L138.036 2.82343C137.735 4.74396 136.706 6.53204 134.863 7.56154V36.4658C136.688 37.6458 138.06 38.5007 139.15 38.5248L139.204 38.6392V38.6332ZM128.68 18.0251V7.38695C126.26 6.85715 124.617 5.52663 123.22 3.81681L121.606 4.82223V18.0191H128.68V18.0251ZM120.884 37.1281V5.1654L118.319 6.67051V36.3574C119.325 36.526 119.927 36.821 120.884 37.1401V37.1281ZM112.082 18.0251V7.27858C112.082 7.27858 108.879 4.97274 107.235 3.77467L104.785 5.21958V18.0251H112.082ZM128.68 36.5682V23.2569H121.606V37.3508C123.43 38.3502 124.243 38.8559 125.285 38.8559C125.857 38.8559 126.435 38.3863 126.952 37.9709C126.952 37.9709 128.054 37.0618 128.68 36.5742" fill="#0C4088"/>
</g>
<path d="M75.7122 23.1547L65.7965 29.2835V36.4659C68.4154 38.0674 69.3667 38.6935 70.1975 38.6935C70.9561 38.6935 71.54 38.0132 72.8706 36.6887L73.3161 37.1342C71.2089 39.1571 69.1439 41.2281 67.0789 43.54C64.9115 41.9566 62.3287 40.1806 60.1734 38.7537V21.0415C63.0572 19.3196 67.7893 16.1709 70.1433 14.4731C71.6845 17.0499 73.5208 19.8554 75.7122 23.1607V23.1547ZM70.643 25.4966C69.186 23.1005 67.422 20.024 66.242 17.9169L65.7965 18.1998V28.5008L70.643 25.4966Z" fill="#0C4088"/>
<path d="M34.6647 33.0704C32.7803 39.6508 27.5364 44.5394 18.5719 44.5394C8.42143 44.5394 2.14208 37.4413 2.14208 27.4413C2.14208 20.277 6.89224 13.6364 14.6707 10.7345L14.9476 10.9031C12.6598 13.4798 10.7333 15.6713 9.54726 19.0307L20.2938 14.2986V27.4955C20.2938 28.0554 20.6249 28.9043 20.9079 29.2234V29.3317C18.4696 30.6863 13.4485 33.4437 11.3293 34.5695C13.7857 37.6821 17.2715 39.5846 22.0217 39.5846C23.2619 39.5846 24.2613 39.4642 25.64 39.1391V11.3486C23.2318 11.162 19.9807 10.1264 17.398 9.39796C14.2733 8.51295 10.9922 7.6159 8.65623 7.6159C5.60385 7.6159 3.47863 8.44071 3.47863 11.1198C3.47863 12.0409 3.78567 12.8658 4.26129 13.6304L3.92414 13.6845C2.61168 12.6611 1.5882 11.0416 1.5882 9.00663C1.58218 3.55811 6.24202 1.54727 11.221 1.54727C13.2499 1.54727 16.3444 2.42024 19.5232 3.38351C21.7989 4.06985 25.5436 5.33415 27.8796 5.33415C29.8965 5.33415 30.8838 4.41301 30.8838 2.938C30.8838 1.6737 30.4744 0.987367 29.5473 0.264911L29.8784 0.0361328C32.1842 0.818794 33.9422 2.76341 33.9422 5.55088C33.9422 9.22337 31.811 11.3426 26.3685 11.3426V38.9645C30.065 37.8808 32.5756 35.2499 34.5021 32.8357L34.6707 33.0644L34.6647 33.0704ZM14.171 32.2938V17.8146C12.6117 18.5069 10.8116 19.2474 9.21614 19.9819C8.82481 21.5473 8.66225 23.0524 8.66225 24.7682C8.66225 28.4527 9.30042 31.4208 10.9982 34.0157C12.0578 33.4497 13.3462 32.7634 14.171 32.2938Z" fill="#0C4088"/>
</svg>
