<svg width="165" height="52" viewBox="0 0 165 52" fill="none" xmlns="http://www.w3.org/2000/svg">
<path d="M35.5184 0.372311C36.6991 0.372311 37.8856 0.372311 39.0712 0.364111C39.0581 4.6125 39.1138 8.86172 39.045 13.1101C39.0147 15.8522 37.8594 18.7746 35.3497 20.135C32.5134 21.5815 28.9172 21.5733 26.1365 20.0013C23.7694 18.6139 22.6189 15.7612 22.6828 13.1011C22.6959 8.8568 22.6869 4.6125 22.6918 0.368211H26.1398C26.1488 4.04261 26.1316 7.7129 26.1439 11.3873C26.2045 13.0757 26.2086 14.9133 27.2223 16.3524C28.5848 18.231 31.4432 18.4081 33.3633 17.3503C35.1008 16.3007 35.4717 14.1121 35.5061 12.2426C35.5356 8.2869 35.5094 4.32797 35.5184 0.372311ZM50.9104 0.450211C53.8974 -0.438664 57.2307 0.100893 59.891 1.69414C59.8747 2.93725 59.8747 4.17627 59.8747 5.4161C57.6418 3.74905 54.6711 2.52316 51.8987 3.49403C50.6999 3.85319 49.9155 5.29802 50.4928 6.46077C50.9669 7.57432 52.2565 7.89822 53.2767 8.31314C55.4752 9.18971 58.0102 9.66039 59.6405 11.521C61.7358 14.0556 61.2052 18.568 58.1355 20.1096C54.6818 21.9013 50.3658 21.3314 47.0546 19.4659C47.0505 18.1875 47.0505 16.9141 47.0374 15.6357C49.5298 17.5578 52.9877 18.6976 56.0402 17.5274C57.7048 16.9231 57.9161 14.3294 56.407 13.434C54.0652 12.0138 51.1896 11.7243 48.9436 10.1138C46.9694 8.69198 46.3873 5.87366 47.2069 3.65393C47.8185 2.04346 49.2981 0.924988 50.9104 0.450211ZM82.965 0.0615332C87.6642 4.37962 92.2347 8.8445 96.8479 13.2569V0.368211H100.297V21.2149C95.5927 16.741 91.0188 12.1343 86.2886 7.68502V20.7598C85.1725 20.768 84.0598 20.768 82.9478 20.7721C82.9536 13.8702 82.9192 6.96999 82.965 0.0615332ZM109.357 0.364111C113.518 0.364111 117.674 0.385431 121.831 0.350991C121.856 1.40058 121.856 2.44936 121.856 3.49895C118.873 3.49895 115.893 3.49403 112.91 3.49895V8.34758C115.57 8.3566 118.226 8.34758 120.886 8.3566V11.4824C118.226 11.4862 115.567 11.4862 112.91 11.4824C112.91 13.5324 112.91 15.589 112.919 17.6398C115.893 17.6266 118.873 17.6398 121.844 17.6307C121.848 18.7107 121.852 19.7939 121.852 20.8738H109.349C109.357 14.0383 109.345 7.20369 109.357 0.364111ZM131.962 1.16689C135.196 -0.706802 139.327 -0.132805 142.5 1.59492C142.56 2.86427 142.56 4.13691 142.556 5.40708C140.254 3.68017 137.152 2.44526 134.326 3.57685C132.721 4.15085 132.536 6.57311 133.993 7.41033C136.368 8.7748 139.27 9.05031 141.491 10.7264C144.475 12.9543 144.254 18.3474 140.844 20.0743C137.39 21.8882 133.032 21.3527 129.729 19.4355C129.729 18.1744 129.729 16.9141 129.707 15.6529C132.113 17.3749 135.175 18.5459 138.141 17.7431C139.236 17.4667 140.241 16.4819 140.085 15.2733C140.107 14.3491 139.46 13.5373 138.65 13.1577C136.321 11.9482 133.573 11.6071 131.462 9.97117C128.707 7.83344 128.889 2.93315 131.962 1.16689ZM152.658 1.23659C155.865 -0.706802 160.065 -0.184465 163.234 1.59C163.247 2.84705 163.247 4.09919 163.256 5.35542C160.974 3.62851 157.861 2.45838 155.072 3.59817C153.517 4.20251 153.339 6.55589 154.761 7.41033C157.193 8.82728 160.22 9.05031 162.445 10.8609C164.359 12.3721 164.743 15.174 164.001 17.3847C163.306 19.3527 161.327 20.5007 159.383 20.9206C156.399 21.538 153.213 20.9853 150.562 19.4921C150.518 18.2097 150.518 16.9272 150.514 15.6447C153.023 17.5102 156.442 18.7058 159.491 17.5307C161.15 16.9264 161.405 14.3786 159.909 13.4545C157.503 11.9474 154.467 11.7325 152.212 9.94411C149.554 7.80802 149.678 3.03401 152.658 1.23659ZM0.593018 0.368211C4.20805 0.57977 7.96228 -0.163965 11.4602 0.977467C15.3446 2.22468 15.8965 8.30904 12.3527 10.286C15.5821 11.6251 16.3231 16.2105 14.1074 18.7492C12.7449 20.3728 10.5202 20.8041 8.50679 20.8648C5.86777 20.9083 3.23367 20.8648 0.594655 20.8779V0.368211M4.04838 3.50305C4.04402 5.29939 4.04402 7.09545 4.04838 8.89124C5.90216 8.80104 7.82554 9.15035 9.63592 8.62802C11.8221 7.99334 11.8393 4.38782 9.66622 3.73183C7.83373 3.26525 5.91526 3.58505 4.04838 3.50305ZM4.04838 11.9187C4.0402 13.8612 4.04429 15.8046 4.04838 17.7406C6.17728 17.5897 8.46339 18.1596 10.4768 17.2658C12.4731 16.29 12.2921 12.965 10.2009 12.218C8.21775 11.5989 6.09213 12.054 4.04838 11.9187ZM69.6872 0.368211H73.1393V20.8779H69.6872V0.368211ZM55.5538 32.2119C58.7742 30.1693 63.0688 30.7359 66.2507 32.5792C66.2335 33.8142 66.2335 35.0491 66.2376 36.2832C63.9097 34.5784 60.7107 33.2615 57.9079 34.5694C56.5241 35.2303 56.3431 37.2893 57.5886 38.1831C60.1416 39.8067 63.5347 39.8846 65.7373 42.1043C67.2112 43.4983 67.4568 45.7221 67.0785 47.622C66.6388 49.522 64.9832 50.9381 63.1589 51.476C59.9655 52.46 56.3816 51.9295 53.5101 50.2583C53.5191 48.9931 53.5232 47.7286 53.5101 46.4634C55.9378 48.2895 59.236 49.49 62.2197 48.4191C64.0211 47.9353 64.3797 45.1637 62.7495 44.2568C60.3397 42.7496 57.2741 42.5602 55.0576 40.6947C52.5447 38.5677 52.7085 33.9905 55.5538 32.2119ZM14.2843 31.3484H17.729C17.7372 38.1101 17.7386 44.8745 17.7331 51.6417H14.2843V31.3484ZM27.5375 30.8737C32.1253 35.2598 36.7024 39.664 41.3303 44.0083C41.3475 39.7509 41.3344 35.4976 41.3385 31.2451C42.4848 31.2402 43.6347 31.2386 44.7881 31.2402C44.7963 38.1618 44.7791 45.0784 44.7963 52C40.1185 47.5597 35.5315 43.0194 30.8889 38.5398C30.8668 42.9054 30.8889 47.2744 30.8799 51.6441H27.5383C27.534 44.7184 27.5337 37.795 27.5375 30.8737ZM76.0461 31.3484H79.4957V51.6417H76.0461V31.3484ZM89.4164 31.3484C92.1933 31.3484 94.9728 31.3454 97.7551 31.3394C100.915 31.3009 104.179 32.9204 105.723 35.7485C107.383 38.7185 107.49 42.4102 106.46 45.6098C105.356 48.9718 102.07 51.3497 98.5698 51.5769C95.5214 51.7327 92.4689 51.599 89.4164 51.6417V31.3484ZM92.9692 34.4783V48.5068C95.4396 48.4166 98.0999 48.8873 100.397 47.7303C102.608 46.5897 103.619 43.9993 103.554 41.6156C103.644 39.2064 102.795 36.5037 100.579 35.2688C98.2546 33.9691 95.5001 34.6432 92.9692 34.4783ZM114.203 31.3484C118.333 31.3446 122.465 31.3446 126.599 31.3484C126.599 32.3931 126.594 33.4378 126.594 34.4833C123.612 34.4745 120.631 34.4745 117.652 34.4833V39.2237C120.308 39.2286 122.967 39.2302 125.629 39.2286V42.2511C122.969 42.2511 120.307 42.2462 117.652 42.2511V48.5027C120.632 48.5117 123.616 48.5027 126.599 48.5076V51.6376H114.203V31.3484ZM136.735 31.3443C139.533 31.3697 142.332 31.3181 145.126 31.3615C147.5 31.4214 150.011 32.7908 150.693 35.1909C151.306 37.277 151.159 39.7509 149.822 41.5336C149.003 42.5996 147.675 43.0022 146.434 43.3433C148.857 46.0843 151.261 48.8449 153.647 51.6253C152.282 51.6515 150.923 51.6515 149.568 51.6253C147.257 48.875 144.901 46.1633 142.579 43.4302C141.812 43.4352 141.049 43.4352 140.286 43.4352C140.278 46.1682 140.282 48.9012 140.282 51.6351C139.097 51.6389 137.911 51.6389 136.725 51.6351V31.3378M140.282 34.3717C140.274 36.384 140.278 38.3963 140.282 40.4077C142.124 40.3044 144.049 40.6972 145.831 40.1232C148.035 39.2376 148.082 35.6952 145.913 34.7514C144.13 34.0683 142.159 34.4701 140.292 34.375" fill="#0C4088"/>
</svg>
