<svg width="601" height="32" viewBox="0 0 601 32" fill="none" xmlns="http://www.w3.org/2000/svg">
<path d="M0.354004 30.7H15.454V25.5H13.954C13.454 25.5 12.854 24.7 12.854 24.3V7.79999C12.854 7.29999 13.554 6.59998 13.954 6.59998H15.454V1.19998H0.354004V6.59998H1.754C2.354 6.59998 2.954 7.39999 2.954 7.79999V24.2C2.954 24.7 2.254 25.4 1.754 25.4H0.354004V30.7ZM16.454 30.7H30.154V25.5H27.654V15.1C28.354 15 28.854 15 29.354 15C31.154 15 32.054 15.3 32.054 16.9V30.6H42.954V25.4H42.254C41.754 25.4 41.154 24.7 41.154 24.3V13.3C41.154 9.19999 38.354 8 35.354 8C31.854 8 29.354 9.5 27.354 11.5C27.154 9.1 26.554 8.39999 25.754 8.39999H16.154V13.9H17.354C17.854 13.9 18.454 14.6 18.454 15V24.4C18.454 24.7 17.754 25.5 17.354 25.5H16.254C16.454 25.6 16.454 30.7 16.454 30.7ZM43.154 14.1H45.354V24.8C45.354 30 48.654 31.3 53.554 31.3C55.554 31.3 57.254 31 58.454 30.6V25.6H57.354C55.354 25.6 54.754 25 54.754 23.1V14.2H58.354V8.69998H54.754V2.79999H45.554V8.59998H43.354L43.154 14.1ZM81.954 21.6C81.954 21.3 82.054 20.5 82.054 19.4C82.054 11.6 78.454 8.19998 71.054 8.19998C63.554 8.19998 59.054 12.7 59.054 19.7C59.054 26.7 62.554 31 71.154 31C76.254 31 79.154 30.1 81.254 29V23.8H76.354C75.454 24.9 74.454 25.6 72.154 25.6C69.654 25.6 68.554 24.4 68.354 21.6C68.254 21.6 81.954 21.6 81.954 21.6ZM71.154 13.3C72.754 13.3 73.454 14.4 73.654 17.1H68.354C68.754 14.5 69.454 13.3 71.154 13.3ZM83.354 30.7H96.854V25.5H94.554V16.1C95.754 15.8 97.754 15.4 100.554 15.4H101.554V8.59998C100.854 8.39998 100.554 8.39999 100.354 8.39999C97.554 8.39999 96.054 9.79998 94.554 11.7C94.354 9.29998 93.754 8.59998 92.954 8.59998H83.354V14.1H84.554C85.054 14.1 85.654 14.8 85.654 15.2V24.6C85.654 25.1 84.954 25.7 84.554 25.7H83.454L83.354 30.7ZM102.854 30.7H116.554V25.5H114.054V15.1C114.754 15 115.254 15 115.754 15C117.554 15 118.454 15.3 118.454 16.9V30.6H129.354V25.4H128.654C128.154 25.4 127.554 24.7 127.554 24.3V13.3C127.554 9.19999 124.754 8 121.754 8C118.254 8 115.754 9.5 113.854 11.5C113.654 9.1 113.054 8.39999 112.254 8.39999H102.654V13.9H103.854C104.354 13.9 104.954 14.6 104.954 15V24.4C104.954 24.7 104.254 25.5 103.854 25.5H102.754C102.854 25.6 102.854 30.7 102.854 30.7ZM137.254 31C139.954 31 142.054 30.2 143.554 28.4C144.354 30 145.754 31 148.554 31C150.754 31 152.354 30.5 153.754 29.8V25.5H152.954C152.454 25.5 151.954 24.8 151.954 24.4V15.6C151.954 10.4 148.854 8.09998 141.954 8.09998C137.454 8.09998 133.954 8.89998 131.554 9.59998V15.8H135.254C136.154 15 137.254 14.3 139.554 14.3C141.754 14.3 142.654 15.1 142.654 16.6V17.8C141.454 17.6 140.254 17.5 138.654 17.5C133.454 17.5 130.154 19.5 130.154 24.4C130.354 29 133.454 31 137.254 31ZM140.954 25.8C139.854 25.8 138.954 25.3 138.954 23.8C138.954 22.2 139.754 21.6 141.254 21.6C141.854 21.6 142.454 21.7 142.954 21.8V25.2C142.354 25.6 141.754 25.8 140.954 25.8ZM154.054 14.1H156.254V24.8C156.254 30 159.554 31.3 164.454 31.3C166.454 31.3 168.154 31 169.354 30.6V25.6H168.154C166.154 25.6 165.554 25 165.554 23.1V14.2H169.154V8.69998H165.554V2.79999H156.354V8.59998H154.154V14.1H154.054ZM170.254 30.7H183.654V25.5H182.554C182.054 25.5 181.454 24.8 181.454 24.4V10.7C181.454 9.29998 180.954 8.5 180.254 8.5H170.154V14H171.354C171.854 14 172.354 14.7 172.354 15.1V24.5C172.354 25 171.754 25.6 171.354 25.6H170.254V30.6V30.7ZM176.854 7.79999C179.354 7.79999 181.054 6.3 181.054 4C181.054 1.7 179.354 0 176.854 0C174.354 0 172.654 1.6 172.654 4C172.654 6.1 174.454 7.79999 176.854 7.79999ZM196.754 31.1C203.954 31.1 209.254 26.9 209.254 19.8C209.254 12.8 204.054 8.29999 196.754 8.29999C189.454 8.29999 184.354 12.8 184.354 19.8C184.454 26.8 189.654 31.1 196.754 31.1ZM196.754 25.6C194.854 25.6 193.554 23.8 193.554 19.7C193.554 15.6 194.754 13.9 196.754 13.9C198.754 13.9 199.954 15.6 199.954 19.7C200.054 23.9 198.654 25.6 196.754 25.6ZM210.154 30.7H223.854V25.5H221.354V15.1C222.054 15 222.554 15 223.054 15C224.854 15 225.754 15.3 225.754 16.9V30.6H236.654V25.4H235.954C235.454 25.4 234.854 24.7 234.854 24.3V13.3C234.854 9.19999 232.054 8 229.054 8C225.554 8 223.054 9.5 221.054 11.5C220.854 9.1 220.254 8.39999 219.454 8.39999H209.854V13.9H211.054C211.554 13.9 212.154 14.6 212.154 15V24.4C212.154 24.7 211.454 25.5 211.054 25.5H209.954C210.154 25.6 210.154 30.7 210.154 30.7ZM244.554 31C247.254 31 249.354 30.2 250.854 28.4C251.654 30 253.054 31 255.854 31C258.054 31 259.654 30.5 261.054 29.8V25.5H260.254C259.754 25.5 259.254 24.8 259.254 24.4V15.6C259.254 10.4 256.154 8.09998 249.254 8.09998C244.754 8.09998 241.254 8.89998 238.854 9.59998V15.8H242.554C243.454 15 244.554 14.3 246.854 14.3C249.054 14.3 249.954 15.1 249.954 16.6V17.8C248.754 17.6 247.554 17.5 245.954 17.5C240.754 17.5 237.454 19.5 237.454 24.4C237.754 29 240.954 31 244.554 31ZM248.354 25.8C247.154 25.8 246.354 25.3 246.354 23.8C246.354 22.2 247.154 21.6 248.654 21.6C249.254 21.6 249.854 21.7 250.354 21.8V25.2C249.654 25.6 249.054 25.8 248.354 25.8ZM262.154 30.7H275.754V25.5H274.554C274.054 25.5 273.554 24.8 273.554 24.4V3.09998C273.554 1.99998 272.954 1.29999 272.354 1.29999H262.154V6.69998H263.354C263.854 6.69998 264.354 7.39999 264.354 7.79999V24.4C264.354 24.9 263.754 25.5 263.354 25.5H262.154V30.6C262.054 30.7 262.154 30.7 262.154 30.7ZM283.354 30.7H297.654C305.554 30.7 310.454 27.9 310.454 22.2C310.454 18.2 308.054 16.1 303.754 15.4V15.2C307.354 14.3 309.654 12.6 309.654 9C309.654 3.9 305.454 1.39999 297.654 1.39999H283.454V6.69998H284.654C285.254 6.69998 285.854 7.49999 285.854 7.89999V24.3C285.854 24.8 285.154 25.5 284.654 25.5H283.454V30.6H283.354V30.7ZM295.354 25.3V18.3H296.954C299.554 18.3 300.554 19.4 300.554 21.8C300.554 24.2 299.554 25.4 296.954 25.4H295.354V25.3ZM295.354 6.89999H296.854C299.254 6.89999 300.154 7.99998 300.154 10.1C300.154 12.1 299.154 13.3 296.854 13.3H295.354V6.89999ZM318.854 31.1C322.454 31.1 324.754 29.7 326.654 27.7C326.854 30.1 327.554 30.8 328.254 30.8H337.654V25.6H336.654C336.154 25.6 335.654 24.9 335.654 24.5V8.69998H324.354V14.2H326.554V24.4C325.854 24.5 325.354 24.6 324.954 24.6C323.154 24.6 322.254 24.3 322.254 22.6V8.79999H311.254V14.3H312.154C312.454 14.3 313.154 15 313.154 15.4V25.9C312.954 30 315.854 31.1 318.854 31.1ZM347.854 31.1C355.254 31.1 358.354 28.3 358.354 23.2C358.354 18 355.554 16.7 349.954 16.1C347.354 15.8 346.554 15.5 346.554 14.9C346.554 14.1 347.254 13.7 349.054 13.7C350.754 13.7 351.854 14.3 352.654 15.2H357.454V9.39999C355.254 8.69999 352.854 8.29999 348.854 8.29999C342.754 8.29999 338.654 10.7 338.654 15.8C338.654 20.8 341.454 22.5 346.254 23C349.054 23.3 349.854 23.6 349.854 24.5C349.854 25.5 348.854 25.7 347.354 25.7C345.754 25.7 344.154 24.9 343.554 23.8H338.654V29.9C340.654 30.4 343.354 31.1 347.854 31.1ZM359.654 30.7H373.054V25.5H371.954C371.454 25.5 370.854 24.8 370.854 24.4V10.7C370.854 9.29998 370.354 8.5 369.654 8.5H359.554V14H360.754C361.254 14 361.754 14.7 361.754 15.1V24.5C361.754 25 361.154 25.6 360.754 25.6H359.654V30.7ZM366.254 7.79999C368.754 7.79999 370.554 6.3 370.554 4C370.554 1.7 368.854 0 366.254 0C363.754 0 362.054 1.6 362.054 4C362.054 6.1 363.854 7.79999 366.254 7.79999ZM374.154 30.7H387.754V25.5H385.254V15.1C385.954 15 386.454 15 386.954 15C388.754 15 389.654 15.3 389.654 16.9V30.6H400.554V25.4H399.854C399.354 25.4 398.754 24.7 398.754 24.3V13.3C398.754 9.19999 395.954 8 392.954 8C389.454 8 386.954 9.5 384.954 11.5C384.754 9.1 384.154 8.39999 383.354 8.39999H373.754V13.9H374.954C375.454 13.9 376.054 14.6 376.054 15V24.4C376.054 24.7 375.354 25.5 374.954 25.5H373.854C374.154 25.6 374.154 30.7 374.154 30.7ZM424.154 21.6C424.154 21.3 424.254 20.5 424.254 19.4C424.254 11.6 420.754 8.19998 413.254 8.19998C405.754 8.19998 401.254 12.7 401.254 19.7C401.254 26.7 404.754 31 413.354 31C418.454 31 421.354 30.1 423.354 29V23.8H418.454C417.554 24.9 416.554 25.6 414.254 25.6C411.754 25.6 410.654 24.4 410.454 21.6H424.154ZM413.354 13.3C414.954 13.3 415.654 14.4 415.854 17.1H410.554C410.854 14.5 411.654 13.3 413.354 13.3ZM434.754 31.1C442.154 31.1 445.254 28.3 445.254 23.2C445.254 18 442.454 16.7 436.854 16.1C434.254 15.8 433.554 15.5 433.554 14.9C433.554 14.1 434.254 13.7 436.054 13.7C437.754 13.7 438.854 14.3 439.554 15.2H444.354V9.39999C442.154 8.69999 439.754 8.29999 435.754 8.29999C429.654 8.29999 425.554 10.7 425.554 15.8C425.554 20.8 428.354 22.5 433.154 23C435.954 23.3 436.754 23.6 436.754 24.5C436.754 25.5 435.754 25.7 434.254 25.7C432.654 25.7 430.954 24.9 430.454 23.8H425.554V29.9C427.454 30.4 430.154 31.1 434.754 31.1ZM455.454 31.1C462.854 31.1 465.954 28.3 465.954 23.2C465.954 18 463.154 16.7 457.554 16.1C454.954 15.8 454.154 15.5 454.154 14.9C454.154 14.1 454.854 13.7 456.654 13.7C458.354 13.7 459.454 14.3 460.254 15.2H465.054V9.39999C462.854 8.69999 460.454 8.29999 456.454 8.29999C450.354 8.29999 446.254 10.7 446.254 15.8C446.254 20.8 449.054 22.5 453.854 23C456.654 23.3 457.454 23.6 457.454 24.5C457.454 25.5 456.454 25.7 454.954 25.7C453.354 25.7 451.754 24.9 451.154 23.8H446.254V29.9C448.354 30.4 451.054 31.1 455.454 31.1ZM479.854 30.7H494.754V25.5H493.354C492.754 25.5 492.154 24.7 492.154 24.3V7H494.554L495.254 12.4H501.154V1.39999H473.754V12.4H479.654L480.354 7H482.754V24.3C482.754 24.8 482.054 25.5 481.554 25.5H480.154L479.854 30.7ZM502.354 30.7H515.754V25.5H514.654C514.154 25.5 513.554 24.8 513.554 24.4V10.7C513.554 9.29998 513.054 8.5 512.354 8.5H502.254V14H503.454C503.954 14 504.454 14.7 504.454 15.1V24.5C504.454 25 503.854 25.6 503.454 25.6H502.354V30.7ZM508.954 7.79999C511.454 7.79999 513.254 6.3 513.254 4C513.254 1.7 511.554 0 508.954 0C506.454 0 504.754 1.6 504.754 4C504.854 6.1 506.554 7.79999 508.954 7.79999ZM516.854 30.7H530.054V25.5H528.154V15.1C528.854 15 529.354 15 529.754 15C531.654 15 532.054 15.3 532.054 16.9V30.6H543.054V25.4H541.154V15C541.854 14.9 542.354 14.9 542.754 14.9C544.654 14.9 544.954 15.2 544.954 16.8V30.5H555.854V25.3H555.154C554.654 25.3 554.054 24.6 554.054 24.2V13.2C554.054 9.09998 551.354 7.89999 548.354 7.89999C544.754 7.89999 542.554 9.6 540.854 11.5C540.154 8.7 537.754 7.89999 535.354 7.89999C531.854 7.89999 529.554 9.6 527.854 11.5C527.654 8.9 527.054 8.19998 526.254 8.19998H516.654V13.7H517.854C518.354 13.7 518.954 14.4 518.954 14.8V24.2C518.954 24.5 518.254 25.3 517.854 25.3H516.754V30.6C516.554 30.7 516.854 30.7 516.854 30.7ZM579.254 21.6C579.254 21.3 579.354 20.5 579.354 19.4C579.354 11.6 575.854 8.19998 568.354 8.19998C560.954 8.19998 556.354 12.7 556.354 19.7C556.354 26.7 559.854 31 568.454 31C573.554 31 576.454 30.1 578.454 29V23.8H573.554C572.654 24.9 571.654 25.6 569.354 25.6C566.854 25.6 565.754 24.4 565.554 21.6H579.254ZM568.354 13.3C569.954 13.3 570.654 14.4 570.854 17.1H565.554C565.854 14.5 566.754 13.3 568.354 13.3ZM589.854 31.1C597.254 31.1 600.354 28.3 600.354 23.2C600.354 18 597.554 16.7 591.954 16.1C589.354 15.8 588.654 15.5 588.654 14.9C588.654 14.1 589.354 13.7 591.154 13.7C592.854 13.7 593.954 14.3 594.654 15.2H599.454V9.39999C597.254 8.69999 594.854 8.29999 590.854 8.29999C584.754 8.29999 580.654 10.7 580.654 15.8C580.654 20.8 583.454 22.5 588.254 23C591.054 23.3 591.854 23.6 591.854 24.5C591.854 25.5 590.854 25.7 589.354 25.7C587.754 25.7 586.054 24.9 585.554 23.8H580.654V29.9C582.554 30.4 585.254 31.1 589.854 31.1Z" fill="#0C4088"/>
</svg>
