<svg width="272" height="266" viewBox="0 0 272 266" fill="none" xmlns="http://www.w3.org/2000/svg">
<path d="M140.71 33.14L-62.05 -169.62L-61.63 -170.04L141.3 32.89V52.7401L162.11 73.55C162.57 73.28 163.16 73.33 163.55 73.72C164.02 74.19 164.02 74.95 163.55 75.42C163.08 75.89 162.32 75.89 161.85 75.42C161.46 75.03 161.41 74.44 161.68 73.98L140.69 52.9901V33.14H140.71ZM120.14 78.56L163.86 122.28H173.45L180.08 128.91C179.81 129.37 179.86 129.96 180.25 130.35C180.72 130.82 181.48 130.82 181.95 130.35C182.42 129.88 182.42 129.12 181.95 128.65C181.56 128.26 180.97 128.21 180.51 128.48L173.7 121.67H164.11L120.39 77.95H100.54L-104.54 -127.13L-104.96 -126.71L100.3 78.55H120.15L120.14 78.56ZM6.79001 3.58002L95.64 92.43H115.49L130.83 107.77C130.72 108.17 130.81 108.61 131.12 108.92C131.59 109.39 132.35 109.39 132.82 108.92C133.29 108.45 133.29 107.69 132.82 107.22C132.35 106.75 131.6 106.75 131.13 107.22L115.74 91.83H95.89L7.04001 2.97998H-23.23L-128.94 -102.73L-129.36 -102.31L-23.48 3.57001H6.79001V3.58002ZM172.08 40.05V26.9L251.66 106.48L252.08 106.06L106.91 -39.11L93.07 -25.27L-56.66 -175L-57.08 -174.58L92.86 -24.64L93.07 -24.43L147.69 30.19V50.04L184.25 86.6C183.98 87.06 184.03 87.65 184.42 88.04C184.89 88.51 185.65 88.51 186.12 88.04C186.59 87.57 186.59 86.81 186.12 86.34C185.73 85.95 185.14 85.9 184.68 86.17L148.29 49.78V30.06H147.99L148.2 29.85L93.49 -24.86L106.91 -38.28L161.53 16.34V44.03L201.5 84.0001C201.23 84.4601 201.28 85.05 201.67 85.44C202.14 85.91 202.9 85.91 203.37 85.44C203.84 84.97 203.84 84.2101 203.37 83.7401C202.98 83.35 202.39 83.3 201.93 83.57L162.14 43.78V16.94L171.49 26.29V40.28L270.6 139.39L271.02 138.97L172.08 40.03V40.05ZM66.61 34.09L99.11 66.59C98.84 67.05 98.89 67.64 99.28 68.03C99.75 68.5 100.51 68.5 100.98 68.03C101.45 67.56 101.45 66.8 100.98 66.33C100.59 65.94 100 65.89 99.54 66.16L67.22 33.84V-10.59L94.03 16.22C93.76 16.68 93.81 17.27 94.2 17.66C94.67 18.13 95.43 18.13 95.9 17.66C96.37 17.19 96.37 16.43 95.9 15.96C95.51 15.57 94.92 15.52 94.46 15.79L-76.49 -155.16L-76.91 -154.74L66.64 -11.19V34.08L66.61 34.09ZM44.57 11.12C44.3 11.58 44.35 12.17 44.74 12.56C45.21 13.03 45.97 13.03 46.44 12.56C46.91 12.09 46.91 11.33 46.44 10.86C46.05 10.47 45.46 10.42 45 10.69L34.75 0.440002H51.85L57.43 6.02002V22.69C57.23 22.74 57.03 22.83 56.87 22.98C56.4 23.45 56.4 24.21 56.87 24.68C57.34 25.15 58.1 25.15 58.57 24.68C59.04 24.21 59.04 23.45 58.57 22.98C58.42 22.83 58.22 22.74 58.03 22.69V5.77002L52.1 -0.159973H34.15L-98.68 -132.99L-99.1 -132.57L44.58 11.11L44.57 11.12ZM57.06 -7.58002C57.11 -7.38002 57.2 -7.18997 57.35 -7.02997C57.82 -6.55997 58.58 -6.55997 59.05 -7.02997C59.52 -7.49997 59.52 -8.25998 59.05 -8.72998C58.58 -9.19998 57.82 -9.19998 57.35 -8.72998C57.19 -8.56998 57.11 -8.37999 57.06 -8.17999H37.9L-92.79 -138.87L-93.21 -138.45L37.66 -7.58002H57.07H57.06ZM-39.57 135.17L-18.76 155.98C-19.03 156.44 -18.98 157.03 -18.59 157.42C-18.12 157.89 -17.36 157.89 -16.89 157.42C-16.42 156.95 -16.42 156.19 -16.89 155.72C-17.28 155.33 -17.87 155.28 -18.33 155.55L-39.32 134.56H-59.17L-212.7 -18.97L-213.12 -18.55L-59.41 135.16H-39.56L-39.57 135.17ZM-36.63 128.19L35.97 200.79C35.7 201.25 35.75 201.84 36.14 202.23C36.61 202.7 37.37 202.7 37.84 202.23C38.31 201.76 38.31 201 37.84 200.53C37.45 200.14 36.86 200.09 36.4 200.36L-36.37 127.59H-56.22L-207.73 -23.92L-208.15 -23.5L-56.47 128.18H-36.62L-36.63 128.19ZM-53.54 121.2H-33.69L30.21 185.1C29.94 185.56 29.99 186.15 30.38 186.54C30.85 187.01 31.61 187.01 32.08 186.54C32.55 186.07 32.55 185.31 32.08 184.84C31.69 184.45 31.1 184.4 30.64 184.67L-33.43 120.6H-53.28L-202.76 -28.89L-203.18 -28.47L-53.52 121.19L-53.54 121.2ZM-14.35 114.25L29.37 157.97V167.56L36.18 174.37C35.91 174.83 35.96 175.42 36.35 175.81C36.82 176.28 37.58 176.28 38.05 175.81C38.52 175.34 38.52 174.58 38.05 174.11C37.66 173.72 37.07 173.67 36.61 173.94L29.98 167.31V157.72L-13.74 114V94.15L-169.77 -61.88L-170.19 -61.46L-14.33 94.4V114.25H-14.35ZM-0.470001 110.01L14.41 124.89C14.14 125.35 14.19 125.94 14.58 126.33C15.05 126.8 15.81 126.8 16.28 126.33C16.75 125.86 16.75 125.1 16.28 124.63C15.89 124.24 15.3 124.19 14.84 124.46L0.139984 109.76V89.91L-160.71 -70.94L-161.13 -70.52L-0.449982 90.16V110.01H-0.470001ZM-62.23 141.85V142.15H-42.51L-6.11996 178.54C-6.38997 179 -6.33998 179.59 -5.94998 179.98C-5.47998 180.45 -4.71997 180.45 -4.24997 179.98C-3.77997 179.51 -3.77997 178.75 -4.24997 178.28C-4.63997 177.89 -5.22997 177.84 -5.68997 178.11L-42.25 141.55H-62.1L-217.65 -14L-218.07 -13.58L-62.43 142.06L-62.22 141.85H-62.23ZM-92.45 45.95L-86.52 51.8799H-69.54C-69.5 52.0999 -69.41 52.3201 -69.23 52.5001C-68.76 52.9701 -68 52.9701 -67.53 52.5001C-67.06 52.0301 -67.06 51.27 -67.53 50.8C-68 50.33 -68.76 50.33 -69.23 50.8C-69.37 50.94 -69.45 51.11 -69.51 51.28H-86.27L-91.85 45.7V28.6L-81.65 38.8C-81.92 39.26 -81.87 39.85 -81.48 40.24C-81.01 40.71 -80.25 40.71 -79.78 40.24C-79.31 39.77 -79.31 39.01 -79.78 38.54C-80.17 38.15 -80.76 38.1 -81.22 38.37L-91.85 27.74L-175.63 -56.04L-176.05 -55.62L-92.44 27.99V45.94L-92.45 45.95ZM-100.49 50.92C-100.69 50.97 -100.88 51.06 -101.04 51.21C-101.51 51.68 -101.51 52.44 -101.04 52.91C-100.57 53.38 -99.81 53.38 -99.34 52.91C-98.87 52.44 -98.87 51.68 -99.34 51.21C-99.5 51.05 -99.69 50.97 -99.89 50.92V31.51L-181.53 -50.13L-181.95 -49.71L-100.48 31.76V50.92H-100.49ZM-76.34 89.7401C-75.87 90.2101 -75.11 90.2101 -74.64 89.7401C-74.17 89.2701 -74.17 88.51 -74.64 88.04C-75.03 87.65 -75.62 87.6001 -76.08 87.8701L-102.89 61.06H-58.46L-26.14 93.3799C-26.41 93.8399 -26.36 94.43 -25.97 94.82C-25.5 95.29 -24.74 95.29 -24.27 94.82C-23.8 94.35 -23.8 93.5901 -24.27 93.1201C-24.66 92.73 -25.25 92.68 -25.71 92.95L-58.21 60.45H-103.48L-197.8 -33.87L-198.22 -33.45L-76.49 88.28C-76.76 88.74 -76.71 89.33 -76.32 89.72L-76.34 89.7401ZM46.31 263.66L-52.01 165.34H-66L-75.35 155.99H-48.51L-8.72 195.78C-8.99001 196.24 -8.94002 196.83 -8.55002 197.22C-8.08002 197.69 -7.32001 197.69 -6.85001 197.22C-6.38 196.75 -6.38 195.99 -6.85001 195.52C-7.24001 195.13 -7.83 195.08 -8.29001 195.35L-48.26 155.38H-75.95L-112 119.33H-99.71C-99.66 119.53 -99.57 119.72 -99.42 119.88C-98.95 120.35 -98.19 120.35 -97.72 119.88C-97.25 119.41 -97.25 118.65 -97.72 118.18C-98.19 117.71 -98.95 117.71 -99.42 118.18C-99.58 118.34 -99.66 118.53 -99.71 118.73H-112.59L-130.7 100.62V82.77L-222.58 -9.10999L-223 -8.69L-131.29 83.02V100.87L12.81 244.97C12.55 245.43 12.6 246.01 12.99 246.4C13.46 246.87 14.22 246.87 14.69 246.4C15.16 245.93 15.16 245.17 14.69 244.7C14.29 244.3 13.7 244.26 13.24 244.54L-65.39 165.91H-52.24L45.88 264.03C45.55 264.5 45.57 265.14 45.99 265.56C46.46 266.03 47.22 266.03 47.69 265.56C48.16 265.09 48.16 264.33 47.69 263.86C47.32 263.49 46.78 263.42 46.34 263.63L46.31 263.66ZM57.09 175.78L-6.80997 111.88V92.03L-165.25 -66.41L-165.67 -65.99L-7.39999 92.28V112.13L56.67 176.2C56.4 176.66 56.45 177.25 56.84 177.64C57.31 178.11 58.07 178.11 58.54 177.64C59.01 177.17 59.01 176.41 58.54 175.94C58.15 175.55 57.56 175.5 57.1 175.77L57.09 175.78ZM-45.53 26.8C-45.06 27.27 -44.3 27.27 -43.83 26.8C-43.36 26.33 -43.36 25.57 -43.83 25.1C-44.22 24.71 -44.81 24.66 -45.27 24.93L-150.93 -80.73L-151.35 -80.31L-45.69 25.35C-45.96 25.81 -45.91 26.4 -45.52 26.79L-45.53 26.8ZM145.47 170.49L106.18 131.2V111.35L69.86 75.03H50.01L9.82999 34.85H-14.87L-39.11 10.61V-2.65997L-22.96 13.49L-2.59 13.36L31.87 47.82L32.29 47.4L-2.35001 12.76L-22.72 12.89L-27.22 8.39001H2.36002L52.9 58.93L53.32 58.5099L2.61002 7.79999H-27.82L-56.88 -21.26L-133.66 -98.04L-134.08 -97.62L-57.48 -21.02V3.66998L-17.3 43.85V63.7L19.02 100.02H38.87L78.16 139.31C77.92 139.76 77.97 140.33 78.35 140.72C78.82 141.19 79.58 141.19 80.05 140.72C80.52 140.25 80.52 139.49 80.05 139.02C79.65 138.62 79.04 138.58 78.57 138.87L39.11 99.41H19.26L-16.71 63.44V43.59L-56.89 3.40997V-20.44L-39.73 -3.27997V10.84L-15.15 35.42H9.55002L49.73 75.6H69.58L105.55 111.57V131.42L145.01 170.88C144.74 171.34 144.79 171.93 145.18 172.32C145.65 172.79 146.41 172.79 146.88 172.32C147.35 171.85 147.35 171.09 146.88 170.62C146.49 170.23 145.9 170.18 145.44 170.45L145.47 170.49ZM182.35 148.97L118.28 84.9H98.43L11.99 -1.53998H-18.39L-124.25 -107.4L-124.67 -106.98L-18.64 -0.950012H11.74L98.18 85.4901H118.03L181.93 149.39C181.66 149.85 181.71 150.44 182.1 150.83C182.57 151.3 183.33 151.3 183.8 150.83C184.27 150.36 184.27 149.6 183.8 149.13C183.41 148.74 182.82 148.69 182.36 148.96L182.35 148.97ZM191.24 122.51L127.34 58.61V38.76L-71.54 -160.12L-71.96 -159.7L126.75 39.01V58.86L190.82 122.93C190.55 123.39 190.6 123.98 190.99 124.37C191.46 124.84 192.22 124.84 192.69 124.37C193.16 123.9 193.16 123.14 192.69 122.67C192.3 122.28 191.71 122.23 191.25 122.5L191.24 122.51ZM206.92 128.27L134.32 55.67V35.82L-66.59 -165.09L-67.01 -164.67L133.72 36.06V55.91L206.49 128.68C206.22 129.14 206.27 129.73 206.66 130.12C207.13 130.59 207.89 130.59 208.36 130.12C208.83 129.65 208.83 128.89 208.36 128.42C207.97 128.03 207.38 127.98 206.92 128.25V128.27ZM49.38 -17.23C49.85 -16.76 50.61 -16.76 51.08 -17.23C51.55 -17.7 51.55 -18.46 51.08 -18.93C50.69 -19.32 50.1 -19.37 49.64 -19.1L-81.47 -150.21L-81.89 -149.79L49.22 -18.68C48.95 -18.22 49 -17.63 49.39 -17.24L49.38 -17.23ZM-34.43 47.83C-33.96 48.3 -33.2 48.3 -32.73 47.83C-32.26 47.36 -32.26 46.6 -32.73 46.13C-33.12 45.74 -33.71 45.69 -34.17 45.96L-155.9 -75.77L-156.32 -75.35L-34.59 46.38C-34.86 46.84 -34.81 47.43 -34.42 47.82L-34.43 47.83ZM-111.26 44.9C-110.79 45.37 -110.03 45.37 -109.56 44.9C-109.09 44.43 -109.09 43.67 -109.56 43.2C-109.95 42.81 -110.54 42.76 -111 43.03L-192.85 -38.82L-193.27 -38.4L-111.42 43.45C-111.69 43.91 -111.64 44.5 -111.25 44.89L-111.26 44.9Z" fill="#28EAE9"/>
</svg>
