<svg width="30" height="28" viewBox="0 0 30 28" fill="none" xmlns="http://www.w3.org/2000/svg">
<path d="M27.8333 5.66669H2.16667C1.52233 5.66669 1 6.18902 1 6.83335V25.5C1 26.1444 1.52233 26.6667 2.16667 26.6667H27.8333C28.4777 26.6667 29 26.1444 29 25.5V6.83335C29 6.18902 28.4777 5.66669 27.8333 5.66669Z" stroke="#28EAE9" stroke-width="1.5" stroke-linecap="round" stroke-linejoin="round"/>
<path d="M20.8327 5.66667V3.33333C20.8327 2.71449 20.5868 2.121 20.1493 1.68342C19.7117 1.24583 19.1182 1 18.4993 1H11.4993C10.8805 1 10.287 1.24583 9.84943 1.68342C9.41185 2.121 9.16602 2.71449 9.16602 3.33333V5.66667" stroke="#28EAE9" stroke-width="1.5" stroke-linecap="round" stroke-linejoin="round"/>
<path d="M15 12.0833V20.25" stroke="#28EAE9" stroke-width="1.5" stroke-linecap="round" stroke-linejoin="round"/>
<path d="M19.0827 16.1667H10.916" stroke="#28EAE9" stroke-width="1.5" stroke-linecap="round" stroke-linejoin="round"/>
</svg>
