<svg width="184" height="67" viewBox="0 0 184 67" fill="none" xmlns="http://www.w3.org/2000/svg">
<g filter="url(#filter0_d_12126_19772)">
<rect x="43" y="22" width="98" height="27" rx="1" fill="#28EAE9"/>
<path d="M47.396 35.276C47.396 34.444 47.576 33.704 47.936 33.056C48.296 32.4 48.796 31.892 49.436 31.532C50.084 31.164 50.816 30.98 51.632 30.98C52.632 30.98 53.488 31.244 54.2 31.772C54.912 32.3 55.388 33.02 55.628 33.932H53.372C53.204 33.58 52.964 33.312 52.652 33.128C52.348 32.944 52 32.852 51.608 32.852C50.976 32.852 50.464 33.072 50.072 33.512C49.68 33.952 49.484 34.54 49.484 35.276C49.484 36.012 49.68 36.6 50.072 37.04C50.464 37.48 50.976 37.7 51.608 37.7C52 37.7 52.348 37.608 52.652 37.424C52.964 37.24 53.204 36.972 53.372 36.62H55.628C55.388 37.532 54.912 38.252 54.2 38.78C53.488 39.3 52.632 39.56 51.632 39.56C50.816 39.56 50.084 39.38 49.436 39.02C48.796 38.652 48.296 38.144 47.936 37.496C47.576 36.848 47.396 36.108 47.396 35.276ZM60.8686 39.584C60.0766 39.584 59.3486 39.4 58.6846 39.032C58.0286 38.664 57.5046 38.152 57.1126 37.496C56.7286 36.832 56.5366 36.088 56.5366 35.264C56.5366 34.44 56.7286 33.7 57.1126 33.044C57.5046 32.388 58.0286 31.876 58.6846 31.508C59.3486 31.14 60.0766 30.956 60.8686 30.956C61.6606 30.956 62.3846 31.14 63.0406 31.508C63.7046 31.876 64.2246 32.388 64.6006 33.044C64.9846 33.7 65.1766 34.44 65.1766 35.264C65.1766 36.088 64.9846 36.832 64.6006 37.496C64.2166 38.152 63.6966 38.664 63.0406 39.032C62.3846 39.4 61.6606 39.584 60.8686 39.584ZM60.8686 37.712C61.5406 37.712 62.0766 37.488 62.4766 37.04C62.8846 36.592 63.0886 36 63.0886 35.264C63.0886 34.52 62.8846 33.928 62.4766 33.488C62.0766 33.04 61.5406 32.816 60.8686 32.816C60.1886 32.816 59.6446 33.036 59.2366 33.476C58.8366 33.916 58.6366 34.512 58.6366 35.264C58.6366 36.008 58.8366 36.604 59.2366 37.052C59.6446 37.492 60.1886 37.712 60.8686 37.712ZM75.8582 31.076V39.5H73.8062V34.448L71.9222 39.5H70.2662L68.3702 34.436V39.5H66.3182V31.076H68.7422L71.1062 36.908L73.4462 31.076H75.8582ZM79.3858 31.076V39.5H77.3338V31.076H79.3858ZM88.4089 39.5H86.3569L82.9249 34.304V39.5H80.8729V31.076H82.9249L86.3569 36.296V31.076H88.4089V39.5ZM95.4883 33.74C95.3363 33.46 95.1163 33.248 94.8283 33.104C94.5483 32.952 94.2163 32.876 93.8323 32.876C93.1683 32.876 92.6363 33.096 92.2363 33.536C91.8363 33.968 91.6363 34.548 91.6363 35.276C91.6363 36.052 91.8443 36.66 92.2603 37.1C92.6843 37.532 93.2643 37.748 94.0003 37.748C94.5043 37.748 94.9283 37.62 95.2723 37.364C95.6243 37.108 95.8803 36.74 96.0403 36.26H93.4363V34.748H97.9003V36.656C97.7483 37.168 97.4883 37.644 97.1203 38.084C96.7603 38.524 96.3003 38.88 95.7403 39.152C95.1803 39.424 94.5483 39.56 93.8443 39.56C93.0123 39.56 92.2683 39.38 91.6123 39.02C90.9643 38.652 90.4563 38.144 90.0883 37.496C89.7283 36.848 89.5483 36.108 89.5483 35.276C89.5483 34.444 89.7283 33.704 90.0883 33.056C90.4563 32.4 90.9643 31.892 91.6123 31.532C92.2603 31.164 93.0003 30.98 93.8323 30.98C94.8403 30.98 95.6883 31.224 96.3763 31.712C97.0723 32.2 97.5323 32.876 97.7563 33.74H95.4883ZM104.628 39.584C104.012 39.584 103.46 39.484 102.972 39.284C102.484 39.084 102.092 38.788 101.796 38.396C101.508 38.004 101.356 37.532 101.34 36.98H103.524C103.556 37.292 103.664 37.532 103.848 37.7C104.032 37.86 104.272 37.94 104.568 37.94C104.872 37.94 105.112 37.872 105.288 37.736C105.464 37.592 105.552 37.396 105.552 37.148C105.552 36.94 105.48 36.768 105.336 36.632C105.2 36.496 105.028 36.384 104.82 36.296C104.62 36.208 104.332 36.108 103.956 35.996C103.412 35.828 102.968 35.66 102.624 35.492C102.28 35.324 101.984 35.076 101.736 34.748C101.488 34.42 101.364 33.992 101.364 33.464C101.364 32.68 101.648 32.068 102.216 31.628C102.784 31.18 103.524 30.956 104.436 30.956C105.364 30.956 106.112 31.18 106.68 31.628C107.248 32.068 107.552 32.684 107.592 33.476H105.372C105.356 33.204 105.256 32.992 105.072 32.84C104.888 32.68 104.652 32.6 104.364 32.6C104.116 32.6 103.916 32.668 103.764 32.804C103.612 32.932 103.536 33.12 103.536 33.368C103.536 33.64 103.664 33.852 103.92 34.004C104.176 34.156 104.576 34.32 105.12 34.496C105.664 34.68 106.104 34.856 106.44 35.024C106.784 35.192 107.08 35.436 107.328 35.756C107.576 36.076 107.7 36.488 107.7 36.992C107.7 37.472 107.576 37.908 107.328 38.3C107.088 38.692 106.736 39.004 106.272 39.236C105.808 39.468 105.26 39.584 104.628 39.584ZM112.947 39.584C112.155 39.584 111.427 39.4 110.763 39.032C110.107 38.664 109.583 38.152 109.191 37.496C108.807 36.832 108.615 36.088 108.615 35.264C108.615 34.44 108.807 33.7 109.191 33.044C109.583 32.388 110.107 31.876 110.763 31.508C111.427 31.14 112.155 30.956 112.947 30.956C113.739 30.956 114.463 31.14 115.119 31.508C115.783 31.876 116.303 32.388 116.679 33.044C117.063 33.7 117.255 34.44 117.255 35.264C117.255 36.088 117.063 36.832 116.679 37.496C116.295 38.152 115.775 38.664 115.119 39.032C114.463 39.4 113.739 39.584 112.947 39.584ZM112.947 37.712C113.619 37.712 114.155 37.488 114.555 37.04C114.963 36.592 115.167 36 115.167 35.264C115.167 34.52 114.963 33.928 114.555 33.488C114.155 33.04 113.619 32.816 112.947 32.816C112.267 32.816 111.723 33.036 111.315 33.476C110.915 33.916 110.715 34.512 110.715 35.264C110.715 36.008 110.915 36.604 111.315 37.052C111.723 37.492 112.267 37.712 112.947 37.712ZM122.38 39.584C121.588 39.584 120.86 39.4 120.196 39.032C119.54 38.664 119.016 38.152 118.624 37.496C118.24 36.832 118.048 36.088 118.048 35.264C118.048 34.44 118.24 33.7 118.624 33.044C119.016 32.388 119.54 31.876 120.196 31.508C120.86 31.14 121.588 30.956 122.38 30.956C123.172 30.956 123.896 31.14 124.552 31.508C125.216 31.876 125.736 32.388 126.112 33.044C126.496 33.7 126.688 34.44 126.688 35.264C126.688 36.088 126.496 36.832 126.112 37.496C125.728 38.152 125.208 38.664 124.552 39.032C123.896 39.4 123.172 39.584 122.38 39.584ZM122.38 37.712C123.052 37.712 123.588 37.488 123.988 37.04C124.396 36.592 124.6 36 124.6 35.264C124.6 34.52 124.396 33.928 123.988 33.488C123.588 33.04 123.052 32.816 122.38 32.816C121.7 32.816 121.156 33.036 120.748 33.476C120.348 33.916 120.148 34.512 120.148 35.264C120.148 36.008 120.348 36.604 120.748 37.052C121.156 37.492 121.7 37.712 122.38 37.712ZM135.366 39.5H133.314L129.882 34.304V39.5H127.83V31.076H129.882L133.314 36.296V31.076H135.366V39.5Z" fill="#0C4088"/>
<path d="M164 35.5L140.75 48.9234L140.75 22.0766L164 35.5Z" fill="#28EAE9"/>
<path d="M20 35.5L43.25 22.0766L43.25 48.9234L20 35.5Z" fill="#28EAE9"/>
</g>
<defs>
<filter id="filter0_d_12126_19772" x="0" y="0" width="184" height="67" filterUnits="userSpaceOnUse" color-interpolation-filters="sRGB">
<feFlood flood-opacity="0" result="BackgroundImageFix"/>
<feColorMatrix in="SourceAlpha" type="matrix" values="0 0 0 0 0 0 0 0 0 0 0 0 0 0 0 0 0 0 127 0" result="hardAlpha"/>
<feOffset dy="-2"/>
<feGaussianBlur stdDeviation="10"/>
<feComposite in2="hardAlpha" operator="out"/>
<feColorMatrix type="matrix" values="0 0 0 0 0 0 0 0 0 0 0 0 0 0 0 0 0 0 0.25 0"/>
<feBlend mode="normal" in2="BackgroundImageFix" result="effect1_dropShadow_12126_19772"/>
<feBlend mode="normal" in="SourceGraphic" in2="effect1_dropShadow_12126_19772" result="shape"/>
</filter>
</defs>
</svg>
