<svg width="66" height="25" viewBox="0 0 66 25" fill="none" xmlns="http://www.w3.org/2000/svg">
<path d="M36.75 12.25C36.75 13.1783 37.1188 14.0685 37.7751 14.7249C38.4315 15.3812 39.3217 15.75 40.25 15.75L40.25 22.75C40.25 23.2141 40.0656 23.6592 39.7374 23.9874C39.4093 24.3156 38.9641 24.5 38.5 24.5L14.875 24.5C14.875 23.8038 14.5984 23.1361 14.1062 22.6438C13.6139 22.1516 12.9462 21.875 12.25 21.875C11.5538 21.875 10.8861 22.1516 10.3938 22.6438C9.90157 23.1361 9.625 23.8038 9.625 24.5L1.75 24.5C1.28588 24.5 0.840756 24.3156 0.512567 23.9874C0.184379 23.6593 4.05889e-06 23.2141 3.97774e-06 22.75L2.75382e-06 15.75C0.928261 15.75 1.8185 15.3813 2.47488 14.7249C3.13125 14.0685 3.5 13.1783 3.5 12.25C3.5 11.3217 3.13125 10.4315 2.47488 9.77513C1.8185 9.11875 0.928259 8.75 1.5299e-06 8.75L3.0598e-07 1.75C2.24829e-07 1.28587 0.184375 0.840752 0.512563 0.512563C0.840752 0.184375 1.28587 -2.24829e-07 1.75 -3.0598e-07L9.625 -1.68289e-06C9.625 0.696192 9.90156 1.36387 10.3938 1.85615C10.8861 2.34844 11.5538 2.625 12.25 2.625C12.9462 2.625 13.6139 2.34844 14.1062 1.85615C14.5984 1.36387 14.875 0.696191 14.875 -2.60083e-06L38.5 -6.73155e-06C38.9641 -6.8127e-06 39.4092 0.184368 39.7374 0.512557C40.0656 0.840745 40.25 1.28586 40.25 1.74999L40.25 8.74999C39.3217 8.74999 38.4315 9.11874 37.7751 9.77512C37.1188 10.4315 36.75 11.3217 36.75 12.25Z" fill="#DC3545"/>
<path d="M54.75 12.25C54.75 13.1783 55.1188 14.0685 55.7751 14.7249C56.4315 15.3812 57.3217 15.75 58.25 15.75L58.25 22.75C58.25 23.2141 58.0656 23.6592 57.7374 23.9874C57.4093 24.3156 56.9641 24.5 56.5 24.5L32.875 24.5C32.875 23.8038 32.5984 23.1361 32.1062 22.6438C31.6139 22.1516 30.9462 21.875 30.25 21.875C29.5538 21.875 28.8861 22.1516 28.3938 22.6438C27.9016 23.1361 27.625 23.8038 27.625 24.5L19.75 24.5C19.2859 24.5 18.8408 24.3156 18.5126 23.9874C18.1844 23.6593 18 23.2141 18 22.75L18 15.75C18.9283 15.75 19.8185 15.3813 20.4749 14.7249C21.1313 14.0685 21.5 13.1783 21.5 12.25C21.5 11.3217 21.1313 10.4315 20.4749 9.77513C19.8185 9.11875 18.9283 8.75 18 8.75L18 1.75C18 1.28587 18.1844 0.840752 18.5126 0.512563C18.8408 0.184375 19.2859 -2.24829e-07 19.75 -3.0598e-07L27.625 -1.68289e-06C27.625 0.696192 27.9016 1.36387 28.3938 1.85615C28.8861 2.34844 29.5538 2.625 30.25 2.625C30.9462 2.625 31.6139 2.34844 32.1062 1.85615C32.5984 1.36387 32.875 0.696191 32.875 -2.60083e-06L56.5 -6.73155e-06C56.9641 -6.8127e-06 57.4092 0.184368 57.7374 0.512557C58.0656 0.840745 58.25 1.28586 58.25 1.74999L58.25 8.74999C57.3217 8.74999 56.4315 9.11874 55.7751 9.77512C55.1188 10.4315 54.75 11.3217 54.75 12.25Z" fill="#DC3545"/>
<path d="M61.75 12.25C61.75 13.1783 62.1188 14.0685 62.7751 14.7249C63.4315 15.3812 64.3217 15.75 65.25 15.75L65.25 22.75C65.25 23.2141 65.0656 23.6592 64.7374 23.9874C64.4093 24.3156 63.9641 24.5 63.5 24.5L39.875 24.5C39.875 23.8038 39.5984 23.1361 39.1062 22.6438C38.6139 22.1516 37.9462 21.875 37.25 21.875C36.5538 21.875 35.8861 22.1516 35.3938 22.6438C34.9016 23.1361 34.625 23.8038 34.625 24.5L26.75 24.5C26.2859 24.5 25.8408 24.3156 25.5126 23.9874C25.1844 23.6593 25 23.2141 25 22.75L25 15.75C25.9283 15.75 26.8185 15.3813 27.4749 14.7249C28.1313 14.0685 28.5 13.1783 28.5 12.25C28.5 11.3217 28.1313 10.4315 27.4749 9.77513C26.8185 9.11875 25.9283 8.75 25 8.75L25 1.75C25 1.28587 25.1844 0.840752 25.5126 0.512563C25.8408 0.184375 26.2859 -2.24829e-07 26.75 -3.0598e-07L34.625 -1.68289e-06C34.625 0.696192 34.9016 1.36387 35.3938 1.85615C35.8861 2.34844 36.5538 2.625 37.25 2.625C37.9462 2.625 38.6139 2.34844 39.1062 1.85615C39.5984 1.36387 39.875 0.696191 39.875 -2.60083e-06L63.5 -6.73155e-06C63.9641 -6.8127e-06 64.4092 0.184368 64.7374 0.512557C65.0656 0.840745 65.25 1.28586 65.25 1.74999L65.25 8.74999C64.3217 8.74999 63.4315 9.11874 62.7751 9.77512C62.1188 10.4315 61.75 11.3217 61.75 12.25Z" fill="#DC3545"/>
<path d="M7.629 8.85L7.629 7.044L11.003 7.044L11.003 17.25L8.987 17.25L8.987 8.85L7.629 8.85ZM19.2953 8.528L15.5713 17.25L13.5833 17.25L17.3353 8.752L12.5473 8.752L12.5473 7.072L19.2953 7.072L19.2953 8.528ZM20.1052 9.55C20.1052 8.84066 20.3105 8.28533 20.7212 7.884C21.1412 7.48266 21.6779 7.282 22.3312 7.282C22.9845 7.282 23.5165 7.48266 23.9272 7.884C24.3472 8.28533 24.5572 8.84066 24.5572 9.55C24.5572 10.2687 24.3472 10.8287 23.9272 11.23C23.5165 11.6313 22.9845 11.832 22.3312 11.832C21.6779 11.832 21.1412 11.6313 20.7212 11.23C20.3105 10.8287 20.1052 10.2687 20.1052 9.55ZM29.0932 7.45L23.5912 17.25L21.6872 17.25L27.1752 7.45L29.0932 7.45ZM22.3172 8.458C21.8039 8.458 21.5472 8.822 21.5472 9.55C21.5472 10.2873 21.8039 10.656 22.3172 10.656C22.5692 10.656 22.7652 10.5673 22.9052 10.39C23.0452 10.2033 23.1152 9.92333 23.1152 9.55C23.1152 8.822 22.8492 8.458 22.3172 8.458ZM26.2512 15.136C26.2512 14.4173 26.4565 13.862 26.8672 13.47C27.2872 13.0687 27.8239 12.868 28.4772 12.868C29.1305 12.868 29.6579 13.0687 30.0592 13.47C30.4699 13.862 30.6752 14.4173 30.6752 15.136C30.6752 15.8547 30.4699 16.4147 30.0592 16.816C29.6579 17.2173 29.1305 17.418 28.4772 17.418C27.8145 17.418 27.2779 17.2173 26.8672 16.816C26.4565 16.4147 26.2512 15.8547 26.2512 15.136ZM28.4632 14.044C27.9312 14.044 27.6652 14.408 27.6652 15.136C27.6652 15.8733 27.9312 16.242 28.4632 16.242C28.9859 16.242 29.2472 15.8733 29.2472 15.136C29.2472 14.408 28.9859 14.044 28.4632 14.044ZM39.7525 17.348C38.8379 17.348 37.9979 17.1333 37.2325 16.704C36.4672 16.2747 35.8605 15.682 35.4125 14.926C34.9645 14.1607 34.7405 13.2973 34.7405 12.336C34.7405 11.384 34.9645 10.53 35.4125 9.77399C35.8605 9.00866 36.4672 8.41133 37.2325 7.98199C37.9979 7.55266 38.8379 7.33799 39.7525 7.33799C40.6765 7.33799 41.5165 7.55266 42.2725 7.98199C43.0379 8.41133 43.6399 9.00866 44.0785 9.77399C44.5265 10.53 44.7505 11.384 44.7505 12.336C44.7505 13.2973 44.5265 14.1607 44.0785 14.926C43.6399 15.682 43.0379 16.2747 42.2725 16.704C41.5072 17.1333 40.6672 17.348 39.7525 17.348ZM39.7525 15.598C40.3405 15.598 40.8585 15.4673 41.3065 15.206C41.7545 14.9353 42.1045 14.5527 42.3565 14.058C42.6085 13.5633 42.7345 12.9893 42.7345 12.336C42.7345 11.6827 42.6085 11.1133 42.3565 10.628C42.1045 10.1333 41.7545 9.75533 41.3065 9.49399C40.8585 9.23266 40.3405 9.10199 39.7525 9.10199C39.1645 9.10199 38.6419 9.23266 38.1845 9.49399C37.7365 9.75533 37.3865 10.1333 37.1345 10.628C36.8825 11.1133 36.7565 11.6827 36.7565 12.336C36.7565 12.9893 36.8825 13.5633 37.1345 14.058C37.3865 14.5527 37.7365 14.9353 38.1845 15.206C38.6419 15.4673 39.1645 15.598 39.7525 15.598ZM52.1027 7.47799L52.1027 9.05999L48.0287 9.05999L48.0287 11.566L51.1507 11.566L51.1507 13.12L48.0287 13.12L48.0287 17.25L46.0687 17.25L46.0687 7.47799L52.1027 7.47799ZM59.3866 7.47799L59.3866 9.05999L55.3126 9.05999L55.3126 11.566L58.4346 11.566L58.4346 13.12L55.3126 13.12L55.3126 17.25L53.3526 17.25L53.3526 7.47799L59.3866 7.47799Z" fill="white"/>
</svg>
