<svg width="220" height="67" viewBox="0 0 220 67" fill="none" xmlns="http://www.w3.org/2000/svg">
<g filter="url(#filter0_d_10319_18299)">
<rect x="43" y="22" width="135" height="27" rx="1" fill="#28EAE9"/>
<path d="M57.284 31.076V39.5H55.232V34.448L53.348 39.5H51.692L49.796 34.436V39.5H47.744V31.076H50.168L52.532 36.908L54.872 31.076H57.284ZM62.7436 39.584C61.9516 39.584 61.2236 39.4 60.5596 39.032C59.9036 38.664 59.3796 38.152 58.9876 37.496C58.6036 36.832 58.4116 36.088 58.4116 35.264C58.4116 34.44 58.6036 33.7 58.9876 33.044C59.3796 32.388 59.9036 31.876 60.5596 31.508C61.2236 31.14 61.9516 30.956 62.7436 30.956C63.5356 30.956 64.2596 31.14 64.9156 31.508C65.5796 31.876 66.0996 32.388 66.4756 33.044C66.8596 33.7 67.0516 34.44 67.0516 35.264C67.0516 36.088 66.8596 36.832 66.4756 37.496C66.0916 38.152 65.5716 38.664 64.9156 39.032C64.2596 39.4 63.5356 39.584 62.7436 39.584ZM62.7436 37.712C63.4156 37.712 63.9516 37.488 64.3516 37.04C64.7596 36.592 64.9636 36 64.9636 35.264C64.9636 34.52 64.7596 33.928 64.3516 33.488C63.9516 33.04 63.4156 32.816 62.7436 32.816C62.0636 32.816 61.5196 33.036 61.1116 33.476C60.7116 33.916 60.5116 34.512 60.5116 35.264C60.5116 36.008 60.7116 36.604 61.1116 37.052C61.5196 37.492 62.0636 37.712 62.7436 37.712ZM71.2412 39.584C70.6252 39.584 70.0732 39.484 69.5852 39.284C69.0972 39.084 68.7052 38.788 68.4092 38.396C68.1212 38.004 67.9692 37.532 67.9532 36.98H70.1372C70.1692 37.292 70.2772 37.532 70.4612 37.7C70.6452 37.86 70.8852 37.94 71.1812 37.94C71.4852 37.94 71.7252 37.872 71.9012 37.736C72.0772 37.592 72.1652 37.396 72.1652 37.148C72.1652 36.94 72.0932 36.768 71.9492 36.632C71.8132 36.496 71.6412 36.384 71.4332 36.296C71.2332 36.208 70.9452 36.108 70.5692 35.996C70.0252 35.828 69.5812 35.66 69.2372 35.492C68.8932 35.324 68.5972 35.076 68.3492 34.748C68.1012 34.42 67.9772 33.992 67.9772 33.464C67.9772 32.68 68.2612 32.068 68.8292 31.628C69.3972 31.18 70.1372 30.956 71.0492 30.956C71.9772 30.956 72.7252 31.18 73.2932 31.628C73.8612 32.068 74.1652 32.684 74.2052 33.476H71.9852C71.9692 33.204 71.8692 32.992 71.6852 32.84C71.5012 32.68 71.2652 32.6 70.9772 32.6C70.7292 32.6 70.5292 32.668 70.3772 32.804C70.2252 32.932 70.1492 33.12 70.1492 33.368C70.1492 33.64 70.2772 33.852 70.5332 34.004C70.7892 34.156 71.1892 34.32 71.7332 34.496C72.2772 34.68 72.7172 34.856 73.0532 35.024C73.3972 35.192 73.6932 35.436 73.9412 35.756C74.1892 36.076 74.3132 36.488 74.3132 36.992C74.3132 37.472 74.1892 37.908 73.9412 38.3C73.7012 38.692 73.3492 39.004 72.8852 39.236C72.4212 39.468 71.8732 39.584 71.2412 39.584ZM81.636 31.076V32.72H79.404V39.5H77.352V32.72H75.12V31.076H81.636ZM91.6288 33.788C91.6288 34.276 91.5168 34.724 91.2928 35.132C91.0688 35.532 90.7248 35.856 90.2608 36.104C89.7968 36.352 89.2208 36.476 88.5328 36.476H87.2608V39.5H85.2088V31.076H88.5328C89.2048 31.076 89.7728 31.192 90.2368 31.424C90.7008 31.656 91.0488 31.976 91.2808 32.384C91.5128 32.792 91.6288 33.26 91.6288 33.788ZM88.3768 34.844C88.7688 34.844 89.0608 34.752 89.2528 34.568C89.4448 34.384 89.5408 34.124 89.5408 33.788C89.5408 33.452 89.4448 33.192 89.2528 33.008C89.0608 32.824 88.7688 32.732 88.3768 32.732H87.2608V34.844H88.3768ZM96.6811 39.584C95.8891 39.584 95.1611 39.4 94.4971 39.032C93.8411 38.664 93.3171 38.152 92.9251 37.496C92.5411 36.832 92.3491 36.088 92.3491 35.264C92.3491 34.44 92.5411 33.7 92.9251 33.044C93.3171 32.388 93.8411 31.876 94.4971 31.508C95.1611 31.14 95.8891 30.956 96.6811 30.956C97.4731 30.956 98.1971 31.14 98.8531 31.508C99.5171 31.876 100.037 32.388 100.413 33.044C100.797 33.7 100.989 34.44 100.989 35.264C100.989 36.088 100.797 36.832 100.413 37.496C100.029 38.152 99.5091 38.664 98.8531 39.032C98.1971 39.4 97.4731 39.584 96.6811 39.584ZM96.6811 37.712C97.3531 37.712 97.8891 37.488 98.2891 37.04C98.6971 36.592 98.9011 36 98.9011 35.264C98.9011 34.52 98.6971 33.928 98.2891 33.488C97.8891 33.04 97.3531 32.816 96.6811 32.816C96.0011 32.816 95.4571 33.036 95.0491 33.476C94.6491 33.916 94.4491 34.512 94.4491 35.264C94.4491 36.008 94.6491 36.604 95.0491 37.052C95.4571 37.492 96.0011 37.712 96.6811 37.712ZM108.551 33.788C108.551 34.276 108.439 34.724 108.215 35.132C107.991 35.532 107.647 35.856 107.183 36.104C106.719 36.352 106.143 36.476 105.455 36.476H104.183V39.5H102.131V31.076H105.455C106.127 31.076 106.695 31.192 107.159 31.424C107.623 31.656 107.971 31.976 108.203 32.384C108.435 32.792 108.551 33.26 108.551 33.788ZM105.299 34.844C105.691 34.844 105.983 34.752 106.175 34.568C106.367 34.384 106.463 34.124 106.463 33.788C106.463 33.452 106.367 33.192 106.175 33.008C105.983 32.824 105.691 32.732 105.299 32.732H104.183V34.844H105.299ZM111.635 31.076V36.116C111.635 36.62 111.759 37.008 112.007 37.28C112.255 37.552 112.619 37.688 113.099 37.688C113.579 37.688 113.947 37.552 114.203 37.28C114.459 37.008 114.587 36.62 114.587 36.116V31.076H116.639V36.104C116.639 36.856 116.479 37.492 116.159 38.012C115.839 38.532 115.407 38.924 114.863 39.188C114.327 39.452 113.727 39.584 113.063 39.584C112.399 39.584 111.803 39.456 111.275 39.2C110.755 38.936 110.343 38.544 110.039 38.024C109.735 37.496 109.583 36.856 109.583 36.104V31.076H111.635ZM120.132 37.916H122.82V39.5H118.08V31.076H120.132V37.916ZM129.043 38.012H125.899L125.395 39.5H123.247L126.295 31.076H128.671L131.719 39.5H129.547L129.043 38.012ZM128.515 36.428L127.471 33.344L126.439 36.428H128.515ZM136.942 39.5L135.19 36.32H134.698V39.5H132.646V31.076H136.09C136.754 31.076 137.318 31.192 137.782 31.424C138.254 31.656 138.606 31.976 138.838 32.384C139.07 32.784 139.186 33.232 139.186 33.728C139.186 34.288 139.026 34.788 138.706 35.228C138.394 35.668 137.93 35.98 137.314 36.164L139.258 39.5H136.942ZM134.698 34.868H135.97C136.346 34.868 136.626 34.776 136.81 34.592C137.002 34.408 137.098 34.148 137.098 33.812C137.098 33.492 137.002 33.24 136.81 33.056C136.626 32.872 136.346 32.78 135.97 32.78H134.698V34.868ZM149.437 33.788C149.437 34.276 149.325 34.724 149.101 35.132C148.877 35.532 148.533 35.856 148.069 36.104C147.605 36.352 147.029 36.476 146.341 36.476H145.069V39.5H143.017V31.076H146.341C147.013 31.076 147.581 31.192 148.045 31.424C148.509 31.656 148.857 31.976 149.089 32.384C149.321 32.792 149.437 33.26 149.437 33.788ZM146.185 34.844C146.577 34.844 146.869 34.752 147.061 34.568C147.253 34.384 147.349 34.124 147.349 33.788C147.349 33.452 147.253 33.192 147.061 33.008C146.869 32.824 146.577 32.732 146.185 32.732H145.069V34.844H146.185ZM152.558 37.916H155.246V39.5H150.506V31.076H152.558V37.916ZM161.468 38.012H158.324L157.82 39.5H155.672L158.72 31.076H161.096L164.144 39.5H161.972L161.468 38.012ZM160.94 36.428L159.896 33.344L158.864 36.428H160.94ZM172.608 39.5H170.556L167.124 34.304V39.5H165.072V31.076H167.124L170.556 36.296V31.076H172.608V39.5Z" fill="#0C4088"/>
<path d="M200 35.5L176.75 48.9234L176.75 22.0766L200 35.5Z" fill="#28EAE9"/>
<path d="M20 35.5L43.25 22.0766L43.25 48.9234L20 35.5Z" fill="#28EAE9"/>
</g>
<defs>
<filter id="filter0_d_10319_18299" x="0" y="0" width="220" height="67" filterUnits="userSpaceOnUse" color-interpolation-filters="sRGB">
<feFlood flood-opacity="0" result="BackgroundImageFix"/>
<feColorMatrix in="SourceAlpha" type="matrix" values="0 0 0 0 0 0 0 0 0 0 0 0 0 0 0 0 0 0 127 0" result="hardAlpha"/>
<feOffset dy="-2"/>
<feGaussianBlur stdDeviation="10"/>
<feComposite in2="hardAlpha" operator="out"/>
<feColorMatrix type="matrix" values="0 0 0 0 0 0 0 0 0 0 0 0 0 0 0 0 0 0 0.25 0"/>
<feBlend mode="normal" in2="BackgroundImageFix" result="effect1_dropShadow_10319_18299"/>
<feBlend mode="normal" in="SourceGraphic" in2="effect1_dropShadow_10319_18299" result="shape"/>
</filter>
</defs>
</svg>
