<svg width="24" height="25" viewBox="0 0 24 25" fill="none" xmlns="http://www.w3.org/2000/svg">
<path d="M1 9.33333V2C1 1.73478 1.10536 1.48043 1.29289 1.29289C1.48043 1.10536 1.73478 1 2 1H22C22.2652 1 22.5196 1.10536 22.7071 1.29289C22.8946 1.48043 23 1.73478 23 2V9.33333C23 19.8352 14.0868 23.3146 12.307 23.9047C12.1081 23.9731 11.8919 23.9731 11.693 23.9047C9.91325 23.3146 1 19.8352 1 9.33333Z" stroke="#0C4088" stroke-width="1.5" stroke-linecap="round" stroke-linejoin="round"/>
<path d="M12 7V12" stroke="#0C4088" stroke-width="1.5" stroke-linecap="round" stroke-linejoin="round"/>
<path d="M12 18C12.8284 18 13.5 17.3284 13.5 16.5C13.5 15.6716 12.8284 15 12 15C11.1716 15 10.5 15.6716 10.5 16.5C10.5 17.3284 11.1716 18 12 18Z" fill="#0C4088"/>
</svg>
