<svg width="32" height="32" viewBox="0 0 32 32" fill="none" xmlns="http://www.w3.org/2000/svg">
<path d="M9.97852 10.4609H3.97852V4.46094" stroke="#0C4088" stroke-width="2" stroke-linecap="round" stroke-linejoin="round"/>
<path d="M23.7775 6.22183C22.7561 5.20038 21.5434 4.39013 20.2088 3.83733C18.8743 3.28452 17.4439 3 15.9993 3C14.5548 3 13.1244 3.28452 11.7898 3.83733C10.4552 4.39013 9.2426 5.20038 8.22116 6.22183L3.97852 10.4645" stroke="#0C4088" stroke-width="2" stroke-linecap="round" stroke-linejoin="round"/>
<path d="M22.0215 17.5391H28.0215V23.5391" stroke="#0C4088" stroke-width="2" stroke-linecap="round" stroke-linejoin="round"/>
<path d="M8.22266 21.7817C9.2441 22.8031 10.4567 23.6134 11.7913 24.1662C13.1259 24.719 14.5563 25.0035 16.0008 25.0035C17.4454 25.0035 18.8758 24.719 20.2104 24.1662C21.5449 23.6134 22.7576 22.8031 23.779 21.7817L28.0216 17.5391" stroke="#0C4088" stroke-width="2" stroke-linecap="round" stroke-linejoin="round"/>
</svg>
