<svg width="242" height="242" viewBox="0 0 242 242" fill="none" xmlns="http://www.w3.org/2000/svg">
<path d="M111.857 7.60352V8.96352L118.437 8.96352V7.60352L111.857 7.60352ZM117.997 7.60352V7.94352C117.197 14.1635 114.557 19.0835 111.357 21.2235C111.677 21.4835 112.137 22.0235 112.377 22.3835C115.837 19.8235 118.497 14.9035 119.417 7.86352L118.497 7.54351L118.257 7.60352H117.997ZM111.897 11.1235C114.177 14.0835 116.777 18.1235 117.857 20.6435L119.037 19.6435C117.957 17.1835 115.277 13.2435 112.977 10.3035L111.897 11.1235ZM121.837 8.34352V9.72352L128.637 9.72352V8.34352L121.837 8.34352ZM121.797 5.34351C121.397 8.26351 120.677 11.0435 119.397 12.8235C119.737 13.0235 120.357 13.4435 120.617 13.6835C121.917 11.7235 122.737 8.74351 123.217 5.52351L121.797 5.34351ZM128.297 8.34352V8.58351C128.057 9.92352 127.617 11.5835 127.237 12.6035L128.417 12.9835C128.917 11.8835 129.417 10.1035 129.777 8.56351L128.797 8.28351L128.537 8.34352H128.297ZM124.737 12.9235L123.497 13.1235C124.277 18.1035 125.857 21.9435 129.257 23.7235C129.477 23.3235 129.917 22.7435 130.257 22.4435C127.037 20.9835 125.437 17.3635 124.737 12.9235ZM123.477 10.9235V12.3235C123.477 15.2635 123.097 19.5635 117.997 22.7235C118.337 22.9635 118.817 23.4235 119.057 23.7635C124.457 20.3635 124.897 15.6435 124.897 12.3435V10.9235H123.477Z" fill="white"/>
<path d="M136.126 14.163L132.316 13.4287L132.051 14.8034L134.467 15.269L133.392 20.8463L134.786 21.115L136.126 14.163ZM134.9 20.5259L133.643 20.2837C132.573 20.9736 131.362 21.6568 130.393 22.1421L130.89 23.684C132.003 22.982 133.049 22.3079 134.056 21.6261C134.995 23.4161 136.646 24.4675 139.239 25.0691C141.462 25.5791 145.751 26.365 148.009 26.6983C148.147 26.2972 148.511 25.6749 148.749 25.3948C146.303 25.0863 141.676 24.2558 139.476 23.7299C137.158 23.1813 135.539 22.1767 134.9 20.5259ZM133.679 6.88834C134.629 8.0898 135.633 9.7498 135.954 10.8301L137.35 10.2438C136.993 9.13623 135.939 7.52757 134.958 6.38124L133.679 6.88834ZM144.78 9.31317L142.063 23.4137L143.438 23.6786L145.909 10.8546L149.817 11.6079L150.063 10.3313L144.78 9.31317ZM139.494 8.31464L137.405 19.1551L138.779 19.4201L140.793 8.97236L139.494 8.31464ZM149.297 10.1837L147.344 20.3172C147.299 20.5529 147.205 20.6163 146.989 20.5747C146.73 20.5451 145.984 20.4013 145.104 20.2113C145.236 20.583 145.323 21.1904 145.313 21.5552C146.511 21.7861 147.297 21.9375 147.833 21.7965C148.366 21.6751 148.599 21.3126 148.735 20.6056L150.692 10.4525L149.297 10.1837ZM143.776 7.55119C142.826 8.04029 141.186 8.51854 139.807 8.80275C139.927 9.1314 140.033 9.64057 140.055 9.95029C141.563 9.73185 143.306 9.35487 144.667 8.84328L143.776 7.55119ZM136.15 18.6893L136.285 20.1004C137.947 19.9319 140.123 19.7402 142.177 19.5454L142.25 18.2152C139.988 18.431 137.695 18.6 136.15 18.6893Z" fill="white"/>
<path d="M181.747 32.9493L180.915 34.2448L174.202 29.9305L175.034 28.635L181.747 32.9493Z" fill="white"/>
<path d="M208.983 61.8982C209.212 62.3573 209.311 62.8519 209.279 63.3819C209.255 63.9228 209.112 64.4341 208.849 64.9158C208.594 65.4083 208.238 65.817 207.782 66.1418C207.207 66.5517 206.581 66.7763 205.905 66.8156C205.24 66.8472 204.571 66.6773 203.897 66.3059C203.242 65.9376 202.644 65.3733 202.102 64.613L199.086 60.3772L210.441 52.2912L213.342 56.3641C213.891 57.1353 214.228 57.8852 214.354 58.6138C214.491 59.3348 214.439 59.9857 214.198 60.5666C213.957 61.1474 213.565 61.6312 213.022 62.0179C212.348 62.4975 211.658 62.7111 210.949 62.659C210.26 62.6099 209.604 62.3563 208.983 61.8982ZM206.593 57.2657L208.368 59.7583C208.863 60.4534 209.409 60.875 210.005 61.0231C210.602 61.1713 211.188 61.0404 211.764 60.6305C212.339 60.2205 212.655 59.7095 212.71 59.0974C212.765 58.4852 212.537 57.8207 212.027 57.1039L210.275 54.6439L206.593 57.2657ZM203.231 63.6126C203.757 64.3512 204.341 64.8031 204.982 64.9683C205.624 65.1335 206.254 64.9957 206.873 64.5549C207.503 64.1063 207.843 63.5372 207.892 62.8475C207.952 62.1501 207.722 61.4375 207.204 60.7099L205.371 58.1358L201.364 60.9897L203.231 63.6126Z" fill="white"/>
<path d="M222.642 75.1793C222.498 74.864 222.485 74.5473 222.604 74.2293C222.722 73.9113 222.939 73.6803 223.255 73.5363C223.57 73.3923 223.887 73.3796 224.205 73.4982C224.523 73.6168 224.754 73.8338 224.898 74.1491C225.036 74.4523 225.043 74.7569 224.919 75.0627C224.801 75.3808 224.584 75.6118 224.268 75.7558C223.953 75.8998 223.636 75.9125 223.318 75.7939C223.006 75.6874 222.78 75.4825 222.642 75.1793ZM221.388 76.7193L211.419 81.2722L210.663 79.6167L220.632 75.0637L221.388 76.7193Z" fill="white"/>
<path d="M224.079 102.053C223.742 102.135 223.381 102.202 222.996 102.254L220.93 93.7412C219.896 94.0606 219.16 94.6165 218.721 95.409C218.298 96.2113 218.2 97.0789 218.427 98.0118C218.612 98.7763 218.941 99.3688 219.413 99.7893C219.902 100.22 220.469 100.466 221.116 100.529L221.578 102.434C220.485 102.397 219.511 102.029 218.656 101.331C217.813 100.63 217.238 99.6447 216.93 98.3749C216.685 97.3642 216.691 96.4022 216.95 95.4888C217.212 94.5884 217.702 93.8108 218.422 93.1561C219.154 92.4983 220.071 92.0357 221.172 91.7686C222.273 91.5014 223.292 91.4875 224.228 91.7268C225.164 91.9662 225.949 92.4277 226.581 93.1112C227.229 93.8045 227.679 94.6695 227.931 95.7061C228.176 96.7168 228.173 97.6643 227.921 98.5486C227.669 99.4329 227.204 100.177 226.527 100.78C225.867 101.393 225.05 101.817 224.079 102.053ZM224.005 100.137C224.678 99.9731 225.219 99.6843 225.626 99.2699C226.046 98.8524 226.316 98.3547 226.437 97.7767C226.573 97.2085 226.566 96.6134 226.415 95.9914C226.198 95.0974 225.728 94.402 225.004 93.9054C224.283 93.4218 223.406 93.2572 222.373 93.4117L224.005 100.137Z" fill="white"/>
<path d="M230.82 116.831C230.884 118.163 230.529 119.261 229.756 120.126C228.996 120.989 227.857 121.457 226.339 121.53L219.886 121.837L219.8 120.039L225.993 119.744C227.085 119.692 227.905 119.38 228.451 118.806C229.011 118.232 229.269 117.472 229.224 116.527C229.178 115.568 228.842 114.816 228.215 114.272C227.589 113.741 226.704 113.503 225.558 113.558L219.505 113.846L219.419 112.028L230.366 111.507L230.453 113.325L228.895 113.399C229.471 113.732 229.927 114.197 230.263 114.795C230.599 115.407 230.785 116.085 230.82 116.831Z" fill="white"/>
<path d="M220.387 135.305L229.089 139.991L228.813 141.912L218.576 136.096L218.878 133.997L230.338 131.301L230.06 133.241L220.387 135.305Z" fill="white"/>
<path d="M217.927 160.866C217.599 160.753 217.259 160.614 216.907 160.45L219.772 152.172C218.729 151.881 217.809 151.951 217.012 152.38C216.222 152.827 215.671 153.504 215.357 154.411C215.099 155.154 215.056 155.83 215.226 156.44C215.404 157.066 215.748 157.58 216.258 157.982L215.617 159.834C214.718 159.213 214.097 158.377 213.755 157.327C213.425 156.282 213.474 155.142 213.901 153.907C214.241 152.924 214.767 152.119 215.479 151.49C216.186 150.874 217.019 150.485 217.978 150.323C218.949 150.166 219.971 150.272 221.042 150.643C222.113 151.014 222.977 151.553 223.635 152.26C224.293 152.968 224.704 153.78 224.866 154.697C225.037 155.631 224.948 156.602 224.599 157.61C224.259 158.592 223.744 159.388 223.053 159.995C222.363 160.603 221.571 160.978 220.675 161.119C219.788 161.278 218.872 161.193 217.927 160.866ZM218.901 159.214C219.556 159.441 220.167 159.49 220.733 159.362C221.312 159.237 221.809 158.965 222.223 158.544C222.645 158.14 222.96 157.635 223.17 157.03C223.471 156.161 223.451 155.322 223.11 154.512C222.765 153.716 222.116 153.103 221.164 152.675L218.901 159.214Z" fill="white"/>
<path d="M215.606 176.942C214.939 178.096 214.047 178.828 212.929 179.138C211.823 179.454 210.612 179.232 209.295 178.472L203.701 175.242L204.601 173.683L209.97 176.783C210.917 177.329 211.775 177.509 212.545 177.323C213.327 177.143 213.954 176.643 214.427 175.823C214.907 174.991 215.031 174.177 214.798 173.381C214.558 172.596 213.942 171.917 212.949 171.343L207.701 168.313L208.611 166.737L218.102 172.217L217.192 173.793L215.841 173.013C216.146 173.605 216.278 174.243 216.237 174.928C216.189 175.624 215.979 176.295 215.606 176.942Z" fill="white"/>
<path d="M204.804 194.547C205.031 194.285 205.314 194.142 205.652 194.117C205.991 194.093 206.291 194.195 206.553 194.422C206.815 194.649 206.958 194.931 206.982 195.27C207.006 195.609 206.905 195.909 206.678 196.171C206.46 196.423 206.186 196.556 205.856 196.57C205.517 196.594 205.217 196.493 204.955 196.266C204.693 196.039 204.55 195.756 204.526 195.417C204.493 195.089 204.585 194.799 204.804 194.547ZM202.882 194.046L194.599 186.869L195.791 185.493L204.074 192.671L202.882 194.046Z" fill="white"/>
<path d="M190.027 199.396C190.719 200.277 191.147 201.187 191.31 202.128C191.481 203.079 191.402 203.981 191.072 204.834C190.732 205.695 190.174 206.431 189.398 207.041C188.727 207.568 187.98 207.901 187.156 208.04C186.341 208.19 185.583 208.132 184.884 207.868L188.469 212.427L187.023 213.565L177.874 201.931L179.32 200.794L180.594 202.413C180.473 201.677 180.558 200.923 180.85 200.15C181.15 199.389 181.672 198.715 182.416 198.13C183.181 197.528 184.027 197.169 184.952 197.052C185.867 196.943 186.771 197.089 187.663 197.49C188.555 197.891 189.343 198.526 190.027 199.396ZM182.72 205.117C183.231 205.767 183.807 206.23 184.448 206.506C185.09 206.782 185.734 206.868 186.383 206.766C187.029 206.681 187.619 206.429 188.154 206.009C188.689 205.588 189.077 205.079 189.319 204.482C189.562 203.884 189.624 203.241 189.507 202.553C189.39 201.865 189.076 201.196 188.565 200.546C188.046 199.886 187.461 199.412 186.812 199.126C186.171 198.85 185.527 198.754 184.881 198.838C184.243 198.932 183.657 199.19 183.122 199.61C182.588 200.031 182.199 200.54 181.957 201.137C181.712 201.754 181.648 202.406 181.766 203.094C181.891 203.793 182.209 204.467 182.72 205.117Z" fill="white"/>
<path d="M165.613 208.949C166.526 208.478 167.462 208.258 168.423 208.288C169.371 208.324 170.255 208.611 171.072 209.149C171.884 209.706 172.55 210.488 173.069 211.495C173.582 212.491 173.821 213.478 173.785 214.456C173.744 215.452 173.454 216.345 172.915 217.132C172.382 217.932 171.654 218.57 170.729 219.047C169.805 219.523 168.862 219.747 167.902 219.717C166.948 219.699 166.062 219.421 165.244 218.882C164.415 218.35 163.74 217.58 163.221 216.572C162.701 215.565 162.468 214.56 162.522 213.558C162.569 212.573 162.865 211.678 163.41 210.872C163.954 210.066 164.689 209.425 165.613 208.949ZM166.346 210.371C165.766 210.67 165.291 211.087 164.922 211.623C164.553 212.158 164.355 212.778 164.328 213.482C164.289 214.192 164.471 214.938 164.874 215.72C165.277 216.502 165.773 217.086 166.363 217.473C166.952 217.859 167.562 218.054 168.195 218.058C168.833 218.074 169.442 217.933 170.023 217.633C170.616 217.328 171.091 216.91 171.448 216.381C171.799 215.87 171.983 215.266 171.998 214.568C172.013 213.87 171.819 213.13 171.416 212.348C171.006 211.553 170.519 210.957 169.954 210.559C169.376 210.166 168.774 209.959 168.148 209.937C167.528 209.927 166.927 210.071 166.346 210.371Z" fill="white"/>
<path d="M147.895 215.904C148.701 215.668 149.463 215.59 150.182 215.671C150.904 215.764 151.522 216 152.036 216.377C152.554 216.767 152.925 217.276 153.152 217.904L151.348 218.434C151.143 217.925 150.774 217.567 150.241 217.363C149.696 217.161 149.065 217.166 148.348 217.376C147.683 217.572 147.202 217.873 146.904 218.28C146.607 218.687 146.524 219.114 146.655 219.562C146.791 220.022 147.095 220.301 147.568 220.399C148.045 220.509 148.744 220.547 149.665 220.512C150.506 220.488 151.205 220.505 151.764 220.563C152.314 220.638 152.829 220.827 153.307 221.131C153.776 221.452 154.111 221.952 154.31 222.63C154.468 223.167 154.452 223.706 154.264 224.248C154.076 224.79 153.725 225.275 153.211 225.704C152.702 226.145 152.069 226.477 151.315 226.698C150.15 227.04 149.124 227.022 148.235 226.644C147.345 226.266 146.725 225.572 146.373 224.564L148.119 224.051C148.319 224.59 148.673 224.966 149.18 225.178C149.674 225.394 150.26 225.403 150.938 225.204C151.565 225.02 152.025 224.739 152.317 224.361C152.609 223.984 152.691 223.577 152.563 223.142C152.462 222.797 152.269 222.541 151.984 222.375C151.69 222.225 151.355 222.128 150.982 222.085C150.599 222.059 150.082 222.051 149.432 222.061C148.617 222.078 147.943 222.053 147.409 221.988C146.88 221.935 146.39 221.759 145.941 221.46C145.479 221.165 145.148 220.699 144.947 220.063C144.778 219.488 144.786 218.922 144.971 218.368C145.155 217.814 145.503 217.316 146.012 216.874C146.513 216.449 147.14 216.126 147.895 215.904Z" fill="white"/>
<path d="M107.072 227.128L107.218 225.595L115.162 226.354L115.016 227.887L107.072 227.128Z" fill="white"/>
<path d="M69.5981 213.877C69.1844 213.574 68.8702 213.18 68.6556 212.694C68.4291 212.202 68.3222 211.682 68.335 211.134C68.3359 210.579 68.4646 210.053 68.7212 209.555C69.045 208.927 69.4983 208.441 70.081 208.096C70.6576 207.763 71.3304 207.608 72.0994 207.629C72.8504 207.656 73.6407 207.884 74.4703 208.311L79.0922 210.694L72.7046 223.084L68.2604 220.793C67.4189 220.359 66.7753 219.848 66.3293 219.258C65.8773 218.68 65.6253 218.077 65.5735 217.45C65.5216 216.824 65.6484 216.214 65.9538 215.621C66.3326 214.887 66.8488 214.38 67.5022 214.102C68.1377 213.83 68.8363 213.755 69.5981 213.877ZM73.8454 216.9L71.1256 215.497C70.3671 215.106 69.6888 214.982 69.0907 215.123C68.4926 215.265 68.0317 215.65 67.7079 216.278C67.3841 216.906 67.3379 217.505 67.5694 218.074C67.8009 218.644 68.3078 219.13 69.0899 219.533L71.7742 220.917L73.8454 216.9ZM73.9252 209.718C73.1193 209.302 72.3934 209.168 71.7476 209.315C71.1017 209.462 70.6047 209.874 70.2564 210.549C69.902 211.236 69.8611 211.898 70.1335 212.533C70.3998 213.181 70.93 213.709 71.724 214.118L74.5327 215.566L76.7872 211.193L73.9252 209.718Z" fill="white"/>
<path d="M51.4176 199.668C51.6319 199.395 51.8743 199.12 52.1447 198.84L59.0306 204.255C59.6458 203.365 59.8809 202.473 59.736 201.579C59.5724 200.687 59.1133 199.944 58.3587 199.351C57.7403 198.864 57.1155 198.602 56.4842 198.564C55.8342 198.527 55.2358 198.684 54.689 199.035L53.1483 197.823C54.03 197.176 55.0228 196.863 56.1266 196.883C57.2222 196.913 58.2835 197.332 59.3107 198.14C60.1281 198.783 60.7176 199.543 61.0789 200.421C61.4297 201.291 61.5248 202.205 61.3642 203.165C61.1952 204.134 60.7605 205.065 60.0599 205.955C59.3593 206.846 58.5671 207.487 57.6833 207.877C56.7994 208.268 55.8977 208.39 54.9782 208.244C54.0399 208.099 53.1515 207.698 52.3131 207.038C51.4956 206.395 50.9125 205.649 50.5639 204.798C50.2153 203.947 50.1206 203.075 50.2797 202.182C50.4202 201.292 50.7994 200.454 51.4176 199.668ZM52.6605 201.129C52.2319 201.674 51.9856 202.235 51.9217 202.812C51.8496 203.4 51.9448 203.958 52.2075 204.487C52.4514 205.018 52.8249 205.482 53.3279 205.877C54.0511 206.446 54.8508 206.702 55.727 206.644C56.5927 206.579 57.3837 206.166 58.1 205.406L52.6605 201.129Z" fill="white"/>
<path d="M36.9814 192.217C36.1083 191.209 35.7083 190.127 35.7817 188.97C35.8449 187.821 36.4509 186.749 37.5997 185.753L42.4818 181.523L43.6605 182.883L38.9749 186.944C38.1486 187.66 37.6978 188.412 37.6225 189.2C37.5371 189.998 37.8044 190.754 38.4243 191.47C39.053 192.195 39.7818 192.578 40.6107 192.618C41.4309 192.649 42.2742 192.288 43.1408 191.538L47.7207 187.569L48.9125 188.945L40.6295 196.122L39.4377 194.746L40.6166 193.725C39.9577 193.819 39.3115 193.735 38.6781 193.473C38.0359 193.2 37.4704 192.781 36.9814 192.217Z" fill="white"/>
<path d="M33.3926 178.286C32.4227 178.846 31.4607 179.14 30.5065 179.167C29.5408 179.201 28.6593 178.994 27.8618 178.546C27.0576 178.087 26.4122 177.436 25.9256 176.593C25.4456 175.761 25.2079 174.936 25.2125 174.118C25.2171 173.299 25.4041 172.583 25.7735 171.969L24.0415 172.969L23.1215 171.376L32.6131 165.896L33.5331 167.489L31.7664 168.509C32.5007 168.501 33.2325 168.702 33.962 169.112C34.6733 169.518 35.2657 170.13 35.739 170.95C36.2257 171.793 36.4578 172.675 36.4354 173.596C36.4131 174.518 36.14 175.391 35.6161 176.217C35.0922 177.043 34.351 177.733 33.3926 178.286ZM28.77 170.239C28.054 170.653 27.5138 171.157 27.1493 171.752C26.7848 172.348 26.6074 172.974 26.6169 173.63C26.6082 174.282 26.7739 174.902 27.1139 175.491C27.4539 176.08 27.9025 176.537 28.4596 176.862C29.0167 177.187 29.6442 177.34 30.342 177.322C31.0399 177.304 31.7467 177.088 32.4626 176.675C33.1901 176.255 33.7419 175.744 34.1179 175.142C34.4824 174.547 34.669 173.923 34.6777 173.272C34.6748 172.627 34.5033 172.01 34.1633 171.421C33.8233 170.832 33.3748 170.375 32.8177 170.05C32.2423 169.72 31.6057 169.564 30.9079 169.582C30.1985 169.607 29.4859 169.826 28.77 170.239Z" fill="white"/>
<path d="M18.8641 156.672C18.1673 156.574 17.5591 156.305 17.0396 155.864C16.5158 155.411 16.1143 154.781 15.8352 153.974L17.6118 153.359L17.7688 153.813C18.436 155.741 19.8154 156.343 21.907 155.619L27.5393 153.669L28.1345 155.389L17.7773 158.974L17.182 157.254L18.8641 156.672Z" fill="white"/>
<path d="M13.9501 136.725C13.2843 136.498 12.7381 136.118 12.3114 135.587C11.8829 135.042 11.6079 134.348 11.4865 133.503L13.3473 133.235L13.4157 133.71C13.706 135.73 14.9465 136.582 17.1373 136.267L23.0367 135.419L23.2957 137.22L12.4473 138.78L12.1882 136.978L13.9501 136.725Z" fill="white"/>
<path d="M9.39421 115.048C9.37771 115.394 9.24389 115.681 8.99274 115.909C8.7416 116.138 8.44288 116.244 8.09661 116.227C7.75034 116.211 7.46305 116.077 7.23474 115.826C7.00643 115.575 6.90052 115.276 6.91702 114.93C6.93288 114.597 7.06606 114.323 7.31658 114.108C7.56773 113.879 7.86644 113.773 8.21271 113.79C8.55898 113.806 8.84628 113.94 9.07458 114.191C9.30353 114.429 9.41007 114.715 9.39421 115.048ZM11.2141 114.253L22.1616 114.775L22.0751 116.593L11.1275 116.071L11.2141 114.253Z" fill="white"/>
<path d="M23.1368 97.2595L14.92 91.7675L15.3773 89.8822L25.0146 96.6449L24.5148 98.7052L12.85 100.3L13.3121 98.3953L23.1368 97.2595Z" fill="white"/>
<path d="M23.4419 82.977C22.4231 82.5117 21.6259 81.8984 21.0501 81.1371C20.4622 80.3703 20.1194 79.5321 20.0217 78.6227C19.9295 77.7011 20.0856 76.7976 20.49 75.9123C20.8888 75.039 21.4229 74.3669 22.0925 73.8958C22.762 73.4246 23.4538 73.1616 24.1678 73.1066L22.3486 72.2757L23.1129 70.602L33.0825 75.155L32.3181 76.8287L30.4625 75.9813C30.8951 76.5746 31.1559 77.2873 31.2449 78.1195C31.3274 78.934 31.1719 79.7718 30.7787 80.633C30.3743 81.5183 29.7905 82.2191 29.027 82.7353C28.2636 83.2515 27.3936 83.5357 26.4169 83.5881C25.4402 83.6404 24.4486 83.4367 23.4419 82.977ZM27.3152 74.5439C26.5632 74.2005 25.839 74.053 25.1427 74.1014C24.4463 74.1499 23.8335 74.3684 23.3042 74.757C22.7684 75.1279 22.3592 75.6226 22.0767 76.2412C21.7942 76.8597 21.6822 77.4902 21.7407 78.1325C21.7991 78.7748 22.0381 79.375 22.4575 79.933C22.8769 80.491 23.4626 80.9417 24.2146 81.2851C24.9787 81.634 25.715 81.7871 26.4235 81.7442C27.1199 81.6958 27.736 81.4861 28.2718 81.1152C28.7955 80.7387 29.1986 80.2412 29.4811 79.6226C29.7636 79.0041 29.8756 78.3737 29.8172 77.7313C29.7521 77.0713 29.5099 76.4623 29.0905 75.9043C28.6589 75.3408 28.0671 74.8873 27.3152 74.5439Z" fill="white"/>
<path d="M32.6735 58.0424L37.9356 61.7896C38.3701 62.099 38.7453 62.2271 39.0615 62.1739C39.3667 62.113 39.6818 61.8545 40.0066 61.3983L40.7839 60.3068L42.0383 61.2001L41.087 62.536C40.4992 63.3614 39.8683 63.8452 39.1943 63.9872C38.5203 64.1292 37.7488 63.8909 36.8799 63.2721L31.6178 59.525L30.7941 60.6817L29.5722 59.8116L30.3959 58.6549L28.1477 57.0539L29.2034 55.5714L31.4516 57.1724L33.1106 54.8427L34.3324 55.7128L32.6735 58.0424Z" fill="white"/>
<path d="M53.1284 49.1852C52.3854 49.8937 51.5489 50.3689 50.6189 50.6108C49.6986 50.8435 48.7703 50.8167 47.834 50.5304C46.8982 50.2252 46.0393 49.6624 45.2572 48.8422C44.4843 48.0316 43.9771 47.1519 43.7356 46.2031C43.4946 45.2354 43.5216 44.2977 43.8167 43.3899C44.1026 42.4725 44.6219 41.655 45.3746 40.9373C46.1273 40.2196 46.9686 39.7398 47.8986 39.4979C48.8194 39.2463 49.7479 39.2637 50.6841 39.5501C51.6301 39.8272 52.4941 40.3759 53.2761 41.1961C54.0582 42.0164 54.565 42.9149 54.7963 43.8918C55.0282 44.8498 54.9963 45.7921 54.7008 46.7187C54.4052 47.6454 53.8811 48.4675 53.1284 49.1852ZM52.0243 48.0272C52.4971 47.5764 52.8352 47.0421 53.0385 46.4245C53.2418 45.807 53.2573 45.1566 53.085 44.4735C52.9223 43.7812 52.5373 43.1166 51.93 42.4797C51.3227 41.8428 50.682 41.422 50.0079 41.2174C49.3337 41.0127 48.6928 40.9974 48.0851 41.1716C47.4682 41.3361 46.9233 41.6438 46.4505 42.0946C45.968 42.5547 45.6299 43.0889 45.4362 43.6973C45.243 44.2868 45.2374 44.9185 45.4194 45.5925C45.6014 46.2664 45.996 46.9218 46.6033 47.5587C47.2198 48.2052 47.8554 48.64 48.5103 48.8631C49.1748 49.0769 49.8107 49.1062 50.4179 48.9509C51.016 48.786 51.5514 48.4781 52.0243 48.0272Z" fill="white"/>
<path d="M84.468 20.3159L85.0404 21.7455L77.632 24.7114L77.0596 23.2817L84.468 20.3159Z" fill="white"/>
</svg>
