<svg width="62" height="62" viewBox="0 0 62 62" fill="none" xmlns="http://www.w3.org/2000/svg">
<mask id="mask0_7351_212733" style="mask-type:alpha" maskUnits="userSpaceOnUse" x="0" y="0" width="62" height="62">
<circle cx="31" cy="31" r="31" fill="#D9D9D9"/>
</mask>
<g mask="url(#mask0_7351_212733)">
<circle cx="31" cy="31" r="31" fill="url(#paint0_radial_7351_212733)"/>
<path d="M43.3793 24.6634C46.443 23.5004 48.5262 21.8028 49.5677 20.4233V20.4232C50.0024 19.8475 50.2197 19.5596 50.3139 19.5901C50.4082 19.6205 50.4155 19.9513 50.43 20.6128C50.6691 31.4929 39.1868 40.2216 35.2626 43.4426C33.0069 45.2942 31.5779 48.4267 30.9482 50.4602C30.8373 50.8186 30.7819 50.9977 30.6819 51.0002C30.5819 51.0026 30.5186 50.8295 30.3922 50.4831C26.7092 40.3929 28.7438 33.7049 30.789 31.373C32.9936 29.1871 37.3321 26.9588 43.3793 24.6634Z" fill="#1260CC"/>
<path d="M30.6019 25.4363C32.3793 25.4363 33.8201 23.9955 33.8201 22.2181C33.8201 20.4408 32.3793 19 30.6019 19C28.8246 19 27.3838 20.4408 27.3838 22.2181C27.3838 23.9955 28.8246 25.4363 30.6019 25.4363Z" fill="url(#paint1_linear_7351_212733)"/>
<path d="M18.0475 24.4208C14.9855 23.2486 12.903 21.5378 11.8609 20.147L11.8609 20.1469C11.425 19.5651 11.207 19.2742 11.1123 19.3049C11.0176 19.3357 11.0123 19.6691 11.0018 20.3359V20.336C10.8291 31.3169 23.0075 40.2039 26.1642 43.3598C28.2622 45.4573 29.7574 48.6405 30.4341 50.6791C30.5446 51.0119 30.5999 51.1784 30.6979 51.1807C30.7959 51.183 30.8579 51.022 30.982 50.7001C34.8939 40.5457 32.7475 33.6997 30.6735 31.3351C28.469 29.1305 24.0947 26.7358 18.0475 24.4208Z" fill="#28EAE9"/>
</g>
<defs>
<radialGradient id="paint0_radial_7351_212733" cx="0" cy="0" r="1" gradientUnits="userSpaceOnUse" gradientTransform="translate(5.08055 23.7754) rotate(35.2021) scale(81.8037 165.277)">
<stop offset="0.0259087" stop-color="#1455AF"/>
<stop offset="0.056741" stop-color="#004BB4"/>
<stop offset="0.0877977" stop-color="#0046A6"/>
<stop offset="0.135792" stop-color="#0C3D81"/>
<stop offset="0.172161" stop-color="#053272"/>
<stop offset="0.208367" stop-color="#082D60"/>
<stop offset="0.277088" stop-color="#062653"/>
</radialGradient>
<linearGradient id="paint1_linear_7351_212733" x1="30.6019" y1="19" x2="30.718" y2="25.4195" gradientUnits="userSpaceOnUse">
<stop offset="0.291667" stop-color="#2863C5"/>
<stop offset="0.588542" stop-color="#85F060"/>
<stop offset="0.739583" stop-color="#6FE8E7"/>
</linearGradient>
</defs>
</svg>
