<svg width="62" height="62" viewBox="0 0 62 62" fill="none" xmlns="http://www.w3.org/2000/svg">
<rect width="62" height="62" rx="31" fill="#28EAE9"/>
<g clip-path="url(#clip0_12283_35196)">
<path d="M26.2497 18.334H30.9997L34.1663 21.5007H42.083C42.9229 21.5007 43.7283 21.8343 44.3222 22.4281C44.916 23.022 45.2497 23.8275 45.2497 24.6673V35.7507C45.2497 36.5905 44.916 37.396 44.3222 37.9898C43.7283 38.5837 42.9229 38.9173 42.083 38.9173H26.2497C25.4098 38.9173 24.6044 38.5837 24.0105 37.9898C23.4166 37.396 23.083 36.5905 23.083 35.7507V21.5007C23.083 20.6608 23.4166 19.8553 24.0105 19.2615C24.6044 18.6676 25.4098 18.334 26.2497 18.334Z" stroke="#0C4088" stroke-width="2.5" stroke-linecap="round" stroke-linejoin="round"/>
<path d="M38.9167 38.916V42.0827C38.9167 42.9225 38.583 43.728 37.9892 44.3219C37.3953 44.9157 36.5899 45.2493 35.75 45.2493H19.9167C19.0768 45.2493 18.2714 44.9157 17.6775 44.3219C17.0836 43.728 16.75 42.9225 16.75 42.0827V27.8327C16.75 26.9928 17.0836 26.1874 17.6775 25.5935C18.2714 24.9996 19.0768 24.666 19.9167 24.666H23.0833" stroke="#0C4088" stroke-width="2.5" stroke-linecap="round" stroke-linejoin="round"/>
</g>
<defs>
<clipPath id="clip0_12283_35196">
<rect width="38" height="38" fill="white" transform="translate(12 12)"/>
</clipPath>
</defs>
</svg>
