<svg width="62" height="62" viewBox="0 0 62 62" fill="none" xmlns="http://www.w3.org/2000/svg">
<rect width="62" height="62" rx="31" fill="#28EAE9"/>
<path d="M35.7499 45.2498H21.5C20.2402 45.2498 19.032 44.7494 18.1412 43.8586C17.2504 42.9678 16.75 41.7596 16.75 40.4999V38.9165H32.5832V42.0832C32.5832 42.923 32.9169 43.7285 33.5107 44.3223C34.1046 44.9162 34.91 45.2498 35.7499 45.2498ZM35.7499 45.2498C36.5897 45.2498 37.3952 44.9162 37.989 44.3223C38.5829 43.7285 38.9165 42.923 38.9165 42.0832V19.9166C38.9165 19.2903 39.1023 18.6781 39.4502 18.1574C39.7982 17.6366 40.2927 17.2307 40.8714 16.991C41.45 16.7514 42.0867 16.6887 42.701 16.8108C43.3152 16.933 43.8795 17.2346 44.3223 17.6775C44.7652 18.1204 45.0668 18.6846 45.189 19.2989C45.3112 19.9131 45.2485 20.5498 45.0088 21.1285C44.7691 21.7071 44.3632 22.2017 43.8425 22.5496C43.3217 22.8976 42.7095 23.0833 42.0832 23.0833H38.9165L35.7499 45.2498ZM42.0832 16.75H24.6666C23.4068 16.75 22.1987 17.2504 21.3079 18.1412C20.4171 19.032 19.9166 20.2402 19.9166 21.5V38.9165" stroke="#0C4088" stroke-width="2.5" stroke-linecap="round" stroke-linejoin="round"/>
<path d="M26.25 23.084H32.5833" stroke="#0C4088" stroke-width="2" stroke-linecap="round" stroke-linejoin="round"/>
<path d="M26.25 29.416H32.5833" stroke="#0C4088" stroke-width="2" stroke-linecap="round" stroke-linejoin="round"/>
</svg>
