<svg width="62" height="62" viewBox="0 0 62 62" fill="none" xmlns="http://www.w3.org/2000/svg">
<rect width="62" height="62" rx="31" fill="#28EAE9"/>
<path d="M19.6399 30.6947C17.4419 28.0627 15.6163 25.0719 15.0305 21.8738C16.1041 22.7396 17.4866 23.5601 19.1357 24.1914C24.2284 26.141 27.7268 28.092 29.4171 29.7639C30.6431 31.1948 32.2881 35.4834 30.2838 42.3646C29.5558 40.958 28.5718 39.4583 27.3761 38.2629C26.9018 37.7886 26.2752 37.2312 25.5501 36.5861C23.8842 35.104 21.6978 33.1589 19.6399 30.6947Z" stroke="#0C4088" stroke-width="2.5"/>
<path d="M31.7595 21.1478C31.7595 21.9705 31.0926 22.6374 30.2699 22.6374C29.4472 22.6374 28.7803 21.9705 28.7803 21.1478C28.7803 20.3251 29.4472 19.6582 30.2699 19.6582C31.0926 19.6582 31.7595 20.3251 31.7595 21.1478Z" stroke="#0C4088" stroke-width="2.5"/>
<mask id="path-4-inside-1_12283_35223" fill="white">
<path d="M41.1482 23.2327C44.4028 21.9972 46.3577 20.053 46.9115 18.8106C46.9807 18.6553 47.0153 18.5777 47.043 18.5822C47.0707 18.5867 47.0788 18.6692 47.0948 18.8342C48.0399 28.5309 38.2015 36.1863 34.7474 39.0215C32.6252 40.7635 30.903 44.0385 30.4273 45.7274C30.4012 45.8205 30.3881 45.867 30.3617 45.8682C30.3354 45.8694 30.3179 45.8235 30.2829 45.7318C26.8958 36.8646 28.6556 30.9678 30.43 28.9446C32.3067 27.0838 36.0002 25.1868 41.1482 23.2327Z"/>
</mask>
<path d="M41.1482 23.2327L40.261 20.8954L40.2609 20.8954L41.1482 23.2327ZM46.9115 18.8106L49.1949 19.8284L49.1949 19.8283L46.9115 18.8106ZM47.0948 18.8342L44.6066 19.0767L44.6066 19.0767L47.0948 18.8342ZM34.7474 39.0215L36.3336 40.9539L36.3336 40.9539L34.7474 39.0215ZM30.4273 45.7274L28.021 45.0497L28.0209 45.05L30.4273 45.7274ZM30.2829 45.7318L27.9474 46.6239L27.9476 46.6243L30.2829 45.7318ZM30.43 28.9446L28.6697 27.1694L28.6079 27.2307L28.5504 27.2962L30.43 28.9446ZM42.0354 25.57C45.6667 24.1915 48.279 21.8832 49.1949 19.8284L44.628 17.7928C44.4364 18.2228 43.139 19.8029 40.261 20.8954L42.0354 25.57ZM49.1949 19.8283C49.2496 19.7057 49.2277 19.7597 49.1899 19.8292C49.1789 19.8495 49.0728 20.0525 48.8725 20.2734C48.758 20.3997 47.9638 21.2647 46.6419 21.0498L47.4441 16.1146C46.1083 15.8975 45.2994 16.7705 45.1684 16.9149C44.9516 17.154 44.8274 17.3852 44.7956 17.4438C44.7163 17.5899 44.6425 17.7603 44.628 17.7929L49.1949 19.8283ZM46.6419 21.0498C45.3445 20.839 44.859 19.8008 44.7792 19.6227C44.6547 19.3449 44.6169 19.1139 44.6124 19.0888C44.5978 19.0068 44.5937 18.9441 44.6066 19.0767L49.5831 18.5918C49.5799 18.5594 49.5638 18.3729 49.5341 18.2073C49.5221 18.1404 49.4762 17.8776 49.3419 17.5779C49.2523 17.3779 48.7553 16.3277 47.4441 16.1146L46.6419 21.0498ZM44.6066 19.0767C44.9883 22.9927 43.2076 26.6901 40.6156 29.943C38.0362 33.1801 34.9294 35.6378 33.1613 37.0892L36.3336 40.9539C38.0196 39.57 41.559 36.7824 44.526 33.0589C47.4805 29.351 50.1464 24.3724 49.5831 18.5917L44.6066 19.0767ZM33.1613 37.0892C31.8005 38.2061 30.6671 39.719 29.8313 41.0997C28.9958 42.4797 28.3364 43.9298 28.021 45.0497L32.8337 46.4052C32.994 45.8361 33.4335 44.8042 34.1086 43.6891C34.7833 42.5745 35.5722 41.5789 36.3336 40.9539L33.1613 37.0892ZM28.0209 45.05C27.9872 45.1696 28.0247 45.0189 28.0898 44.8639C28.1231 44.7847 28.246 44.4946 28.5143 44.194C28.836 43.8337 29.421 43.408 30.2494 43.3707L30.4741 48.3657C31.3157 48.3278 31.9122 47.8958 32.2445 47.5235C32.5235 47.211 32.6563 46.9033 32.6994 46.8007C32.7542 46.6703 32.7883 46.5594 32.8012 46.5171C32.8159 46.4688 32.8295 46.4201 32.8338 46.4049L28.0209 45.05ZM30.2494 43.3707C31.0902 43.3329 31.7133 43.7155 32.0597 44.0427C32.35 44.3168 32.4964 44.5922 32.5355 44.6659C32.6126 44.8117 32.6624 44.9552 32.6181 44.8394L27.9476 46.6243C27.9534 46.6395 27.9713 46.6866 27.9902 46.7332C28.0068 46.774 28.0504 46.8803 28.1157 47.0037C28.1667 47.1003 28.3247 47.3926 28.6267 47.6779C28.985 48.0162 29.6201 48.4041 30.4741 48.3657L30.2494 43.3707ZM32.6183 44.8398C29.4219 36.4717 31.3677 31.6669 32.3095 30.5931L28.5504 27.2962C25.9434 30.2686 24.3697 37.2574 27.9474 46.6239L32.6183 44.8398ZM32.1902 30.7199C33.6525 29.27 36.8845 27.5252 42.0354 25.5699L40.2609 20.8954C35.1158 22.8485 30.9609 24.8975 28.6697 27.1694L32.1902 30.7199Z" fill="#0C4088" mask="url(#path-4-inside-1_12283_35223)"/>
<path d="M28.5733 38.4421C28.2853 35.5244 28.6454 32.6345 30.2255 30.5159C31.656 33.0993 33.1736 38.8501 30.3194 45.304C29.5713 43.4939 28.8262 41.0041 28.5733 38.4421Z" fill="#0C4088" stroke="#0C4088" stroke-width="1.3"/>
</svg>
