<svg width="62" height="62" viewBox="0 0 62 62" fill="none" xmlns="http://www.w3.org/2000/svg">
<rect width="62" height="62" rx="31" fill="#28EAE9"/>
<g clip-path="url(#clip0_12283_35252)">
<path d="M31.0001 16.75C34.6985 20.0221 39.5256 21.7257 44.4585 21.5C45.1767 23.9431 45.3964 26.5057 45.1047 29.0354C44.8129 31.5651 44.0156 34.0103 42.7602 36.2258C41.5048 38.4413 39.8168 40.3819 37.7965 41.9321C35.7763 43.4823 33.4651 44.6107 31.0001 45.25C28.5352 44.6107 26.224 43.4823 24.2038 41.9321C22.1835 40.3819 20.4955 38.4413 19.2401 36.2258C17.9846 34.0103 17.1874 31.5651 16.8956 29.0354C16.6039 26.5057 16.8236 23.9431 17.5418 21.5C22.4747 21.7257 27.3017 20.0221 31.0001 16.75" stroke="#0C4088" stroke-width="2.5" stroke-linecap="round" stroke-linejoin="round"/>
<path d="M31.0003 31.0007C31.8748 31.0007 32.5837 30.2918 32.5837 29.4173C32.5837 28.5429 31.8748 27.834 31.0003 27.834C30.1259 27.834 29.417 28.5429 29.417 29.4173C29.417 30.2918 30.1259 31.0007 31.0003 31.0007Z" stroke="#0C4088" stroke-width="2.5" stroke-linecap="round" stroke-linejoin="round"/>
<path d="M31 31V34.9583" stroke="#0C4088" stroke-width="2.5" stroke-linecap="round" stroke-linejoin="round"/>
</g>
<defs>
<clipPath id="clip0_12283_35252">
<rect width="38" height="38" fill="white" transform="translate(12 12)"/>
</clipPath>
</defs>
</svg>
