<svg width="26" height="26" viewBox="0 0 26 26" fill="none" xmlns="http://www.w3.org/2000/svg">
<path d="M24.3258 2.9443L17.0002 24.1072C16.9312 24.3065 16.801 24.4789 16.6282 24.5997C16.4553 24.7205 16.2487 24.7836 16.0379 24.78C15.827 24.7763 15.6227 24.7061 15.4542 24.5793C15.2856 24.4526 15.1615 24.2758 15.0995 24.0742L12.155 14.5047C12.107 14.3488 12.0217 14.2071 11.9063 14.0917C11.791 13.9764 11.6492 13.891 11.4933 13.843L1.92385 10.8986C1.72229 10.8366 1.54549 10.7124 1.41874 10.5439C1.29198 10.3753 1.22175 10.171 1.21809 9.96019C1.21442 9.74933 1.27751 9.54272 1.39834 9.36988C1.51916 9.19704 1.69154 9.06682 1.89082 8.99783L23.0537 1.6722C23.2311 1.61081 23.4221 1.60057 23.605 1.64263C23.7879 1.6847 23.9553 1.77738 24.088 1.91008C24.2207 2.04278 24.3133 2.21014 24.3554 2.39303C24.3975 2.57592 24.3872 2.76696 24.3258 2.9443V2.9443Z" stroke="#28EAE9" stroke-width="2" stroke-linecap="round" stroke-linejoin="round"/>
</svg>
