<svg width="85" height="71" viewBox="0 0 85 71" fill="none" xmlns="http://www.w3.org/2000/svg">
<path d="M15.189 12.3102C6.94991 9.15612 2.00102 4.19261 0.598606 1.02057L0.598595 1.02054C0.423233 0.623914 0.33556 0.425603 0.265079 0.437099C0.194595 0.448594 0.174984 0.659027 0.135761 1.07989C-2.17352 25.8576 25.6479 46.0955 32.6823 53.1283C37.6358 58.0806 41.1152 65.4601 42.3464 69.6775C42.4104 69.8965 42.4423 70.006 42.508 70.0092C42.5738 70.0125 42.6171 69.9047 42.7037 69.6891C51.75 47.1742 46.9492 32.3975 42.401 27.212C37.6497 22.4607 28.2221 17.2996 15.189 12.3102Z" fill="#28EAE9"/>
<circle cx="42.2468" cy="7.56645" r="6.93583" fill="url(#paint0_linear_6704_92556)" fill-opacity="0.9"/>
<path d="M69.7839 12.837C78.0237 9.70921 82.9728 4.78698 84.3747 1.64173C84.5499 1.24862 84.6375 1.05206 84.7077 1.06347C84.7779 1.07488 84.7983 1.28375 84.839 1.70148C87.2315 26.2503 62.3239 45.6315 53.5793 52.8093C48.2065 57.2194 43.8465 65.5106 42.6422 69.7866C42.5759 70.0221 42.5428 70.1398 42.4761 70.1428C42.4094 70.1458 42.3651 70.0298 42.2764 69.7977C33.7015 47.3486 38.1566 32.4198 42.6488 27.2978C47.4001 22.5866 56.7508 17.7842 69.7839 12.837Z" fill="#1260CC"/>
<path d="M42.4943 27.4053C46.2407 33.3072 51.4857 51.0848 42.4943 70.6689C38.4399 61.4824 32.7638 39.1065 42.4943 27.4053Z" fill="#53F549"/>
<defs>
<linearGradient id="paint0_linear_6704_92556" x1="42.1864" y1="-20.9389" x2="42.6483" y2="32.1783" gradientUnits="userSpaceOnUse">
<stop offset="0.370459" stop-color="#005AD6" stop-opacity="0.9"/>
<stop offset="0.481096" stop-color="#1260CC"/>
<stop offset="0.554094" stop-color="#53F549"/>
<stop offset="0.594113" stop-color="#28EAE9" stop-opacity="0.9"/>
</linearGradient>
</defs>
</svg>
