<svg width="1199" height="460" viewBox="0 0 1199 460" fill="none" xmlns="http://www.w3.org/2000/svg">
<path opacity="0.2" d="M35 369.999C83 404.999 194.8 470.999 258 454.999C337 434.999 356.5 331.999 478.5 307.999C600.5 283.999 707.5 370.497 784.5 246.999C865.521 117.052 980 33.4992 1138.5 54.9985" stroke="#0C4088" stroke-width="5" stroke-linecap="round" stroke-linejoin="round"/>
<g filter="url(#filter0_d_11666_70741)">
<circle cx="39" cy="373" r="8" fill="#0C4088"/>
</g>
<g filter="url(#filter1_d_11666_70741)">
<rect x="1104" y="31" width="64" height="64" rx="32" fill="#F0F0F0"/>
</g>
<path d="M1148.62 53.8122C1151.41 52.7517 1153.37 51.236 1154.44 49.9431C1155.01 49.2668 1155.29 48.9287 1155.4 48.9684C1155.51 49.0081 1155.51 49.4066 1155.51 50.2036V50.2037C1155.49 60.6672 1144.48 69.0403 1140.69 72.1516C1138.55 73.9044 1137.18 76.8329 1136.54 78.8195C1136.4 79.2471 1136.33 79.4608 1136.21 79.4627C1136.09 79.4647 1136.02 79.2584 1135.87 78.8459C1132.36 69.0931 1134.34 62.6279 1136.32 60.3647C1138.47 58.2299 1142.71 56.0539 1148.62 53.8122Z" fill="#1260CC"/>
<circle cx="1136.14" cy="51.424" r="3.14275" fill="url(#paint0_linear_11666_70741)"/>
<path d="M1123.88 53.578C1121.09 52.5094 1119.13 50.9824 1118.06 49.6791L1118.06 49.6791C1117.49 48.9954 1117.21 48.6535 1117.1 48.6937C1116.99 48.7338 1116.99 49.1355 1117 49.939C1117.09 60.5012 1128.76 69.025 1131.81 72.0734C1133.8 74.0647 1135.23 77.0578 1135.92 79.0521C1136.06 79.4484 1136.12 79.6465 1136.24 79.6484C1136.36 79.6503 1136.43 79.4589 1136.58 79.0762C1140.31 69.2508 1138.23 62.6266 1136.21 60.3303C1134.06 58.1774 1129.79 55.8387 1123.88 53.578Z" fill="#28EAE9"/>
<defs>
<filter id="filter0_d_11666_70741" x="0" y="334" width="78" height="78" filterUnits="userSpaceOnUse" color-interpolation-filters="sRGB">
<feFlood flood-opacity="0" result="BackgroundImageFix"/>
<feColorMatrix in="SourceAlpha" type="matrix" values="0 0 0 0 0 0 0 0 0 0 0 0 0 0 0 0 0 0 127 0" result="hardAlpha"/>
<feOffset/>
<feGaussianBlur stdDeviation="15.5"/>
<feComposite in2="hardAlpha" operator="out"/>
<feColorMatrix type="matrix" values="0 0 0 0 1 0 0 0 0 1 0 0 0 0 1 0 0 0 0.5 0"/>
<feBlend mode="normal" in2="BackgroundImageFix" result="effect1_dropShadow_11666_70741"/>
<feBlend mode="normal" in="SourceGraphic" in2="effect1_dropShadow_11666_70741" result="shape"/>
</filter>
<filter id="filter1_d_11666_70741" x="1073" y="0" width="126" height="126" filterUnits="userSpaceOnUse" color-interpolation-filters="sRGB">
<feFlood flood-opacity="0" result="BackgroundImageFix"/>
<feColorMatrix in="SourceAlpha" type="matrix" values="0 0 0 0 0 0 0 0 0 0 0 0 0 0 0 0 0 0 127 0" result="hardAlpha"/>
<feOffset/>
<feGaussianBlur stdDeviation="15.5"/>
<feComposite in2="hardAlpha" operator="out"/>
<feColorMatrix type="matrix" values="0 0 0 0 1 0 0 0 0 1 0 0 0 0 1 0 0 0 0.5 0"/>
<feBlend mode="normal" in2="BackgroundImageFix" result="effect1_dropShadow_11666_70741"/>
<feBlend mode="normal" in="SourceGraphic" in2="effect1_dropShadow_11666_70741" result="shape"/>
</filter>
<linearGradient id="paint0_linear_11666_70741" x1="1136.14" y1="48.2812" x2="1136.26" y2="54.5504" gradientUnits="userSpaceOnUse">
<stop offset="0.291667" stop-color="#2863C5"/>
<stop offset="0.588542" stop-color="#85F060"/>
<stop offset="0.739583" stop-color="#6FE8E7"/>
</linearGradient>
</defs>
</svg>
