<svg width="1199" height="491" viewBox="0 0 1199 491" fill="none" xmlns="http://www.w3.org/2000/svg">
<g opacity="0.2" filter="url(#filter0_d_9774_29002)">
<path d="M35 370.001C83 405.001 194.8 471.001 258 455.001C337 435.001 356.5 332.001 478.5 308.001C600.5 284.001 707.5 370.499 784.5 247.001C865.521 117.054 980 33.5011 1138.5 55.0004" stroke="#28EAE9" stroke-width="5" stroke-linecap="round" stroke-linejoin="round"/>
</g>
<g filter="url(#filter1_d_9774_29002)">
<circle cx="39" cy="373.002" r="8" fill="white"/>
</g>
<g filter="url(#filter2_d_9774_29002)">
<rect x="1104" y="31" width="64" height="64" rx="32" fill="white"/>
</g>
<path d="M1148.62 53.8161C1151.41 52.7556 1153.37 51.2399 1154.44 49.947C1155.01 49.2707 1155.29 48.9326 1155.4 48.9723C1155.51 49.012 1155.51 49.4105 1155.51 50.2075V50.2076C1155.49 60.6711 1144.48 69.0442 1140.69 72.1555C1138.55 73.9083 1137.18 76.8368 1136.54 78.8234C1136.4 79.251 1136.33 79.4647 1136.21 79.4666C1136.09 79.4686 1136.02 79.2623 1135.87 78.8498C1132.36 69.097 1134.34 62.6319 1136.32 60.3686C1138.47 58.2338 1142.71 56.0578 1148.62 53.8161Z" fill="#1260CC"/>
<circle cx="1136.14" cy="51.4279" r="3.14275" fill="url(#paint0_linear_9774_29002)"/>
<path d="M1123.88 53.578C1121.09 52.5094 1119.13 50.9824 1118.06 49.6791L1118.06 49.6791C1117.49 48.9954 1117.21 48.6535 1117.1 48.6937C1116.99 48.7338 1116.99 49.1355 1117 49.939C1117.09 60.5012 1128.76 69.025 1131.81 72.0734C1133.8 74.0647 1135.24 77.0578 1135.92 79.0521C1136.06 79.4484 1136.13 79.6465 1136.24 79.6484C1136.36 79.6503 1136.43 79.4589 1136.58 79.0762C1140.31 69.2508 1138.23 62.6266 1136.21 60.3303C1134.06 58.1774 1129.79 55.8387 1123.88 53.578Z" fill="#28EAE9"/>
<defs>
<filter id="filter0_d_9774_29002" x="1.5" y="18.1328" width="1170.5" height="472.826" filterUnits="userSpaceOnUse" color-interpolation-filters="sRGB">
<feFlood flood-opacity="0" result="BackgroundImageFix"/>
<feColorMatrix in="SourceAlpha" type="matrix" values="0 0 0 0 0 0 0 0 0 0 0 0 0 0 0 0 0 0 127 0" result="hardAlpha"/>
<feOffset/>
<feGaussianBlur stdDeviation="15.5"/>
<feComposite in2="hardAlpha" operator="out"/>
<feColorMatrix type="matrix" values="0 0 0 0 0.156863 0 0 0 0 0.917647 0 0 0 0 0.913725 0 0 0 0.75 0"/>
<feBlend mode="normal" in2="BackgroundImageFix" result="effect1_dropShadow_9774_29002"/>
<feBlend mode="normal" in="SourceGraphic" in2="effect1_dropShadow_9774_29002" result="shape"/>
</filter>
<filter id="filter1_d_9774_29002" x="0" y="334.002" width="78" height="78" filterUnits="userSpaceOnUse" color-interpolation-filters="sRGB">
<feFlood flood-opacity="0" result="BackgroundImageFix"/>
<feColorMatrix in="SourceAlpha" type="matrix" values="0 0 0 0 0 0 0 0 0 0 0 0 0 0 0 0 0 0 127 0" result="hardAlpha"/>
<feOffset/>
<feGaussianBlur stdDeviation="15.5"/>
<feComposite in2="hardAlpha" operator="out"/>
<feColorMatrix type="matrix" values="0 0 0 0 1 0 0 0 0 1 0 0 0 0 1 0 0 0 0.5 0"/>
<feBlend mode="normal" in2="BackgroundImageFix" result="effect1_dropShadow_9774_29002"/>
<feBlend mode="normal" in="SourceGraphic" in2="effect1_dropShadow_9774_29002" result="shape"/>
</filter>
<filter id="filter2_d_9774_29002" x="1073" y="0" width="126" height="126" filterUnits="userSpaceOnUse" color-interpolation-filters="sRGB">
<feFlood flood-opacity="0" result="BackgroundImageFix"/>
<feColorMatrix in="SourceAlpha" type="matrix" values="0 0 0 0 0 0 0 0 0 0 0 0 0 0 0 0 0 0 127 0" result="hardAlpha"/>
<feOffset/>
<feGaussianBlur stdDeviation="15.5"/>
<feComposite in2="hardAlpha" operator="out"/>
<feColorMatrix type="matrix" values="0 0 0 0 1 0 0 0 0 1 0 0 0 0 1 0 0 0 0.5 0"/>
<feBlend mode="normal" in2="BackgroundImageFix" result="effect1_dropShadow_9774_29002"/>
<feBlend mode="normal" in="SourceGraphic" in2="effect1_dropShadow_9774_29002" result="shape"/>
</filter>
<linearGradient id="paint0_linear_9774_29002" x1="1136.14" y1="48.2852" x2="1136.26" y2="54.5543" gradientUnits="userSpaceOnUse">
<stop offset="0.291667" stop-color="#2863C5"/>
<stop offset="0.588542" stop-color="#85F060"/>
<stop offset="0.739583" stop-color="#6FE8E7"/>
</linearGradient>
</defs>
</svg>
