<svg width="77" height="72" viewBox="0 0 77 72" fill="none" xmlns="http://www.w3.org/2000/svg">
<g filter="url(#filter0_b_7768_9717)">
<rect x="0.554688" width="75.7778" height="72" rx="8" fill="url(#paint0_linear_7768_9717)"/>
<rect x="1.05469" y="0.5" width="74.7778" height="71" rx="7.5" stroke="#B0CAEE" stroke-opacity="0.5"/>
</g>
<g clip-path="url(#clip0_7768_9717)">
<path fill-rule="evenodd" clip-rule="evenodd" d="M18.6906 29.8511L18.7748 30.4419C18.8411 30.9915 18.8718 31.5461 18.8667 32.1011C18.8661 33.3275 18.7387 34.5493 18.4872 35.7404C18.1471 37.3585 17.5547 38.8907 16.7393 40.261C15.7971 41.8347 14.4348 43.3826 12.4489 44.6263L12.206 44.7784L11.9631 44.6263C9.97724 43.3826 8.61545 41.8347 7.67268 40.261C6.85731 38.8907 6.26491 37.3585 5.92477 35.7404C5.67332 34.5495 5.54592 33.3279 5.54532 32.1018C5.54019 31.5468 5.57092 30.9922 5.63726 30.4426L5.72139 29.8518C5.72857 29.8036 5.72747 29.7542 5.71816 29.7066C5.70884 29.6589 5.69149 29.6138 5.6671 29.5739C5.64272 29.5341 5.61178 29.5002 5.57608 29.4743C5.54037 29.4484 5.5006 29.4309 5.45906 29.4229C5.41752 29.415 5.37504 29.4166 5.33404 29.4278C5.29305 29.4389 5.25437 29.4594 5.22023 29.488C5.18609 29.5167 5.15716 29.5528 5.13511 29.5945C5.11306 29.6362 5.09833 29.6825 5.09176 29.7308L5.00763 30.3216C4.93526 30.9111 4.90155 31.5062 4.90678 32.1018C4.90718 33.3883 5.04075 34.6701 5.30461 35.9196C5.66379 37.626 6.28907 39.2414 7.14948 40.6861C8.14407 42.3485 9.58664 43.9831 11.6627 45.2805L12.0572 45.527C12.1037 45.5562 12.1557 45.5715 12.2085 45.5715C12.2613 45.5715 12.3133 45.5562 12.3598 45.527L12.7537 45.2805C14.8276 43.9825 16.2707 42.3485 17.267 40.6861C18.127 39.2415 18.7519 37.6263 19.1107 35.9203C19.3746 34.6707 19.5082 33.3889 19.5086 32.1024C19.5138 31.5069 19.48 30.9118 19.4077 30.3222L19.3236 29.7314C19.317 29.6831 19.3023 29.6368 19.2802 29.5951C19.2582 29.5535 19.2293 29.5173 19.1951 29.4887C19.161 29.4601 19.1223 29.4396 19.0813 29.4284C19.0403 29.4172 18.9978 29.4156 18.9563 29.4236C18.9147 29.4316 18.8749 29.449 18.8392 29.4749C18.8035 29.5008 18.7726 29.5347 18.7483 29.5746C18.7239 29.6144 18.7065 29.6595 18.6972 29.7072C18.6879 29.7549 18.6868 29.8042 18.694 29.8524L18.6906 29.8511Z" fill="white"/>
<path fill-rule="evenodd" clip-rule="evenodd" d="M7.46599 29.4473L12.2078 27.7649L17.0556 29.4836C17.1367 29.5117 17.2242 29.5014 17.2988 29.4549C17.3734 29.4084 17.4292 29.3294 17.4538 29.2353C17.4784 29.1411 17.4699 29.0395 17.4301 28.9527C17.3904 28.8658 17.3226 28.8008 17.2417 28.7718L12.3009 27.0201C12.2403 26.9985 12.1754 26.9985 12.1148 27.0201L7.27932 28.7342C7.23891 28.7483 7.20129 28.7714 7.16861 28.8024C7.13593 28.8333 7.10884 28.8715 7.08888 28.9147C7.06893 28.9578 7.05652 29.0051 7.05235 29.0538C7.04818 29.1026 7.05234 29.1518 7.0646 29.1987C7.07685 29.2455 7.09695 29.2891 7.12375 29.3269C7.15055 29.3648 7.18352 29.3961 7.22076 29.4191C7.25801 29.442 7.29879 29.4562 7.34078 29.4609C7.38276 29.4655 7.42513 29.4605 7.46543 29.446L7.46599 29.4473Z" fill="white"/>
<path fill-rule="evenodd" clip-rule="evenodd" d="M5.12275 29.9586L11.9209 45.3673C11.9475 45.4275 11.9877 45.4781 12.0372 45.5137C12.0867 45.5492 12.1437 45.5683 12.202 45.569C12.2602 45.5696 12.3174 45.5516 12.3675 45.5171C12.4176 45.4825 12.4586 45.4327 12.486 45.3731L16.6318 36.3687L16.6379 36.3545L19.2914 29.9482C19.3274 29.8598 19.3319 29.7585 19.3038 29.6663C19.2759 29.5741 19.2176 29.4984 19.1418 29.4558C19.0661 29.4132 18.9789 29.407 18.8992 29.4386C18.8195 29.4702 18.7538 29.5371 18.7164 29.6247L16.0673 36.0257L12.2146 44.3992L5.69056 29.6195C5.67176 29.5756 5.64565 29.5365 5.61373 29.5044C5.58182 29.4723 5.54474 29.4479 5.50465 29.4326C5.46456 29.4173 5.42224 29.4114 5.38016 29.4152C5.33808 29.419 5.29707 29.4325 5.25951 29.4548C5.22194 29.4772 5.18857 29.5079 5.16132 29.5454C5.13407 29.5828 5.11349 29.6261 5.10077 29.6729C5.08805 29.7196 5.08344 29.7688 5.08721 29.8176C5.09099 29.8665 5.10306 29.9139 5.12275 29.9573V29.9586Z" fill="white"/>
<path fill-rule="evenodd" clip-rule="evenodd" d="M8.3776 36.8201H15.9374C16.0219 36.8201 16.1031 36.7811 16.1629 36.7116C16.2227 36.6422 16.2564 36.548 16.2564 36.4497C16.2564 36.3514 16.2227 36.2572 16.1629 36.1877C16.1031 36.1183 16.0219 36.0792 15.9374 36.0792H8.3776C8.29299 36.0792 8.21185 36.1183 8.15203 36.1877C8.09221 36.2572 8.05859 36.3514 8.05859 36.4497C8.05859 36.548 8.09221 36.6422 8.15203 36.7116C8.21185 36.7811 8.29299 36.8201 8.3776 36.8201ZM29.4637 33.6235H24.5458C24.4608 33.624 24.3794 33.6635 24.3193 33.7333C24.2592 33.8031 24.2252 33.8975 24.2248 33.9963V38.5802C24.2254 38.6789 24.2594 38.7733 24.3194 38.843C24.3795 38.9128 24.4608 38.9523 24.5458 38.953H29.4637V39.7294H24.5458C24.416 39.7301 24.2874 39.701 24.1674 39.6436C24.0474 39.5863 23.9384 39.5019 23.8466 39.3953C23.7549 39.2888 23.6822 39.1622 23.6328 39.0228C23.5834 38.8835 23.5583 38.7342 23.5589 38.5835V33.9995C23.5583 33.8488 23.5834 33.6995 23.6328 33.5602C23.6822 33.4208 23.7549 33.2942 23.8466 33.1876C23.9384 33.0811 24.0474 32.9967 24.1674 32.9394C24.2874 32.882 24.416 32.8528 24.5458 32.8535H29.4637V33.6235ZM38.6985 32.8496V33.6261H33.9621V35.8955H37.769V36.6784H33.9616V38.9517H38.6979V39.7282H33.2929V32.8496H38.6985Z" fill="white"/>
<path d="M48.4532 34.0054V36.0204C48.454 36.1711 48.4289 36.3204 48.3793 36.4597C48.3297 36.599 48.2573 36.7256 48.1654 36.8321C48.0738 36.9386 47.9647 37.023 47.8447 37.0804C47.7248 37.1378 47.5961 37.167 47.4665 37.1664H46.5622L48.4205 39.7257H47.5405L45.6902 37.1664H43.517C43.4095 37.1601 43.3024 37.1473 43.196 37.1283V39.7257H42.5273V32.8594H47.4613C47.5913 32.8588 47.7196 32.888 47.8395 32.9454C47.9599 33.0028 48.0686 33.0872 48.1606 33.1937C48.2521 33.3003 48.3249 33.4268 48.3741 33.5661C48.4237 33.7055 48.4488 33.8547 48.4484 34.0054H48.4532ZM43.5192 36.3835H47.4665C47.5077 36.3841 47.5485 36.3751 47.5869 36.357C47.6249 36.339 47.6596 36.3123 47.6888 36.2785C47.718 36.2446 47.7408 36.2044 47.7564 36.1601C47.772 36.1157 47.7796 36.0682 47.7792 36.0204V34.0054C47.7796 33.9569 47.772 33.9086 47.7568 33.8635C47.7412 33.8185 47.718 33.7774 47.6888 33.7427C47.6604 33.7072 47.6261 33.679 47.5877 33.66C47.5493 33.6411 47.5077 33.6318 47.4661 33.6327H43.5187C43.4337 33.6332 43.3523 33.6726 43.2922 33.7424C43.2321 33.8122 43.1981 33.9067 43.1977 34.0054V36.0204C43.1968 36.0689 43.2048 36.117 43.2212 36.1616C43.2375 36.2062 43.2618 36.2463 43.2924 36.2793C43.3223 36.3133 43.3578 36.34 43.3968 36.3579C43.4357 36.3758 43.4773 36.3845 43.5192 36.3835Z" fill="white"/>
<path fill-rule="evenodd" clip-rule="evenodd" d="M51.9883 32.8516H57.9069V33.6281H55.2882V39.7307H54.6194V33.6281H51.9883V32.8516ZM61.4944 39.7275V32.8516H62.1632V39.7275H61.4944ZM71.05 32.8516H71.9056L69.4304 36.2896L71.9136 39.7275H71.05L68.8463 36.681H66.9385V39.7275H66.2652V32.8516H66.9397V35.8974H68.8475L71.05 32.8516Z" fill="white"/>
</g>
<defs>
<filter id="filter0_b_7768_9717" x="-39.4453" y="-40" width="155.777" height="152" filterUnits="userSpaceOnUse" color-interpolation-filters="sRGB">
<feFlood flood-opacity="0" result="BackgroundImageFix"/>
<feGaussianBlur in="BackgroundImageFix" stdDeviation="20"/>
<feComposite in2="SourceAlpha" operator="in" result="effect1_backgroundBlur_7768_9717"/>
<feBlend mode="normal" in="SourceGraphic" in2="effect1_backgroundBlur_7768_9717" result="shape"/>
</filter>
<linearGradient id="paint0_linear_7768_9717" x1="38.4436" y1="0" x2="38.4436" y2="72" gradientUnits="userSpaceOnUse">
<stop stop-color="#0C4088" stop-opacity="0.5"/>
<stop offset="1" stop-color="#0C4088" stop-opacity="0.5"/>
</linearGradient>
<clipPath id="clip0_7768_9717">
<rect width="67.1667" height="18.5714" fill="white" transform="translate(4.85938 27)"/>
</clipPath>
</defs>
</svg>
