<svg width="102" height="96" viewBox="0 0 102 96" fill="none" xmlns="http://www.w3.org/2000/svg">
<g filter="url(#filter0_i_9759_22340)">
<rect x="0.0742188" width="101.037" height="96" rx="8" fill="url(#paint0_linear_9759_22340)"/>
</g>
<rect x="0.574219" y="0.5" width="100.037" height="95" rx="7.5" stroke="#B0CAEE" stroke-opacity="0.5"/>
<g clip-path="url(#clip0_9759_22340)">
<path fill-rule="evenodd" clip-rule="evenodd" d="M24.2561 39.8002L24.3683 40.5879C24.4567 41.3207 24.4977 42.0602 24.4909 42.8002C24.4901 44.4353 24.3203 46.0644 23.9849 47.6525C23.5314 49.8101 22.7415 51.8529 21.6544 53.68C20.3981 55.7783 18.5816 57.8422 15.9339 59.5005L15.6099 59.7032L15.286 59.5005C12.6383 57.8422 10.8226 55.7783 9.56553 53.68C8.47837 51.8529 7.6885 49.8101 7.23498 47.6525C6.89971 46.0647 6.72985 44.4359 6.72905 42.801C6.7222 42.0611 6.76318 41.3216 6.85163 40.5888L6.96381 39.8011C6.97338 39.7368 6.97192 39.671 6.9595 39.6074C6.94708 39.5439 6.92394 39.4838 6.89142 39.4306C6.85891 39.3775 6.81766 39.3323 6.77006 39.2978C6.72245 39.2632 6.66942 39.2399 6.61404 39.2293C6.55865 39.2186 6.502 39.2208 6.44735 39.2357C6.39269 39.2506 6.34112 39.2779 6.29559 39.3161C6.25007 39.3542 6.2115 39.4025 6.1821 39.458C6.1527 39.5136 6.13306 39.5753 6.12431 39.6397L6.01213 40.4275C5.91563 41.2135 5.87068 42.007 5.87766 42.801C5.87819 44.5164 6.05628 46.2255 6.4081 47.8915C6.88701 50.1666 7.72071 52.3206 8.86792 54.2469C10.194 56.4634 12.1175 58.6428 14.8856 60.3727L15.4116 60.7014C15.4736 60.7404 15.5429 60.7607 15.6133 60.7607C15.6837 60.7607 15.7531 60.7404 15.815 60.7014L16.3402 60.3727C19.1054 58.642 21.0296 56.4634 22.3579 54.2469C23.5046 52.3207 24.3378 50.1671 24.8162 47.8924C25.1681 46.2263 25.3462 44.5173 25.3467 42.8019C25.3537 42.0079 25.3087 41.2144 25.2123 40.4283L25.1 39.6406C25.0913 39.5762 25.0716 39.5144 25.0423 39.4589C25.0129 39.4033 24.9743 39.3551 24.9288 39.317C24.8832 39.2788 24.8316 39.2515 24.777 39.2366C24.7224 39.2217 24.6657 39.2195 24.6103 39.2301C24.5549 39.2408 24.5019 39.2641 24.4543 39.2986C24.4067 39.3332 24.3654 39.3783 24.333 39.4315C24.3004 39.4846 24.2773 39.5447 24.2649 39.6083C24.2525 39.6719 24.251 39.7377 24.2606 39.8019L24.2561 39.8002Z" fill="white"/>
<path fill-rule="evenodd" clip-rule="evenodd" d="M9.28994 39.2638L15.6124 37.0205L22.076 39.3121C22.1842 39.3497 22.3009 39.3359 22.4004 39.2739C22.4999 39.2118 22.5742 39.1065 22.607 38.981C22.6398 38.8555 22.6284 38.72 22.5755 38.6042C22.5225 38.4884 22.4321 38.4017 22.3242 38.363L15.7365 36.0274C15.6556 35.9987 15.5692 35.9987 15.4883 36.0274L9.04105 38.313C8.98717 38.3317 8.93701 38.3626 8.89343 38.4038C8.84986 38.4451 8.81373 38.496 8.78713 38.5535C8.76053 38.6111 8.74398 38.6741 8.73842 38.7391C8.73286 38.8041 8.73841 38.8697 8.75475 38.9322C8.77109 38.9947 8.79789 39.0528 8.83362 39.1032C8.86935 39.1537 8.91331 39.1954 8.96297 39.2261C9.01263 39.2567 9.06701 39.2757 9.12299 39.2818C9.17897 39.288 9.23546 39.2813 9.28919 39.262L9.28994 39.2638Z" fill="white"/>
<path fill-rule="evenodd" clip-rule="evenodd" d="M6.16627 39.9448L15.2305 60.4897C15.2659 60.57 15.3195 60.6375 15.3856 60.6849C15.4516 60.7323 15.5276 60.7578 15.6052 60.7586C15.6828 60.7594 15.7592 60.7355 15.826 60.6895C15.8927 60.6434 15.9474 60.577 15.9839 60.4974L21.5116 48.4916L21.5198 48.4727L25.0579 39.931C25.1058 39.8131 25.1118 39.678 25.0744 39.555C25.0371 39.4321 24.9595 39.3312 24.8584 39.2744C24.7574 39.2176 24.6411 39.2093 24.5349 39.2515C24.4286 39.2936 24.3411 39.3828 24.2911 39.4996L20.759 48.0343L15.6221 59.1989L6.92336 39.4927C6.89829 39.4342 6.86347 39.382 6.82092 39.3392C6.77837 39.2965 6.72893 39.2639 6.67547 39.2435C6.62201 39.2231 6.5656 39.2152 6.50949 39.2202C6.45338 39.2253 6.3987 39.2433 6.34861 39.2731C6.29852 39.3029 6.25402 39.3439 6.21769 39.3938C6.18136 39.4437 6.15392 39.5015 6.13696 39.5638C6.12 39.6262 6.11386 39.6918 6.11889 39.7569C6.12392 39.8219 6.14002 39.8852 6.16627 39.943V39.9448Z" fill="white"/>
<path fill-rule="evenodd" clip-rule="evenodd" d="M10.5054 49.0948H20.5851C20.6979 49.0948 20.806 49.0428 20.8858 48.9501C20.9656 48.8575 21.0104 48.7319 21.0104 48.6009C21.0104 48.4699 20.9656 48.3443 20.8858 48.2516C20.806 48.159 20.6979 48.1069 20.5851 48.1069H10.5054C10.3926 48.1069 10.2844 48.159 10.2047 48.2516C10.1249 48.3443 10.0801 48.4699 10.0801 48.6009C10.0801 48.7319 10.1249 48.8575 10.2047 48.9501C10.2844 49.0428 10.3926 49.0948 10.5054 49.0948ZM38.6203 44.8327H32.063C31.9496 44.8334 31.8411 44.886 31.761 44.979C31.6809 45.0721 31.6356 45.198 31.635 45.3296V51.4416C31.6358 51.5731 31.6811 51.699 31.7612 51.792C31.8413 51.885 31.9497 51.9377 32.063 51.9386H38.6203V52.9739H32.063C31.8899 52.9748 31.7185 52.9359 31.5585 52.8595C31.3985 52.783 31.2531 52.6705 31.1308 52.5284C31.0085 52.3864 30.9116 52.2175 30.8457 52.0318C30.7799 51.8459 30.7464 51.6468 30.7472 51.446V45.334C30.7464 45.133 30.7799 44.9339 30.8457 44.7482C30.9116 44.5623 31.0085 44.3935 31.1308 44.2514C31.2531 44.1094 31.3985 43.9969 31.5585 43.9204C31.7185 43.8439 31.8899 43.8051 32.063 43.806H38.6203V44.8327ZM50.9332 43.8008V44.8361H44.6181V47.8619H49.694V48.9059H44.6174V51.9369H50.9325V52.9722H43.7258V43.8008H50.9332Z" fill="white"/>
<path d="M63.9383 45.3405V48.0272C63.9394 48.2281 63.9058 48.4271 63.8397 48.6129C63.7736 48.7986 63.6771 48.9674 63.5545 49.1095C63.4324 49.2515 63.2869 49.364 63.127 49.4405C62.9671 49.517 62.7954 49.556 62.6227 49.5552H61.4169L63.8946 52.9675H62.7213L60.2543 49.5552H57.3566C57.2133 49.5468 57.0705 49.5298 56.9287 49.5043V52.9675H56.0371V43.8125H62.6158C62.789 43.8117 62.9601 43.8507 63.12 43.9272C63.2805 44.0037 63.4255 44.1162 63.5481 44.2583C63.6702 44.4004 63.7672 44.5691 63.8328 44.7548C63.8989 44.9406 63.9324 45.1396 63.9319 45.3405H63.9383ZM57.3596 48.5113H62.6227C62.6776 48.5121 62.732 48.5001 62.7831 48.476C62.8338 48.452 62.8802 48.4164 62.9191 48.3713C62.958 48.3262 62.9884 48.2725 63.0092 48.2134C63.03 48.1543 63.0401 48.091 63.0396 48.0272V45.3405C63.0401 45.2758 63.03 45.2115 63.0097 45.1514C62.9889 45.0913 62.958 45.0365 62.9191 44.9902C62.8812 44.9429 62.8354 44.9053 62.7842 44.8801C62.733 44.8547 62.6776 44.8424 62.6222 44.8435H57.3589C57.2455 44.8442 57.137 44.8968 57.0569 44.9899C56.9768 45.0829 56.9315 45.209 56.9309 45.3405V48.0272C56.9297 48.0919 56.9404 48.156 56.9622 48.2155C56.9839 48.275 57.0164 48.3285 57.0572 48.3724C57.0971 48.4177 57.1444 48.4533 57.1963 48.4772C57.2482 48.5011 57.3037 48.5126 57.3596 48.5113Z" fill="white"/>
<path fill-rule="evenodd" clip-rule="evenodd" d="M68.6523 43.8008H76.5439V44.8361H73.0523V52.973H72.1605V44.8361H68.6523V43.8008ZM81.3271 52.9688V43.8008H82.2189V52.9688H81.3271ZM94.068 43.8008H95.2088L91.9085 48.3848L95.2194 52.9688H94.068L91.1297 48.9067H88.5859V52.9688H87.6882V43.8008H88.5875V47.8619H91.1313L94.068 43.8008Z" fill="white"/>
</g>
<defs>
<filter id="filter0_i_9759_22340" x="0.0742188" y="0" width="101.037" height="96" filterUnits="userSpaceOnUse" color-interpolation-filters="sRGB">
<feFlood flood-opacity="0" result="BackgroundImageFix"/>
<feBlend mode="normal" in="SourceGraphic" in2="BackgroundImageFix" result="shape"/>
<feColorMatrix in="SourceAlpha" type="matrix" values="0 0 0 0 0 0 0 0 0 0 0 0 0 0 0 0 0 0 127 0" result="hardAlpha"/>
<feOffset/>
<feGaussianBlur stdDeviation="15.5"/>
<feComposite in2="hardAlpha" operator="arithmetic" k2="-1" k3="1"/>
<feColorMatrix type="matrix" values="0 0 0 0 1 0 0 0 0 1 0 0 0 0 1 0 0 0 0.2 0"/>
<feBlend mode="normal" in2="shape" result="effect1_innerShadow_9759_22340"/>
</filter>
<linearGradient id="paint0_linear_9759_22340" x1="50.5927" y1="0" x2="50.5927" y2="96" gradientUnits="userSpaceOnUse">
<stop stop-color="#0C4088" stop-opacity="0.5"/>
<stop offset="1" stop-color="#0C4088" stop-opacity="0.5"/>
</linearGradient>
<clipPath id="clip0_9759_22340">
<rect width="89.5556" height="24.7619" fill="white" transform="translate(5.81445 36)"/>
</clipPath>
</defs>
</svg>
