<svg width="42" height="42" viewBox="0 0 42 42" fill="none" xmlns="http://www.w3.org/2000/svg">
<circle opacity="0.1" cx="21" cy="21" r="21" fill="#28EAE9"/>
<path d="M18 23.623C18.6213 23.623 19.125 23.1194 19.125 22.498C19.125 21.8767 18.6213 21.373 18 21.373C17.3787 21.373 16.875 21.8767 16.875 22.498C16.875 23.1194 17.3787 23.623 18 23.623Z" fill="#28EAE9"/>
<path d="M24.002 23.623C24.6233 23.623 25.127 23.1194 25.127 22.498C25.127 21.8767 24.6233 21.373 24.002 21.373C23.3806 21.373 22.877 21.8767 22.877 22.498C22.877 23.1194 23.3806 23.623 24.002 23.623Z" fill="#28EAE9"/>
<path d="M15.9746 16.5004C17.6006 15.9915 19.2958 15.7385 20.9995 15.7504C22.7031 15.7385 24.3983 15.9915 26.0242 16.5004" stroke="#28EAE9" stroke-width="1.5" stroke-linecap="round" stroke-linejoin="round"/>
<path d="M26.0241 25.5C24.3982 26.0089 22.703 26.2619 20.9994 26.25C19.2957 26.2619 17.6005 26.0089 15.9746 25.5" stroke="#28EAE9" stroke-width="1.5" stroke-linecap="round" stroke-linejoin="round"/>
<path d="M23.5361 26.07L24.6635 28.3247C24.7386 28.4762 24.8629 28.5977 25.016 28.6694C25.1691 28.741 25.342 28.7587 25.5064 28.7193C27.8069 28.1569 29.7901 27.1763 31.2346 25.9208C31.3449 25.826 31.4254 25.7013 31.4665 25.5618C31.5077 25.4222 31.5076 25.2738 31.4663 25.1343L28.2813 14.5175C28.2491 14.4104 28.1935 14.3119 28.1185 14.229C28.0434 14.1461 27.9509 14.0811 27.8475 14.0385C26.9477 13.6701 26.0171 13.382 25.0665 13.1776C24.8854 13.1379 24.696 13.1665 24.5347 13.258C24.3734 13.3495 24.2517 13.4974 24.1928 13.6732L23.4453 15.9156" stroke="#28EAE9" stroke-width="1.5" stroke-linecap="round" stroke-linejoin="round"/>
<path d="M18.4631 26.07L17.3358 28.3247C17.2606 28.4762 17.1364 28.5977 16.9833 28.6694C16.8301 28.741 16.6573 28.7587 16.4928 28.7193C14.1923 28.1569 12.2091 27.1763 10.7647 25.9208C10.6544 25.826 10.5738 25.7013 10.5327 25.5618C10.4916 25.4222 10.4917 25.2738 10.533 25.1343L13.718 14.5174C13.7502 14.4104 13.8058 14.3119 13.8808 14.229C13.9558 14.1461 14.0484 14.0811 14.1517 14.0385C15.0516 13.6701 15.9822 13.382 16.9328 13.1776C17.1139 13.1379 17.3033 13.1665 17.4646 13.258C17.6258 13.3495 17.7476 13.4974 17.8065 13.6732L18.5539 15.9156" stroke="#28EAE9" stroke-width="1.5" stroke-linecap="round" stroke-linejoin="round"/>
<path d="M18 23.623C18.6213 23.623 19.125 23.1194 19.125 22.498C19.125 21.8767 18.6213 21.373 18 21.373C17.3787 21.373 16.875 21.8767 16.875 22.498C16.875 23.1194 17.3787 23.623 18 23.623Z" fill="#28EAE9"/>
<path d="M24.002 23.623C24.6233 23.623 25.127 23.1194 25.127 22.498C25.127 21.8767 24.6233 21.373 24.002 21.373C23.3806 21.373 22.877 21.8767 22.877 22.498C22.877 23.1194 23.3806 23.623 24.002 23.623Z" fill="#28EAE9"/>
<path d="M15.9746 16.5004C17.6006 15.9915 19.2958 15.7385 20.9995 15.7504C22.7031 15.7385 24.3983 15.9915 26.0242 16.5004" stroke="#28EAE9" stroke-width="1.5" stroke-linecap="round" stroke-linejoin="round"/>
<path d="M26.0241 25.5C24.3982 26.0089 22.703 26.2619 20.9994 26.25C19.2957 26.2619 17.6005 26.0089 15.9746 25.5" stroke="#28EAE9" stroke-width="1.5" stroke-linecap="round" stroke-linejoin="round"/>
<path d="M23.5361 26.07L24.6635 28.3247C24.7386 28.4762 24.8629 28.5977 25.016 28.6694C25.1691 28.741 25.342 28.7587 25.5064 28.7193C27.8069 28.1569 29.7901 27.1763 31.2346 25.9208C31.3449 25.826 31.4254 25.7013 31.4665 25.5618C31.5077 25.4222 31.5076 25.2738 31.4663 25.1343L28.2813 14.5175C28.2491 14.4104 28.1935 14.3119 28.1185 14.229C28.0434 14.1461 27.9509 14.0811 27.8475 14.0385C26.9477 13.6701 26.0171 13.382 25.0665 13.1776C24.8854 13.1379 24.696 13.1665 24.5347 13.258C24.3734 13.3495 24.2517 13.4974 24.1928 13.6732L23.4453 15.9156" stroke="#28EAE9" stroke-width="1.5" stroke-linecap="round" stroke-linejoin="round"/>
<path d="M18.4631 26.07L17.3358 28.3247C17.2606 28.4762 17.1364 28.5977 16.9833 28.6694C16.8301 28.741 16.6573 28.7587 16.4928 28.7193C14.1923 28.1569 12.2091 27.1763 10.7647 25.9208C10.6544 25.826 10.5738 25.7013 10.5327 25.5618C10.4916 25.4222 10.4917 25.2738 10.533 25.1343L13.718 14.5174C13.7502 14.4104 13.8058 14.3119 13.8808 14.229C13.9558 14.1461 14.0484 14.0811 14.1517 14.0385C15.0516 13.6701 15.9822 13.382 16.9328 13.1776C17.1139 13.1379 17.3033 13.1665 17.4646 13.258C17.6258 13.3495 17.7476 13.4974 17.8065 13.6732L18.5539 15.9156" stroke="#28EAE9" stroke-width="1.5" stroke-linecap="round" stroke-linejoin="round"/>
</svg>
