<svg width="32" height="32" viewBox="0 0 32 32" fill="none" xmlns="http://www.w3.org/2000/svg">
<circle cx="16" cy="16" r="16" fill="#0C4088"/>
<path d="M13.7146 17.9994C14.188 17.9994 14.5717 17.6157 14.5717 17.1423C14.5717 16.6689 14.188 16.2852 13.7146 16.2852C13.2412 16.2852 12.8574 16.6689 12.8574 17.1423C12.8574 17.6157 13.2412 17.9994 13.7146 17.9994Z" fill="#28EAE9"/>
<path d="M18.2868 17.9994C18.7602 17.9994 19.144 17.6157 19.144 17.1423C19.144 16.6689 18.7602 16.2852 18.2868 16.2852C17.8134 16.2852 17.4297 16.6689 17.4297 17.1423C17.4297 17.6157 17.8134 17.9994 18.2868 17.9994Z" fill="#28EAE9"/>
<path d="M12.1719 12.5717C13.4107 12.184 14.7023 11.9912 16.0003 12.0003C17.2984 11.9912 18.5899 12.184 19.8287 12.5717" stroke="#28EAE9" stroke-width="1.5" stroke-linecap="round" stroke-linejoin="round"/>
<path d="M19.8286 19.4297C18.5898 19.8174 17.2983 20.0102 16.0003 20.0011C14.7022 20.0102 13.4107 19.8174 12.1719 19.4297" stroke="#28EAE9" stroke-width="1.5" stroke-linecap="round" stroke-linejoin="round"/>
<path d="M17.9325 19.8634L18.7914 21.5813C18.8487 21.6967 18.9433 21.7893 19.06 21.8439C19.1766 21.8985 19.3084 21.9119 19.4337 21.882C21.1864 21.4534 22.6974 20.7063 23.798 19.7498C23.882 19.6775 23.9434 19.5825 23.9747 19.4762C24.006 19.3699 24.006 19.2568 23.9745 19.1505L21.5478 11.0615C21.5233 10.9799 21.4809 10.9048 21.4238 10.8417C21.3666 10.7786 21.2961 10.729 21.2173 10.6965C20.5318 10.4158 19.8227 10.1963 19.0985 10.0406C18.9605 10.0104 18.8162 10.0322 18.6933 10.1019C18.5704 10.1716 18.4776 10.2843 18.4328 10.4182L17.8633 12.1268" stroke="#28EAE9" stroke-width="1.5" stroke-linecap="round" stroke-linejoin="round"/>
<path d="M14.0676 19.8634L13.2087 21.5813C13.1514 21.6967 13.0567 21.7893 12.9401 21.8439C12.8234 21.8985 12.6917 21.9119 12.5664 21.882C10.8137 21.4534 9.30266 20.7063 8.20214 19.7498C8.1181 19.6775 8.05673 19.5825 8.0254 19.4762C7.99408 19.3699 7.99414 19.2568 8.02558 19.1505L10.4523 11.0615C10.4768 10.9799 10.5191 10.9048 10.5763 10.8417C10.6335 10.7786 10.704 10.729 10.7827 10.6965C11.4683 10.4158 12.1774 10.1963 12.9016 10.0406C13.0396 10.0104 13.1839 10.0322 13.3068 10.1019C13.4297 10.1716 13.5224 10.2843 13.5673 10.4182L14.1368 12.1268" stroke="#28EAE9" stroke-width="1.5" stroke-linecap="round" stroke-linejoin="round"/>
<path d="M13.7146 17.9994C14.188 17.9994 14.5717 17.6157 14.5717 17.1423C14.5717 16.6689 14.188 16.2852 13.7146 16.2852C13.2412 16.2852 12.8574 16.6689 12.8574 17.1423C12.8574 17.6157 13.2412 17.9994 13.7146 17.9994Z" fill="#28EAE9"/>
<path d="M18.2868 17.9994C18.7602 17.9994 19.144 17.6157 19.144 17.1423C19.144 16.6689 18.7602 16.2852 18.2868 16.2852C17.8134 16.2852 17.4297 16.6689 17.4297 17.1423C17.4297 17.6157 17.8134 17.9994 18.2868 17.9994Z" fill="#28EAE9"/>
<path d="M12.1719 12.5717C13.4107 12.184 14.7023 11.9912 16.0003 12.0003C17.2984 11.9912 18.5899 12.184 19.8287 12.5717" stroke="#28EAE9" stroke-width="1.5" stroke-linecap="round" stroke-linejoin="round"/>
<path d="M19.8286 19.4297C18.5898 19.8174 17.2983 20.0102 16.0003 20.0011C14.7022 20.0102 13.4107 19.8174 12.1719 19.4297" stroke="#28EAE9" stroke-width="1.5" stroke-linecap="round" stroke-linejoin="round"/>
<path d="M17.9325 19.8634L18.7914 21.5813C18.8487 21.6967 18.9433 21.7893 19.06 21.8439C19.1766 21.8985 19.3084 21.9119 19.4337 21.882C21.1864 21.4534 22.6974 20.7063 23.798 19.7498C23.882 19.6775 23.9434 19.5825 23.9747 19.4762C24.006 19.3699 24.006 19.2568 23.9745 19.1505L21.5478 11.0615C21.5233 10.9799 21.4809 10.9048 21.4238 10.8417C21.3666 10.7786 21.2961 10.729 21.2173 10.6965C20.5318 10.4158 19.8227 10.1963 19.0985 10.0406C18.9605 10.0104 18.8162 10.0322 18.6933 10.1019C18.5704 10.1716 18.4776 10.2843 18.4328 10.4182L17.8633 12.1268" stroke="#28EAE9" stroke-width="1.5" stroke-linecap="round" stroke-linejoin="round"/>
<path d="M14.0676 19.8634L13.2087 21.5813C13.1514 21.6967 13.0567 21.7893 12.9401 21.8439C12.8234 21.8985 12.6917 21.9119 12.5664 21.882C10.8137 21.4534 9.30266 20.7063 8.20214 19.7498C8.1181 19.6775 8.05673 19.5825 8.0254 19.4762C7.99408 19.3699 7.99414 19.2568 8.02558 19.1505L10.4523 11.0615C10.4768 10.9799 10.5191 10.9048 10.5763 10.8417C10.6335 10.7786 10.704 10.729 10.7827 10.6965C11.4683 10.4158 12.1774 10.1963 12.9016 10.0406C13.0396 10.0104 13.1839 10.0322 13.3068 10.1019C13.4297 10.1716 13.5224 10.2843 13.5673 10.4182L14.1368 12.1268" stroke="#28EAE9" stroke-width="1.5" stroke-linecap="round" stroke-linejoin="round"/>
</svg>
