<svg width="42" height="42" viewBox="0 0 42 42" fill="none" xmlns="http://www.w3.org/2000/svg">
<circle opacity="0.1" cx="21" cy="21" r="21" fill="#28EAE9"/>
<path d="M21 24.75C23.0711 24.75 24.75 23.0711 24.75 21C24.75 18.9289 23.0711 17.25 21 17.25C18.9289 17.25 17.25 18.9289 17.25 21C17.25 23.0711 18.9289 24.75 21 24.75Z" stroke="#28EAE9" stroke-width="1.5" stroke-miterlimit="10"/>
<path d="M25.127 12.377H16.877C14.3917 12.377 12.377 14.3917 12.377 16.877V25.127C12.377 27.6122 14.3917 29.627 16.877 29.627H25.127C27.6122 29.627 29.627 27.6122 29.627 25.127V16.877C29.627 14.3917 27.6122 12.377 25.127 12.377Z" stroke="#28EAE9" stroke-width="1.5" stroke-linecap="round" stroke-linejoin="round"/>
<path d="M25.875 17.252C26.4963 17.252 27 16.7483 27 16.127C27 15.5056 26.4963 15.002 25.875 15.002C25.2537 15.002 24.75 15.5056 24.75 16.127C24.75 16.7483 25.2537 17.252 25.875 17.252Z" fill="#28EAE9"/>
</svg>
