<svg width="32" height="32" viewBox="0 0 32 32" fill="none" xmlns="http://www.w3.org/2000/svg">
<circle cx="16" cy="16" r="16" fill="#0C4088"/>
<path d="M15.9997 18.8569C17.5777 18.8569 18.8569 17.5777 18.8569 15.9997C18.8569 14.4218 17.5777 13.1426 15.9997 13.1426C14.4218 13.1426 13.1426 14.4218 13.1426 15.9997C13.1426 17.5777 14.4218 18.8569 15.9997 18.8569Z" stroke="#28EAE9" stroke-width="1.5" stroke-miterlimit="10"/>
<path d="M19.144 9.42969H12.8583C10.9647 9.42969 9.42969 10.9647 9.42969 12.8583V19.144C9.42969 21.0375 10.9647 22.5725 12.8583 22.5725H19.144C21.0375 22.5725 22.5725 21.0375 22.5725 19.144V12.8583C22.5725 10.9647 21.0375 9.42969 19.144 9.42969Z" stroke="#28EAE9" stroke-width="1.5" stroke-linecap="round" stroke-linejoin="round"/>
<path d="M19.7146 13.144C20.188 13.144 20.5717 12.7602 20.5717 12.2868C20.5717 11.8134 20.188 11.4297 19.7146 11.4297C19.2412 11.4297 18.8574 11.8134 18.8574 12.2868C18.8574 12.7602 19.2412 13.144 19.7146 13.144Z" fill="#28EAE9"/>
</svg>
