<svg width="231" height="37" viewBox="0 0 231 37" fill="none" xmlns="http://www.w3.org/2000/svg">
<path d="M55.8008 8.37095V28.4068H66.4215V25.2206H59.8194V8.37095H55.8008ZM75.8075 15.5471C77.8742 15.5471 79.5391 16.8675 79.5965 18.963H72.0471C72.3629 16.7814 73.8842 15.5471 75.8075 15.5471ZM83.3568 23.4122H79.0224C78.5057 24.4743 77.5584 25.3354 75.8362 25.3354C73.8268 25.3354 72.2194 24.015 72.0184 21.6612H83.6438C83.73 21.1446 83.7587 20.6279 83.7587 20.1112C83.7587 15.3749 80.515 12.2461 75.9223 12.2461C71.2147 12.2461 67.9424 15.4323 67.9424 20.4556C67.9424 25.4503 71.3008 28.6652 75.9223 28.6652C79.8548 28.6652 82.4957 26.3401 83.3568 23.4122ZM85.6588 20.3982C85.6588 25.3641 88.8737 28.6652 92.9211 28.6652C95.4184 28.6652 97.2268 27.4309 98.1741 26.0531V28.5217C98.1741 31.4783 96.4518 32.7413 94.2415 32.7413C92.2322 32.7413 90.7396 31.794 90.3377 30.3588H86.3477C86.7496 34.0043 89.8784 36.2432 94.3563 36.2432C99.5806 36.2432 102.221 32.8274 102.221 28.5217V12.5044H98.1741V14.7721C97.2268 13.3943 95.4184 12.2461 92.9211 12.2461C88.8737 12.2461 85.6588 15.4323 85.6588 20.3982ZM98.1741 20.4556C98.1741 23.4696 96.1647 25.1345 93.9545 25.1345C91.8016 25.1345 89.7636 23.4122 89.7636 20.3982C89.7636 17.3842 91.8016 15.7768 93.9545 15.7768C96.1647 15.7768 98.1741 17.4416 98.1741 20.4556ZM105.113 20.3982C105.113 25.3641 108.328 28.6652 112.347 28.6652C114.873 28.6652 116.681 27.4596 117.628 26.0818V28.4068H121.676V12.5044H117.628V14.7721C116.681 13.4517 114.93 12.2461 112.375 12.2461C108.328 12.2461 105.113 15.4323 105.113 20.3982ZM117.628 20.4556C117.628 23.4696 115.619 25.1345 113.409 25.1345C111.256 25.1345 109.218 23.4122 109.218 20.3982C109.218 17.3842 111.256 15.7768 113.409 15.7768C115.619 15.7768 117.628 17.4416 117.628 20.4556ZM124.567 20.4556C124.567 25.4503 127.839 28.6652 132.432 28.6652C136.393 28.6652 139.063 26.4262 139.924 23.0391H135.59C135.102 24.4743 134.068 25.2206 132.403 25.2206C130.164 25.2206 128.672 23.5557 128.672 20.4556C128.672 17.3555 130.164 15.662 132.403 15.662C134.068 15.662 135.13 16.5231 135.59 17.8722H139.924C139.063 14.3128 136.393 12.2461 132.432 12.2461C127.839 12.2461 124.567 15.461 124.567 20.4556ZM149.642 23.6132L145.537 12.5044H141.031L147.403 28.005L143.959 35.9275H148.236L158.081 12.5044H153.804L149.642 23.6132ZM174.256 22.6085C174.256 15.5471 163.98 17.7861 163.98 13.7674C163.98 12.1313 165.157 11.3562 166.735 11.4137C168.458 11.4424 169.52 12.4757 169.606 13.7961H174.026C173.768 10.1793 170.955 8.0839 166.85 8.0839C162.717 8.0839 159.789 10.2655 159.789 13.8823C159.76 21.1446 170.094 18.5324 170.094 22.8668C170.094 24.3021 168.974 25.3067 167.08 25.3067C165.214 25.3067 164.152 24.2447 164.037 22.6372H159.731C159.789 26.4262 163.004 28.6078 167.166 28.6078C171.73 28.6078 174.256 25.766 174.256 22.6085ZM192.753 12.5044H188.705V21.2594C188.705 23.8141 187.327 25.1919 185.146 25.1919C183.022 25.1919 181.615 23.8141 181.615 21.2594V12.5044H177.596V21.8335C177.596 26.1966 180.266 28.6078 183.969 28.6078C185.95 28.6078 187.701 27.7466 188.705 26.3975V28.4068H192.753V12.5044ZM196.717 28.4068H200.736V12.5044H196.717V28.4068ZM198.755 10.6099C200.162 10.6099 201.224 9.57655 201.224 8.25613C201.224 6.93571 200.162 5.90234 198.755 5.90234C197.32 5.90234 196.287 6.93571 196.287 8.25613C196.287 9.57655 197.32 10.6099 198.755 10.6099ZM205.338 23.4696C205.338 27.1151 207.376 28.4068 210.419 28.4068H212.945V25.0197H211.079C209.816 25.0197 209.385 24.5604 209.385 23.4983V15.8055H212.945V12.5044H209.385V8.57188H205.338V12.5044H203.444V15.8055H205.338V23.4696ZM222.667 15.5471C224.734 15.5471 226.399 16.8675 226.456 18.963H218.907C219.222 16.7814 220.744 15.5471 222.667 15.5471ZM230.216 23.4122H225.882C225.365 24.4743 224.418 25.3354 222.696 25.3354C220.686 25.3354 219.079 24.015 218.878 21.6612H230.503C230.589 21.1446 230.618 20.6279 230.618 20.1112C230.618 15.3749 227.375 12.2461 222.782 12.2461C218.074 12.2461 214.802 15.4323 214.802 20.4556C214.802 25.4503 218.16 28.6652 222.782 28.6652C226.714 28.6652 229.355 26.3401 230.216 23.4122Z" fill="white"/>
<path d="M7.78563 6.52371C3.56241 4.90698 1.02569 2.36276 0.306833 0.73682L0.306827 0.736805C0.216939 0.533501 0.172 0.43185 0.135873 0.437742C0.0997436 0.443634 0.0896908 0.551499 0.0695862 0.767227C-1.11412 13.4679 13.1467 23.8415 16.7524 27.4464C19.2915 29.9849 21.075 33.7675 21.7061 35.9293C21.7389 36.0415 21.7552 36.0977 21.789 36.0993C21.8227 36.101 21.8448 36.0457 21.8892 35.9352C26.5262 24.3944 24.0654 16.8201 21.7341 14.1621C19.2986 11.7267 14.4662 9.08119 7.78563 6.52371Z" fill="#28EAE9"/>
<path d="M21.6548 7.6475C23.6183 7.6475 25.21 6.05579 25.21 4.09231C25.21 2.12883 23.6183 0.537109 21.6548 0.537109C19.6913 0.537109 18.0996 2.12883 18.0996 4.09231C18.0996 6.05579 19.6913 7.6475 21.6548 7.6475Z" fill="url(#paint0_linear_8152_10241)" fill-opacity="0.9"/>
<path d="M35.7711 6.79491C39.9947 5.19168 42.5315 2.66861 43.2501 1.05641C43.3399 0.854906 43.3848 0.754158 43.4208 0.760006C43.4568 0.765855 43.4673 0.872913 43.4881 1.08704C44.7145 13.6704 31.9472 23.6049 27.4649 27.2841C24.7109 29.5447 22.476 33.7946 21.8587 35.9864C21.8247 36.1071 21.8078 36.1675 21.7736 36.169C21.7394 36.1705 21.7167 36.111 21.6712 35.9921C17.2758 24.485 19.5595 16.8327 21.8621 14.2073C24.2975 11.7924 29.0905 9.33082 35.7711 6.79491Z" fill="#1260CC"/>
<path d="M21.7813 14.2617C23.7017 17.287 26.3902 26.3995 21.7813 36.438C19.7031 31.7292 16.7936 20.2596 21.7813 14.2617Z" fill="#53F549"/>
<defs>
<linearGradient id="paint0_linear_8152_10241" x1="21.6238" y1="-10.5191" x2="21.8606" y2="16.708" gradientUnits="userSpaceOnUse">
<stop offset="0.370459" stop-color="#005AD6" stop-opacity="0.9"/>
<stop offset="0.481096" stop-color="#1260CC"/>
<stop offset="0.554094" stop-color="#53F549"/>
<stop offset="0.594113" stop-color="#28EAE9" stop-opacity="0.9"/>
</linearGradient>
</defs>
</svg>
