<svg width="76" height="72" viewBox="0 0 76 72" fill="none" xmlns="http://www.w3.org/2000/svg">
<g filter="url(#filter0_b_12060_32889)">
<path d="M0 8C0 3.58172 3.58172 0 8 0H67.7778C72.1961 0 75.7778 3.58172 75.7778 8V64C75.7778 68.4183 72.1961 72 67.7778 72H7.99999C3.58171 72 0 68.4183 0 64V8Z" fill="url(#paint0_linear_12060_32889)"/>
<path d="M0.5 8C0.5 3.85786 3.85786 0.5 8 0.5H67.7778C71.9199 0.5 75.2778 3.85786 75.2778 8V64C75.2778 68.1421 71.9199 71.5 67.7778 71.5H7.99999C3.85786 71.5 0.5 68.1421 0.5 64V8Z" stroke="#B0CAEE" stroke-opacity="0.5"/>
</g>
<g clip-path="url(#clip0_12060_32889)">
<path d="M37.2894 45.422L38.6528 44.7074L38.3909 46.2253L39.492 47.3022L37.9664 47.5211L37.2831 48.9009L36.6045 47.5186L35.0799 47.2944L36.1849 46.2213L35.9283 44.7023L37.2894 45.422Z" fill="white"/>
<path d="M32.3037 45.163L33.1938 44.6966L33.0227 45.6878L33.7415 46.3909L32.7455 46.5333L32.2995 47.4341L31.8564 46.5319L30.8611 46.3856L31.5826 45.685L31.4151 44.6934L32.3037 45.163Z" fill="white"/>
<path d="M42.278 45.1825L43.1681 44.7161L42.9973 45.7073L43.7161 46.4105L42.7203 46.5531L42.2739 47.4536L41.831 46.5514L40.8357 46.4051L41.5572 45.7045L41.3892 44.7128L42.278 45.1825Z" fill="white"/>
<path d="M37.3234 26.9186L35.9596 27.6332L36.2218 26.1153L35.1207 25.0384L36.6463 24.8195L37.3297 23.4397L38.0079 24.8219L39.5331 25.0463L38.4278 26.1193L38.6842 27.6382L37.3234 26.9186Z" fill="white"/>
<path d="M42.3109 27.1776L41.4206 27.6439L41.5919 26.6528L40.873 25.9499L41.8689 25.8069L42.3151 24.9064L42.7585 25.8085L43.7535 25.955L43.0323 26.6553L43.1998 27.6472L42.3109 27.1776Z" fill="white"/>
<path d="M32.3343 27.1603L31.4442 27.6266L31.615 26.6354L30.8965 25.9323L31.892 25.7896L32.3385 24.8888L32.7813 25.7911L33.7766 25.9376L33.0551 26.6379L33.2229 27.6298L32.3343 27.1603Z" fill="white"/>
<path d="M17.6891 46.7055L4.15046 46.7082L5.07709 45.1028L8.23123 39.6366L5.07476 34.1725L4.14764 32.567L15.2634 32.5646C15.0834 33.7142 14.9927 34.8826 14.9928 36.0645C14.9933 37.7514 15.1786 39.4104 15.5462 41.0269C15.8353 42.298 16.237 43.5425 16.7498 44.7548C16.9642 45.2615 17.196 45.7579 17.4456 46.2441C17.5248 46.3987 17.6059 46.5524 17.6891 46.7052L17.6891 46.7055Z" fill="#08DEDE"/>
<path d="M69.5636 45.0911L70.4908 46.6961L56.9525 46.6988C57.2957 46.0663 57.6083 45.4156 57.8906 44.748C59.0547 41.9942 59.6448 39.0702 59.6441 36.057C59.6437 34.875 59.5527 33.7071 59.3722 32.5573L70.488 32.5549L69.5616 34.1606L66.4076 39.6262L69.5639 45.0909L69.5636 45.0911Z" fill="#08DEDE"/>
<path d="M17.4451 46.2445L15.7065 45.3668L11.2871 43.136L14.4411 41.5742L15.5457 41.0273C15.8348 42.2983 16.2365 43.5429 16.7493 44.7551C16.9637 45.2618 17.1955 45.7582 17.4451 46.2445Z" fill="#00777F"/>
<path d="M63.353 43.1279L58.9348 45.3602L57.1961 46.2389C57.4454 45.7523 57.6771 45.2557 57.8913 44.7491C58.4038 43.5369 58.8049 42.292 59.0934 41.0206L60.1981 41.5673L63.3527 43.1278L63.353 43.1279Z" fill="#00777F"/>
<path d="M34.4822 20.1329C25.6256 21.6945 19.7119 30.1403 21.2735 38.9969C22.8351 47.8535 31.2807 53.7671 40.1375 52.2056C48.9944 50.644 54.908 42.1984 53.3462 33.3416C51.7843 24.485 43.339 18.5713 34.4822 20.1329ZM49.9467 45.0176C47.583 48.3928 44.0466 50.6459 39.9887 51.3614C35.9307 52.0769 31.837 51.1692 28.4615 48.806C25.0862 46.4424 22.8332 42.906 22.1177 38.8481C21.4022 34.7901 22.3099 30.6963 24.6731 27.3208C27.0367 23.9456 30.5731 21.6926 34.631 20.977C38.689 20.2615 42.7827 21.1693 46.1582 23.5324C49.5335 25.8961 51.7865 29.4324 52.502 33.4904C53.2176 37.5484 52.3098 41.6421 49.9467 45.0176Z" fill="white"/>
<path d="M47.9821 25.3919C45.1326 22.5433 41.344 20.9752 37.3153 20.9761C33.2862 20.977 29.4986 22.5467 26.6505 25.3963C23.8019 28.2458 22.2338 32.0341 22.2347 36.0631C22.2356 40.0919 23.8052 43.8798 26.6551 46.7279C29.5044 49.5765 33.2929 51.1446 37.3219 51.1438C41.351 51.1429 45.1386 49.5732 47.9867 46.7236C50.8353 43.8741 52.4034 40.0858 52.4025 36.0568C52.4016 32.0277 50.832 28.2401 47.9821 25.3919ZM47.744 46.4812C44.9606 49.2662 41.2594 50.8003 37.3218 50.8013C33.384 50.8021 29.6821 49.2698 26.8971 46.4858C24.1124 43.7023 22.5784 40.0006 22.5776 36.0633C22.5767 32.1258 24.1091 28.4239 26.8928 25.6389C29.6768 22.8543 33.378 21.3201 37.3155 21.3195C41.2528 21.3185 44.9549 22.8512 47.7397 25.6346C50.5249 28.4186 52.0587 32.1198 52.0597 36.0574C52.0606 39.9949 50.528 43.6968 47.744 46.4815L47.744 46.4812Z" fill="white"/>
<path d="M60.5847 32.5557C60.2952 30.613 59.7626 28.7198 58.9912 26.8974C57.8058 24.0958 56.1091 21.5808 53.949 19.4215C51.7886 17.2622 49.2732 15.5666 46.4708 14.3824C43.5687 13.1553 40.4875 12.5336 37.3126 12.5344C34.1376 12.5351 31.0567 13.1577 28.1547 14.3862C25.3534 15.5716 22.8382 17.2683 20.6789 19.4284C18.5196 21.5885 16.8242 24.1045 15.6397 26.9063C14.8693 28.7289 14.3375 30.6224 14.0486 32.5653C13.8773 33.7159 13.7917 34.8841 13.7919 36.0651C13.7922 37.9403 14.0096 39.7827 14.4405 41.5745C14.7395 42.8168 15.1409 44.035 15.6438 45.2228C15.6644 45.271 15.6851 45.319 15.706 45.3671C15.9014 45.8213 16.1108 46.2678 16.3331 46.7062C17.4546 48.9181 18.9147 50.9283 20.6859 52.6991C22.846 54.8584 25.3617 56.554 28.1638 57.7382C31.0665 58.9654 34.1477 59.5868 37.3226 59.5863C40.4975 59.5856 43.5783 58.9626 46.4799 57.7344C49.2817 56.5491 51.7967 54.8523 53.956 52.6922C55.7272 50.9205 57.1858 48.9099 58.3064 46.6975C58.529 46.2586 58.7379 45.8121 58.9333 45.3579C58.9542 45.31 58.9749 45.2618 58.9949 45.214C59.4973 44.0261 59.8982 42.8075 60.1965 41.5653C60.6269 39.7732 60.8432 37.9309 60.8429 36.0558C60.8427 34.8747 60.7564 33.7068 60.5846 32.5562L60.5847 32.5557ZM59.0919 41.0183C58.8032 42.2894 58.402 43.5343 57.8898 44.7468C57.6758 45.2535 57.4439 45.75 57.1946 46.2366C57.1152 46.3912 57.0343 46.545 56.9517 46.6977C55.9302 48.584 54.6423 50.3085 53.1072 51.8437C51.0581 53.8942 48.6707 55.5042 46.0124 56.6291C43.2591 57.7945 40.3354 58.3854 37.3221 58.3861C34.3088 58.3867 31.3849 57.7969 28.6311 56.6328C25.9723 55.5088 23.5844 53.9 21.5342 51.8505C19.9984 50.3158 18.7103 48.5918 17.688 46.7061C17.6048 46.5536 17.5237 46.3999 17.4445 46.2451C17.1949 45.7585 16.9632 45.2621 16.7487 44.7557C16.236 43.5434 15.8343 42.2989 15.5451 41.0278C15.1776 39.4111 14.9922 37.7523 14.9917 36.0654C14.9916 34.8835 15.0823 33.7154 15.2623 32.5656C15.5421 30.7846 16.0377 29.0476 16.7453 27.3742C17.8691 24.7153 19.4781 22.3274 21.5279 20.2773C23.577 18.2267 25.9644 16.6168 28.6227 15.4918C31.3761 14.3265 34.2997 13.7355 37.313 13.7349C40.3263 13.7342 43.2503 14.324 46.0043 15.4882C48.6631 16.6122 51.051 18.221 53.1012 20.2705C55.1517 22.3199 56.7617 24.707 57.8867 27.3653C58.595 29.0385 59.0911 30.7753 59.3717 32.5562C59.5522 33.7057 59.6435 34.874 59.6436 36.0559C59.644 37.743 59.4592 39.4018 59.0924 41.0187L59.0919 41.0183Z" fill="white"/>
<path d="M57.571 27.5007C56.463 24.8831 54.8779 22.5325 52.8591 20.5143C50.8399 18.4963 48.4888 16.9117 45.8707 15.8054C43.1597 14.6594 40.2802 14.0782 37.3133 14.079C34.346 14.0797 31.4672 14.6617 28.7564 15.809C26.1388 16.917 23.7882 18.5021 21.77 20.5206C19.752 22.5398 18.168 24.891 17.0611 27.509C15.9148 30.2199 15.334 33.0994 15.3347 36.0664C15.3355 39.0334 15.9174 41.9125 17.0648 44.623C18.1722 47.2405 19.7579 49.5909 21.7764 51.6094C23.7956 53.6274 26.1468 55.2114 28.7648 56.318C31.4758 57.4643 34.3553 58.0452 37.3222 58.0444C40.2895 58.0437 43.1683 57.4617 45.8791 56.3144C48.4967 55.2067 50.8471 53.6213 52.8655 51.6028C54.8832 49.5836 56.4675 47.2324 57.5744 44.6144C58.7204 41.9032 59.3015 39.024 59.3008 36.057C59.3 33.09 58.7181 30.2109 57.5708 27.5001L57.571 27.5007ZM57.2592 44.4818C56.1695 47.0587 54.6099 49.3735 52.6233 51.361C50.6366 53.3485 48.3225 54.9093 45.7457 55.9997C43.0774 57.129 40.2438 57.7018 37.3226 57.7023C34.4014 57.7028 31.5674 57.1313 28.8985 56.0033C26.3215 54.9136 24.0068 53.354 22.0196 51.3672C20.0321 49.3805 18.4713 47.0664 17.3807 44.4901C16.2515 41.8216 15.6788 38.9879 15.6782 36.0667C15.6777 33.1456 16.2489 30.3117 17.3773 27.6426C18.4669 25.0657 20.0268 22.7509 22.0134 20.7634C24.0001 18.7759 26.3142 17.2152 28.8905 16.1246C31.559 14.9953 34.3927 14.4226 37.3139 14.4221C40.235 14.4216 43.0691 14.9931 45.7377 16.1211C48.3149 17.2108 50.6297 18.7704 52.6172 20.757C54.6047 22.7437 56.1655 25.0578 57.256 27.6341C58.3853 30.3026 58.958 33.1363 58.9585 36.0574C58.959 38.9786 58.3876 41.8124 57.2595 44.4816L57.2592 44.4818Z" fill="white"/>
<path d="M63.3502 28.9851L11.2852 28.9961L11.2881 43.1371L63.3532 43.1261L63.3502 28.9851Z" fill="#28EAE9"/>
<path d="M24.0967 52.4554L26.48 49.085L27.3322 49.6876C27.6469 49.91 27.8704 50.0866 28.0029 50.2175C28.1354 50.3485 28.2324 50.4795 28.2936 50.6104C28.3764 50.7827 28.4007 50.9689 28.3664 51.1689C28.332 51.3689 28.2417 51.5726 28.0952 51.7797C27.8537 52.1213 27.5714 52.3103 27.2478 52.3476C26.9244 52.3847 26.5706 52.2677 26.1872 51.9964L25.8814 51.78L24.9682 53.0714L24.0968 52.4552L24.0967 52.4554ZM26.3253 51.1522C26.3371 51.1626 26.351 51.1748 26.3667 51.1881C26.3824 51.2014 26.4056 51.219 26.4362 51.2405C26.6096 51.3631 26.7608 51.4147 26.89 51.3956C27.019 51.3764 27.1416 51.2851 27.2569 51.1216C27.3529 50.986 27.381 50.8592 27.3416 50.7416C27.3018 50.624 27.1868 50.4975 26.9957 50.3624L26.921 50.3096L26.3253 51.1522Z" fill="white"/>
<path d="M26.8311 54.3508L29.5004 51.0501L30.6397 51.5927L29.7482 55.7402L28.7898 55.2839L29.0101 54.5129L28.2567 54.154L27.7968 54.8109L26.8305 54.3507L26.8311 54.3508ZM28.676 53.5285L29.2271 53.7908L29.7276 52.0341L28.676 53.5285Z" fill="white"/>
<path d="M30.979 56.1128L31.8967 52.9157L31.0805 52.6813L31.3016 51.9111L33.9995 52.6857L33.7784 53.4559L32.9197 53.2096L32.0018 56.4066L30.9787 56.1127L30.979 56.1128Z" fill="white"/>
<path d="M33.8244 56.825L34.2727 52.7217L36.7289 52.9901L36.6419 53.787L35.235 53.6332L35.1527 54.3872L36.451 54.529L36.3612 55.3523L35.0629 55.2104L34.9651 56.1058L36.372 56.2596L36.2808 57.0937L33.8246 56.8253L33.8244 56.825Z" fill="white"/>
<path d="M37.514 57.1255L37.2029 53.0094L38.3054 52.926L39.3762 55.3987C39.3086 54.9736 39.2547 54.6069 39.2146 54.2982C39.1744 53.9894 39.1464 53.728 39.1302 53.5141L39.0813 52.8674L40.0251 52.796L40.3362 56.9121L39.2309 56.9956L38.1481 54.4459C38.2129 54.7834 38.2678 55.1111 38.3127 55.4293C38.3572 55.7478 38.3912 56.0574 38.4138 56.3586L38.4664 57.0537L37.5139 57.1258L37.514 57.1255Z" fill="white"/>
<path d="M42.1664 56.5263L41.3177 53.3102L40.4965 53.5269L40.2921 52.7519L43.006 52.0358L43.2107 52.8105L42.3469 53.0386L43.1956 56.2547L42.1664 56.5263Z" fill="white"/>
<path d="M44.975 55.6794L43.2567 51.9263L45.5032 50.8977L45.8369 51.6264L44.5501 52.2156L44.8659 52.9054L46.0534 52.3617L46.3983 53.1149L45.2108 53.6586L45.5857 54.4775L46.8724 53.8883L47.2217 54.6511L44.9752 55.6797L44.975 55.6794Z" fill="white"/>
<path d="M48.3002 54.0409L45.9182 50.6698L46.8743 49.9944C47.2243 49.7471 47.503 49.5913 47.7101 49.5268C47.9175 49.4624 48.1178 49.4616 48.311 49.5239C48.4612 49.5731 48.6105 49.6684 48.7586 49.8099C48.9067 49.9513 49.1395 50.2469 49.4572 50.6963C49.7748 51.1457 49.9751 51.4636 50.0585 51.6496C50.1419 51.836 50.1822 52.0086 50.1793 52.1681C50.1738 52.3712 50.1059 52.5598 49.976 52.7335C49.8462 52.9073 49.6064 53.1179 49.2564 53.3652L48.3005 54.0407L48.3002 54.0409ZM47.234 50.6822L48.7374 52.8102C48.7571 52.8006 48.7751 52.7902 48.7909 52.7788C48.8071 52.7675 48.832 52.75 48.8657 52.726C48.9588 52.6603 49.0279 52.5937 49.0732 52.5268C49.1186 52.4599 49.1425 52.3871 49.1449 52.3087C49.1481 52.2452 49.1145 52.1509 49.0442 52.0256C48.9736 51.9003 48.8179 51.6669 48.5766 51.3254L48.4682 51.1722C48.2703 50.8919 48.131 50.7065 48.0499 50.616C47.969 50.5255 47.9007 50.4727 47.8442 50.4577C47.7764 50.4333 47.7017 50.4326 47.6204 50.4552C47.5387 50.4777 47.4475 50.5249 47.3465 50.5964C47.3161 50.6179 47.2925 50.6351 47.2761 50.6478C47.2598 50.6604 47.2458 50.6721 47.234 50.6825L47.234 50.6822Z" fill="white"/>
<path d="M26.4357 23.0488L24.0447 19.6828L24.8957 19.0782C25.2098 18.8551 25.4508 18.7025 25.6182 18.6208C25.7857 18.5391 25.9414 18.4911 26.0854 18.4766C26.2754 18.4557 26.4591 18.4944 26.6367 18.593C26.8142 18.6917 26.9764 18.8445 27.1233 19.0514C27.3655 19.3925 27.4506 19.7216 27.3783 20.0394C27.3063 20.357 27.0785 20.6519 26.6953 20.9241L26.3901 21.141L27.306 22.4306L26.4357 23.0488ZM25.9446 20.5138C25.9584 20.5062 25.9741 20.4971 25.9921 20.4866C26.01 20.4762 26.0341 20.4602 26.0646 20.4384C26.2376 20.3155 26.3366 20.1899 26.3611 20.0616C26.3856 19.9334 26.3401 19.7876 26.2243 19.6244C26.1281 19.4887 26.0179 19.4202 25.8937 19.4186C25.7695 19.417 25.6121 19.4838 25.4213 19.6194L25.3468 19.6723L25.9446 20.5138Z" fill="white"/>
<path d="M28.5637 21.5018L27.6734 17.3505L28.8118 16.805L31.4786 20.1053L30.5213 20.564L30.0597 19.9081L29.3071 20.2687L29.5291 21.0393L28.5637 21.5018ZM29.0833 19.5493L29.6339 19.2855L28.5817 17.7919L29.0834 19.549L29.0833 19.5493Z" fill="white"/>
<path d="M32.0697 19.9731L31.1425 16.7778L30.3269 17.0146L30.1036 16.2449L32.7998 15.4624L33.0233 16.2322L32.165 16.4812L33.0923 19.6762L32.0701 19.9728L32.0697 19.9731Z" fill="white"/>
<path d="M34.2237 19.3909L33.7639 15.2879L36.2199 15.0128L36.3092 15.8094L34.9024 15.9671L34.987 16.721L36.2852 16.5755L36.3776 17.3987L35.0794 17.5442L35.1797 18.4392L36.5865 18.2816L36.68 19.1155L34.224 19.3907L34.2237 19.3909Z" fill="white"/>
<path d="M37.1658 19.0943L37.4703 14.977L38.5731 15.0586L39.2646 17.6636C39.2611 17.2332 39.2621 16.8623 39.2687 16.551C39.275 16.2396 39.286 15.977 39.3018 15.7632L39.3497 15.1161L40.2938 15.1858L39.9894 19.3031L38.8838 19.2213L38.1922 16.5383C38.2061 16.8816 38.2115 17.2142 38.2085 17.5356C38.2054 17.857 38.1927 18.1684 38.1704 18.4695L38.119 19.1645L37.1662 19.094L37.1658 19.0943Z" fill="white"/>
<path d="M41.0888 19.5642L41.9331 16.3461L41.1115 16.1305L41.3148 15.3552L44.0303 16.0677L43.8269 16.843L42.9626 16.6162L42.1183 19.8342L41.0885 19.5641L41.0888 19.5642Z" fill="white"/>
<path d="M43.2348 20.1706L44.9476 16.414L47.1962 17.4392L46.8637 18.1684L45.5757 17.5811L45.2608 18.2713L46.4495 18.8134L46.1058 19.567L44.9171 19.0249L44.5434 19.8446L45.8312 20.4318L45.4832 21.1953L43.2346 20.1701L43.2348 20.1706Z" fill="white"/>
<path d="M45.9107 21.4291L48.2899 18.0549L49.2467 18.7297C49.597 18.9767 49.8372 19.187 49.9672 19.3608C50.0971 19.5345 50.1652 19.7229 50.1713 19.9261C50.1753 20.0843 50.1352 20.2567 50.0515 20.4438C49.9679 20.6307 49.7673 20.9492 49.4502 21.3991C49.133 21.849 48.9004 22.1445 48.753 22.2854C48.6057 22.4264 48.4563 22.5221 48.3047 22.5731C48.1115 22.6358 47.9112 22.6349 47.7037 22.5709C47.4965 22.5067 47.2177 22.3511 46.8672 22.1042L45.9106 21.4296L45.9107 21.4291ZM48.7188 19.299L47.2171 21.4285C47.2327 21.444 47.2487 21.4573 47.2647 21.4687C47.2807 21.4799 47.3056 21.4976 47.3395 21.5213C47.4327 21.587 47.5183 21.6299 47.5968 21.6503C47.6751 21.6705 47.7516 21.6687 47.8263 21.6447C47.8872 21.6266 47.9651 21.5632 48.0594 21.4548C48.1536 21.3463 48.3217 21.1213 48.5627 20.7794L48.6709 20.626C48.8687 20.3456 48.9965 20.1521 49.0549 20.0456C49.1133 19.9391 49.14 19.8568 49.1352 19.7988C49.1354 19.7267 49.1113 19.6562 49.0627 19.5869C49.0139 19.5176 48.9392 19.4473 48.8378 19.376C48.8072 19.3545 48.7832 19.3381 48.766 19.327C48.7486 19.3159 48.7331 19.3065 48.7192 19.2988L48.7188 19.299Z" fill="white"/>
<path d="M17.0573 39.447L17.0558 32.6803L18.7668 32.6799C19.3982 32.6799 19.8647 32.7047 20.166 32.7544C20.4672 32.8041 20.721 32.8876 20.9272 33.0046C21.2012 33.1569 21.4099 33.383 21.5533 33.6834C21.6968 33.9837 21.7685 34.3416 21.7687 34.7576C21.7689 35.4431 21.5699 35.9638 21.1722 36.3197C20.7743 36.6755 20.1902 36.8538 19.4202 36.8538L18.8065 36.8539L18.8069 39.4465L17.0571 39.4467L17.0573 39.447ZM18.8061 35.5932C18.832 35.5961 18.8617 35.5991 18.8955 35.602C18.9294 35.6049 18.9768 35.6064 19.0381 35.6063C19.3861 35.6063 19.6374 35.5322 19.7921 35.3842C19.9469 35.2362 20.024 34.9983 20.0238 34.6702C20.0238 34.3979 19.9416 34.2015 19.7773 34.0813C19.6129 33.9614 19.339 33.9012 18.9554 33.9014L18.8057 33.9013L18.8062 35.5929L18.8061 35.5932Z" fill="#0C4088"/>
<path d="M21.62 39.4444L23.2424 32.6773L25.3111 32.677L26.9172 39.4434L25.177 39.4439L24.9594 38.1477L23.5914 38.1481L23.3742 39.4445L21.6196 39.4449L21.62 39.4444ZM23.7703 36.9262L24.7708 36.926L24.2723 33.9734L23.7702 36.9264L23.7703 36.9262Z" fill="#0C4088"/>
<path d="M28.1534 39.4443L28.1524 33.9913L26.7603 33.9915L26.7598 32.6776L31.3613 32.6766L31.3615 33.9902L29.897 33.9904L29.8981 39.4435L28.1533 39.4437L28.1534 39.4443Z" fill="#0C4088"/>
<path d="M32.0749 39.4417L32.0733 32.675L36.1237 32.6743L36.1242 33.9882L33.8042 33.9886L33.8045 35.2321L35.9456 35.2318L35.9458 36.5895L33.8047 36.5898L33.8051 38.0662L36.1251 38.0658L36.1255 39.4413L32.0751 39.442L32.0749 39.4417Z" fill="#0C4088"/>
<path d="M37.2017 39.441L37.2001 32.6743L39.0126 32.674L40.4588 36.8481C40.4006 36.1452 40.3577 35.5386 40.3305 35.0289C40.303 34.519 40.2892 34.0885 40.289 33.7371L40.2888 32.6739L41.8403 32.6734L41.8416 39.4401L40.0244 39.4406L38.5685 35.139C38.633 35.6985 38.6825 36.2411 38.7163 36.767C38.7502 37.2929 38.7673 37.8033 38.7675 38.2983L38.7677 39.4406L37.2017 39.441Z" fill="#0C4088"/>
<path d="M43.9696 39.4404L43.9685 33.9873L42.5764 33.9876L42.5763 32.6737L47.1777 32.6727L47.1778 33.9865L45.7134 33.9868L45.7144 39.4398L43.9696 39.4404Z" fill="#0C4088"/>
<path d="M47.8913 39.44L47.8898 32.673L51.9401 32.6723L51.9403 33.9862L49.6203 33.9866L49.6207 35.2301L51.7618 35.2295L51.762 36.5872L49.6209 36.5878L49.6213 38.0642L51.9412 38.0638L51.9416 39.4393L47.8912 39.4403L47.8913 39.44Z" fill="#0C4088"/>
<path d="M53.0166 39.4398L53.0153 32.6732L54.934 32.6728C55.6365 32.6725 56.157 32.7276 56.4954 32.8371C56.8338 32.9469 57.1029 33.1351 57.3028 33.4016C57.4575 33.6097 57.5671 33.8783 57.6316 34.208C57.6962 34.5374 57.7286 35.1534 57.7286 36.0555C57.7289 36.9579 57.6968 37.5728 57.6324 37.9009C57.5679 38.229 57.4587 38.4984 57.3039 38.7093C57.1042 38.9761 56.8353 39.1642 56.4968 39.274C56.1586 39.3839 55.6381 39.4389 54.9356 39.4392L53.0167 39.4395L53.0166 39.4398ZM54.7652 33.9336L54.7663 38.2045C54.8018 38.2105 54.8357 38.2134 54.8679 38.2132C54.9001 38.2131 54.9499 38.2133 55.0176 38.2133C55.2045 38.2132 55.36 38.1898 55.4842 38.1429C55.6081 38.096 55.7089 38.0214 55.7863 37.9188C55.8506 37.837 55.8951 37.6787 55.9192 37.4442C55.9433 37.2099 55.9552 36.7501 55.9553 36.0646L55.9554 35.7571C55.9552 35.1947 55.9439 34.8145 55.9213 34.6169C55.8988 34.4191 55.8569 34.2839 55.7955 34.2104C55.7279 34.1137 55.6288 34.0421 55.4981 33.9953C55.3677 33.9485 55.201 33.9249 54.9977 33.9252C54.9364 33.9252 54.8889 33.926 54.8551 33.9272C54.8213 33.9288 54.7915 33.931 54.7655 33.9339L54.7652 33.9336Z" fill="#0C4088"/>
</g>
<defs>
<filter id="filter0_b_12060_32889" x="-40" y="-40" width="155.777" height="152" filterUnits="userSpaceOnUse" color-interpolation-filters="sRGB">
<feFlood flood-opacity="0" result="BackgroundImageFix"/>
<feGaussianBlur in="BackgroundImageFix" stdDeviation="20"/>
<feComposite in2="SourceAlpha" operator="in" result="effect1_backgroundBlur_12060_32889"/>
<feBlend mode="normal" in="SourceGraphic" in2="effect1_backgroundBlur_12060_32889" result="shape"/>
</filter>
<linearGradient id="paint0_linear_12060_32889" x1="37.8889" y1="0" x2="37.8889" y2="72" gradientUnits="userSpaceOnUse">
<stop stop-color="#0C4088" stop-opacity="0.5"/>
<stop offset="1" stop-color="#0C4088" stop-opacity="0.5"/>
</linearGradient>
<clipPath id="clip0_12060_32889">
<rect width="68.6305" height="48" fill="white" transform="translate(3.70508 12.0605)"/>
</clipPath>
</defs>
</svg>
