<svg width="153" height="42" viewBox="0 0 153 42" fill="none" xmlns="http://www.w3.org/2000/svg">
<path fill-rule="evenodd" clip-rule="evenodd" d="M6.14633 0H146.488C149.882 0 152.634 2.7515 152.634 6.14634V35.8537C152.634 39.2484 149.882 42 146.488 42H6.14633C2.75151 42 0 39.2484 0 35.8537V6.14634C0 2.7515 2.75151 0 6.14633 0Z" fill="#32364E"/>
<path fill-rule="evenodd" clip-rule="evenodd" d="M73.1432 27.2738H71.6455L72.8051 24.4097L70.4972 18.5859H72.0798L73.5303 22.5493L74.9922 18.5859H76.5748L73.1432 27.2738ZM67.3912 24.7723C66.8719 24.7723 66.3403 24.5797 65.8568 24.2048V24.6278H64.3109V15.94H65.8568V18.9978C66.3403 18.6352 66.8719 18.4416 67.3912 18.4416C69.0107 18.4416 70.1222 19.7465 70.1222 21.6069C70.1222 23.4672 69.0107 24.7723 67.3912 24.7723ZM67.0655 19.7702C66.6424 19.7702 66.2194 19.9514 65.8568 20.314V22.8997C66.2194 23.2623 66.6424 23.4437 67.0655 23.4437C67.9353 23.4437 68.5396 22.6948 68.5396 21.6069C68.5396 20.5201 67.9353 19.7702 67.0655 19.7702ZM58.0509 24.2048C57.5797 24.5797 57.0479 24.7723 56.5163 24.7723C54.909 24.7723 53.7863 23.4672 53.7863 21.6069C53.7863 19.7465 54.909 18.4416 56.5163 18.4416C57.0479 18.4416 57.5797 18.6352 58.0509 18.9978V15.94H59.61V24.6278H58.0509V24.2048ZM58.0509 20.314C57.7005 19.9514 57.2774 19.7702 56.8544 19.7702C55.9724 19.7702 55.3691 20.5201 55.3691 21.6069C55.3691 22.6948 55.9724 23.4437 56.8544 23.4437C57.2774 23.4437 57.7005 23.2623 58.0509 22.8997V20.314ZM48.8437 22.0299C48.94 22.9478 49.6652 23.5768 50.6803 23.5768C51.2356 23.5768 51.8523 23.3709 52.4802 23.0083V24.301C51.7918 24.6155 51.1034 24.7723 50.4263 24.7723C48.6018 24.7723 47.3215 23.4437 47.3215 21.5588C47.3215 19.7343 48.5783 18.4416 50.3054 18.4416C51.8882 18.4416 52.9637 19.6862 52.9637 21.4624C52.9637 21.6314 52.9637 21.824 52.9392 22.0299H48.8437ZM50.2451 19.6381C49.4962 19.6381 48.9163 20.1932 48.8437 21.027H51.4773C51.4292 20.2056 50.9335 19.6381 50.2451 19.6381ZM44.7717 20.5917V24.6278H43.2248V18.5859H44.7717V19.1903C45.2061 18.7068 45.7377 18.4416 46.2571 18.4416C46.4271 18.4416 46.5961 18.4538 46.7652 18.5019V19.8798C46.5961 19.8305 46.4026 19.8071 46.2212 19.8071C45.7141 19.8071 45.1702 20.0847 44.7717 20.5917ZM37.8714 22.0299C37.9688 22.9478 38.693 23.5768 39.7081 23.5768C40.2644 23.5768 40.88 23.3709 41.509 23.0083V24.301C40.8196 24.6155 40.1313 24.7723 39.4541 24.7723C37.6296 24.7723 36.3491 23.4437 36.3491 21.5588C36.3491 19.7343 37.6061 18.4416 39.3333 18.4416C40.917 18.4416 41.9915 19.6862 41.9915 21.4624C41.9915 21.6314 41.9915 21.824 41.968 22.0299H37.8714ZM39.2727 19.6381C38.524 19.6381 37.9441 20.1932 37.8714 21.027H40.5061C40.457 20.2056 39.9623 19.6381 39.2727 19.6381ZM32.4698 24.6278L31.2376 20.5201L30.0174 24.6278H28.6273L26.55 18.5859H28.0957L29.3168 22.6948L30.5368 18.5859H31.9382L33.1581 22.6948L34.3793 18.5859H35.9252L33.8589 24.6278H32.4698ZM23.0208 24.7723C21.1965 24.7723 19.9036 23.4559 19.9036 21.6069C19.9036 19.7465 21.1965 18.4416 23.0208 18.4416C24.8453 18.4416 26.1258 19.7465 26.1258 21.6069C26.1258 23.4559 24.8453 24.7723 23.0208 24.7723ZM23.0208 19.7343C22.1144 19.7343 21.4863 20.4954 21.4863 21.6069C21.4863 22.7183 22.1144 23.4794 23.0208 23.4794C23.9152 23.4794 24.5431 22.7183 24.5431 21.6069C24.5431 20.4954 23.9152 19.7343 23.0208 19.7343ZM16.2302 21.6438H14.8401V24.6278H13.2943V16.3149H16.2302C17.9215 16.3149 19.1292 17.4141 19.1292 18.9854C19.1292 20.5559 17.9215 21.6438 16.2302 21.6438ZM16.012 17.5718H14.8401V20.3868H16.012C16.9062 20.3868 17.5342 19.8193 17.5342 18.9854C17.5342 18.1393 16.9062 17.5718 16.012 17.5718ZM140.163 22.4008H132.736C132.905 24.1792 134.208 24.7025 135.686 24.7025C137.193 24.7025 138.379 24.386 139.414 23.8637V26.9204C138.382 27.491 137.022 27.9038 135.208 27.9038C131.513 27.9038 128.923 25.5896 128.923 21.0138C128.923 17.1498 131.119 14.0807 134.729 14.0807C138.333 14.0807 140.214 17.1487 140.214 21.0343C140.214 21.4011 140.18 22.1959 140.163 22.4008ZM134.705 17.1743C133.756 17.1743 132.702 17.8905 132.702 19.6H136.625C136.625 17.8924 135.637 17.1743 134.705 17.1743ZM122.906 27.9038C121.578 27.9038 120.767 27.3435 120.222 26.9439L120.214 31.2371L116.42 32.0444L116.419 14.3337H119.76L119.957 15.2711C120.482 14.7804 121.442 14.0807 122.929 14.0807C125.594 14.0807 128.104 16.4808 128.104 20.8981C128.104 25.7198 125.621 27.9038 122.906 27.9038ZM122.023 17.4417C121.151 17.4417 120.606 17.7603 120.211 18.1937L120.233 23.8319C120.601 24.2304 121.133 24.552 122.023 24.552C123.425 24.552 124.366 23.0247 124.366 20.9821C124.366 18.9968 123.411 17.4417 122.023 17.4417ZM111.06 14.3337H114.868V27.6324H111.06V14.3337ZM111.06 10.0876L114.868 9.27734V12.3679L111.06 13.1772V10.0876ZM107.125 18.6167V27.6324H103.333V14.3337H106.613L106.852 15.4554C107.739 13.8226 109.513 14.1534 110.018 14.3348V17.8218C109.536 17.6661 108.022 17.4387 107.125 18.6167ZM99.1176 22.9663C99.1176 25.2025 101.512 24.5069 101.998 24.3123V27.4009C101.492 27.6784 100.575 27.9038 99.3347 27.9038C97.0831 27.9038 95.3938 26.2453 95.3938 23.9988L95.4104 11.826L99.1144 11.0393L99.1176 14.3337H101.999V17.5687H99.1176V22.9663ZM94.514 23.6137C94.514 26.3446 92.3402 27.9038 89.1851 27.9038C87.8769 27.9038 86.4469 27.6498 85.0363 27.0423V23.42C86.3096 24.1125 87.9323 24.6319 89.1891 24.6319C90.0354 24.6319 90.6449 24.4045 90.6449 23.7038C90.6449 21.8927 84.8765 22.5749 84.8765 18.3739C84.8765 15.688 86.9284 14.0807 90.0056 14.0807C91.2625 14.0807 92.5195 14.2743 93.7763 14.7752V18.3483C92.6218 17.7254 91.157 17.3721 90.0025 17.3721C89.2076 17.3721 88.7139 17.6016 88.7139 18.1947C88.7139 19.9013 94.514 19.0899 94.514 23.6137Z" fill="white"/>
</svg>
