<svg width="32" height="32" viewBox="0 0 32 32" fill="none" xmlns="http://www.w3.org/2000/svg">
<circle cx="16" cy="16" r="16" fill="#0C4088"/>
<path d="M16.0004 13.1425C16.0004 12.4861 16.2265 11.8496 16.6406 11.3402C17.0547 10.8309 17.6315 10.4796 18.2741 10.3454C18.9167 10.2113 19.5859 10.3025 20.1692 10.6037C20.7525 10.9049 21.2143 11.3978 21.4769 11.9994L24.0004 11.9994L21.6959 14.3039C21.5459 16.6217 20.5193 18.7956 18.8247 20.3841C17.1301 21.9725 14.8945 22.8565 12.5718 22.8566C10.2861 22.8566 9.71467 21.9994 9.71467 21.9994C9.71467 21.9994 12.0004 21.1423 13.1432 19.428C13.1432 19.428 8.57181 17.1423 9.71467 10.8566C9.71467 10.8566 12.5718 13.7137 15.9994 14.2852L16.0004 13.1425Z" stroke="#28EAE9" stroke-width="1.5" stroke-linecap="round" stroke-linejoin="round"/>
</svg>
