<svg width="42" height="42" viewBox="0 0 42 42" fill="none" xmlns="http://www.w3.org/2000/svg">
<circle opacity="0.1" cx="21" cy="21" r="21" fill="#28EAE9"/>
<path d="M21.0005 17.2483C21.0006 16.3867 21.2973 15.5514 21.8408 14.8829C22.3843 14.2143 23.1414 13.7532 23.9848 13.5772C24.8282 13.4011 25.7065 13.5208 26.4721 13.9162C27.2376 14.3115 27.8437 14.9584 28.1885 15.748L31.5005 15.7481L28.4759 18.7727C28.279 21.8148 26.9316 24.668 24.7074 26.7529C22.4833 28.8377 19.549 29.998 16.5005 29.998C13.5005 29.998 12.7505 28.873 12.7505 28.873C12.7505 28.873 15.7505 27.748 17.2505 25.498C17.2505 25.498 11.2505 22.498 12.7505 14.2481C12.7505 14.2481 16.5005 17.9981 20.9992 18.7481L21.0005 17.2483Z" stroke="#28EAE9" stroke-width="1.5" stroke-linecap="round" stroke-linejoin="round"/>
</svg>
