<svg width="42" height="42" viewBox="0 0 42 42" fill="none" xmlns="http://www.w3.org/2000/svg">
<circle opacity="0.1" cx="21" cy="21" r="21" fill="#28EAE9"/>
<path d="M24 21L19.5 18V24L24 21Z" stroke="#28EAE9" stroke-width="1.5" stroke-linecap="round" stroke-linejoin="round"/>
<path d="M11.25 20.999C11.25 23.7886 11.5382 25.4253 11.7573 26.2665C11.8159 26.4962 11.9283 26.7087 12.0854 26.8863C12.2424 27.0639 12.4395 27.2016 12.6604 27.2878C15.7988 28.4939 21 28.4608 21 28.4608C21 28.4608 26.2011 28.4939 29.3396 27.2879C29.5604 27.2016 29.7576 27.064 29.9146 26.8863C30.0717 26.7087 30.1841 26.4963 30.2427 26.2665C30.4618 25.4253 30.75 23.7886 30.75 20.999C30.75 18.2094 30.4618 16.5727 30.2427 15.7315C30.1841 15.5018 30.0717 15.2893 29.9146 15.1117C29.7576 14.934 29.5605 14.7964 29.3396 14.7102C26.2012 13.5041 21 13.5372 21 13.5372C21 13.5372 15.7989 13.5041 12.6604 14.7101C12.4396 14.7964 12.2424 14.934 12.0854 15.1116C11.9283 15.2893 11.8159 15.5017 11.7573 15.7315C11.5382 16.5727 11.25 18.2094 11.25 20.999Z" stroke="#28EAE9" stroke-width="1.5" stroke-linecap="round" stroke-linejoin="round"/>
</svg>
