<svg width="32" height="32" viewBox="0 0 32 32" fill="none" xmlns="http://www.w3.org/2000/svg">
<circle cx="16" cy="16" r="16" fill="#0C4088"/>
<path d="M18.286 16.0006L14.8574 13.7148V18.2863L18.286 16.0006Z" stroke="#28EAE9" stroke-width="1.5" stroke-linecap="round" stroke-linejoin="round"/>
<path d="M8.57227 15.9997C8.57227 18.1251 8.79185 19.3721 8.95877 20.013C9.00339 20.1881 9.08908 20.35 9.20873 20.4853C9.32839 20.6206 9.47857 20.7255 9.64683 20.7912C12.038 21.7101 16.0008 21.6849 16.0008 21.6849C16.0008 21.6849 19.9636 21.7101 22.3548 20.7912C22.5231 20.7255 22.6733 20.6206 22.7929 20.4853C22.9126 20.35 22.9983 20.1881 23.0429 20.013C23.2098 19.3721 23.4294 18.1251 23.4294 15.9997C23.4294 13.8743 23.2098 12.6273 23.0429 11.9864C22.9983 11.8113 22.9126 11.6494 22.7929 11.5141C22.6733 11.3788 22.5231 11.2739 22.3548 11.2082C19.9636 10.2893 16.0008 10.3145 16.0008 10.3145C16.0008 10.3145 12.0381 10.2893 9.64685 11.2082C9.47859 11.2739 9.32841 11.3788 9.20875 11.5141C9.0891 11.6494 9.00341 11.8113 8.95879 11.9864C8.79186 12.6273 8.57227 13.8743 8.57227 15.9997Z" stroke="#28EAE9" stroke-width="1.5" stroke-linecap="round" stroke-linejoin="round"/>
</svg>
