<svg width="76" height="32" viewBox="0 0 76 32" fill="none" xmlns="http://www.w3.org/2000/svg">
<path d="M0 0V32H9.68533V21.6721H18.4911V12.9163H9.68533V8.72812H20.4831L19.8968 0H0Z" fill="#0C4088"/>
<path d="M36.0235 0C27.1595 0 20.0234 7.13605 20.0234 16.0001C20.0234 24.8641 27.1595 32 36.0235 32C44.8875 32 52.0234 24.8641 52.0234 16.0001C52.0234 7.13605 44.8875 0 36.0235 0ZM36.0235 6.59017C37.5202 6.59017 38.7249 7.79488 38.7249 9.29154V22.7085C38.7249 24.2051 37.5202 25.41 36.0235 25.41C34.5268 25.41 33.322 24.2051 33.322 22.7085V9.29154C33.322 7.79488 34.5268 6.59017 36.0235 6.59017Z" fill="#0C4088"/>
<path d="M47.2227 0L56.3015 16L47.2227 32H57.6024L61.4913 25.1461L65.3803 32H75.7599L66.6812 16L75.7599 0H65.3803L61.4913 6.85369L57.6026 0H47.2227Z" fill="#0C4088"/>
</svg>
