<svg width="24" height="24" viewBox="0 0 24 24" fill="none" xmlns="http://www.w3.org/2000/svg">
<circle opacity="0.6" cx="12" cy="12" r="12" fill="#B0CAEE"/>
<path d="M9.99805 13.75C10.4123 13.75 10.748 13.4142 10.748 13C10.748 12.5858 10.4123 12.25 9.99805 12.25C9.58383 12.25 9.24805 12.5858 9.24805 13C9.24805 13.4142 9.58383 13.75 9.99805 13.75Z" fill="#28EAE9"/>
<path d="M13.9992 13.75C14.4134 13.75 14.7492 13.4142 14.7492 13C14.7492 12.5858 14.4134 12.25 13.9992 12.25C13.585 12.25 13.2492 12.5858 13.2492 13C13.2492 13.4142 13.585 13.75 13.9992 13.75Z" fill="#28EAE9"/>
<path d="M8.64871 9.00027C9.73268 8.66099 10.8628 8.49231 11.9986 8.50027C13.1344 8.49231 14.2645 8.66099 15.3485 9.00025" stroke="#28EAE9" stroke-width="1.5" stroke-linecap="round" stroke-linejoin="round"/>
<path d="M15.3484 14.9998C14.2644 15.339 13.1343 15.5077 11.9986 15.4997C10.8628 15.5077 9.73267 15.339 8.64871 14.9998" stroke="#28EAE9" stroke-width="1.5" stroke-linecap="round" stroke-linejoin="round"/>
<path d="M13.6881 15.3805L14.4396 16.8836C14.4897 16.9846 14.5726 17.0656 14.6746 17.1134C14.7767 17.1612 14.892 17.1729 15.0016 17.1467C16.5353 16.7718 17.8574 16.118 18.8203 15.281C18.8939 15.2178 18.9476 15.1347 18.975 15.0417C19.0024 14.9486 19.0023 14.8497 18.9748 14.7567L16.8515 7.67879C16.83 7.60742 16.793 7.54173 16.7429 7.48649C16.6929 7.43125 16.6312 7.38786 16.5623 7.35947C15.9624 7.11386 15.342 6.9218 14.7083 6.78554C14.5875 6.75908 14.4613 6.77818 14.3538 6.83917C14.2463 6.90016 14.1651 6.99873 14.1258 7.11594L13.6275 8.61092" stroke="#28EAE9" stroke-width="1.5" stroke-linecap="round" stroke-linejoin="round"/>
<path d="M10.3066 15.3805L9.55504 16.8836C9.50497 16.9846 9.42212 17.0656 9.32005 17.1134C9.21797 17.1612 9.10271 17.1729 8.9931 17.1467C7.45943 16.7718 6.1373 16.118 5.17434 15.281C5.10081 15.2178 5.0471 15.1347 5.01969 15.0417C4.99229 14.9486 4.99234 14.8497 5.01985 14.7567L7.14321 7.67879C7.16464 7.60742 7.20172 7.54172 7.25174 7.48649C7.30176 7.43125 7.36347 7.38786 7.43237 7.35947C8.03224 7.11386 8.65267 6.9218 9.28639 6.78554C9.40713 6.75908 9.53339 6.77818 9.64091 6.83917C9.74842 6.90016 9.8296 6.99873 9.86884 7.11594L10.3672 8.61092" stroke="#28EAE9" stroke-width="1.5" stroke-linecap="round" stroke-linejoin="round"/>
<path d="M9.99805 13.75C10.4123 13.75 10.748 13.4142 10.748 13C10.748 12.5858 10.4123 12.25 9.99805 12.25C9.58383 12.25 9.24805 12.5858 9.24805 13C9.24805 13.4142 9.58383 13.75 9.99805 13.75Z" fill="#28EAE9"/>
<path d="M13.9992 13.75C14.4134 13.75 14.7492 13.4142 14.7492 13C14.7492 12.5858 14.4134 12.25 13.9992 12.25C13.585 12.25 13.2492 12.5858 13.2492 13C13.2492 13.4142 13.585 13.75 13.9992 13.75Z" fill="#28EAE9"/>
<path d="M8.64871 9.00027C9.73268 8.66099 10.8628 8.49231 11.9986 8.50027C13.1344 8.49231 14.2645 8.66099 15.3485 9.00025" stroke="#28EAE9" stroke-width="1.5" stroke-linecap="round" stroke-linejoin="round"/>
<path d="M15.3484 14.9998C14.2644 15.339 13.1343 15.5077 11.9986 15.4997C10.8628 15.5077 9.73267 15.339 8.64871 14.9998" stroke="#28EAE9" stroke-width="1.5" stroke-linecap="round" stroke-linejoin="round"/>
<path d="M13.6881 15.3805L14.4396 16.8836C14.4897 16.9846 14.5726 17.0656 14.6746 17.1134C14.7767 17.1612 14.892 17.1729 15.0016 17.1467C16.5353 16.7718 17.8574 16.118 18.8203 15.281C18.8939 15.2178 18.9476 15.1347 18.975 15.0417C19.0024 14.9486 19.0023 14.8497 18.9748 14.7567L16.8515 7.67879C16.83 7.60742 16.793 7.54173 16.7429 7.48649C16.6929 7.43125 16.6312 7.38786 16.5623 7.35947C15.9624 7.11386 15.342 6.9218 14.7083 6.78554C14.5875 6.75908 14.4613 6.77818 14.3538 6.83917C14.2463 6.90016 14.1651 6.99873 14.1258 7.11594L13.6275 8.61092" stroke="#28EAE9" stroke-width="1.5" stroke-linecap="round" stroke-linejoin="round"/>
<path d="M10.3066 15.3805L9.55504 16.8836C9.50497 16.9846 9.42212 17.0656 9.32005 17.1134C9.21797 17.1612 9.10271 17.1729 8.9931 17.1467C7.45943 16.7718 6.1373 16.118 5.17434 15.281C5.10081 15.2178 5.0471 15.1347 5.01969 15.0417C4.99229 14.9486 4.99234 14.8497 5.01985 14.7567L7.14321 7.67879C7.16464 7.60742 7.20172 7.54172 7.25174 7.48649C7.30176 7.43125 7.36347 7.38786 7.43237 7.35947C8.03224 7.11386 8.65267 6.9218 9.28639 6.78554C9.40713 6.75908 9.53339 6.77818 9.64091 6.83917C9.74842 6.90016 9.8296 6.99873 9.86884 7.11594L10.3672 8.61092" stroke="#28EAE9" stroke-width="1.5" stroke-linecap="round" stroke-linejoin="round"/>
</svg>
