<svg width="24" height="24" viewBox="0 0 24 24" fill="none" xmlns="http://www.w3.org/2000/svg">
<mask id="mask0_6614_26560" style="mask-type:alpha" maskUnits="userSpaceOnUse" x="0" y="0" width="24" height="24">
<circle cx="12" cy="12" r="12" fill="#B0CAEE"/>
</mask>
<g mask="url(#mask0_6614_26560)">
<circle cx="12" cy="12" r="11.5" stroke="#B0CAEE"/>
<path d="M13.5826 2.97423C13.5826 2.97423 13.5361 2.52257 13.067 2.23281C12.597 1.94305 11.4089 1.70559 11.296 2.3341C11.1831 2.96261 10.7074 2.56076 10.7074 2.56076C10.7074 2.56076 10.9938 2.42377 11.0436 2.07589C11.0934 1.72718 10.1602 1.57109 10.1378 1.87912C10.1154 2.18714 10.3396 2.33078 10.088 2.38309C9.83644 2.43539 9.6023 2.51343 9.28846 2.53502C8.97463 2.55661 8.94059 2.17386 8.94059 2.17386C8.94059 2.17386 9.18053 2.2079 9.52592 2.12487C9.87131 2.04102 10.0739 1.71473 9.69114 1.59268C9.30839 1.47063 9.71605 1.88493 8.86669 1.76288C8.86669 1.76288 8.76125 1.72552 8.66743 1.44489C8.57444 1.16509 7.79317 1.03059 7.51337 1.27884C7.23275 1.52792 7.38219 1.72718 7.61549 1.80523C7.8488 1.88327 7.51586 2.03521 7.88284 2.11076C8.24981 2.18631 8.39926 2.22949 8.29631 2.3258C8.19336 2.42211 6.35765 1.89157 6.39585 1.47478C6.39585 1.47478 2.7095 3.14609 1.23828 6.58004C1.23828 6.58004 1.27564 6.78511 1.51227 6.84157C1.74889 6.89803 1.90083 6.91961 1.81365 7.37377C1.72647 7.82792 1.58865 8.78604 2.19474 8.89563C2.80166 9.00522 2.49695 8.49462 2.35415 8.25135C2.21134 8.00808 2.11835 7.26168 2.47038 7.44517C2.82158 7.62866 2.30516 7.66602 2.83072 8.65319C3.35544 9.64037 2.54345 9.56814 3.17444 10.2813C3.80544 10.9945 4.15747 10.2448 4.36586 10.4972C4.57426 10.7496 4.375 10.899 4.78847 10.958C5.20194 11.0178 5.02841 10.8368 5.21439 11.2419C5.40037 11.6471 5.53072 12.4433 6.7512 12.1519C6.7512 12.1519 6.95295 12.6036 6.75369 12.9083C6.55442 13.213 5.95664 13.1939 5.88773 13.829C5.81882 14.4642 5.96162 14.7066 6.25055 15.1707C6.53948 15.6348 6.32112 15.9146 6.64492 16.1388C6.96872 16.363 7.72758 16.4942 7.57814 17.0728C7.42869 17.6515 7.163 18.7251 7.30249 18.9899C7.44197 19.2548 7.26513 19.2514 7.2178 19.5777C7.17048 19.9049 7.63459 20.2378 7.5964 20.6546C7.55904 21.0714 7.14474 21.479 7.41457 21.9182C7.68524 22.3574 7.75332 22.1889 7.87454 22.5849C7.99575 22.9801 8.08293 23.1487 8.29714 23.2018C8.51217 23.2549 8.86005 23.3048 8.98791 23.5015C9.11494 23.6975 9.43293 23.343 9.21872 23.1346C9.00452 22.9262 8.72721 22.9976 8.80858 22.5866C8.88994 22.1756 9.12989 22.0544 8.80277 21.8518C8.47564 21.6492 8.5321 21.4126 8.6666 21.4101C8.80027 21.4068 9.1083 21.2739 8.85009 21.0589C8.59188 20.8439 8.51134 20.7882 8.71061 20.7941C8.90987 20.8007 9.52592 21 10.0681 20.4777C10.6102 19.9555 11.0993 19.3361 11.0993 19.3361C11.0993 19.3361 11.2612 18.9816 11.2022 18.6171C11.1433 18.2526 11.4239 18.1597 11.9054 18.207C12.3878 18.2543 12.3322 18.0235 12.3322 18.0235C12.3322 18.0235 12.7581 18.4627 12.9026 16.6826C12.9026 16.6826 12.8777 16.3904 13.4256 16.1355C13.9736 15.8806 13.5103 15.2363 13.199 15.2363C13.199 15.2363 13.0778 14.8411 12.8196 14.7813C12.5613 14.7224 11.9727 14.793 11.7336 14.6028C11.4945 14.4127 11.1615 14.2541 11.1615 14.2541C11.1615 14.2541 11.4554 12.9847 10.2101 12.9838C10.2101 12.9838 10.0307 12.0689 9.4047 12.0896C8.77952 12.1112 8.70479 12.1668 8.6143 12.0207C8.5238 11.8746 8.40673 11.3017 7.96753 11.4163C7.52832 11.5309 7.42537 12.0946 6.99944 11.9659C6.57352 11.8381 6.03468 11.8721 6.16254 11.4454C6.2904 11.0194 6.36264 10.518 5.69677 10.5113C5.69677 10.5113 5.52906 10.4424 5.80553 10.2157C6.08284 9.98908 5.95581 9.63705 5.7964 9.65864C5.63782 9.68022 5.16789 10.0132 4.94372 10.0248C4.71955 10.0372 4.00387 9.91187 4.39658 9.03511C4.7893 8.15753 6.669 8.07201 6.80599 8.51454C6.94216 8.95624 6.78358 9.13391 7.22278 9.1746C7.66116 9.21528 7.52832 8.44065 7.52832 8.44065L8.72389 7.70089C8.72389 7.70089 8.84843 7.6079 8.93561 7.46426C9.02278 7.32146 10.4799 6.61906 10.7946 6.13087C11.1092 5.64268 11.2155 5.36869 11.629 5.58373C12.0424 5.79877 12.2135 5.84526 12.3197 5.57211C12.426 5.29812 12.9698 5.99886 13.1907 5.69747C13.4115 5.39609 13.3094 5.0258 12.8519 4.95938C12.3945 4.89296 12.9922 4.44628 12.8088 4.33087C12.6253 4.21546 12.2799 4.61067 12.1022 4.45126C11.9254 4.29268 12.299 3.70153 11.7012 3.68244C11.1034 3.66334 11.0287 3.71897 10.8452 4.38152C10.6609 5.04406 10.4002 4.38401 9.93025 4.8722C9.46033 5.36039 9.56909 5.06482 9.5226 4.76925C9.4761 4.47367 9.1523 4.2495 8.82269 4.22377C8.49308 4.19886 8.62426 3.59526 9.10996 3.46491C9.59566 3.33456 10.1835 3.1079 10.1835 3.1079C10.1835 3.1079 10.2358 3.51556 10.5845 3.41011C10.9332 3.30467 11.0519 2.94351 11.0519 2.94351L11.4006 2.99333C11.4006 2.99333 11.6373 2.73844 11.7062 2.72598C11.7743 2.71353 12.4899 2.8389 12.4899 2.8389C12.4899 2.8389 12.8943 2.80818 12.5115 2.99748C12.1288 3.18677 11.8955 2.95347 11.9793 3.29886C12.0632 3.64425 12.0914 3.44831 12.3463 3.68493C12.6012 3.92155 13.0089 3.86925 13.0994 3.54877C13.0994 3.54877 13.6249 3.75799 13.7403 3.41842C13.8557 3.07967 13.5817 2.9734 13.5817 2.9734L13.5826 2.97423Z" fill="#B0CAEE"/>
<path d="M10.79 6.64006C10.942 6.81773 11.3563 6.72142 10.9677 6.33203C10.9677 6.33203 10.6381 6.46238 10.79 6.64006Z" fill="#B0CAEE"/>
<path d="M11.6702 6.07828C11.7823 5.91638 11.4527 5.73538 11.4527 5.73538C11.4527 5.73538 11.2601 5.68557 11.2285 5.9031C11.197 6.12062 11.5581 6.23935 11.6702 6.07745V6.07828Z" fill="#B0CAEE"/>
<path d="M11.7852 6.65143C11.7852 6.65143 12.4295 6.49949 11.9911 6.14746C11.9911 6.14746 11.8292 6.34672 11.6482 6.36499C11.4681 6.38325 11.2314 6.32763 11.3618 6.65724C11.4921 6.98685 11.7852 6.65143 11.7852 6.65143Z" fill="#B0CAEE"/>
<path d="M12.6843 5.82503C12.6843 5.82503 12.1147 5.76526 12.3638 6.20114C12.3638 6.20114 12.529 6.29164 12.6843 6.4469C12.8395 6.60299 13.2314 6.65861 13.2663 6.4195C13.3003 6.17956 13.2074 5.89976 12.6851 5.82503H12.6843Z" fill="#B0CAEE"/>
<path d="M23.9163 10.7507C23.9163 10.7507 22.8112 10.8586 22.7025 10.5315C22.5937 10.2043 22.2325 10.0865 21.5044 10.2035C20.7763 10.3214 21.0627 10.0292 20.8103 9.92621C20.5587 9.82326 20.2847 9.87308 20.2847 9.87308C20.2847 9.87308 21.0295 8.55712 18.4615 9.10011C18.4615 9.10011 17.4411 8.77547 17.104 9.41643C16.7678 10.0574 16.9106 10.1446 15.9608 10.4086C15.0118 10.6726 15.7299 11.2422 15.7299 11.2422C15.7299 11.2422 16.0347 11.4414 15.6702 11.6556C15.3057 11.8698 15.1496 12.4925 15.3173 12.872C15.485 13.2514 15.9857 14.1016 16.3402 14.2635C16.6947 14.4254 17.7217 14.5507 17.9368 14.2925C18.1518 14.0343 18.3353 13.9945 18.6093 14.256C18.8833 14.5175 19.7949 14.3598 19.6919 14.6114C19.589 14.8629 19.1091 15.4167 19.4794 16.0925C19.8489 16.7684 20.1071 17.2939 19.677 17.6551C19.2469 18.0154 19.2685 18.4853 19.6546 18.8963C19.6546 18.8963 19.3524 19.7639 19.6322 20.1376C19.912 20.5112 19.8613 21.0151 19.7592 21.2675C19.6562 21.5199 19.765 21.3796 19.765 21.3796C19.765 21.3796 19.687 21.7682 19.8953 21.554C20.1037 21.3398 24.6851 17.3072 23.9155 10.7498L23.9163 10.7507Z" fill="#B0CAEE"/>
<path d="M18.7206 8.82521C19.3184 8.68905 19.6206 7.97669 19.6206 7.97669C19.6206 7.97669 20.2209 8.28554 20.455 7.89615C20.455 7.89615 20.7066 8.6218 21.0703 8.71811C21.0703 8.71811 20.7282 8.78038 20.7896 9.12244C20.8519 9.46451 21.854 9.29763 21.6365 8.64421C21.419 7.9908 20.4044 8.0896 21.0121 7.73176C21.6191 7.37475 21.8955 8.39181 21.9013 8.65999C21.9072 8.92733 21.683 9.56248 22.2061 9.32586C22.7291 9.09006 22.6179 8.31792 22.7823 8.71977C22.9466 9.12161 22.6386 9.5658 23.121 9.61313C23.6034 9.66045 23.7312 9.70113 23.7312 9.70113C23.7312 9.70113 22.9026 6.49218 21.1251 4.48047C21.1251 4.48047 21.1126 4.7229 20.6643 4.74781C20.2159 4.77272 19.9386 5.31073 20.2466 5.64366C20.5547 5.97659 21.0246 5.79975 21.0121 6.04302C20.9997 6.28545 20.915 6.40667 20.5605 6.24477C20.206 6.08287 19.9785 6.11691 19.888 6.43739C19.7975 6.75787 19.6513 7.00362 19.4023 6.87909C19.1532 6.75455 18.5679 6.95962 18.8477 7.48849C18.8477 7.48849 18.9813 7.95261 18.6642 7.83969C18.347 7.72761 17.5226 7.43121 17.4786 8.20252C17.4346 8.97466 18.1253 8.9622 18.7231 8.82604L18.7206 8.82521Z" fill="#B0CAEE"/>
<path d="M18.697 5.9103C18.9088 5.98502 18.8988 6.20587 18.756 6.27478C18.6132 6.34286 18.3326 6.59194 18.609 6.67579C18.8855 6.75965 19.5547 6.9008 19.5456 6.49895C19.5364 6.09711 19.2317 6.05393 19.2317 6.05393C19.2317 6.05393 18.927 5.69858 19.1479 5.3972C19.1479 5.3972 19.167 5.11076 18.834 5.10744C18.5011 5.10412 18.5102 5.66122 18.4413 5.67367C18.3732 5.68613 18.0644 5.66371 18.0644 5.66371C18.0644 5.66371 17.5604 5.92441 17.9673 6.33871C18.3749 6.75301 18.4845 5.83474 18.6962 5.90947L18.697 5.9103Z" fill="#B0CAEE"/>
</g>
</svg>
