<svg width="24" height="24" viewBox="0 0 24 24" fill="none" xmlns="http://www.w3.org/2000/svg">
<circle opacity="0.6" cx="12" cy="12" r="12" fill="#B0CAEE"/>
<path d="M11.9989 14.4993C13.3796 14.4993 14.4989 13.38 14.4989 11.9993C14.4989 10.6186 13.3796 9.49927 11.9989 9.49927C10.6182 9.49927 9.49893 10.6186 9.49893 11.9993C9.49893 13.38 10.6182 14.4993 11.9989 14.4993Z" stroke="#28EAE9" stroke-width="1.5" stroke-miterlimit="10"/>
<path d="M14.7478 6.24902H9.2478C7.59095 6.24902 6.2478 7.59217 6.2478 9.24902V14.749C6.2478 16.4059 7.59095 17.749 9.2478 17.749H14.7478C16.4047 17.749 17.7478 16.4059 17.7478 14.749V9.24902C17.7478 7.59217 16.4047 6.24902 14.7478 6.24902Z" stroke="#28EAE9" stroke-width="1.5" stroke-linecap="round" stroke-linejoin="round"/>
<path d="M15.2478 9.49927C15.662 9.49927 15.9978 9.16348 15.9978 8.74927C15.9978 8.33505 15.662 7.99927 15.2478 7.99927C14.8336 7.99927 14.4978 8.33505 14.4978 8.74927C14.4978 9.16348 14.8336 9.49927 15.2478 9.49927Z" fill="#28EAE9"/>
</svg>
