<svg width="24" height="24" viewBox="0 0 24 24" fill="none" xmlns="http://www.w3.org/2000/svg">
<circle opacity="0.6" cx="12" cy="12" r="12" fill="#B0CAEE"/>
<path d="M17 6.5H7C6.72386 6.5 6.5 6.72386 6.5 7V17C6.5 17.2761 6.72386 17.5 7 17.5H17C17.2761 17.5 17.5 17.2761 17.5 17V7C17.5 6.72386 17.2761 6.5 17 6.5Z" stroke="#28EAE9" stroke-width="1.5" stroke-linecap="round" stroke-linejoin="round"/>
<path d="M11.5 11V15" stroke="#28EAE9" stroke-width="1.5" stroke-linecap="round" stroke-linejoin="round"/>
<path d="M9.5 11V15" stroke="#28EAE9" stroke-width="1.5" stroke-linecap="round" stroke-linejoin="round"/>
<path d="M11.5 12.75C11.5 12.2859 11.6844 11.8408 12.0126 11.5126C12.3408 11.1844 12.7859 11 13.25 11C13.7141 11 14.1592 11.1844 14.4874 11.5126C14.8156 11.8408 15 12.2859 15 12.75V15" stroke="#28EAE9" stroke-width="1.5" stroke-linecap="round" stroke-linejoin="round"/>
<path d="M9.5 9.75C9.91421 9.75 10.25 9.41421 10.25 9C10.25 8.58579 9.91421 8.25 9.5 8.25C9.08579 8.25 8.75 8.58579 8.75 9C8.75 9.41421 9.08579 9.75 9.5 9.75Z" fill="#28EAE9"/>
</svg>
