<svg width="60" height="60" viewBox="0 0 60 60" fill="none" xmlns="http://www.w3.org/2000/svg">
<g clip-path="url(#clip0_7351_169442)">
<path d="M21.7368 42.4098L12.4096 42.4096L12.4096 34.5652L15.9428 28.2525L21.7369 28.2525L21.7368 42.4098Z" fill="#B0CAEE"/>
<path d="M46.9761 42.4104L37.6486 42.4103L37.6487 28.2536L43.452 28.2533L46.9761 34.5665L46.9761 42.4104Z" fill="#B0CAEE"/>
<path d="M28.4609 58.3984L28.4609 46.1364L30.9175 46.1364L30.9175 58.3984L28.4609 58.3984Z" fill="#D0BA41"/>
<path d="M29.6992 58.3965L29.6992 46.1344L30.9154 46.1344L30.9154 58.3965L29.6992 58.3965Z" fill="#D0BA41"/>
<path d="M33.4414 52.5742L33.4414 46.134L35.898 46.1341L35.898 52.5742L33.4414 52.5742Z" fill="#D0BA41"/>
<path d="M23.4805 52.5723L23.4805 46.1324L25.937 46.1324L25.937 52.5723L23.4805 52.5723Z" fill="#D0BA41"/>
<path d="M38.4759 39.4721L20.9325 39.4718L19.2916 42.4114L21.2923 47.3607L37.9731 47.3609L40.1166 42.4115L38.4759 39.4721Z" fill="#1260CC"/>
<path d="M29.7071 39.9374C29.7071 40.9445 29.7072 47.3378 29.7072 47.3595C30.4672 47.3594 37.5336 47.3594 37.9705 47.3594L40.114 42.41L38.4732 39.9374L29.7071 39.9374Z" fill="#1260CC"/>
<path d="M37.8474 12.4198C34.8912 4.7776 30.1975 0.905141 29.7044 0.310103C29.4478 0.694205 19.0175 9.3121 19.2862 25.1138L19.2861 42.411L40.111 42.4108L40.111 25.1146C40.1896 20.8412 39.4072 16.4518 37.8474 12.4198Z" fill="#6195DD"/>
<path d="M37.8504 12.4199C34.8942 4.77765 30.2005 0.905188 29.7074 0.310152C29.7071 0.310616 29.7062 0.311486 29.7059 0.312008L29.7059 42.411L40.114 42.4108L40.1141 25.1146C40.1926 20.8413 39.4102 16.4518 37.8504 12.4199Z" fill="#6195DD"/>
<path d="M29.702 28.2715C24.768 28.2715 22.1844 22.2576 25.7368 18.7007C29.2622 15.1701 35.3103 17.701 35.3103 22.6688C35.3102 25.7579 32.7945 28.2713 29.702 28.2715Z" fill="white"/>
<path d="M29.7059 17.0559L29.7058 28.2722C32.7964 28.2698 35.3101 25.7573 35.3103 22.6696C35.3104 19.3267 32.5716 17.0874 29.7059 17.0559Z" fill="white"/>
</g>
<defs>
<clipPath id="clip0_7351_169442">
<rect width="42" height="42" fill="white" transform="translate(0 30) rotate(-45)"/>
</clipPath>
</defs>
</svg>
