<svg width="16" height="16" viewBox="0 0 16 16" fill="none" xmlns="http://www.w3.org/2000/svg">
<path d="M14.9667 1.80213L10.539 14.5933C10.4973 14.7137 10.4186 14.8179 10.3142 14.891C10.2097 14.964 10.0848 15.0021 9.95738 14.9999C9.82993 14.9977 9.70645 14.9552 9.60458 14.8786C9.50271 14.802 9.42767 14.6952 9.39019 14.5733L7.61052 8.78942C7.58153 8.69519 7.52993 8.60949 7.46022 8.53978C7.39051 8.47007 7.30481 8.41847 7.21058 8.38948L1.42667 6.60981C1.30484 6.57233 1.19798 6.49729 1.12137 6.39542C1.04476 6.29355 1.00231 6.17007 1.00009 6.04263C0.99788 5.91518 1.03601 5.7903 1.10904 5.68583C1.18207 5.58137 1.28626 5.50266 1.40671 5.46097L14.1979 1.03325C14.3051 0.996148 14.4205 0.989955 14.5311 1.01538C14.6416 1.04081 14.7428 1.09682 14.823 1.17703C14.9032 1.25723 14.9592 1.35839 14.9846 1.46893C15.01 1.57947 15.0039 1.69494 14.9667 1.80213V1.80213Z" stroke="white" stroke-width="2" stroke-linecap="round" stroke-linejoin="round"/>
</svg>
