<svg width="24" height="24" viewBox="0 0 24 24" fill="none" xmlns="http://www.w3.org/2000/svg">
<circle opacity="0.6" cx="12" cy="12" r="12" fill="#B0CAEE"/>
<path d="M8.49943 12.4304L14.1193 17.3758C14.1843 17.433 14.2631 17.4724 14.3479 17.49C14.4327 17.5076 14.5206 17.5029 14.603 17.4763C14.6855 17.4498 14.7596 17.4022 14.8181 17.3384C14.8766 17.2745 14.9176 17.1966 14.9369 17.1122L17.2878 6.85387C17.3081 6.76518 17.3039 6.67262 17.2755 6.58617C17.2471 6.49972 17.1956 6.42266 17.1267 6.36329C17.0577 6.30392 16.9739 6.26449 16.8842 6.24925C16.7945 6.23401 16.7023 6.24354 16.6176 6.27681L5.0828 10.8083C4.98227 10.8478 4.89723 10.9188 4.84041 11.0107C4.78359 11.1025 4.75804 11.2103 4.76758 11.3179C4.77712 11.4255 4.82125 11.5271 4.89335 11.6075C4.96545 11.6879 5.06166 11.7428 5.16757 11.764L8.49943 12.4304Z" stroke="#28EAE9" stroke-width="1.5" stroke-linecap="round" stroke-linejoin="round"/>
<path d="M8.5 12.4291L17.007 6.28516" stroke="#28EAE9" stroke-width="1.5" stroke-linecap="round" stroke-linejoin="round"/>
<path d="M11.3067 14.8996L9.35355 16.8527C9.28363 16.9226 9.19454 16.9703 9.09755 16.9896C9.00056 17.0088 8.90002 16.9989 8.80866 16.9611C8.7173 16.9233 8.63921 16.8592 8.58427 16.7769C8.52933 16.6947 8.5 16.5981 8.5 16.4992V12.4297" stroke="#28EAE9" stroke-width="1.5" stroke-linecap="round" stroke-linejoin="round"/>
</svg>
