<svg width="24" height="24" viewBox="0 0 24 24" fill="none" xmlns="http://www.w3.org/2000/svg">
<circle opacity="0.6" cx="12" cy="12" r="12" fill="#B0CAEE"/>
<path d="M6.99759 16.499C6.99759 16.499 9.49759 15.999 9.99759 14.499C9.99759 14.499 5.99759 12.999 6.99759 7.49903C6.99759 7.49903 8.99759 9.99903 11.9976 10.499V9.49921C11.9976 8.92481 12.1955 8.36794 12.5578 7.92223C12.9201 7.47651 13.4248 7.16914 13.9871 7.05178C14.5494 6.93441 15.1349 7.01422 15.6453 7.27778C16.1557 7.54134 16.5597 7.97258 16.7896 8.499L18.9976 8.49903L16.9976 10.499C16.9976 13.999 14.4976 17.499 9.99759 17.499C7.99759 17.499 6.99759 16.499 6.99759 16.499Z" stroke="#28EAE9" stroke-width="1.5" stroke-linecap="round" stroke-linejoin="round"/>
</svg>
