<svg width="24" height="24" viewBox="0 0 24 24" fill="none" xmlns="http://www.w3.org/2000/svg">
<circle opacity="0.6" cx="12" cy="12" r="12" fill="#B0CAEE"/>
<path d="M14.4286 12.1431L11 9.85742V14.4289L14.4286 12.1431Z" stroke="#28EAE9" stroke-width="1.5" stroke-linecap="round" stroke-linejoin="round"/>
<path d="M4.71484 12.1423C4.71484 14.2677 4.93443 15.5147 5.10135 16.1556C5.14597 16.3307 5.23166 16.4925 5.35131 16.6279C5.47097 16.7632 5.62115 16.8681 5.78941 16.9338C8.18062 17.8527 12.1434 17.8275 12.1434 17.8275C12.1434 17.8275 16.1062 17.8527 18.4974 16.9338C18.6657 16.8681 18.8158 16.7632 18.9355 16.6279C19.0552 16.4926 19.1408 16.3307 19.1855 16.1556C19.3524 15.5147 19.572 14.2677 19.572 12.1423C19.572 10.0169 19.3524 8.76986 19.1855 8.12895C19.1409 7.95391 19.0552 7.79202 18.9355 7.65669C18.8159 7.52136 18.6657 7.4165 18.4974 7.35078C16.1062 6.43187 12.1434 6.4571 12.1434 6.4571C12.1434 6.4571 8.18066 6.43187 5.78943 7.35077C5.62117 7.41649 5.47099 7.52135 5.35133 7.65668C5.23168 7.792 5.14599 7.95389 5.10137 8.12893C4.93443 8.76985 4.71484 10.0169 4.71484 12.1423Z" stroke="#28EAE9" stroke-width="1.5" stroke-linecap="round" stroke-linejoin="round"/>
</svg>
