<svg width="187" height="36" viewBox="0 0 187 36" fill="none" xmlns="http://www.w3.org/2000/svg">
<path d="M164.442 18.0982C163.469 17.4641 162.408 17.0049 161.403 16.4365C160.747 16.0757 160.047 15.7477 159.478 15.2776C158.516 14.4905 158.713 12.9271 159.719 12.2493C161.173 11.2873 163.567 11.8229 163.83 13.7908C163.83 13.8345 163.873 13.8673 163.917 13.8673H166.103C166.158 13.8673 166.202 13.8236 166.18 13.758C166.161 13.139 166.008 12.5315 165.733 11.9768C165.457 11.4221 165.065 10.9334 164.584 10.5438C163.694 9.85766 162.603 9.48484 161.479 9.4834C155.707 9.4834 155.171 15.5947 158.287 17.5188C158.648 17.7374 161.698 19.268 162.769 19.9348C163.862 20.6017 164.19 21.8262 163.731 22.7773C163.294 23.6628 162.201 24.275 161.085 24.1985C159.883 24.1329 158.943 23.477 158.615 22.4602C158.56 22.2744 158.527 21.9136 158.527 21.7715C158.525 21.7491 158.515 21.7282 158.499 21.7123C158.483 21.6964 158.462 21.6864 158.44 21.684H156.067C156.035 21.684 155.991 21.7278 155.991 21.7715C155.991 23.477 156.417 24.4281 157.576 25.2918C158.669 26.1117 159.872 26.4615 161.096 26.4615C164.343 26.4615 166.016 24.6249 166.344 22.7336C166.65 20.875 166.103 19.2024 164.442 18.0982ZM61.4578 9.80044H59.2495C59.2332 9.80244 59.2176 9.80849 59.2043 9.81804C59.1909 9.82758 59.1801 9.84033 59.173 9.8551L57.227 16.2615C57.227 16.2847 57.2178 16.307 57.2014 16.3234C57.185 16.3398 57.1627 16.349 57.1395 16.349C57.1163 16.349 57.0941 16.3398 57.0777 16.3234C57.0613 16.307 57.052 16.2847 57.052 16.2615L55.1061 9.8551C55.0951 9.81137 55.0623 9.80044 55.0186 9.80044H51.4C51.3562 9.80044 51.3125 9.84417 51.3125 9.87697V26.232C51.3125 26.2757 51.3562 26.3194 51.4 26.3194H53.7723C53.816 26.3194 53.8598 26.2757 53.8598 26.232V13.7908C53.8598 13.6924 54.0019 13.6815 54.0238 13.7689L55.9916 20.2191L56.1337 20.6564C56.1337 20.7111 56.1665 20.722 56.2102 20.722H58.036C58.0797 20.722 58.1016 20.6892 58.1125 20.6673L58.2546 20.2082L60.2225 13.758C60.2443 13.6705 60.3865 13.6924 60.3865 13.7908V26.221C60.3865 26.2647 60.4302 26.3085 60.4739 26.3085H62.8463C62.89 26.3085 62.9337 26.2647 62.9337 26.221V9.87697C62.9337 9.84417 62.89 9.80044 62.8463 9.80044H61.4578ZM128.124 9.80044C128.106 9.80057 128.088 9.80574 128.073 9.81539C128.057 9.82504 128.045 9.83879 128.037 9.8551L126.091 16.2615C126.091 16.2847 126.081 16.307 126.065 16.3234C126.049 16.3398 126.026 16.349 126.003 16.349C125.98 16.349 125.958 16.3398 125.941 16.3234C125.925 16.307 125.916 16.2847 125.916 16.2615L123.97 9.8551C123.97 9.81137 123.937 9.80044 123.893 9.80044H120.285C120.242 9.80044 120.198 9.84417 120.198 9.87697V26.232C120.198 26.2757 120.242 26.3194 120.285 26.3194H122.658C122.691 26.3194 122.734 26.2757 122.734 26.232V13.7908C122.734 13.6924 122.876 13.6815 122.909 13.7689L124.877 20.2191L125.008 20.6564C125.03 20.7111 125.052 20.722 125.096 20.722H126.911C126.929 20.7208 126.946 20.7151 126.961 20.7056C126.976 20.6961 126.989 20.6829 126.998 20.6673L127.14 20.2082L129.108 13.758C129.13 13.6705 129.272 13.6924 129.272 13.7908V26.221C129.272 26.2647 129.316 26.3085 129.359 26.3085H131.732C131.776 26.3085 131.819 26.2647 131.819 26.221V9.87697C131.819 9.84417 131.776 9.80044 131.732 9.80044H128.124ZM97.5241 9.80044H86.3183C86.2855 9.80044 86.2418 9.84417 86.2418 9.87697V11.9323C86.2418 11.976 86.2855 12.0197 86.3183 12.0197H90.6585V26.232C90.6585 26.2866 90.7022 26.3303 90.735 26.3303H93.1074C93.1511 26.3303 93.1948 26.2866 93.1948 26.2429V12.0088H97.5241C97.5678 12.0088 97.6115 11.9651 97.6115 11.9213V9.87697C97.6115 9.84417 97.5897 9.80044 97.5241 9.80044ZM111.518 26.3194H113.682C113.737 26.3194 113.781 26.2538 113.759 26.2101L109.298 9.80044C109.298 9.75671 109.266 9.73484 109.222 9.73484H106.106C106.089 9.73786 106.072 9.74555 106.059 9.7571C106.045 9.76865 106.035 9.78362 106.03 9.80044L101.569 26.1992C101.547 26.2538 101.591 26.3085 101.646 26.3085H103.81C103.854 26.3085 103.876 26.2866 103.898 26.2538L105.188 21.4873C105.199 21.4435 105.231 21.4326 105.275 21.4326H110.042C110.085 21.4326 110.118 21.4545 110.129 21.4873L111.419 26.2538C111.441 26.2866 111.485 26.3194 111.507 26.3194H111.518ZM105.855 19.093L107.582 12.6975C107.582 12.6744 107.591 12.6521 107.608 12.6357C107.624 12.6193 107.646 12.6101 107.669 12.6101C107.693 12.6101 107.715 12.6193 107.731 12.6357C107.748 12.6521 107.757 12.6744 107.757 12.6975L109.484 19.093C109.506 19.1477 109.462 19.2024 109.408 19.2024H105.942C105.876 19.2024 105.833 19.1477 105.855 19.093ZM148.327 26.3194H150.492C150.547 26.3194 150.59 26.2538 150.579 26.2101L146.119 9.78951C146.097 9.74578 146.075 9.72391 146.031 9.72391H142.938C142.918 9.72497 142.899 9.73177 142.884 9.74345C142.868 9.75512 142.857 9.77115 142.85 9.78951L138.39 26.1882C138.379 26.2429 138.422 26.2975 138.477 26.2975H140.631C140.675 26.2975 140.707 26.2757 140.718 26.2429L142.008 21.4763C142.03 21.4326 142.052 21.4217 142.096 21.4217H146.873C146.906 21.4217 146.939 21.4435 146.95 21.4763L148.251 26.2429C148.251 26.2757 148.294 26.3085 148.327 26.3085V26.3194ZM142.664 19.093L144.403 12.6975C144.409 12.6808 144.42 12.6664 144.435 12.6562C144.449 12.646 144.467 12.6405 144.485 12.6405C144.502 12.6405 144.52 12.646 144.534 12.6562C144.549 12.6664 144.56 12.6808 144.567 12.6975L146.305 19.093C146.305 19.1477 146.272 19.2024 146.217 19.2024H142.752C142.697 19.2024 142.642 19.1477 142.664 19.093ZM72.5652 23.8924V18.8197C72.5652 18.776 72.598 18.7323 72.6418 18.7323H78.9607C79.0045 18.7323 79.0482 18.6885 79.0482 18.6557V16.6114C79.0458 16.589 79.0358 16.5681 79.0199 16.5522C79.004 16.5363 78.9831 16.5263 78.9607 16.5239H72.6527C72.609 16.5239 72.5762 16.4802 72.5762 16.4365V12.1072C72.5762 12.0635 72.609 12.0197 72.6527 12.0197H79.8463C79.89 12.0197 79.9337 11.976 79.9337 11.9323V9.89883C79.9313 9.87645 79.9214 9.85556 79.9055 9.83964C79.8895 9.82373 79.8686 9.81375 79.8463 9.81137H70.1164C70.094 9.81375 70.0731 9.82373 70.0572 9.83964C70.0413 9.85556 70.0313 9.87645 70.0289 9.89883V26.232C70.0289 26.2757 70.0726 26.3194 70.1164 26.3194H80.1414C80.1852 26.3194 80.2289 26.2757 80.2289 26.232V24.0673C80.2265 24.0449 80.2165 24.024 80.2006 24.0081C80.1847 23.9922 80.1638 23.9822 80.1414 23.9799H72.6418C72.598 23.9689 72.5762 23.9361 72.5762 23.8815L72.5652 23.8924ZM186.11 26.1773L177.911 17.7156C177.898 17.7 177.891 17.6808 177.891 17.6609C177.891 17.641 177.898 17.6217 177.911 17.6062L185.29 9.95349C185.309 9.9448 185.323 9.92897 185.331 9.90949C185.338 9.89001 185.337 9.86848 185.328 9.84964C185.32 9.83079 185.304 9.81617 185.284 9.80899C185.265 9.80182 185.243 9.80267 185.224 9.81137H182.207C182.174 9.81137 182.163 9.82231 182.152 9.84417L175.888 16.3271C175.876 16.337 175.862 16.3435 175.846 16.346C175.831 16.3484 175.816 16.3468 175.801 16.3413C175.787 16.3357 175.774 16.3264 175.764 16.3143C175.755 16.3022 175.748 16.2878 175.746 16.2725V9.89883C175.744 9.87645 175.734 9.85556 175.718 9.83964C175.702 9.82373 175.681 9.81375 175.658 9.81137H173.286C173.264 9.81375 173.243 9.82373 173.227 9.83964C173.211 9.85556 173.201 9.87645 173.199 9.89883V26.2429C173.199 26.2866 173.242 26.3303 173.286 26.3303H175.658C175.702 26.3303 175.746 26.2866 175.746 26.2429V19.0493C175.746 18.9728 175.844 18.94 175.888 18.9947L182.994 26.2975C183.006 26.312 183.021 26.3233 183.038 26.3303H186.066C186.121 26.3194 186.176 26.221 186.11 26.1773Z" fill="#0C4088"/>
<path d="M35.1133 1L20.748 11.6264L23.4265 5.36206L35.1133 1Z" fill="#0C4088" stroke="white" stroke-width="0.25" stroke-linecap="round" stroke-linejoin="round"/>
<path d="M1.98641 1L16.2205 11.7138L13.6732 5.37299L1.98641 1ZM29.9408 25.6309L26.1144 31.4688L34.3028 33.7209L36.6424 25.7621L29.9408 25.6309ZM0.466797 25.7621L2.79541 33.7209L10.962 31.4688L7.15747 25.6309L0.466797 25.7621Z" fill="#0C4088" stroke="white" stroke-width="0.25" stroke-linecap="round" stroke-linejoin="round"/>
<path d="M10.5259 15.77L8.25195 19.2028L16.342 19.5745L16.0796 10.8613L10.5259 15.7809V15.77ZM26.5748 15.7809L20.9336 10.752L20.7478 19.5745L28.8378 19.2028L26.5748 15.7809ZM10.9632 31.469L15.8719 29.1076L11.652 25.8278L10.9632 31.469ZM21.2397 29.0966L26.1156 31.469L25.4597 25.8169L21.2397 29.0966Z" fill="#0C4088" stroke="white" stroke-width="0.25" stroke-linecap="round" stroke-linejoin="round"/>
<path d="M26.1133 31.4688L21.2375 29.1074L21.631 32.2778L21.5873 33.6225L26.1133 31.4688ZM10.9609 31.4688L15.5088 33.6225L15.4761 32.2778L15.8696 29.1074L10.9609 31.4688Z" fill="#0C4088" stroke="white" stroke-width="0.25" stroke-linecap="round" stroke-linejoin="round"/>
<path d="M15.588 23.7179L11.543 22.5372L14.4073 21.2253L15.5989 23.7179H15.588ZM21.5025 23.7179L22.705 21.2144L25.5803 22.5263L21.5025 23.7288V23.7179Z" fill="#0C4088" stroke="white" stroke-width="0.25" stroke-linecap="round" stroke-linejoin="round"/>
<path d="M10.9627 31.4687L11.6733 25.6308L7.1582 25.762L10.9627 31.4687ZM25.4264 25.6308L26.1151 31.4687L29.9415 25.762L25.4264 25.6308ZM28.8482 19.2025L20.7582 19.5742L21.5016 23.7285L22.7042 21.214L25.5794 22.5259L28.8482 19.2025ZM11.5421 22.5369L14.4064 21.225L15.5981 23.7176L16.3524 19.5632L8.26238 19.2025L11.5421 22.5369Z" fill="#0C4088" stroke="white" stroke-width="0.25" stroke-linecap="round" stroke-linejoin="round"/>
<path d="M8.26172 19.2026L11.6508 25.8168L11.5415 22.537L8.26172 19.2026ZM25.5788 22.537L25.4476 25.8168L28.8366 19.2026L25.5788 22.537ZM16.3518 19.5743L15.5865 23.7287L16.5485 28.6264L16.7672 22.1653L16.3518 19.5743ZM20.7466 19.5743L20.353 22.1544L20.5498 28.6264L21.5009 23.7178L20.7466 19.5634V19.5743Z" fill="#0C4088" stroke="white" stroke-width="0.25" stroke-linecap="round" stroke-linejoin="round"/>
<path d="M21.5017 23.7179L20.5505 28.6266L21.2393 29.1076L25.4483 25.8279L25.5795 22.5372L21.5017 23.7179ZM11.5422 22.5372L11.6515 25.8169L15.8714 29.0967L16.5493 28.6266L15.5981 23.7179L11.5312 22.5372H11.5422Z" fill="#0C4088" stroke="white" stroke-width="0.25" stroke-linecap="round" stroke-linejoin="round"/>
<path d="M21.5982 33.6224L21.631 32.2778L21.2593 31.9716H15.8368L15.4761 32.2778L15.5088 33.6224L10.9609 31.4688L12.5571 32.7806L15.7822 34.9999H21.3031L24.5391 32.7697L26.1133 31.4688L21.5873 33.6224H21.5982Z" fill="#0C4088" stroke="white" stroke-width="0.25" stroke-linecap="round" stroke-linejoin="round"/>
<path d="M21.238 29.0966L20.5492 28.6265H16.5479L15.8701 29.1075L15.4766 32.2779L15.8373 31.9718H21.2598L21.6315 32.2779L21.238 29.1075V29.0966Z" fill="#0C4088" stroke="white" stroke-width="0.25" stroke-linecap="round" stroke-linejoin="round"/>
<path d="M35.7243 12.3151L36.9269 6.46624L35.1121 1L21.2278 11.2765L26.5738 15.7698L34.1172 17.9672L35.7789 16.0322L35.0574 15.5074L36.2053 14.4579L35.3307 13.7801L36.4786 12.9055L35.7134 12.3151H35.7243ZM0.171875 6.45531L1.39631 12.3151L0.609174 12.8945L1.77895 13.7691L0.904351 14.4579L2.04133 15.5074L1.31978 16.0322L2.98152 17.9672L10.5249 15.7807L15.8709 11.2656L1.98667 1L0.171875 6.45531Z" fill="#0C4088" stroke="white" stroke-width="0.25" stroke-linecap="round" stroke-linejoin="round"/>
<path d="M34.117 17.9675L26.5735 15.781L28.8475 19.2028L25.4584 25.817L29.9408 25.7623H36.6424L34.117 17.9675ZM10.5247 15.77L2.98127 17.9675L0.466797 25.7623H7.16841L11.6507 25.817L8.26165 19.2028L10.5356 15.77H10.5247ZM20.7465 19.5745L21.2385 11.2658L23.425 5.3623H13.6732L15.8597 11.2658L16.3517 19.5745L16.5375 22.1765V28.6266H20.5498L20.5716 22.1765L20.7465 19.5745Z" fill="#0C4088" stroke="white" stroke-width="0.25" stroke-linecap="round" stroke-linejoin="round"/>
</svg>
