<svg width="249" height="98" viewBox="0 0 249 98" fill="none" xmlns="http://www.w3.org/2000/svg">
<g filter="url(#filter0_d_9759_21938)">
<path d="M196.27 49.0992C195.297 48.4651 194.236 48.0059 193.231 47.4374C192.575 47.0767 191.875 46.7487 191.307 46.2786C190.344 45.4914 190.541 43.9281 191.547 43.2503C193.001 42.2882 195.395 42.8239 195.658 44.7918C195.658 44.8355 195.701 44.8683 195.745 44.8683H197.932C197.986 44.8683 198.03 44.8246 198.008 44.759C197.989 44.14 197.836 43.5324 197.561 42.9778C197.285 42.4231 196.893 41.9343 196.412 41.5448C195.522 40.8586 194.431 40.4858 193.307 40.4844C187.535 40.4844 186.999 46.5956 190.115 48.5197C190.476 48.7384 193.526 50.2689 194.597 50.9358C195.69 51.6027 196.018 52.8271 195.559 53.7783C195.122 54.6638 194.029 55.276 192.914 55.1995C191.711 55.1339 190.771 54.4779 190.443 53.4612C190.388 53.2754 190.355 52.9146 190.355 52.7725C190.353 52.7501 190.343 52.7292 190.327 52.7133C190.311 52.6974 190.29 52.6874 190.268 52.685H187.896C187.863 52.685 187.819 52.7287 187.819 52.7725C187.819 54.4779 188.245 55.4291 189.404 56.2927C190.498 57.1127 191.7 57.4625 192.925 57.4625C196.171 57.4625 197.844 55.6259 198.172 53.7345C198.478 51.876 197.932 50.2033 196.27 49.0992ZM93.286 40.8014H91.0776C91.0613 40.8034 91.0458 40.8095 91.0324 40.819C91.019 40.8286 91.0083 40.8413 91.0011 40.8561L89.0551 47.2625C89.0551 47.2857 89.0459 47.308 89.0295 47.3244C89.0131 47.3408 88.9908 47.35 88.9676 47.35C88.9444 47.35 88.9222 47.3408 88.9058 47.3244C88.8894 47.308 88.8802 47.2857 88.8802 47.2625L86.9342 40.8561C86.9233 40.8123 86.8905 40.8014 86.8467 40.8014H83.2281C83.1844 40.8014 83.1406 40.8451 83.1406 40.8779V57.2329C83.1406 57.2767 83.1844 57.3204 83.2281 57.3204H85.6004C85.6442 57.3204 85.6879 57.2767 85.6879 57.2329V44.7918C85.6879 44.6934 85.83 44.6824 85.8519 44.7699L87.8197 51.2201L87.9618 51.6574C87.9618 51.712 87.9946 51.723 88.0384 51.723H89.8641C89.9078 51.723 89.9297 51.6902 89.9406 51.6683L90.0827 51.2091L92.0506 44.759C92.0725 44.6715 92.2146 44.6934 92.2146 44.7918V57.222C92.2146 57.2657 92.2583 57.3095 92.302 57.3095H94.6744C94.7181 57.3095 94.7618 57.2657 94.7618 57.222V40.8779C94.7618 40.8451 94.7181 40.8014 94.6744 40.8014H93.286V40.8014ZM159.952 40.8014C159.934 40.8015 159.916 40.8067 159.901 40.8164C159.885 40.826 159.873 40.8398 159.865 40.8561L157.919 47.2625C157.919 47.2857 157.91 47.308 157.893 47.3244C157.877 47.3408 157.854 47.35 157.831 47.35C157.808 47.35 157.786 47.3408 157.769 47.3244C157.753 47.308 157.744 47.2857 157.744 47.2625L155.798 40.8561C155.798 40.8123 155.765 40.8014 155.721 40.8014H152.114C152.07 40.8014 152.026 40.8451 152.026 40.8779V57.2329C152.026 57.2767 152.07 57.3204 152.114 57.3204H154.486C154.519 57.3204 154.562 57.2767 154.562 57.2329V44.7918C154.562 44.6934 154.705 44.6824 154.737 44.7699L156.705 51.2201L156.836 51.6574C156.858 51.712 156.88 51.723 156.924 51.723H158.739C158.757 51.7218 158.774 51.7161 158.789 51.7066C158.805 51.6971 158.817 51.6839 158.826 51.6683L158.968 51.2091L160.936 44.759C160.958 44.6715 161.1 44.6934 161.1 44.7918V57.222C161.1 57.2657 161.144 57.3095 161.188 57.3095H163.56C163.604 57.3095 163.647 57.2657 163.647 57.222V40.8779C163.647 40.8451 163.604 40.8014 163.56 40.8014H159.952V40.8014ZM129.352 40.8014H118.146C118.114 40.8014 118.07 40.8451 118.07 40.8779V42.9332C118.07 42.977 118.114 43.0207 118.146 43.0207H122.487V57.2329C122.487 57.2876 122.53 57.3313 122.563 57.3313H124.935C124.979 57.3313 125.023 57.2876 125.023 57.2439V43.0098H129.352C129.396 43.0098 129.44 42.966 129.44 42.9223V40.8779C129.44 40.8451 129.418 40.8014 129.352 40.8014V40.8014ZM143.346 57.3204H145.51C145.565 57.3204 145.609 57.2548 145.587 57.2111L141.126 40.8014C141.126 40.7577 141.094 40.7358 141.05 40.7358H137.934C137.917 40.7388 137.9 40.7465 137.887 40.7581C137.873 40.7696 137.863 40.7846 137.858 40.8014L133.397 57.2001C133.375 57.2548 133.419 57.3095 133.474 57.3095H135.638C135.682 57.3095 135.704 57.2876 135.726 57.2548L137.016 52.4882C137.027 52.4445 137.06 52.4336 137.103 52.4336H141.87C141.914 52.4336 141.946 52.4554 141.957 52.4882L143.247 57.2548C143.269 57.2876 143.313 57.3204 143.335 57.3204H143.346ZM137.683 50.094L139.41 43.6985C139.41 43.6753 139.419 43.6531 139.436 43.6367C139.452 43.6203 139.474 43.6111 139.498 43.6111C139.521 43.6111 139.543 43.6203 139.559 43.6367C139.576 43.6531 139.585 43.6753 139.585 43.6985L141.312 50.094C141.334 50.1487 141.29 50.2033 141.236 50.2033H137.77C137.705 50.2033 137.661 50.1487 137.683 50.094ZM180.155 57.3204H182.32C182.375 57.3204 182.418 57.2548 182.408 57.2111L177.947 40.7905C177.925 40.7468 177.903 40.7249 177.86 40.7249H174.766C174.746 40.7259 174.728 40.7327 174.712 40.7444C174.696 40.7561 174.685 40.7721 174.678 40.7905L170.218 57.1892C170.207 57.2439 170.251 57.2985 170.305 57.2985H172.459C172.503 57.2985 172.535 57.2767 172.546 57.2439L173.836 52.4773C173.858 52.4336 173.88 52.4226 173.924 52.4226H178.701C178.734 52.4226 178.767 52.4445 178.778 52.4773L180.079 57.2439C180.079 57.2767 180.123 57.3095 180.155 57.3095V57.3204ZM174.492 50.094L176.231 43.6985C176.237 43.6818 176.248 43.6673 176.263 43.6572C176.277 43.647 176.295 43.6415 176.313 43.6415C176.331 43.6415 176.348 43.647 176.363 43.6572C176.377 43.6673 176.388 43.6818 176.395 43.6985L178.133 50.094C178.133 50.1487 178.1 50.2033 178.045 50.2033H174.58C174.525 50.2033 174.471 50.1487 174.492 50.094ZM104.393 54.8934V49.8207C104.393 49.777 104.426 49.7332 104.47 49.7332H110.789C110.833 49.7332 110.876 49.6895 110.876 49.6567V47.6123C110.874 47.59 110.864 47.5691 110.848 47.5532C110.832 47.5372 110.811 47.5273 110.789 47.5249H104.481C104.437 47.5249 104.404 47.4812 104.404 47.4374V43.1082C104.404 43.0644 104.437 43.0207 104.481 43.0207H111.674C111.718 43.0207 111.762 42.977 111.762 42.9332V40.8998C111.759 40.8774 111.749 40.8565 111.734 40.8406C111.718 40.8247 111.697 40.8147 111.674 40.8123H101.944C101.922 40.8147 101.901 40.8247 101.885 40.8406C101.869 40.8565 101.859 40.8774 101.857 40.8998V57.2329C101.857 57.2767 101.901 57.3204 101.944 57.3204H111.97C112.013 57.3204 112.057 57.2767 112.057 57.2329V55.0683C112.055 55.0459 112.045 55.025 112.029 55.0091C112.013 54.9932 111.992 54.9832 111.97 54.9808H104.47C104.426 54.9699 104.404 54.9371 104.404 54.8824L104.393 54.8934ZM217.938 57.1783L209.739 48.7165C209.726 48.701 209.72 48.6817 209.72 48.6619C209.72 48.642 209.726 48.6227 209.739 48.6072L217.118 40.9545C217.137 40.9458 217.152 40.9299 217.159 40.9105C217.166 40.891 217.165 40.8695 217.156 40.8506C217.148 40.8318 217.132 40.8171 217.112 40.81C217.093 40.8028 217.071 40.8037 217.053 40.8123H214.035C214.002 40.8123 213.991 40.8233 213.98 40.8451L207.716 47.3281C207.704 47.338 207.69 47.3444 207.675 47.3469C207.659 47.3494 207.644 47.3478 207.629 47.3422C207.615 47.3367 207.602 47.3274 207.592 47.3153C207.583 47.3032 207.576 47.2888 207.574 47.2734V40.8998C207.572 40.8774 207.562 40.8565 207.546 40.8406C207.53 40.8247 207.509 40.8147 207.487 40.8123H205.114C205.092 40.8147 205.071 40.8247 205.055 40.8406C205.039 40.8565 205.029 40.8774 205.027 40.8998V57.2439C205.027 57.2876 205.071 57.3313 205.114 57.3313H207.487C207.53 57.3313 207.574 57.2876 207.574 57.2439V50.0503C207.574 49.9738 207.672 49.941 207.716 49.9956L214.822 57.2985C214.834 57.313 214.849 57.3243 214.866 57.3313H217.894C217.949 57.3204 218.004 57.222 217.938 57.1783V57.1783Z" fill="#28EAE9"/>
<path d="M66.9434 32L52.5781 42.6264L55.2566 36.3621L66.9434 32Z" fill="#28EAE9" stroke="#0C4088" stroke-width="0.45" stroke-linecap="round" stroke-linejoin="round"/>
<path d="M33.8165 32L48.0506 42.7138L45.5033 36.373L33.8165 32ZM61.7708 56.6309L57.9445 62.4688L66.1329 64.7209L68.4724 56.7621L61.7708 56.6309V56.6309ZM32.2969 56.7621L34.6255 64.7209L42.7921 62.4688L38.9876 56.6309L32.2969 56.7621V56.7621Z" fill="#28EAE9" stroke="#0C4088" stroke-width="0.45" stroke-linecap="round" stroke-linejoin="round"/>
<path d="M42.3521 46.77L40.0781 50.2028L48.1682 50.5745L47.9058 41.8613L42.3521 46.7809V46.77ZM58.401 46.7809L52.7598 41.752L52.5739 50.5745L60.664 50.2028L58.401 46.7809V46.7809ZM42.7894 62.469L47.6981 60.1076L43.4781 56.8278L42.7894 62.469ZM53.0659 60.0966L57.9418 62.469L57.2858 56.8169L53.0659 60.0966Z" fill="#28EAE9" stroke="#0C4088" stroke-width="0.45" stroke-linecap="round" stroke-linejoin="round"/>
<path d="M57.9415 62.4688L53.0656 60.1074L53.4592 63.2778L53.4154 64.6225L57.9415 62.4688ZM42.7891 62.4688L47.337 64.6225L47.3042 63.2778L47.6977 60.1074L42.7891 62.4688Z" fill="#28EAE9" stroke="#0C4088" stroke-width="0.45" stroke-linecap="round" stroke-linejoin="round"/>
<path d="M47.4161 54.7184L43.3711 53.5377L46.2354 52.2258L47.427 54.7184H47.4161ZM53.3306 54.7184L54.5332 52.2148L57.4084 53.5267L53.3306 54.7293V54.7184Z" fill="#28EAE9" stroke="#28EAE9" stroke-width="0.45" stroke-linecap="round" stroke-linejoin="round"/>
<path d="M42.7928 62.4694L43.5034 56.6314L38.9883 56.7626L42.7928 62.4694ZM57.2565 56.6314L57.9452 62.4694L61.7716 56.7626L57.2565 56.6314ZM60.6783 50.2031L52.5883 50.5748L53.3317 54.7292L54.5343 52.2147L57.4095 53.5266L60.6783 50.2031V50.2031ZM43.3722 53.5375L46.2365 52.2256L47.4282 54.7182L48.1825 50.5639L40.0925 50.2031L43.3722 53.5375V53.5375Z" fill="#28EAE9" stroke="#0C4088" stroke-width="0.45" stroke-linecap="round" stroke-linejoin="round"/>
<path d="M40.0898 50.2031L43.4789 56.8173L43.3696 53.5375L40.0898 50.2031ZM57.4069 53.5375L57.2757 56.8173L60.6648 50.2031L57.4069 53.5375ZM48.1799 50.5748L47.4146 54.7292L48.3767 59.6269L48.5953 53.1658L48.1799 50.5748ZM52.5747 50.5748L52.1812 53.1549L52.3779 59.6269L53.3291 54.7182L52.5747 50.5639V50.5748Z" fill="#28EAE9" stroke="#0C4088" stroke-width="0.45" stroke-linecap="round" stroke-linejoin="round"/>
<path d="M53.3298 54.7178L52.3787 59.6265L53.0674 60.1075L57.2764 56.8278L57.4076 53.5371L53.3298 54.7178ZM43.3703 53.5371L43.4796 56.8169L47.6996 60.0966L48.3774 59.6265L47.4263 54.7178L43.3594 53.5371H43.3703Z" fill="#28EAE9" stroke="#0C4088" stroke-width="0.45" stroke-linecap="round" stroke-linejoin="round"/>
<path d="M53.4264 64.6224L53.4592 63.2778L53.0875 62.9716H47.6649L47.3042 63.2778L47.337 64.6224L42.7891 62.4688L44.3852 63.7806L47.6103 65.9999H53.1312L56.3672 63.7697L57.9415 62.4688L53.4154 64.6224H53.4264Z" fill="#28EAE9" stroke="#0C4088" stroke-width="0.45" stroke-linecap="round" stroke-linejoin="round"/>
<path d="M53.0661 60.097L52.3774 59.627H48.3761L47.6983 60.108L47.3047 63.2784L47.6655 62.9723H53.088L53.4597 63.2784L53.0661 60.108V60.097Z" fill="#28EAE9" stroke="#0C4088" stroke-width="0.45" stroke-linecap="round" stroke-linejoin="round"/>
<path d="M67.5524 43.3151L68.755 37.4662L66.9402 32L53.056 42.2765L58.4019 46.7698L65.9453 48.9672L67.6071 47.0322L66.8855 46.5074L68.0334 45.4579L67.1588 44.7801L68.3068 43.9055L67.5415 43.3151H67.5524ZM32 37.4553L33.2244 43.3151L32.4373 43.8945L33.6071 44.7691L32.7325 45.4579L33.8695 46.5074L33.1479 47.0322L34.8096 48.9672L42.3531 46.7807L47.699 42.2656L33.8148 32L32 37.4553Z" fill="#28EAE9" stroke="#0C4088" stroke-width="0.45" stroke-linecap="round" stroke-linejoin="round"/>
<path d="M65.947 48.9684L58.4036 46.7819L60.6776 50.2038L57.2885 56.8179L61.7708 56.7633H68.4724L65.947 48.9684ZM42.3548 46.771L34.8113 48.9684L32.2969 56.7633H38.9985L43.4808 56.8179L40.0917 50.2038L42.3657 46.771H42.3548ZM52.5766 50.5755L53.0686 42.2668L55.2551 36.3633H45.5033L47.6898 42.2668L48.1818 50.5755L48.3676 53.1774V59.6276H52.3798L52.4017 53.1774L52.5766 50.5755Z" fill="#28EAE9" stroke="#0C4088" stroke-width="0.45" stroke-linecap="round" stroke-linejoin="round"/>
</g>
<defs>
<filter id="filter0_d_9759_21938" x="0.775391" y="0.775391" width="248.193" height="96.4492" filterUnits="userSpaceOnUse" color-interpolation-filters="sRGB">
<feFlood flood-opacity="0" result="BackgroundImageFix"/>
<feColorMatrix in="SourceAlpha" type="matrix" values="0 0 0 0 0 0 0 0 0 0 0 0 0 0 0 0 0 0 127 0" result="hardAlpha"/>
<feOffset/>
<feGaussianBlur stdDeviation="15.5"/>
<feComposite in2="hardAlpha" operator="out"/>
<feColorMatrix type="matrix" values="0 0 0 0 0.156863 0 0 0 0 0.917647 0 0 0 0 0.913725 0 0 0 0.6 0"/>
<feBlend mode="normal" in2="BackgroundImageFix" result="effect1_dropShadow_9759_21938"/>
<feBlend mode="normal" in="SourceGraphic" in2="effect1_dropShadow_9759_21938" result="shape"/>
</filter>
</defs>
</svg>
