<svg width="117" height="44" viewBox="0 0 117 44" fill="none" xmlns="http://www.w3.org/2000/svg">
<path fill-rule="evenodd" clip-rule="evenodd" d="M61.5414 15.078C60.5617 14.254 58.8897 13.8425 56.5244 13.8425H51.1895V30.3292H55.1786V25.162H56.9655C59.1343 25.162 60.7248 24.6847 61.7369 23.7291C62.8769 22.6586 63.4507 21.2331 63.4507 19.4536C63.4507 17.6083 62.8139 16.1494 61.5414 15.078ZM56.8664 21.4315H55.1786V17.573H56.6949C58.5393 17.573 59.4615 18.22 59.4615 19.5138C59.4615 20.791 58.5959 21.4306 56.8664 21.4306M70.2768 13.8416H66.1172V30.3282H75.0983V26.5968H70.2768V13.8416ZM83.248 13.8416L76.7138 30.3282H81.1923L82.0487 27.9314H87.7265L88.5097 30.3282H93.0383L86.5504 13.8416H83.248ZM83.1989 24.5939L84.9126 18.9587L86.5995 24.5939H83.1989Z" fill="#0C4088"/>
<path fill-rule="evenodd" clip-rule="evenodd" d="M95.117 30.3281H99.2776V13.8415H95.117V30.3281ZM115.431 16.9316C114.905 16.1696 114.23 15.5222 113.447 15.0288C112.191 14.2372 110.478 13.8424 108.308 13.8424H102.826V30.3281H109.238C111.555 30.3281 113.415 29.5709 114.818 28.0546C116.221 26.5392 116.922 24.528 116.922 22.0227C116.922 20.03 116.424 18.3329 115.43 16.9316M108.773 26.5957H106.987V17.5739H108.798C110.071 17.5739 111.048 17.9724 111.734 18.7667C112.42 19.561 112.763 20.6881 112.763 22.1469C112.763 25.1128 111.433 26.5957 108.773 26.5957ZM17.4142 0L3.93141 3.53127L0.215699 17.09L4.86289 21.8614L0.140625 26.554L3.6376 40.1721L17.062 43.9231L21.7852 39.2295L26.4324 44L39.9151 40.4687L43.6299 26.909L38.9837 22.1395L43.7059 17.4469L40.209 3.82786L26.7827 0.0769279L22.0614 4.76953L17.4142 0ZM9.14027 6.13941L16.2427 4.27831L19.3485 7.46664L14.819 11.9674L9.14027 6.13941ZM24.7316 7.50928L27.8875 4.37377L34.9593 6.3498L29.1879 12.0842L24.7316 7.50928ZM4.47083 15.9769L6.4274 8.83559L12.1043 14.6636L7.57576 19.1643L4.47083 15.9769ZM31.8563 14.8248L37.6277 9.08862L39.4684 16.2624L36.3134 19.3988L31.8563 14.8248ZM17.4883 14.7071L22.0178 10.2064L26.4732 14.7813L21.9446 19.282L17.4883 14.7071ZM10.246 21.9041L14.7745 17.4033L19.2327 21.9782L14.7022 26.479L10.246 21.9041ZM24.6148 22.0218L29.1434 17.521L33.5996 22.0959L29.0702 26.5967L24.6148 22.0218ZM4.3763 27.7376L7.53312 24.6003L11.9885 29.1761L6.21886 34.9095L4.3763 27.7376ZM17.3716 29.2187L21.901 24.718L26.3573 29.2929L21.8287 33.7936L17.3716 29.2187ZM31.7395 29.3373L36.269 24.8366L39.3748 28.024L37.4192 35.1653L31.7395 29.3373ZM8.88724 37.6511L14.6578 31.9149L19.1159 36.4898L15.959 39.6272L8.88724 37.6511ZM24.4981 36.5334L29.0266 32.0326L34.7044 37.8615L27.603 39.7217L24.4981 36.5334Z" fill="#0C4088"/>
</svg>
