<svg width="179" height="106" viewBox="0 0 179 106" fill="none" xmlns="http://www.w3.org/2000/svg">
<g filter="url(#filter0_d_9759_21952)">
<path fill-rule="evenodd" clip-rule="evenodd" d="M92.4027 46.0782C91.423 45.2542 89.751 44.8427 87.3857 44.8427H82.0508V61.3294H86.0399V56.1623H87.8269C89.9957 56.1623 91.5861 55.6849 92.5983 54.7294C93.7383 53.6589 94.312 52.2334 94.312 50.4538C94.312 48.6085 93.6752 47.1496 92.4027 46.0782ZM87.7277 52.4317H86.0399V48.5733H87.5562C89.4006 48.5733 90.3229 49.2202 90.3229 50.5141C90.3229 51.7913 89.4572 52.4308 87.7277 52.4308M101.138 44.8418H96.9785V61.3285H105.96V57.597H101.138V44.8418ZM114.109 44.8418L107.575 61.3285H112.054L112.91 58.9317H118.588L119.371 61.3285H123.9L117.412 44.8418H114.109ZM114.06 55.5941L115.774 49.9589L117.461 55.5941H114.06Z" fill="#28EAE9"/>
<path fill-rule="evenodd" clip-rule="evenodd" d="M125.976 61.3281H130.137V44.8415H125.976V61.3281ZM146.29 47.9316C145.764 47.1696 145.09 46.5222 144.307 46.0288C143.051 45.2372 141.337 44.8424 139.167 44.8424H133.686V61.3281H140.098C142.415 61.3281 144.274 60.5709 145.677 59.0546C147.081 57.5392 147.781 55.528 147.781 53.0227C147.781 51.03 147.284 49.3329 146.289 47.9316M139.632 57.5957H137.846V48.5739H139.657C140.93 48.5739 141.908 48.9724 142.594 49.7667C143.28 50.561 143.623 51.6881 143.623 53.1469C143.623 56.1128 142.292 57.5957 139.632 57.5957M48.2736 31L34.7908 34.5313L31.0751 48.0901L35.7223 52.8614L31 57.554L34.497 71.1721L47.9214 74.9231L52.6446 70.2295L57.2917 75L70.7745 71.4687L74.4893 57.909L69.843 53.1395L74.5653 48.4469L71.0683 34.8279L57.6421 31.0769L52.9208 35.7695L48.2736 31ZM39.9996 37.1394L47.102 35.2783L50.2079 38.4666L45.6784 42.9674L39.9996 37.1394ZM55.591 38.5093L58.7469 35.3738L65.8187 37.3498L60.0472 43.0842L55.591 38.5093ZM35.3302 46.9769L37.2868 39.8356L42.9637 45.6636L38.4351 50.1643L35.3302 46.9769ZM62.7156 45.8248L68.4871 40.0886L70.3278 47.2624L67.1728 50.3988L62.7156 45.8248ZM48.3477 45.7071L52.8772 41.2064L57.3325 45.7813L52.804 50.282L48.3477 45.7071ZM41.1054 52.9041L45.6339 48.4033L50.092 52.9782L45.5616 57.479L41.1054 52.9041ZM55.4742 53.0218L60.0028 48.521L64.459 53.0959L59.9295 57.5967L55.4742 53.0218ZM35.2357 58.7376L38.3925 55.6003L42.8478 60.1761L37.0782 65.9095L35.2357 58.7376ZM48.2309 60.2187L52.7604 55.718L57.2167 60.2929L52.6881 64.7936L48.2309 60.2187ZM62.5988 60.3373L67.1283 55.8366L70.2342 59.024L68.2785 66.1653L62.5988 60.3373ZM39.7466 68.6511L45.5171 62.9149L49.9752 67.4898L46.8184 70.6272L39.7466 68.6511ZM55.3574 67.5334L59.886 63.0326L65.5638 68.8615L58.4623 70.7217L55.3574 67.5334Z" fill="#28EAE9"/>
</g>
<defs>
<filter id="filter0_d_9759_21952" x="0" y="0" width="178.781" height="106" filterUnits="userSpaceOnUse" color-interpolation-filters="sRGB">
<feFlood flood-opacity="0" result="BackgroundImageFix"/>
<feColorMatrix in="SourceAlpha" type="matrix" values="0 0 0 0 0 0 0 0 0 0 0 0 0 0 0 0 0 0 127 0" result="hardAlpha"/>
<feOffset/>
<feGaussianBlur stdDeviation="15.5"/>
<feComposite in2="hardAlpha" operator="out"/>
<feColorMatrix type="matrix" values="0 0 0 0 0.156863 0 0 0 0 0.917647 0 0 0 0 0.913725 0 0 0 0.6 0"/>
<feBlend mode="normal" in2="BackgroundImageFix" result="effect1_dropShadow_9759_21952"/>
<feBlend mode="normal" in="SourceGraphic" in2="effect1_dropShadow_9759_21952" result="shape"/>
</filter>
</defs>
</svg>
