<svg width="167" height="36" viewBox="0 0 167 36" fill="none" xmlns="http://www.w3.org/2000/svg">
<path fill-rule="evenodd" clip-rule="evenodd" d="M58.0661 25.4969C58.753 23.9591 60.1926 22.9122 62.0906 22.9122C63.9886 22.9122 65.3955 23.7955 65.9845 25.4969H58.0661ZM70.4998 27.4601C70.4998 22.7483 67.0638 18.9857 62.0579 18.9857C57.3461 18.9857 53.5506 22.7809 53.5506 27.493C53.5506 32.2046 57.0847 36.0001 62.189 36.0001C65.724 36.0001 68.2665 34.2949 69.6971 31.8505L66.1416 29.7303C65.3874 31.1775 63.9395 32.0738 62.2216 32.0738C59.8657 32.0738 58.3935 30.8956 57.8698 29.0961H70.4998V27.4601ZM161.76 27.4601C161.76 25.0389 159.993 23.0757 157.572 23.0757C155.085 23.0757 153.187 24.9408 153.187 27.4601C153.187 29.9795 155.085 31.8775 157.572 31.8775C159.993 31.8775 161.76 29.8816 161.76 27.4601ZM148.803 27.493C148.803 21.7018 153.056 18.9857 156.754 18.9857C158.88 18.9857 160.549 19.771 161.629 20.9161V11.7873H166.112V35.6728H161.629V33.8408C160.549 35.1169 158.815 36.0001 156.688 36.0001C153.22 36.0001 148.803 33.2516 148.803 27.493ZM145.51 16.8229C146.991 16.8229 148.191 15.6224 148.191 14.1414C148.191 12.6604 146.991 11.46 145.51 11.46C144.029 11.46 142.829 12.6604 142.829 14.1414C142.829 15.6224 144.029 16.8229 145.51 16.8229ZM143.269 19.313H147.751V35.6728H143.269V23.6649L141.642 23.6646L143.269 19.313ZM131.327 19.313H135.777V21.9961C136.595 20.2947 138.067 19.313 140.292 19.313H142.092L140.467 23.6646H139.245C136.857 23.6646 135.81 24.9081 135.81 27.951V35.6728H131.327V19.313ZM106.109 23.7302C106.109 16.9242 111.246 11.46 118.314 11.46C121.849 11.46 124.822 12.7329 126.974 14.7615C127.85 15.5869 128.59 16.5377 129.177 17.5787L125.185 20C123.713 17.284 121.455 15.8771 118.347 15.8771C113.995 15.8771 110.624 19.4438 110.624 23.7302C110.624 28.1146 113.929 31.5828 118.51 31.5828C121.979 31.5828 124.432 29.6197 125.283 26.5767H117.79V22.2251H130.191V24.0573C130.191 30.4706 125.61 36.0001 118.51 36.0001C111.05 36.0001 106.109 30.3398 106.109 23.7302ZM100.706 27.4601C100.706 25.0389 98.939 23.0757 96.5178 23.0757C94.0311 23.0757 92.1331 24.9408 92.1331 27.4601C92.1331 29.9795 94.0311 31.8775 96.5178 31.8775C98.939 31.8775 100.706 29.8816 100.706 27.4601ZM87.7486 27.493C87.7486 21.7018 92.002 18.9857 95.6996 18.9857C97.8263 18.9857 99.4951 19.771 100.575 20.9161V11.7873H105.058V35.6728H100.575V33.8408C99.4951 35.1169 97.761 36.0001 95.6343 36.0001C92.1659 36.0001 87.7486 33.2516 87.7486 27.493ZM71.5476 19.313H75.9978V21.1453C77.0447 19.8036 78.6482 18.9857 80.5131 18.9857C84.3739 18.9857 86.6972 21.4724 86.6972 25.6932V35.6728H82.149V26.2822C82.149 24.0899 81.1347 22.8138 79.139 22.8138C77.4374 22.8138 76.0305 23.9918 76.0305 26.7401V35.6728H71.5476V19.313ZM34.9473 31.7138L39.103 28.4416C40.2807 30.4706 42.1458 31.6483 44.2723 31.6483C46.5958 31.6483 47.8393 30.1434 47.8393 28.5071C47.8393 26.544 45.4503 25.9226 42.8983 25.1369C39.692 24.1555 36.1252 22.9122 36.1252 18.3312C36.1252 14.503 39.463 11.46 44.0762 11.46C47.9701 11.46 50.195 12.9324 52.1256 14.9286L48.3626 17.7751C47.3811 16.3028 45.9742 15.5173 44.1089 15.5173C41.9822 15.5173 40.8373 16.6626 40.8373 18.1677C40.8373 20 43.1275 20.622 45.6795 21.4724C48.9191 22.5193 52.5836 23.9591 52.5836 28.5402C52.5836 32.3354 49.5732 36.0001 44.3052 36.0001C39.9865 36.0001 37.1071 34.1681 34.9473 31.7138Z" fill="#0C4088"/>
<path fill-rule="evenodd" clip-rule="evenodd" d="M10.4766 35.6725H20.0304V26.1187H10.4766V35.6725Z" fill="#0C4088"/>
<path fill-rule="evenodd" clip-rule="evenodd" d="M0.921875 26.1194H10.4757V16.5654H0.921875V26.1194Z" fill="#0C4088"/>
<path fill-rule="evenodd" clip-rule="evenodd" d="M0.921875 35.6724H10.4757V26.1186H0.921875V35.6724Z" fill="#0C4088"/>
<path fill-rule="evenodd" clip-rule="evenodd" d="M20.0273 26.1195H29.5812V16.5654H20.0273V26.1195Z" fill="#0C4088"/>
<path fill-rule="evenodd" clip-rule="evenodd" d="M10.4766 16.5655H20.0304V7.01172H10.4766V16.5655Z" fill="#0C4088"/>
<path fill-rule="evenodd" clip-rule="evenodd" d="M10.4766 26.1193H20.0304V16.5654H10.4766V26.1193Z" fill="#0C4088"/>
<path fill-rule="evenodd" clip-rule="evenodd" d="M20.0273 16.5655H29.5812V7.01172H20.0273V16.5655Z" fill="#0C4088"/>
<path fill-rule="evenodd" clip-rule="evenodd" d="M39.4518 1.24022V6.80987H38.1633V1.24022H36.1777V0.125977H41.4439L41.4419 1.24022H39.4518Z" fill="#0C4088"/>
<path fill-rule="evenodd" clip-rule="evenodd" d="M50.8376 6.80942H49.6171L48.135 1.94651L46.6531 6.80942H45.4422L43.5742 0.0942383L44.9264 0.1127L46.1686 4.84301L47.5636 0.125533H48.8518L50.2469 4.84301L51.4674 0.125533H52.7556L50.8376 6.80942Z" fill="#0C4088"/>
<path fill-rule="evenodd" clip-rule="evenodd" d="M55.2969 6.80987H56.5852V0.125977H55.2969V6.80987Z" fill="#0C4088"/>
<path fill-rule="evenodd" clip-rule="evenodd" d="M59.5684 6.80987V0.125977H60.8569V5.67649H63.0847L63.0959 6.80987H59.5684Z" fill="#0C4088"/>
<path fill-rule="evenodd" clip-rule="evenodd" d="M65.7715 6.80987H67.0598V0.125977H65.7715V6.80987Z" fill="#0C4088"/>
<path fill-rule="evenodd" clip-rule="evenodd" d="M72.9213 1.06561C71.7782 1.06561 71.0906 2.00515 71.0906 3.46791C71.0906 4.93068 71.7782 5.86999 72.9213 5.86999C74.074 5.86999 74.7618 4.93068 74.7618 3.46791C74.7618 2.00515 74.0646 1.06561 72.9213 1.06561ZM72.9118 6.93583C71.0129 6.93583 69.7832 5.5406 69.7832 3.47715C69.7832 1.40423 71.0226 0 72.931 0C74.8492 0 76.0596 1.39433 76.0596 3.45801C76.0596 5.52102 74.8298 6.93583 72.9118 6.93583Z" fill="#0C4088"/>
</svg>
