<svg width="228" height="99" viewBox="0 0 228 99" fill="none" xmlns="http://www.w3.org/2000/svg">
<g filter="url(#filter0_d_9759_21956)">
<path fill-rule="evenodd" clip-rule="evenodd" d="M88.1423 56.4979C88.8292 54.9601 90.2688 53.9132 92.1667 53.9132C94.0647 53.9132 95.4717 54.7964 96.0606 56.4979H88.1423ZM100.576 58.4611C100.576 53.7493 97.14 49.9866 92.1341 49.9866C87.4223 49.9866 83.6268 53.7819 83.6268 58.494C83.6268 63.2056 87.1609 67.0011 92.2651 67.0011C95.8001 67.0011 98.3427 65.2959 99.7733 62.8515L96.2178 60.7313C95.4635 62.1785 94.0156 63.0748 92.2978 63.0748C89.9419 63.0748 88.4696 61.8966 87.9459 60.097H100.576V58.4611ZM191.836 58.4611C191.836 56.0399 190.069 54.0766 187.648 54.0766C185.161 54.0766 183.263 55.9417 183.263 58.4611C183.263 60.9805 185.161 62.8785 187.648 62.8785C190.069 62.8785 191.836 60.8826 191.836 58.4611ZM178.879 58.494C178.879 52.7028 183.132 49.9866 186.83 49.9866C188.957 49.9866 190.625 50.772 191.705 51.917V42.7883H196.188V66.6738H191.705V64.8417C190.625 66.1179 188.891 67.0011 186.765 67.0011C183.296 67.0011 178.879 64.2525 178.879 58.494ZM175.586 47.8239C177.067 47.8239 178.267 46.6234 178.267 45.1424C178.267 43.6614 177.067 42.4609 175.586 42.4609C174.105 42.4609 172.905 43.6614 172.905 45.1424C172.905 46.6234 174.105 47.8239 175.586 47.8239ZM173.345 50.314H177.827V66.6738H173.345V54.6658L171.718 54.6656L173.345 50.314ZM161.403 50.314H165.853V52.9971C166.671 51.2956 168.144 50.314 170.369 50.314H172.168L170.543 54.6656H169.321C166.933 54.6656 165.886 55.9091 165.886 58.9519V66.6738H161.403V50.314ZM136.185 54.7311C136.185 47.9252 141.323 42.4609 148.39 42.4609C151.925 42.4609 154.898 43.7339 157.05 45.7625C157.926 46.5879 158.666 47.5386 159.253 48.5797L155.261 51.0009C153.789 48.285 151.531 46.8781 148.423 46.8781C144.071 46.8781 140.701 50.4448 140.701 54.7311C140.701 59.1156 144.006 62.5838 148.586 62.5838C152.055 62.5838 154.508 60.6207 155.359 57.5777H147.866V53.226H160.267V55.0583C160.267 61.4715 155.687 67.0011 148.586 67.0011C141.126 67.0011 136.185 61.3407 136.185 54.7311ZM130.782 58.4611C130.782 56.0399 129.015 54.0766 126.594 54.0766C124.107 54.0766 122.209 55.9417 122.209 58.4611C122.209 60.9805 124.107 62.8785 126.594 62.8785C129.015 62.8785 130.782 60.8826 130.782 58.4611ZM117.825 58.494C117.825 52.7028 122.078 49.9866 125.776 49.9866C127.903 49.9866 129.571 50.772 130.651 51.917V42.7883H135.134V66.6738H130.651V64.8417C129.571 66.1179 127.837 67.0011 125.71 67.0011C122.242 67.0011 117.825 64.2525 117.825 58.494ZM101.624 50.314H106.074V52.1462C107.121 50.8046 108.724 49.9866 110.589 49.9866C114.45 49.9866 116.773 52.4734 116.773 56.6942V66.6738H112.225V57.2832C112.225 55.0909 111.211 53.8148 109.215 53.8148C107.514 53.8148 106.107 54.9928 106.107 57.7411V66.6738H101.624V50.314ZM65.0234 62.7148L69.1792 59.4425C70.3569 61.4715 72.222 62.6493 74.3485 62.6493C76.672 62.6493 77.9155 61.1444 77.9155 59.508C77.9155 57.545 75.5265 56.9236 72.9744 56.1378C69.7682 55.1564 66.2014 53.9132 66.2014 49.3321C66.2014 45.504 69.5392 42.4609 74.1524 42.4609C78.0463 42.4609 80.2712 43.9334 82.2018 45.9295L78.4387 48.776C77.4573 47.3038 76.0504 46.5183 74.1851 46.5183C72.0583 46.5183 70.9135 47.6636 70.9135 49.1687C70.9135 51.0009 73.2036 51.623 75.7557 52.4734C78.9953 53.5203 82.6598 54.9601 82.6598 59.5411C82.6598 63.3364 79.6493 67.0011 74.3814 67.0011C70.0626 67.0011 67.1833 65.1691 65.0234 62.7148Z" fill="#28EAE9"/>
<path d="M50.0085 57.2191V66.573H40.6547V57.2191H50.0085Z" fill="#28EAE9" stroke="#0C4088" stroke-width="0.2"/>
<path d="M40.4538 47.6645V57.0185H31.1V47.6645H40.4538Z" fill="#28EAE9" stroke="#0C4088" stroke-width="0.2"/>
<path d="M40.4538 57.2191V66.573H31.1V57.2191H40.4538Z" fill="#28EAE9" stroke="#0C4088" stroke-width="0.2"/>
<path d="M59.5593 47.6664V57.0205H50.2055V47.6664H59.5593Z" fill="#28EAE9" stroke="#0C4088" stroke-width="0.2"/>
<path d="M50.0085 38.1117V47.4655H40.6547V38.1117H50.0085Z" fill="#28EAE9" stroke="#0C4088" stroke-width="0.2"/>
<path d="M50.0085 47.6664V57.0202H40.6547V47.6664H50.0085Z" fill="#28EAE9" stroke="#0C4088" stroke-width="0.2"/>
<path d="M59.5593 38.1117V47.4655H50.2055V38.1117H59.5593Z" fill="#28EAE9" stroke="#0C4088" stroke-width="0.2"/>
<path fill-rule="evenodd" clip-rule="evenodd" d="M69.5319 32.2392V37.8089H68.2434V32.2392H66.2578V31.125H71.524L71.5219 32.2392H69.5319Z" fill="#28EAE9"/>
<path fill-rule="evenodd" clip-rule="evenodd" d="M80.9158 37.8089H79.6952L78.2131 32.946L76.7312 37.8089H75.5204L73.6523 31.0938L75.0046 31.1122L76.2467 35.8425L77.6417 31.125H78.93L80.325 35.8425L81.5455 31.125H82.8338L80.9158 37.8089Z" fill="#28EAE9"/>
<path fill-rule="evenodd" clip-rule="evenodd" d="M85.375 37.8089H86.6633V31.125H85.375V37.8089Z" fill="#28EAE9"/>
<path fill-rule="evenodd" clip-rule="evenodd" d="M89.6484 37.8089V31.125H90.9369V36.6755H93.1648L93.176 37.8089H89.6484Z" fill="#28EAE9"/>
<path fill-rule="evenodd" clip-rule="evenodd" d="M95.8516 37.8089H97.1398V31.125H95.8516V37.8089Z" fill="#28EAE9"/>
<path fill-rule="evenodd" clip-rule="evenodd" d="M102.997 32.0656C101.854 32.0656 101.167 33.0051 101.167 34.4679C101.167 35.9307 101.854 36.87 102.997 36.87C104.15 36.87 104.838 35.9307 104.838 34.4679C104.838 33.0051 104.141 32.0656 102.997 32.0656ZM102.988 37.9358C101.089 37.9358 99.8594 36.5406 99.8594 34.4771C99.8594 32.4042 101.099 31 103.007 31C104.925 31 106.136 32.3943 106.136 34.458C106.136 36.521 104.906 37.9358 102.988 37.9358Z" fill="#28EAE9"/>
</g>
<defs>
<filter id="filter0_d_9759_21956" x="0" y="0" width="227.188" height="98.002" filterUnits="userSpaceOnUse" color-interpolation-filters="sRGB">
<feFlood flood-opacity="0" result="BackgroundImageFix"/>
<feColorMatrix in="SourceAlpha" type="matrix" values="0 0 0 0 0 0 0 0 0 0 0 0 0 0 0 0 0 0 127 0" result="hardAlpha"/>
<feOffset/>
<feGaussianBlur stdDeviation="15.5"/>
<feComposite in2="hardAlpha" operator="out"/>
<feColorMatrix type="matrix" values="0 0 0 0 0.156863 0 0 0 0 0.917647 0 0 0 0 0.913725 0 0 0 0.6 0"/>
<feBlend mode="normal" in2="BackgroundImageFix" result="effect1_dropShadow_9759_21956"/>
<feBlend mode="normal" in="SourceGraphic" in2="effect1_dropShadow_9759_21956" result="shape"/>
</filter>
</defs>
</svg>
