<svg width="149" height="98" viewBox="0 0 149 98" fill="none" xmlns="http://www.w3.org/2000/svg">
<g filter="url(#filter0_d_9759_21981)">
<path fill-rule="evenodd" clip-rule="evenodd" d="M117.714 51.7625H105.995C106.271 54.5687 108.321 55.4701 110.648 55.4701C113.032 55.4701 114.952 54.9321 116.536 54.0889V58.916C114.525 60.0732 112.224 60.6283 109.906 60.5153C104.076 60.5153 99.9758 56.8805 99.9758 49.6397C99.9758 43.5477 103.451 38.706 109.136 38.706C114.835 38.706 117.801 43.475 117.801 49.6107C117.801 50.1922 117.743 51.4426 117.714 51.7625V51.7625ZM109.107 43.5913C107.609 43.5913 105.952 44.6527 105.952 47.3425H112.131C112.131 44.6527 110.575 43.5913 109.107 43.5913ZM90.5396 60.5153C88.4459 60.5153 87.1664 59.643 86.3231 59.0032L86.294 65.7351L80.3037 67V39.0985H85.7706L85.8869 40.5816C87.1549 39.3789 88.8355 38.7076 90.5832 38.706C94.7997 38.706 98.7544 42.4863 98.7544 49.4653C98.7544 57.0695 94.8288 60.5153 90.5396 60.5153V60.5153ZM89.1583 44.0129C87.7771 44.0129 86.9192 44.5073 86.294 45.1906L86.3231 54.0889C86.9047 54.7286 87.748 55.2229 89.1583 55.2229C91.3683 55.2229 92.8514 52.8239 92.8514 49.5961C92.8514 46.4701 91.3393 44.0129 89.1583 44.0129V44.0129ZM72.0598 39.0985H78.0646V60.0937H72.0598V39.0985ZM72.0598 32.2649L78.0646 31V35.8853L72.0598 37.1648V32.2795V32.2649ZM65.7787 45.8595V60.0937H59.7884V39.0985H65.168L65.3425 40.8724C66.7964 38.2989 69.8061 38.8223 70.6058 39.0985V44.609C69.8498 44.3619 67.2763 43.9838 65.7787 45.8595V45.8595ZM53.3473 52.7221C53.3473 56.2553 57.1276 55.1648 57.8837 54.8449V59.7302C57.084 60.1664 55.6446 60.5153 53.6817 60.5153C52.8637 60.5392 52.0493 60.3964 51.2881 60.0956C50.527 59.7948 49.835 59.3423 49.2542 58.7656C48.6735 58.189 48.2161 57.5002 47.91 56.7412C47.6038 55.9822 47.4552 55.1688 47.4733 54.3506L47.4879 35.2019L53.3328 33.9515V39.0985H57.8982V44.231H53.3473V52.7367V52.7221ZM46.2084 53.7399C46.2084 58.0582 42.8498 60.5153 37.8772 60.5153C35.6459 60.5137 33.4386 60.0534 31.3926 59.1632V53.4491C33.399 54.5396 35.8998 55.3538 37.8772 55.3538C39.2149 55.3538 40.1018 55.0048 40.1018 53.8998C40.1018 51.021 31 52.0969 31 45.4669C31 41.2359 34.315 38.706 39.1712 38.706C41.1486 38.706 43.126 38.9968 45.1179 39.7964V45.4378C43.2772 44.469 41.2364 43.9414 39.1567 43.8966C37.9063 43.8966 37.063 44.2601 37.063 45.2052C37.063 47.895 46.2084 46.6155 46.2084 53.7544V53.7399Z" fill="#28EAE9"/>
</g>
<defs>
<filter id="filter0_d_9759_21981" x="0" y="0" width="148.801" height="98" filterUnits="userSpaceOnUse" color-interpolation-filters="sRGB">
<feFlood flood-opacity="0" result="BackgroundImageFix"/>
<feColorMatrix in="SourceAlpha" type="matrix" values="0 0 0 0 0 0 0 0 0 0 0 0 0 0 0 0 0 0 127 0" result="hardAlpha"/>
<feOffset/>
<feGaussianBlur stdDeviation="15.5"/>
<feComposite in2="hardAlpha" operator="out"/>
<feColorMatrix type="matrix" values="0 0 0 0 0.156863 0 0 0 0 0.917647 0 0 0 0 0.913725 0 0 0 0.6 0"/>
<feBlend mode="normal" in2="BackgroundImageFix" result="effect1_dropShadow_9759_21981"/>
<feBlend mode="normal" in="SourceGraphic" in2="effect1_dropShadow_9759_21981" result="shape"/>
</filter>
</defs>
</svg>
