<svg width="88" height="36" viewBox="0 0 88 36" fill="none" xmlns="http://www.w3.org/2000/svg">
<path fill-rule="evenodd" clip-rule="evenodd" d="M87.3449 20.7625H75.626C75.9023 23.5687 77.9523 24.4701 80.2787 24.4701C82.6632 24.4701 84.5824 23.9321 86.1672 23.0889V27.916C84.156 29.0732 81.8548 29.6283 79.5372 29.5153C73.7068 29.5153 69.6066 25.8805 69.6066 18.6397C69.6066 12.5477 73.0816 7.70598 78.7666 7.70598C84.4661 7.70598 87.4322 12.475 87.4322 18.6107C87.4322 19.1922 87.374 20.4426 87.3449 20.7625ZM78.7375 12.5913C77.2399 12.5913 75.5824 13.6527 75.5824 16.3425H81.7617C81.7617 13.6527 80.206 12.5913 78.7375 12.5913ZM60.1704 29.5153C58.0767 29.5153 56.7973 28.643 55.954 28.0032L55.9249 34.7351L49.9346 36V8.09855H55.4015L55.5178 9.58158C56.7858 8.37885 58.4664 7.70765 60.2141 7.70598C64.4305 7.70598 68.3853 11.4863 68.3853 18.4653C68.3853 26.0695 64.4596 29.5153 60.1704 29.5153ZM58.7892 13.0129C57.4079 13.0129 56.5501 13.5073 55.9249 14.1906L55.954 23.0889C56.5355 23.7286 57.3788 24.2229 58.7892 24.2229C60.9992 24.2229 62.4822 21.8239 62.4822 18.5961C62.4822 15.4701 60.9701 13.0129 58.7892 13.0129ZM41.6906 8.09855H47.6955V29.0937H41.6906V8.09855ZM41.6906 1.26494L47.6955 0V4.8853L41.6906 6.16478V1.27948V1.26494ZM35.4095 14.8595V29.0937H29.4192V8.09855H34.7989L34.9734 9.87237C36.4273 7.29887 39.437 7.82229 40.2367 8.09855V13.609C39.4806 13.3619 36.9071 12.9838 35.4095 14.8595ZM22.9782 21.7221C22.9782 25.2553 26.7585 24.1648 27.5145 23.8449V28.7302C26.7149 29.1664 25.2754 29.5153 23.3126 29.5153C22.4945 29.5392 21.6801 29.3964 20.919 29.0956C20.1578 28.7948 19.4658 28.3423 18.8851 27.7656C18.3043 27.189 17.847 26.5002 17.5408 25.7412C17.2347 24.9822 17.0861 24.1688 17.1042 23.3506L17.1187 4.20194L22.9637 2.95153V8.09855H27.5291V13.231H22.9782V21.7367V21.7221ZM15.8393 22.7399C15.8393 27.0582 12.4806 29.5153 7.50808 29.5153C5.27672 29.5137 3.06951 29.0534 1.02343 28.1632V22.4491C3.02989 23.5396 5.5307 24.3538 7.50808 24.3538C8.84572 24.3538 9.73264 24.0048 9.73264 22.8998C9.73264 20.021 0.630859 21.0969 0.630859 14.4669C0.630859 10.2359 3.94588 7.70598 8.8021 7.70598C10.7795 7.70598 12.7569 7.99677 14.7488 8.79645V14.4378C12.908 13.469 10.8672 12.9414 8.78756 12.8966C7.53716 12.8966 6.69386 13.2601 6.69386 14.2052C6.69386 16.895 15.8393 15.6155 15.8393 22.7544V22.7399Z" fill="#0C4088"/>
</svg>
