<svg width="182" height="98" viewBox="0 0 182 98" fill="none" xmlns="http://www.w3.org/2000/svg">
<g filter="url(#filter0_d_9759_21975)">
<mask id="mask0_9759_21975" style="mask-type:alpha" maskUnits="userSpaceOnUse" x="31" y="31" width="120" height="36">
<path d="M48.982 31C58.932 31 66.9639 39.04 66.9639 49C66.9639 58.96 58.932 67 48.982 67C39.0319 67 31 58.96 31 49C31 39.04 39.0319 31 48.982 31ZM48.982 35.8C41.6693 35.8 35.7952 41.68 35.7952 49C35.7952 56.32 41.6693 62.2 48.982 62.2C56.2946 62.2 62.1687 56.32 62.1687 49C62.1687 41.68 56.2946 35.8 48.982 35.8V35.8ZM79.5513 38.08C79.791 37.96 80.0308 38.2 80.0308 38.32V43.48H89.6212C89.741 43.48 89.9808 43.72 89.9808 43.84L90.7 46.84L91.4194 49.84L91.5392 50.2L91.6591 49.84L93.4573 43.84C93.4573 43.6 93.697 43.48 93.817 43.48H98.6122C98.732 43.48 98.9717 43.72 98.9717 43.84L100.89 50.2L101.01 49.84L102.568 43.84C102.568 43.6 102.808 43.48 102.928 43.48H115.156C115.275 43.48 115.395 43.72 115.395 43.84V59.8C115.395 60.04 115.156 60.16 115.036 60.16H108.922C108.682 60.16 108.562 59.92 108.562 59.8L108.561 44.68L104.007 59.8C104.007 60.01 103.823 60.1282 103.697 60.1544L103.647 60.16H98.6122C98.4922 60.16 98.2525 59.92 98.2525 59.8L97.2934 56.56L96.2146 53.08L94.0567 59.8C94.0567 60.04 93.817 60.16 93.697 60.16H88.6621C88.5422 60.16 88.3024 59.92 88.3024 59.8L83.7471 44.68V48.52C83.7471 48.76 83.5072 48.88 83.3874 48.88H79.9108V52.96C79.9108 54.16 80.5102 54.64 81.5892 54.64C82.0687 54.64 82.6681 54.52 83.2675 54.28C83.3874 54.16 83.6272 54.28 83.6272 54.52V59.32C82.5483 59.92 80.9898 60.28 79.3115 60.28C75.3555 60.28 73.1976 58.48 73.1976 54.52V48.88H71.6392C71.3994 48.88 71.2796 48.64 71.2796 48.52V43.96C71.2796 43.72 71.5193 43.6 71.6392 43.6H73.1976V40.36C73.1976 40.12 73.3176 40 73.5573 40L79.5513 38.08ZM141.409 43.12C146.684 43.12 150.52 47.08 150.52 51.64C150.52 56.2 146.684 60.16 141.289 60.16C136.015 60.16 132.178 56.2 132.178 51.64C132.178 47.08 136.015 43.12 141.409 43.12V43.12ZM123.187 38.08C123.427 38.08 123.547 38.2 123.547 38.32V59.68C123.547 59.92 123.307 60.04 123.187 60.04H117.074C116.834 60.04 116.714 59.8 116.714 59.68V38.44C116.714 38.2 116.954 38.08 117.074 38.08H123.187ZM131.219 43.48C131.459 43.48 131.579 43.72 131.579 43.84V59.56C131.579 59.8 131.339 59.92 131.219 59.92H125.105C124.866 59.92 124.746 59.68 124.746 59.56V43.84C124.746 43.6 124.986 43.48 125.105 43.48H131.219ZM44.5463 49.72C46.5844 49.72 48.2627 51.4 48.2627 53.44C48.2627 55.48 46.5844 57.16 44.5463 57.16C42.5084 57.16 40.8301 55.48 40.8301 53.44C40.8301 51.4 42.5084 49.72 44.5463 49.72ZM53.4175 49.72C55.4555 49.72 57.1337 51.4 57.1337 53.44C57.1337 55.48 55.4555 57.16 53.4175 57.16C51.3795 57.16 49.7012 55.48 49.7012 53.44C49.7012 51.4 51.3795 49.72 53.4175 49.72ZM141.409 48.88C139.851 48.88 138.772 50.2 138.772 51.76C138.772 53.32 139.971 54.64 141.409 54.64C142.968 54.64 144.047 53.32 144.047 51.76C144.047 50.08 142.848 48.76 141.409 48.88V48.88ZM53.4175 40.84C55.4555 40.84 57.1337 42.52 57.1337 44.56C57.1337 46.6 55.4555 48.28 53.4175 48.28C51.3795 48.28 49.7012 46.6 49.7012 44.56C49.7012 42.52 51.3795 40.84 53.4175 40.84ZM44.5463 40.84C46.5844 40.84 48.2627 42.52 48.2627 44.56C48.2627 46.6 46.5844 48.28 44.5463 48.28C42.5084 48.28 40.8301 46.6 40.8301 44.56C40.8301 42.52 42.5084 40.84 44.5463 40.84ZM115.275 38.08C115.395 38.08 115.515 38.2 115.635 38.32V42.16C115.635 42.4 115.395 42.52 115.275 42.52H108.922C108.682 42.52 108.562 42.28 108.562 42.16V38.44C108.562 38.2 108.802 38.08 108.922 38.08H115.275ZM131.339 38.08C131.579 38.08 131.699 38.2 131.699 38.32V42.16C131.699 42.4 131.459 42.52 131.339 42.52H124.986C124.746 42.52 124.626 42.28 124.626 42.16V38.44C124.626 38.2 124.866 38.08 124.986 38.08H131.339Z" fill="white"/>
</mask>
<g mask="url(#mask0_9759_21975)">
<path d="M48.982 31C58.932 31 66.9639 39.04 66.9639 49C66.9639 58.96 58.932 67 48.982 67C39.0319 67 31 58.96 31 49C31 39.04 39.0319 31 48.982 31ZM48.982 35.8C41.6693 35.8 35.7952 41.68 35.7952 49C35.7952 56.32 41.6693 62.2 48.982 62.2C56.2946 62.2 62.1687 56.32 62.1687 49C62.1687 41.68 56.2946 35.8 48.982 35.8V35.8ZM79.5513 38.08C79.791 37.96 80.0308 38.2 80.0308 38.32V43.48H89.6212C89.741 43.48 89.9808 43.72 89.9808 43.84L90.7 46.84L91.4194 49.84L91.5392 50.2L91.6591 49.84L93.4573 43.84C93.4573 43.6 93.697 43.48 93.817 43.48H98.6122C98.732 43.48 98.9717 43.72 98.9717 43.84L100.89 50.2L101.01 49.84L102.568 43.84C102.568 43.6 102.808 43.48 102.928 43.48H115.156C115.275 43.48 115.395 43.72 115.395 43.84V59.8C115.395 60.04 115.156 60.16 115.036 60.16H108.922C108.682 60.16 108.562 59.92 108.562 59.8L108.561 44.68L104.007 59.8C104.007 60.01 103.823 60.1282 103.697 60.1544L103.647 60.16H98.6122C98.4922 60.16 98.2525 59.92 98.2525 59.8L97.2934 56.56L96.2146 53.08L94.0567 59.8C94.0567 60.04 93.817 60.16 93.697 60.16H88.6621C88.5422 60.16 88.3024 59.92 88.3024 59.8L83.7471 44.68V48.52C83.7471 48.76 83.5072 48.88 83.3874 48.88H79.9108V52.96C79.9108 54.16 80.5102 54.64 81.5892 54.64C82.0687 54.64 82.6681 54.52 83.2675 54.28C83.3874 54.16 83.6272 54.28 83.6272 54.52V59.32C82.5483 59.92 80.9898 60.28 79.3115 60.28C75.3555 60.28 73.1976 58.48 73.1976 54.52V48.88H71.6392C71.3994 48.88 71.2796 48.64 71.2796 48.52V43.96C71.2796 43.72 71.5193 43.6 71.6392 43.6H73.1976V40.36C73.1976 40.12 73.3176 40 73.5573 40L79.5513 38.08ZM141.409 43.12C146.684 43.12 150.52 47.08 150.52 51.64C150.52 56.2 146.684 60.16 141.289 60.16C136.015 60.16 132.178 56.2 132.178 51.64C132.178 47.08 136.015 43.12 141.409 43.12V43.12ZM123.187 38.08C123.427 38.08 123.547 38.2 123.547 38.32V59.68C123.547 59.92 123.307 60.04 123.187 60.04H117.074C116.834 60.04 116.714 59.8 116.714 59.68V38.44C116.714 38.2 116.954 38.08 117.074 38.08H123.187ZM131.219 43.48C131.459 43.48 131.579 43.72 131.579 43.84V59.56C131.579 59.8 131.339 59.92 131.219 59.92H125.105C124.866 59.92 124.746 59.68 124.746 59.56V43.84C124.746 43.6 124.986 43.48 125.105 43.48H131.219ZM44.5463 49.72C46.5844 49.72 48.2627 51.4 48.2627 53.44C48.2627 55.48 46.5844 57.16 44.5463 57.16C42.5084 57.16 40.8301 55.48 40.8301 53.44C40.8301 51.4 42.5084 49.72 44.5463 49.72ZM53.4175 49.72C55.4555 49.72 57.1337 51.4 57.1337 53.44C57.1337 55.48 55.4555 57.16 53.4175 57.16C51.3795 57.16 49.7012 55.48 49.7012 53.44C49.7012 51.4 51.3795 49.72 53.4175 49.72ZM141.409 48.88C139.851 48.88 138.772 50.2 138.772 51.76C138.772 53.32 139.971 54.64 141.409 54.64C142.968 54.64 144.047 53.32 144.047 51.76C144.047 50.08 142.848 48.76 141.409 48.88V48.88ZM53.4175 40.84C55.4555 40.84 57.1337 42.52 57.1337 44.56C57.1337 46.6 55.4555 48.28 53.4175 48.28C51.3795 48.28 49.7012 46.6 49.7012 44.56C49.7012 42.52 51.3795 40.84 53.4175 40.84ZM44.5463 40.84C46.5844 40.84 48.2627 42.52 48.2627 44.56C48.2627 46.6 46.5844 48.28 44.5463 48.28C42.5084 48.28 40.8301 46.6 40.8301 44.56C40.8301 42.52 42.5084 40.84 44.5463 40.84ZM115.275 38.08C115.395 38.08 115.515 38.2 115.635 38.32V42.16C115.635 42.4 115.395 42.52 115.275 42.52H108.922C108.682 42.52 108.562 42.28 108.562 42.16V38.44C108.562 38.2 108.802 38.08 108.922 38.08H115.275ZM131.339 38.08C131.579 38.08 131.699 38.2 131.699 38.32V42.16C131.699 42.4 131.459 42.52 131.339 42.52H124.986C124.746 42.52 124.626 42.28 124.626 42.16V38.44C124.626 38.2 124.866 38.08 124.986 38.08H131.339Z" fill="#28EAE9"/>
</g>
</g>
<defs>
<filter id="filter0_d_9759_21975" x="0" y="0" width="181.52" height="98" filterUnits="userSpaceOnUse" color-interpolation-filters="sRGB">
<feFlood flood-opacity="0" result="BackgroundImageFix"/>
<feColorMatrix in="SourceAlpha" type="matrix" values="0 0 0 0 0 0 0 0 0 0 0 0 0 0 0 0 0 0 127 0" result="hardAlpha"/>
<feOffset/>
<feGaussianBlur stdDeviation="15.5"/>
<feComposite in2="hardAlpha" operator="out"/>
<feColorMatrix type="matrix" values="0 0 0 0 0.156863 0 0 0 0 0.917647 0 0 0 0 0.913725 0 0 0 0.6 0"/>
<feBlend mode="normal" in2="BackgroundImageFix" result="effect1_dropShadow_9759_21975"/>
<feBlend mode="normal" in="SourceGraphic" in2="effect1_dropShadow_9759_21975" result="shape"/>
</filter>
</defs>
</svg>
