<svg width="120" height="36" viewBox="0 0 120 36" fill="none" xmlns="http://www.w3.org/2000/svg">
<mask id="mask0_4740_10784" style="mask-type:alpha" maskUnits="userSpaceOnUse" x="0" y="0" width="120" height="36">
<path d="M18.0933 0C28.0433 0 36.0752 8.04 36.0752 18C36.0752 27.96 28.0433 36 18.0933 36C8.14327 36 0.111328 27.96 0.111328 18C0.111328 8.04 8.14327 0 18.0933 0ZM18.0933 4.8C10.7806 4.8 4.90652 10.68 4.90652 18C4.90652 25.32 10.7806 31.2 18.0933 31.2C25.4059 31.2 31.28 25.32 31.28 18C31.28 10.68 25.4059 4.8 18.0933 4.8ZM48.6626 7.08C48.9024 6.96 49.1421 7.2 49.1421 7.32V12.48H58.7325C58.8523 12.48 59.0922 12.72 59.0922 12.84L59.8114 15.84L60.5307 18.84L60.6505 19.2L60.7704 18.84L62.5686 12.84C62.5686 12.6 62.8084 12.48 62.9283 12.48H67.7235C67.8433 12.48 68.083 12.72 68.083 12.84L70.0012 19.2L70.1211 18.84L71.6794 12.84C71.6794 12.6 71.9192 12.48 72.0391 12.48H84.2668C84.3868 12.48 84.5066 12.72 84.5066 12.84V28.8C84.5066 29.04 84.2668 29.16 84.1469 29.16H78.0331C77.7934 29.16 77.6734 28.92 77.6734 28.8L77.6727 13.68L73.118 28.8C73.118 29.01 72.9345 29.1282 72.8083 29.1544L72.7584 29.16H67.7235C67.6036 29.16 67.3638 28.92 67.3638 28.8L66.4048 25.56L65.3259 22.08L63.168 28.8C63.168 29.04 62.9283 29.16 62.8084 29.16H57.7734C57.6535 29.16 57.4138 28.92 57.4138 28.8L52.8584 13.68V17.52C52.8584 17.76 52.6186 17.88 52.4988 17.88H49.0222V21.96C49.0222 23.16 49.6216 23.64 50.7006 23.64C51.18 23.64 51.7794 23.52 52.3788 23.28C52.4988 23.16 52.7385 23.28 52.7385 23.52V28.32C51.6596 28.92 50.1012 29.28 48.4229 29.28C44.4668 29.28 42.309 27.48 42.309 23.52V17.88H40.7505C40.5108 17.88 40.3909 17.64 40.3909 17.52V12.96C40.3909 12.72 40.6307 12.6 40.7505 12.6H42.309V9.36C42.309 9.12 42.4289 9 42.6686 9L48.6626 7.08ZM110.521 12.12C115.795 12.12 119.631 16.08 119.631 20.64C119.631 25.2 115.795 29.16 110.401 29.16C105.126 29.16 101.29 25.2 101.29 20.64C101.29 16.08 105.126 12.12 110.521 12.12ZM92.2988 7.08C92.5385 7.08 92.6584 7.2 92.6584 7.32V28.68C92.6584 28.92 92.4186 29.04 92.2988 29.04H86.1849C85.9451 29.04 85.8253 28.8 85.8253 28.68V7.44C85.8253 7.2 86.065 7.08 86.1849 7.08H92.2988ZM100.331 12.48C100.57 12.48 100.69 12.72 100.69 12.84V28.56C100.69 28.8 100.451 28.92 100.331 28.92H94.2168C93.9771 28.92 93.8572 28.68 93.8572 28.56V12.84C93.8572 12.6 94.097 12.48 94.2168 12.48H100.331ZM13.6577 18.72C15.6957 18.72 17.374 20.4 17.374 22.44C17.374 24.48 15.6957 26.16 13.6577 26.16C11.6197 26.16 9.94145 24.48 9.94145 22.44C9.94145 20.4 11.6197 18.72 13.6577 18.72ZM22.5289 18.72C24.5668 18.72 26.2451 20.4 26.2451 22.44C26.2451 24.48 24.5668 26.16 22.5289 26.16C20.4908 26.16 18.8125 24.48 18.8125 22.44C18.8125 20.4 20.4908 18.72 22.5289 18.72ZM110.521 17.88C108.962 17.88 107.883 19.2 107.883 20.76C107.883 22.32 109.082 23.64 110.521 23.64C112.079 23.64 113.158 22.32 113.158 20.76C113.158 19.08 111.959 17.76 110.521 17.88ZM22.5289 9.84C24.5668 9.84 26.2451 11.52 26.2451 13.56C26.2451 15.6 24.5668 17.28 22.5289 17.28C20.4908 17.28 18.8125 15.6 18.8125 13.56C18.8125 11.52 20.4908 9.84 22.5289 9.84ZM13.6577 9.84C15.6957 9.84 17.374 11.52 17.374 13.56C17.374 15.6 15.6957 17.28 13.6577 17.28C11.6197 17.28 9.94145 15.6 9.94145 13.56C9.94145 11.52 11.6197 9.84 13.6577 9.84ZM84.3868 7.08C84.5066 7.08 84.6265 7.2 84.7463 7.32V11.16C84.7463 11.4 84.5066 11.52 84.3868 11.52H78.0331C77.7934 11.52 77.6734 11.28 77.6734 11.16V7.44C77.6734 7.2 77.9132 7.08 78.0331 7.08H84.3868ZM100.451 7.08C100.69 7.08 100.81 7.2 100.81 7.32V11.16C100.81 11.4 100.57 11.52 100.451 11.52H94.097C93.8572 11.52 93.7373 11.28 93.7373 11.16V7.44C93.7373 7.2 93.9771 7.08 94.097 7.08H100.451Z" fill="white"/>
</mask>
<g mask="url(#mask0_4740_10784)">
<path d="M18.0933 0C28.0433 0 36.0752 8.04 36.0752 18C36.0752 27.96 28.0433 36 18.0933 36C8.14327 36 0.111328 27.96 0.111328 18C0.111328 8.04 8.14327 0 18.0933 0ZM18.0933 4.8C10.7806 4.8 4.90652 10.68 4.90652 18C4.90652 25.32 10.7806 31.2 18.0933 31.2C25.4059 31.2 31.28 25.32 31.28 18C31.28 10.68 25.4059 4.8 18.0933 4.8ZM48.6626 7.08C48.9024 6.96 49.1421 7.2 49.1421 7.32V12.48H58.7325C58.8523 12.48 59.0922 12.72 59.0922 12.84L59.8114 15.84L60.5307 18.84L60.6505 19.2L60.7704 18.84L62.5686 12.84C62.5686 12.6 62.8084 12.48 62.9283 12.48H67.7235C67.8433 12.48 68.083 12.72 68.083 12.84L70.0012 19.2L70.1211 18.84L71.6794 12.84C71.6794 12.6 71.9192 12.48 72.0391 12.48H84.2668C84.3868 12.48 84.5066 12.72 84.5066 12.84V28.8C84.5066 29.04 84.2668 29.16 84.1469 29.16H78.0331C77.7934 29.16 77.6734 28.92 77.6734 28.8L77.6727 13.68L73.118 28.8C73.118 29.01 72.9345 29.1282 72.8083 29.1544L72.7584 29.16H67.7235C67.6036 29.16 67.3638 28.92 67.3638 28.8L66.4048 25.56L65.3259 22.08L63.168 28.8C63.168 29.04 62.9283 29.16 62.8084 29.16H57.7734C57.6535 29.16 57.4138 28.92 57.4138 28.8L52.8584 13.68V17.52C52.8584 17.76 52.6186 17.88 52.4988 17.88H49.0222V21.96C49.0222 23.16 49.6216 23.64 50.7006 23.64C51.18 23.64 51.7794 23.52 52.3788 23.28C52.4988 23.16 52.7385 23.28 52.7385 23.52V28.32C51.6596 28.92 50.1012 29.28 48.4229 29.28C44.4668 29.28 42.309 27.48 42.309 23.52V17.88H40.7505C40.5108 17.88 40.3909 17.64 40.3909 17.52V12.96C40.3909 12.72 40.6307 12.6 40.7505 12.6H42.309V9.36C42.309 9.12 42.4289 9 42.6686 9L48.6626 7.08ZM110.521 12.12C115.795 12.12 119.631 16.08 119.631 20.64C119.631 25.2 115.795 29.16 110.401 29.16C105.126 29.16 101.29 25.2 101.29 20.64C101.29 16.08 105.126 12.12 110.521 12.12ZM92.2988 7.08C92.5385 7.08 92.6584 7.2 92.6584 7.32V28.68C92.6584 28.92 92.4186 29.04 92.2988 29.04H86.1849C85.9451 29.04 85.8253 28.8 85.8253 28.68V7.44C85.8253 7.2 86.065 7.08 86.1849 7.08H92.2988ZM100.331 12.48C100.57 12.48 100.69 12.72 100.69 12.84V28.56C100.69 28.8 100.451 28.92 100.331 28.92H94.2168C93.9771 28.92 93.8572 28.68 93.8572 28.56V12.84C93.8572 12.6 94.097 12.48 94.2168 12.48H100.331ZM13.6577 18.72C15.6957 18.72 17.374 20.4 17.374 22.44C17.374 24.48 15.6957 26.16 13.6577 26.16C11.6197 26.16 9.94145 24.48 9.94145 22.44C9.94145 20.4 11.6197 18.72 13.6577 18.72ZM22.5289 18.72C24.5668 18.72 26.2451 20.4 26.2451 22.44C26.2451 24.48 24.5668 26.16 22.5289 26.16C20.4908 26.16 18.8125 24.48 18.8125 22.44C18.8125 20.4 20.4908 18.72 22.5289 18.72ZM110.521 17.88C108.962 17.88 107.883 19.2 107.883 20.76C107.883 22.32 109.082 23.64 110.521 23.64C112.079 23.64 113.158 22.32 113.158 20.76C113.158 19.08 111.959 17.76 110.521 17.88ZM22.5289 9.84C24.5668 9.84 26.2451 11.52 26.2451 13.56C26.2451 15.6 24.5668 17.28 22.5289 17.28C20.4908 17.28 18.8125 15.6 18.8125 13.56C18.8125 11.52 20.4908 9.84 22.5289 9.84ZM13.6577 9.84C15.6957 9.84 17.374 11.52 17.374 13.56C17.374 15.6 15.6957 17.28 13.6577 17.28C11.6197 17.28 9.94145 15.6 9.94145 13.56C9.94145 11.52 11.6197 9.84 13.6577 9.84ZM84.3868 7.08C84.5066 7.08 84.6265 7.2 84.7463 7.32V11.16C84.7463 11.4 84.5066 11.52 84.3868 11.52H78.0331C77.7934 11.52 77.6734 11.28 77.6734 11.16V7.44C77.6734 7.2 77.9132 7.08 78.0331 7.08H84.3868ZM100.451 7.08C100.69 7.08 100.81 7.2 100.81 7.32V11.16C100.81 11.4 100.57 11.52 100.451 11.52H94.097C93.8572 11.52 93.7373 11.28 93.7373 11.16V7.44C93.7373 7.2 93.9771 7.08 94.097 7.08H100.451Z" fill="#0C4088"/>
</g>
</svg>
