<svg width="229" height="86" viewBox="0 0 229 86" fill="none" xmlns="http://www.w3.org/2000/svg">
<g filter="url(#filter0_d_9759_21983)">
<path fill-rule="evenodd" clip-rule="evenodd" d="M115.079 52.8959C113.978 52.8959 112.969 52.6666 112.052 52.208C111.534 51.9433 111.084 51.6288 110.702 51.2645C110.461 51.0344 109.972 51.1906 109.972 51.5203V52.0124C109.972 52.236 109.787 52.4173 109.558 52.4173H107.573C107.344 52.4173 107.159 52.236 107.159 52.0124V31.4049C107.159 31.1813 107.344 31 107.573 31H109.549C109.777 31 109.963 31.1813 109.963 31.4049V38.658C109.963 38.9877 110.453 39.1448 110.695 38.9153C111.08 38.5504 111.533 38.2354 112.052 37.9703C112.969 37.5117 113.978 37.2824 115.079 37.2824C117.057 37.2824 118.728 38.0401 120.094 39.5556C121.501 41.091 122.204 42.9356 122.204 45.0891C122.204 47.2627 121.501 49.1071 120.094 50.6227C118.728 52.1382 117.057 52.8959 115.079 52.8959ZM114.62 50.3834C115.966 50.3834 117.097 49.8849 118.015 48.8879C118.932 47.9108 119.391 46.6445 119.391 45.0891C119.391 43.5537 118.932 42.2875 118.015 41.2904C117.097 40.2934 115.966 39.7949 114.62 39.7949C113.254 39.7949 112.113 40.2934 111.195 41.2904C110.298 42.2875 109.85 43.5537 109.85 45.0891C109.85 46.6445 110.298 47.9207 111.195 48.9177C112.113 49.8948 113.254 50.3834 114.62 50.3834ZM97.4916 52.8959C95.2898 52.8959 93.4755 52.1581 92.0484 50.6825C90.6214 49.2069 89.9078 47.3425 89.9078 45.0891C89.9078 42.8558 90.601 41.0013 91.9872 39.5257C93.3736 38.0301 95.1471 37.2824 97.3082 37.2824C99.5303 37.2824 101.294 37.9903 102.598 39.4061C104.004 40.8871 104.677 43.1148 104.589 45.1409C104.577 45.4007 104.353 45.5977 104.087 45.5977H93.2878C93.0109 45.5977 92.7865 45.8216 92.8152 46.091C92.944 47.3006 93.4223 48.2927 94.2501 49.0674C95.188 49.9447 96.3092 50.3834 97.6139 50.3834C99.2785 50.3834 100.61 49.6281 101.607 48.1173C101.741 47.9154 102.006 47.8333 102.227 47.9387L103.908 48.7407C104.145 48.8538 104.24 49.1374 104.103 49.3576C103.453 50.3997 102.595 51.2302 101.528 51.849C100.346 52.547 99.0002 52.8959 97.4916 52.8959ZM93.1592 42.7467C93.0597 43.0385 93.2947 43.3244 93.6092 43.3244H101.058C101.344 43.3244 101.573 43.0843 101.515 42.8097C101.348 42.0214 100.945 41.3554 100.305 40.8119C99.5506 40.1339 98.5313 39.7949 97.247 39.7949C96.1868 39.7949 95.2695 40.1139 94.4948 40.752C93.8807 41.2715 93.4354 41.9365 93.1592 42.7467ZM89.0454 38.3232C89.137 38.0454 88.9251 37.7609 88.6268 37.7609H86.6852C86.4902 37.7609 86.3184 37.8866 86.2632 38.0696L83.3995 47.5782C83.2846 47.9594 82.7354 47.9674 82.609 47.5895L79.422 38.0574C79.363 37.8806 79.1942 37.7609 79.004 37.7609H76.7359C76.5461 37.7609 76.3777 37.8801 76.3182 38.0564L73.1025 47.5959C72.9753 47.973 72.427 47.9644 72.3123 47.5835L69.4469 38.0696C69.3917 37.8866 69.22 37.7609 69.025 37.7609H67.0221C66.7238 37.7609 66.512 38.0454 66.6036 38.3232L71.1516 52.1191C71.2101 52.2969 71.3793 52.4173 71.5701 52.4173H73.7733C73.9643 52.4173 74.1334 52.2968 74.192 52.1189L77.4015 42.3635C77.5245 41.9896 78.0653 41.9889 78.1893 42.3626L81.4259 52.1199C81.4847 52.2973 81.6537 52.4173 81.8444 52.4173H84.0788C84.2698 52.4173 84.4388 52.2969 84.4974 52.1191L89.0454 38.3232ZM176.21 51.5499C177.026 52.2878 178.044 52.6567 179.268 52.6567C180.078 52.6567 180.803 52.568 181.445 52.3906C181.664 52.33 181.775 52.0984 181.699 51.8885L181.099 50.228C181.018 50.0053 180.761 49.8978 180.53 49.9691C180.468 49.9884 180.404 50.0069 180.339 50.0245C180.134 50.0644 179.92 50.0842 179.696 50.0842C179.206 50.0842 178.768 49.9148 178.381 49.5758C177.993 49.2168 177.8 48.5489 177.8 47.5718V40.6783C177.8 40.4547 177.986 40.2734 178.214 40.2734H181.056C181.284 40.2734 181.47 40.0922 181.47 39.8686V38.1658C181.47 37.9422 181.284 37.7609 181.056 37.7609H178.214C177.986 37.7609 177.8 37.5797 177.8 37.3561V31.4049C177.8 31.1813 177.615 31 177.386 31H175.4C175.172 31 174.987 31.1813 174.987 31.4049V37.3561C174.987 37.5797 174.802 37.7609 174.572 37.7609H172.771C172.543 37.7609 172.357 37.9422 172.357 38.1658V39.8686C172.357 40.0922 172.543 40.2734 172.771 40.2734H174.572C174.802 40.2734 174.987 40.4547 174.987 40.6783V48.469C175.006 49.7851 175.415 50.8122 176.21 51.5499ZM136.031 51.1012C137.397 49.9049 138.08 48.4093 138.08 46.6147C138.08 45.5178 137.764 44.5308 137.132 43.6534C136.842 43.2363 136.424 42.7059 135.198 42.0339C134.939 41.892 134.933 41.5137 135.177 41.3495C136.644 40.3666 137.377 38.8783 137.377 37.1328C137.377 35.4777 136.755 34.1318 135.512 33.0948C134.248 32.018 132.688 31.4796 130.833 31.4796C129.345 31.4796 128.05 31.8685 126.949 32.6462C125.968 33.3391 125.238 34.2221 124.759 35.2951C124.66 35.5174 124.774 35.7713 125.002 35.866L126.741 36.5861C126.987 36.6881 127.268 36.5655 127.378 36.3274C128.063 34.8503 129.215 34.1118 130.833 34.1118C131.934 34.1118 132.821 34.391 133.493 34.9493C134.166 35.5077 134.502 36.2355 134.502 37.1328C134.502 38.1099 134.146 38.9075 133.432 39.5257C132.719 40.1239 131.801 40.4231 130.68 40.4231H129.556C129.298 40.4231 129.09 40.6269 129.09 40.8785V42.5399C129.09 42.7915 129.298 42.9954 129.556 42.9954H130.894C132.076 42.9954 133.086 43.3444 133.921 44.0422C134.778 44.7402 135.206 45.5977 135.206 46.6147C135.206 47.6315 134.798 48.4991 133.983 49.2168C133.147 49.9148 132.158 50.2637 131.016 50.2637C129.977 50.2637 129.08 49.9646 128.325 49.3664C127.701 48.8403 127.224 48.1263 126.894 47.2244C126.8 46.967 126.508 46.8269 126.25 46.932L124.549 47.6253C124.331 47.7141 124.214 47.9493 124.29 48.1679C124.766 49.5271 125.591 50.6446 126.766 51.5201C128.03 52.4373 129.447 52.8959 131.016 52.8959C133.014 52.8959 134.686 52.2977 136.031 51.1012ZM143.072 47.9307C143.072 47.133 143.45 46.4651 144.204 45.9266C144.979 45.3883 145.937 45.1191 147.078 45.1191C148.543 45.1191 149.706 45.4141 150.567 46.0044C150.684 46.0843 150.75 46.2174 150.742 46.3565C150.686 47.421 150.219 48.3545 149.341 49.1571C148.424 50.0144 147.374 50.4432 146.191 50.4432C145.356 50.4432 144.622 50.204 143.99 49.7254C143.378 49.2468 143.072 48.6485 143.072 47.9307ZM151.635 38.9275C150.432 37.8307 148.791 37.2824 146.711 37.2824C144.204 37.2824 142.272 38.1258 140.915 39.8127C140.769 39.9944 140.824 40.2569 141.024 40.38L142.798 41.4728C142.986 41.5882 143.232 41.5375 143.37 41.3682C144.261 40.2794 145.426 39.7351 146.864 39.7351C147.904 39.7351 148.811 40.0741 149.586 40.752C150.366 41.4142 150.641 42.2103 150.721 43.1092C150.748 43.4182 150.403 43.6181 150.11 43.4986C149.142 43.1032 147.978 42.9056 146.62 42.9056C144.663 42.9056 143.093 43.3543 141.91 44.2517C140.748 45.149 140.167 46.3554 140.167 47.8709C140.167 49.3066 140.718 50.5031 141.819 51.4602C142.94 52.4173 144.326 52.8959 145.977 52.8959C147.914 52.8959 149.464 52.0584 150.626 50.3834V52.0124C150.626 52.236 150.811 52.4173 151.039 52.4173H153.025C153.254 52.4173 153.439 52.236 153.439 52.0124V43.3842C153.439 41.4899 152.838 40.0043 151.635 38.9275ZM169.762 51.9871C169.762 52.2248 169.565 52.4173 169.322 52.4173H167.388C167.145 52.4173 166.948 52.2248 166.948 51.9871V51.5066C166.948 51.1967 166.468 51.048 166.243 51.2654C165.888 51.6069 165.461 51.9111 164.96 52.1781C164.084 52.6567 163.167 52.8959 162.208 52.8959C160.373 52.8959 158.956 52.3874 157.957 51.3704C156.979 50.3335 156.49 48.8679 156.49 46.9735V38.1911C156.49 37.9536 156.687 37.7609 156.93 37.7609H158.863C159.106 37.7609 159.303 37.9536 159.303 38.1911V46.7941C159.364 49.187 160.598 50.3834 163.003 50.3834C164.124 50.3834 165.062 49.9447 165.816 49.0674C166.571 48.17 166.948 47.1031 166.948 45.8669V38.1911C166.948 37.9536 167.145 37.7609 167.388 37.7609H169.322C169.565 37.7609 169.762 37.9536 169.762 38.1911V51.9871ZM184.295 31.4049C184.295 31.1813 184.48 31 184.71 31H186.695C186.923 31 187.108 31.1813 187.108 31.4049V38.6717C187.108 38.9816 187.586 39.129 187.81 38.9101C188.16 38.5698 188.578 38.2665 189.066 38.0002C189.962 37.5217 190.89 37.2824 191.848 37.2824C193.683 37.2824 195.09 37.8008 196.068 38.8377C197.067 39.8547 197.566 41.3104 197.566 43.2047V52.0124C197.566 52.236 197.381 52.4173 197.153 52.4173H195.168C194.938 52.4173 194.753 52.236 194.753 52.0124V43.7431C194.753 41.111 193.561 39.7949 191.175 39.7949C190.034 39.7949 189.066 40.2635 188.27 41.2007C187.496 42.1179 187.108 43.1948 187.108 44.4311V52.0124C187.108 52.236 186.923 52.4173 186.695 52.4173H184.71C184.48 52.4173 184.295 52.236 184.295 52.0124V31.4049Z" fill="#28EAE9"/>
<path d="M55.5461 50.0941C55.7099 50.7018 56.5771 50.7018 56.7409 50.0941L61.4551 32.5968C61.6721 31.7912 61.0617 31 60.223 31H57.3165C56.7392 31 56.2339 31.3856 56.0844 31.9402L53.426 41.8072C53.3892 41.9441 53.3892 42.0882 53.426 42.225L55.5461 50.0941Z" fill="#28EAE9"/>
<path d="M39.0697 41.7944C39.1066 41.9313 39.1066 42.0754 39.0697 42.2122L36.9496 50.0812C36.7858 50.689 35.9186 50.689 35.7549 50.0812L31.0442 32.5968C30.8271 31.7912 31.4375 31 32.2762 31H35.1827C35.76 31 36.2653 31.3856 36.4147 31.9402L39.0697 41.7944Z" fill="#28EAE9"/>
<path d="M43.0451 53.9403C42.9008 54.4774 42.4128 54.851 41.8553 54.851H38.8809C38.071 54.851 37.4815 54.0845 37.6911 53.3041L43.4148 31.9961C43.5726 31.4085 44.1064 31 44.7162 31H48.1757C48.7853 31 49.3192 31.4085 49.477 31.9961L55.2008 53.3041C55.4104 54.0845 54.8208 54.851 54.011 54.851H51.0365C50.479 54.851 49.991 54.4774 49.8467 53.9403L47.0223 43.4253C46.8642 42.8371 46.0276 42.8371 45.8696 43.4253L43.0451 53.9403Z" fill="#28EAE9"/>
</g>
<path d="M45.402 51.7229C45.1891 51.7229 45.0342 51.5318 45.0894 51.3374L46.1339 47.6489C46.2196 47.3462 46.6735 47.3462 46.7593 47.6489L47.8038 51.3374C47.859 51.5318 47.7041 51.7229 47.4912 51.7229H45.402Z" fill="white"/>
<defs>
<filter id="filter0_d_9759_21983" x="0" y="0" width="228.566" height="85.8516" filterUnits="userSpaceOnUse" color-interpolation-filters="sRGB">
<feFlood flood-opacity="0" result="BackgroundImageFix"/>
<feColorMatrix in="SourceAlpha" type="matrix" values="0 0 0 0 0 0 0 0 0 0 0 0 0 0 0 0 0 0 127 0" result="hardAlpha"/>
<feOffset/>
<feGaussianBlur stdDeviation="15.5"/>
<feComposite in2="hardAlpha" operator="out"/>
<feColorMatrix type="matrix" values="0 0 0 0 0.156863 0 0 0 0 0.917647 0 0 0 0 0.913725 0 0 0 0.75 0"/>
<feBlend mode="normal" in2="BackgroundImageFix" result="effect1_dropShadow_9759_21983"/>
<feBlend mode="normal" in="SourceGraphic" in2="effect1_dropShadow_9759_21983" result="shape"/>
</filter>
</defs>
</svg>
