<svg width="234" height="42" viewBox="0 0 234 42" fill="none" xmlns="http://www.w3.org/2000/svg">
<g clip-path="url(#clip0_13635_28346)">
<path fill-rule="evenodd" clip-rule="evenodd" d="M118.258 36.1283C116.716 36.1283 115.304 35.8073 114.019 35.1653C113.294 34.7948 112.665 34.3545 112.13 33.8445C111.793 33.5223 111.108 33.7409 111.108 34.2026V34.8915C111.108 35.2045 110.849 35.4584 110.528 35.4584H107.749C107.429 35.4584 107.169 35.2045 107.169 34.8915V6.04096C107.169 5.72791 107.429 5.47412 107.749 5.47412H110.516C110.835 5.47412 111.095 5.72791 111.095 6.04096V16.1953C111.095 16.6569 111.781 16.8768 112.12 16.5555C112.659 16.0446 113.294 15.6036 114.019 15.2326C115.304 14.5905 116.716 14.2695 118.258 14.2695C121.026 14.2695 123.366 15.3303 125.279 17.452C127.248 19.6015 128.233 22.184 128.233 25.1989C128.233 28.2418 127.248 30.8241 125.279 32.9458C123.366 35.0676 121.026 36.1283 118.258 36.1283ZM117.615 32.6109C119.499 32.6109 121.083 31.913 122.368 30.5171C123.652 29.1492 124.294 27.3765 124.294 25.1989C124.294 23.0494 123.652 21.2766 122.368 19.8807C121.083 18.4849 119.499 17.787 117.615 17.787C115.703 17.787 114.105 18.4849 112.82 19.8807C111.565 21.2766 110.937 23.0494 110.937 25.1989C110.937 27.3765 111.565 29.1631 112.82 30.559C114.105 31.9269 115.703 32.6109 117.615 32.6109ZM93.6352 36.1283C90.5527 36.1283 88.0126 35.0955 86.0147 33.0297C84.017 30.9638 83.0179 28.3536 83.0179 25.1989C83.0179 22.0722 83.9883 19.4759 85.9291 17.4101C87.87 15.3163 90.353 14.2694 93.3784 14.2694C96.4893 14.2694 98.9582 15.2605 100.785 17.2426C102.753 19.3161 103.694 22.4349 103.571 25.2713C103.555 25.6351 103.241 25.9108 102.869 25.9108H87.7499C87.3622 25.9108 87.0481 26.2244 87.0883 26.6015C87.2685 28.295 87.9381 29.6839 89.0972 30.7684C90.4101 31.9966 91.9798 32.6109 93.8065 32.6109C96.1369 32.6109 98.0004 31.5535 99.3972 29.4383C99.5838 29.1556 99.9554 29.0408 100.265 29.1883L102.618 30.3112C102.95 30.4695 103.083 30.8665 102.891 31.1747C101.981 32.6338 100.779 33.7964 99.2864 34.6627C97.631 35.6399 95.7472 36.1283 93.6352 36.1283ZM87.5698 21.9196C87.4305 22.3281 87.7596 22.7283 88.1998 22.7283H98.6277C99.0291 22.7283 99.3497 22.3922 99.2683 22.0078C99.0345 20.9041 98.4697 19.9717 97.5739 19.2108C96.5178 18.2616 95.0907 17.787 93.2928 17.787C91.8085 17.787 90.5243 18.2336 89.4397 19.1269C88.58 19.8543 87.9566 20.7852 87.5698 21.9196ZM81.8105 15.7265C81.9387 15.3377 81.6422 14.9394 81.2245 14.9394H78.5062C78.2332 14.9394 77.9927 15.1153 77.9155 15.3715L73.9063 28.6836C73.7454 29.2173 72.9765 29.2285 72.7995 28.6995L68.3378 15.3545C68.2551 15.1069 68.0188 14.9394 67.7526 14.9394H64.5772C64.3115 14.9394 64.0758 15.1062 63.9925 15.3531L59.4904 28.7084C59.3124 29.2363 58.5447 29.2243 58.3842 28.6911L54.3727 15.3715C54.2954 15.1153 54.0549 14.9394 53.7819 14.9394H50.978C50.5603 14.9394 50.2638 15.3377 50.392 15.7265L56.7592 35.0409C56.8412 35.2898 57.078 35.4584 57.3452 35.4584H60.4296C60.6969 35.4584 60.9338 35.2896 61.0158 35.0405L65.5091 21.3831C65.6813 20.8595 66.4383 20.8586 66.612 21.3818L71.1433 35.042C71.2256 35.2904 71.4621 35.4584 71.7291 35.4584H74.8573C75.1247 35.4584 75.3613 35.2898 75.4433 35.0409L81.8105 15.7265ZM203.842 34.244C204.983 35.277 206.409 35.7934 208.122 35.7934C209.256 35.7934 210.271 35.6693 211.17 35.4209C211.476 35.3362 211.632 35.0119 211.526 34.7181L210.686 32.3933C210.572 32.0816 210.213 31.9311 209.89 32.0308C209.802 32.0578 209.712 32.0837 209.621 32.1084C209.334 32.1643 209.035 32.192 208.721 32.192C208.036 32.192 207.422 31.9548 206.88 31.4802C206.338 30.9777 206.068 30.0425 206.068 28.6746V19.0238C206.068 18.7108 206.327 18.4569 206.646 18.4569H210.625C210.945 18.4569 211.204 18.2032 211.204 17.8901V15.5063C211.204 15.1932 210.945 14.9394 210.625 14.9394H206.646C206.327 14.9394 206.068 14.6857 206.068 14.3726V6.04096C206.068 5.72791 205.808 5.47412 205.487 5.47412H202.708C202.388 5.47412 202.129 5.72791 202.129 6.04096V14.3726C202.129 14.6857 201.869 14.9394 201.548 14.9394H199.026C198.707 14.9394 198.447 15.1932 198.447 15.5063V17.8901C198.447 18.2032 198.707 18.4569 199.026 18.4569H201.548C201.869 18.4569 202.129 18.7108 202.129 19.0238V29.9308C202.156 31.7733 202.728 33.2112 203.842 34.244ZM147.591 33.6158C149.503 31.941 150.459 29.8472 150.459 27.3346C150.459 25.7991 150.017 24.4173 149.132 23.1889C148.725 22.6049 148.14 21.8624 146.424 20.9216C146.062 20.7229 146.053 20.1934 146.395 19.9635C148.448 18.5873 149.475 16.5038 149.475 14.0601C149.475 11.743 148.604 9.85857 146.863 8.40689C145.094 6.89936 142.91 6.14561 140.313 6.14561C138.229 6.14561 136.417 6.68998 134.876 7.77875C133.503 8.74892 132.481 9.98507 131.81 11.4872C131.671 11.7985 131.83 12.154 132.15 12.2865L134.584 13.2947C134.928 13.4374 135.322 13.2658 135.477 12.9324C136.436 10.8646 138.048 9.83065 140.313 9.83065C141.854 9.83065 143.096 10.2215 144.038 11.0032C144.979 11.7848 145.45 12.8038 145.45 14.0601C145.45 15.428 144.951 16.5447 143.952 17.4101C142.953 18.2476 141.669 18.6664 140.099 18.6664H138.525C138.165 18.6664 137.873 18.9518 137.873 19.3041V21.63C137.873 21.9822 138.165 22.2676 138.525 22.2676H140.399C142.054 22.2676 143.467 22.7563 144.637 23.7332C145.836 24.7104 146.435 25.9108 146.435 27.3346C146.435 28.7583 145.864 29.9728 144.723 30.9777C143.552 31.9548 142.168 32.4433 140.57 32.4433C139.114 32.4433 137.858 32.0246 136.802 31.1871C135.928 30.4505 135.26 29.4509 134.799 28.1883C134.668 27.8279 134.258 27.6318 133.897 27.7789L131.516 28.7495C131.21 28.8739 131.047 29.2031 131.154 29.5091C131.819 31.4121 132.974 32.9765 134.619 34.2022C136.389 35.4863 138.372 36.1283 140.57 36.1283C143.367 36.1283 145.707 35.2909 147.591 33.6158ZM157.448 29.1772C157.448 28.0603 157.976 27.1252 159.032 26.3714C160.117 25.6178 161.458 25.2409 163.057 25.2409C165.107 25.2409 166.735 25.6539 167.941 26.4802C168.104 26.5922 168.196 26.7784 168.186 26.9733C168.107 28.4635 167.453 29.7705 166.225 30.8941C164.94 32.0943 163.471 32.6946 161.815 32.6946C160.645 32.6946 159.618 32.3597 158.733 31.6897C157.876 31.0197 157.448 30.1821 157.448 29.1772ZM169.435 16.5726C167.752 15.0372 165.454 14.2695 162.543 14.2695C159.033 14.2695 156.328 15.4503 154.428 17.8119C154.223 18.0662 154.301 18.4338 154.58 18.6061L157.064 20.136C157.327 20.2976 157.671 20.2266 157.865 19.9896C159.112 18.4653 160.743 17.7032 162.757 17.7032C164.213 17.7032 165.483 18.1778 166.567 19.1269C167.659 20.054 168.045 21.1685 168.156 22.427C168.194 22.8596 167.711 23.1394 167.301 22.9721C165.946 22.4186 164.317 22.142 162.415 22.142C159.675 22.142 157.477 22.7702 155.821 24.0265C154.195 25.2827 153.381 26.9716 153.381 29.0933C153.381 31.1033 154.152 32.7784 155.693 34.1184C157.263 35.4584 159.204 36.1283 161.515 36.1283C164.227 36.1283 166.396 34.9558 168.023 32.6109V34.8915C168.023 35.2045 168.282 35.4584 168.602 35.4584H171.382C171.702 35.4584 171.962 35.2045 171.962 34.8915V22.812C171.962 20.1599 171.12 18.0801 169.435 16.5726ZM194.813 34.8561C194.813 35.1888 194.538 35.4584 194.198 35.4584H191.49C191.15 35.4584 190.874 35.1888 190.874 34.8561V34.1834C190.874 33.7495 190.202 33.5413 189.887 33.8457C189.39 34.3238 188.793 34.7497 188.092 35.1235C186.864 35.7934 185.581 36.1283 184.238 36.1283C181.67 36.1283 179.686 35.4165 178.287 33.9927C176.918 32.541 176.233 30.4892 176.233 27.837V15.5417C176.233 15.2091 176.508 14.9394 176.848 14.9394H179.555C179.895 14.9394 180.171 15.2091 180.171 15.5417V27.5859C180.257 30.9359 181.984 32.6109 185.351 32.6109C186.921 32.6109 188.234 31.9966 189.289 30.7684C190.347 29.5121 190.874 28.0185 190.874 26.2877V15.5417C190.874 15.2091 191.15 14.9394 191.49 14.9394H194.198C194.538 14.9394 194.813 15.2091 194.813 15.5417V34.8561ZM215.16 6.04096C215.16 5.72791 215.419 5.47412 215.74 5.47412H218.52C218.839 5.47412 219.098 5.72791 219.098 6.04096V16.2145C219.098 16.6484 219.767 16.8547 220.081 16.5483C220.57 16.0718 221.156 15.6472 221.839 15.2745C223.094 14.6044 224.392 14.2695 225.734 14.2695C228.304 14.2695 230.272 14.9953 231.642 16.447C233.041 17.8707 233.74 19.9087 233.74 22.5607V34.8915C233.74 35.2045 233.481 35.4584 233.161 35.4584H230.382C230.06 35.4584 229.801 35.2045 229.801 34.8915V23.3145C229.801 19.6295 228.132 17.787 224.792 17.787C223.194 17.787 221.839 18.4431 220.726 19.7551C219.641 21.0392 219.098 22.5468 219.098 24.2776V34.8915C219.098 35.2045 218.839 35.4584 218.52 35.4584H215.74C215.419 35.4584 215.16 35.2045 215.16 34.8915V6.04096Z" fill="#0C4088"/>
<path d="M34.9115 32.2059C35.1409 33.0567 36.3549 33.0567 36.5842 32.2059L43.1841 7.70963C43.4879 6.58173 42.6333 5.47412 41.4591 5.47412H37.3901C36.5819 5.47412 35.8744 6.01399 35.6652 6.79036L31.9434 20.6042C31.8919 20.7958 31.8919 20.9976 31.9434 21.1891L34.9115 32.2059Z" fill="#0C4088"/>
<path d="M11.8444 20.5863C11.8961 20.7779 11.8961 20.9797 11.8444 21.1712L8.87627 32.1878C8.64702 33.0388 7.43298 33.0388 7.20374 32.1878L0.608703 7.70963C0.304818 6.58173 1.15939 5.47412 2.33351 5.47412H6.40269C7.21088 5.47412 7.9183 6.01399 8.12748 6.79036L11.8444 20.5863Z" fill="#0C4088"/>
<path d="M17.41 37.5905C17.208 38.3425 16.5248 38.8655 15.7443 38.8655H11.5802C10.4463 38.8655 9.62097 37.7925 9.91444 36.6999L17.9277 6.86861C18.1486 6.04607 18.8959 5.47412 19.7496 5.47412H24.5929C25.4464 5.47412 26.1938 6.04607 26.4148 6.86861L34.428 36.6999C34.7215 37.7925 33.8961 38.8655 32.7623 38.8655H28.5981C27.8176 38.8655 27.1343 38.3425 26.9323 37.5905L22.9781 22.8695C22.7568 22.0461 21.5855 22.0461 21.3644 22.8695L17.41 37.5905Z" fill="#0C4088"/>
<path d="M20.7098 34.4863C20.4118 34.4863 20.1948 34.2188 20.2721 33.9465L21.7344 28.7827C21.8544 28.3589 22.4899 28.3589 22.61 28.7827L24.0723 33.9465C24.1496 34.2188 23.9327 34.4863 23.6346 34.4863H20.7098Z" fill="#0C4088"/>
</g>
<defs>
<clipPath id="clip0_13635_28346">
<rect width="233.739" height="42" fill="white"/>
</clipPath>
</defs>
</svg>
