<svg width="168" height="30" viewBox="0 0 168 30" fill="none" xmlns="http://www.w3.org/2000/svg">
<g clip-path="url(#clip0_4740_10792)">
<path fill-rule="evenodd" clip-rule="evenodd" d="M84.9013 25.8055C83.8004 25.8055 82.7912 25.5762 81.8739 25.1176C81.3562 24.853 80.9064 24.5385 80.5247 24.1742C80.2834 23.9441 79.7945 24.1002 79.7945 24.43V24.9221C79.7945 25.1457 79.6091 25.327 79.3805 25.327H77.395C77.1665 25.327 76.9811 25.1457 76.9811 24.9221V4.31455C76.9811 4.09095 77.1665 3.90967 77.395 3.90967H79.3712C79.5998 3.90967 79.7851 4.09095 79.7851 4.31455V11.5676C79.7851 11.8973 80.2753 12.0545 80.5172 11.825C80.9021 11.46 81.3555 11.145 81.8739 10.88C82.7912 10.4214 83.8004 10.192 84.9013 10.192C86.8788 10.192 88.5504 10.9498 89.9164 12.4653C91.323 14.0007 92.0263 15.8453 92.0263 17.9988C92.0263 20.1723 91.323 22.0168 89.9164 23.5323C88.5504 25.0478 86.8788 25.8055 84.9013 25.8055ZM84.4425 23.2931C85.7881 23.2931 86.9195 22.7946 87.837 21.7975C88.7543 20.8205 89.2131 19.5542 89.2131 17.9988C89.2131 16.4634 88.7543 15.1972 87.837 14.2001C86.9195 13.2031 85.7881 12.7046 84.4425 12.7046C83.0766 12.7046 81.9351 13.2031 81.0176 14.2001C80.1206 15.1972 79.6721 16.4634 79.6721 17.9988C79.6721 19.5542 80.1206 20.8304 81.0176 21.8274C81.9351 22.8045 83.0766 23.2931 84.4425 23.2931ZM67.3138 25.8055C65.1121 25.8055 63.2977 25.0678 61.8707 23.5922C60.4437 22.1166 59.7301 20.2522 59.7301 17.9988C59.7301 15.7655 60.4232 13.9109 61.8095 12.4354C63.1959 10.9398 64.9694 10.192 67.1304 10.192C69.3525 10.192 71.116 10.8999 72.4207 12.3157C73.8267 13.7968 74.499 16.0245 74.4109 18.0505C74.3996 18.3104 74.1754 18.5073 73.9095 18.5073H63.1101C62.8331 18.5073 62.6088 18.7313 62.6375 19.0006C62.7662 20.2103 63.2445 21.2024 64.0724 21.977C65.0102 22.8543 66.1314 23.2931 67.4362 23.2931C69.1008 23.2931 70.4319 22.5378 71.4296 21.0269C71.5629 20.825 71.8283 20.743 72.0493 20.8484L73.7302 21.6504C73.9671 21.7635 74.0621 22.0471 73.9248 22.2672C73.2751 23.3094 72.4168 24.1399 71.3504 24.7587C70.168 25.4566 68.8224 25.8055 67.3138 25.8055ZM62.9814 15.6564C62.8819 15.9482 63.117 16.2341 63.4314 16.2341H70.8799C71.1666 16.2341 71.3957 15.994 71.3375 15.7194C71.1705 14.9311 70.7671 14.2651 70.1272 13.7215C69.3729 13.0435 68.3535 12.7046 67.0693 12.7046C66.0091 12.7046 65.0918 13.0236 64.3171 13.6617C63.703 14.1812 63.2577 14.8462 62.9814 15.6564ZM58.8677 11.2328C58.9592 10.9551 58.7474 10.6706 58.4491 10.6706H56.5074C56.3124 10.6706 56.1407 10.7962 56.0855 10.9792L53.2218 20.4879C53.1069 20.8691 52.5576 20.8771 52.4312 20.4992L49.2443 10.9671C49.1852 10.7902 49.0164 10.6706 48.8263 10.6706H46.5581C46.3684 10.6706 46.2 10.7898 46.1405 10.9661L42.9247 20.5056C42.7976 20.8827 42.2492 20.8741 42.1346 20.4932L39.2692 10.9792C39.214 10.7962 39.0422 10.6706 38.8472 10.6706H36.8444C36.5461 10.6706 36.3343 10.9551 36.4258 11.2328L40.9738 25.0288C41.0324 25.2066 41.2016 25.327 41.3924 25.327H43.5956C43.7865 25.327 43.9557 25.2065 44.0143 25.0285L47.2238 15.2732C47.3468 14.8992 47.8875 14.8986 48.0116 15.2723L51.2482 25.0296C51.307 25.207 51.4759 25.327 51.6666 25.327H53.9011C54.0921 25.327 54.2611 25.2066 54.3197 25.0288L58.8677 11.2328ZM146.033 24.4596C146.848 25.1975 147.867 25.5663 149.09 25.5663C149.9 25.5663 150.625 25.4776 151.267 25.3002C151.486 25.2397 151.597 25.0081 151.521 24.7982L150.921 23.1376C150.84 22.915 150.584 22.8075 150.353 22.8787C150.29 22.898 150.226 22.9165 150.161 22.9342C149.956 22.9741 149.742 22.9939 149.518 22.9939C149.029 22.9939 148.59 22.8245 148.203 22.4855C147.816 22.1265 147.623 21.4585 147.623 20.4815V13.588C147.623 13.3644 147.808 13.1831 148.036 13.1831H150.878C151.107 13.1831 151.292 13.0019 151.292 12.7783V11.0755C151.292 10.8519 151.107 10.6706 150.878 10.6706H148.036C147.808 10.6706 147.623 10.4893 147.623 10.2657V4.31455C147.623 4.09095 147.437 3.90967 147.208 3.90967H145.223C144.994 3.90967 144.809 4.09095 144.809 4.31455V10.2657C144.809 10.4893 144.624 10.6706 144.394 10.6706H142.593C142.365 10.6706 142.18 10.8519 142.18 11.0755V12.7783C142.18 13.0019 142.365 13.1831 142.593 13.1831H144.394C144.624 13.1831 144.809 13.3644 144.809 13.588V21.3787C144.829 22.6948 145.237 23.7218 146.033 24.4596ZM105.854 24.0109C107.22 22.8145 107.903 21.319 107.903 19.5243C107.903 18.4275 107.586 17.4405 106.955 16.5631C106.664 16.1459 106.246 15.6156 105.02 14.9436C104.762 14.8017 104.755 14.4234 105 14.2592C106.466 13.2762 107.199 11.788 107.199 10.0425C107.199 8.38742 106.577 7.04142 105.334 6.0045C104.07 4.9277 102.51 4.3893 100.655 4.3893C99.1669 4.3893 97.8724 4.77814 96.7715 5.55583C95.7906 6.24881 95.0606 7.13177 94.5814 8.20473C94.4821 8.42705 94.5961 8.68101 94.8245 8.77563L96.5629 9.49577C96.8091 9.59776 97.0904 9.47518 97.2008 9.23704C97.8857 7.76 99.0371 7.02148 100.655 7.02148C101.756 7.02148 102.643 7.30065 103.316 7.85899C103.988 8.41732 104.325 9.14515 104.325 10.0425C104.325 11.0196 103.968 11.8172 103.254 12.4354C102.541 13.0336 101.624 13.3327 100.502 13.3327H99.3778C99.1206 13.3327 98.9121 13.5366 98.9121 13.7882V15.4495C98.9121 15.7012 99.1206 15.905 99.3778 15.905H100.716C101.899 15.905 102.908 16.2541 103.744 16.9519C104.6 17.6499 105.028 18.5073 105.028 19.5243C105.028 20.5412 104.62 21.4087 103.805 22.1265C102.969 22.8245 101.98 23.1734 100.839 23.1734C99.7989 23.1734 98.9019 22.8743 98.1476 22.2761C97.5229 21.7499 97.0459 21.0359 96.7166 20.1341C96.6227 19.8766 96.3301 19.7365 96.0721 19.8417L94.3712 20.5349C94.1531 20.6238 94.0363 20.8589 94.1127 21.0775C94.5881 22.4368 95.4133 23.5542 96.5881 24.4297C97.852 25.3469 99.2689 25.8055 100.839 25.8055C102.836 25.8055 104.508 25.2074 105.854 24.0109ZM112.895 20.8404C112.895 20.0427 113.272 19.3747 114.026 18.8363C114.801 18.298 115.759 18.0288 116.901 18.0288C118.365 18.0288 119.528 18.3238 120.389 18.914C120.506 18.994 120.572 19.127 120.564 19.2662C120.508 20.3307 120.041 21.2642 119.163 22.0668C118.246 22.9241 117.196 23.3528 116.014 23.3528C115.178 23.3528 114.444 23.1136 113.812 22.6351C113.2 22.1565 112.895 21.5582 112.895 20.8404ZM121.457 11.8371C120.254 10.7404 118.613 10.192 116.534 10.192C114.027 10.192 112.095 11.0355 110.737 12.7224C110.591 12.904 110.646 13.1665 110.846 13.2897L112.62 14.3825C112.808 14.4979 113.054 14.4472 113.192 14.2779C114.083 13.1891 115.248 12.6447 116.687 12.6447C117.726 12.6447 118.633 12.9837 119.408 13.6617C120.188 14.3239 120.464 15.1199 120.543 16.0189C120.57 16.3279 120.225 16.5277 119.933 16.4082C118.964 16.0129 117.801 15.8153 116.442 15.8153C114.485 15.8153 112.915 16.264 111.733 17.1614C110.571 18.0586 109.99 19.265 109.99 20.7805C109.99 22.2162 110.54 23.4127 111.641 24.3699C112.762 25.327 114.148 25.8055 115.8 25.8055C117.736 25.8055 119.286 24.968 120.448 23.2931V24.9221C120.448 25.1457 120.633 25.327 120.862 25.327H122.847C123.076 25.327 123.261 25.1457 123.261 24.9221V16.2938C123.261 14.3995 122.66 12.9139 121.457 11.8371ZM139.584 24.8968C139.584 25.1345 139.387 25.327 139.144 25.327H137.21C136.967 25.327 136.77 25.1345 136.77 24.8968V24.4163C136.77 24.1064 136.29 23.9577 136.065 24.1751C135.71 24.5166 135.284 24.8208 134.783 25.0878C133.906 25.5663 132.989 25.8055 132.03 25.8055C130.196 25.8055 128.779 25.2971 127.78 24.2801C126.801 23.2432 126.312 21.7776 126.312 19.8832V11.1008C126.312 10.8632 126.509 10.6706 126.752 10.6706H128.685C128.928 10.6706 129.125 10.8632 129.125 11.1008V19.7038C129.186 22.0966 130.42 23.2931 132.825 23.2931C133.947 23.2931 134.884 22.8543 135.638 21.977C136.394 21.0796 136.77 20.0128 136.77 18.7765V11.1008C136.77 10.8632 136.967 10.6706 137.21 10.6706H139.144C139.387 10.6706 139.584 10.8632 139.584 11.1008V24.8968ZM154.117 4.31455C154.117 4.09095 154.302 3.90967 154.532 3.90967H156.517C156.745 3.90967 156.93 4.09095 156.93 4.31455V11.5813C156.93 11.8913 157.408 12.0387 157.632 11.8198C157.982 11.4795 158.4 11.1762 158.888 10.9099C159.784 10.4313 160.712 10.192 161.67 10.192C163.506 10.192 164.912 10.7105 165.89 11.7474C166.889 12.7644 167.389 14.2201 167.389 16.1144V24.9221C167.389 25.1457 167.204 25.327 166.975 25.327H164.99C164.76 25.327 164.575 25.1457 164.575 24.9221V16.6528C164.575 14.0206 163.383 12.7046 160.997 12.7046C159.856 12.7046 158.888 13.1732 158.093 14.1104C157.318 15.0276 156.93 16.1045 156.93 17.3407V24.9221C156.93 25.1457 156.745 25.327 156.517 25.327H154.532C154.302 25.327 154.117 25.1457 154.117 24.9221V4.31455Z" fill="#0C4088"/>
<path d="M25.3684 23.0038C25.5322 23.6115 26.3993 23.6115 26.5632 23.0038L31.2773 5.50646C31.4944 4.70082 30.8839 3.90967 30.0452 3.90967H27.1388C26.5615 3.90967 26.0562 4.29529 25.9067 4.84984L23.2483 14.7169C23.2115 14.8537 23.2115 14.9979 23.2483 15.1347L25.3684 23.0038Z" fill="#0C4088"/>
<path d="M8.89195 14.7041C8.92882 14.8409 8.92882 14.9851 8.89195 15.1219L6.77183 22.9909C6.60809 23.5987 5.74092 23.5987 5.57717 22.9909L0.866428 5.50646C0.649368 4.70082 1.25978 3.90967 2.09843 3.90967H5.00499C5.58227 3.90967 6.08757 4.29529 6.23699 4.84984L8.89195 14.7041Z" fill="#0C4088"/>
<path d="M12.8654 26.8499C12.7211 27.3871 12.2331 27.7606 11.6756 27.7606H8.7012C7.89128 27.7606 7.30178 26.9942 7.5114 26.2138L13.2351 4.90573C13.393 4.3182 13.9267 3.90967 14.5365 3.90967H17.996C18.6057 3.90967 19.1395 4.3182 19.2974 4.90573L25.0211 26.2138C25.2307 26.9942 24.6411 27.7606 23.8313 27.7606H20.8568C20.2994 27.7606 19.8113 27.3871 19.667 26.8499L16.8426 16.3349C16.6845 15.7468 15.8479 15.7468 15.6899 16.3349L12.8654 26.8499Z" fill="#0C4088"/>
<path d="M15.2223 24.6329C15.0095 24.6329 14.8545 24.4418 14.9097 24.2473L15.9542 20.5589C16.0399 20.2561 16.4938 20.2561 16.5796 20.5589L17.6242 24.2473C17.6793 24.4418 17.5244 24.6329 17.3115 24.6329H15.2223Z" fill="#0C4088"/>
</g>
<defs>
<clipPath id="clip0_4740_10792">
<rect width="166.957" height="30" fill="white" transform="translate(0.431641)"/>
</clipPath>
</defs>
</svg>
