<svg width="34" height="28" viewBox="0 0 34 28" fill="none" xmlns="http://www.w3.org/2000/svg">
<path d="M13.6401 15.8114V27.9991H0V18.3753C0 13.1718 0.757781 9.39557 2.26071 7.05908C4.24357 3.95218 7.37573 1.60306 11.6572 0.0117188L14.7641 4.09111C12.175 4.98781 10.2679 6.31393 9.04285 8.08208C7.81777 9.85024 7.13577 12.4267 6.99684 15.8114H13.6401Z" fill="#0C4088"/>
<path d="M32.2963 15.8124V28H18.6562V18.3762C18.6562 13.1728 19.414 9.39648 20.917 7.05999C22.8998 3.95309 26.032 1.60397 30.3134 0L33.4203 4.07939C30.8313 4.97609 28.9242 6.30221 27.6991 8.07037C26.474 9.83852 25.792 12.415 25.6531 15.7997H32.2963V15.8124Z" fill="#0C4088"/>
</svg>
