<svg width="34" height="28" viewBox="0 0 34 28" fill="none" xmlns="http://www.w3.org/2000/svg">
<path d="M19.7799 12.1886L19.7799 0.00091052L33.4199 0.000911713L33.4199 9.62473C33.4199 14.8282 32.6621 18.6044 31.1592 20.9409C29.1763 24.0478 26.0442 26.3969 21.7627 27.9883L18.6558 23.9089C21.2449 23.0122 23.152 21.6861 24.3771 19.9179C25.6022 18.1498 26.2842 15.5733 26.4231 12.1886L19.7799 12.1886Z" fill="#0C4088"/>
<path d="M1.12362 12.1876L1.12362 -1.19245e-06L14.7637 0L14.7637 9.62382C14.7637 14.8272 14.0059 18.6035 12.503 20.94C10.5201 24.0469 7.38794 26.396 3.10648 28L-0.000421167 23.9206C2.58866 23.0239 4.49574 21.6978 5.72082 19.9296C6.9459 18.1615 7.62791 15.585 7.76683 12.2003L1.12362 12.2003L1.12362 12.1876Z" fill="#0C4088"/>
</svg>
